<?xml version="1.0" encoding="utf-8"?>
<!-- Generator: Adobe Illustrator 16.0.0, SVG Export Plug-In . SVG Version: 6.00 Build 0)  -->
<!DOCTYPE svg PUBLIC "-//W3C//DTD SVG 1.1//EN" "http://www.w3.org/Graphics/SVG/1.1/DTD/svg11.dtd">
<svg version="1.1" id="Layer_1" xmlns="http://www.w3.org/2000/svg" xmlns:xlink="http://www.w3.org/1999/xlink" x="0px" y="0px"
	 width="566px" height="566px" viewBox="0 0 566 566" enable-background="new 0 0 566 566" xml:space="preserve">
<g>
	<defs>
		<path id="SVGID_1_" d="M283.69,0c-156.298,0-283,126.704-283,283c0,156.299,126.702,283,283,283
			c156.295,0,282.998-126.701,282.998-283C566.688,126.704,439.985,0,283.69,0z M282.446,319c-19.882,0-36-16.117-36-36
			c0-19.882,16.118-36,36-36c19.882,0,36,16.118,36,36C318.446,302.883,302.328,319,282.446,319z"/>
	</defs>
	<clipPath id="SVGID_2_">
		<use xlink:href="#SVGID_1_"  overflow="visible"/>
	</clipPath>
	<g clip-path="url(#SVGID_2_)">
		<path fill="#366C6C" d="M283.595,0c-156.298,0-283,126.704-283,283c0,156.299,126.702,283,283,283
			c156.296,0,282.999-126.701,282.999-283C566.594,126.704,439.891,0,283.595,0z M282.352,319c-19.882,0-36-16.117-36-36
			c0-19.882,16.118-36,36-36s36,16.118,36,36C318.352,302.883,302.234,319,282.352,319z"/>
		<g id="logo">
			<g opacity="0.8" enable-background="new    ">
				<path fill="#FFFFFF" d="M242.266,171.042c0,1.535,0.004,2.728,0.012,3.576c0.008,0.852,0.026,1.628,0.057,2.335
					c0.029,0.692,0.07,1.17,0.124,1.433c0.053,0.264,0.146,0.53,0.281,0.801c-0.255-0.045-0.511-0.078-0.767-0.103
					c-0.256-0.021-0.549-0.032-0.88-0.032c-0.316,0-0.587,0.011-0.813,0.032c-0.226,0.023-0.488,0.049-0.789,0.08l-0.113,0.022
					c0.135-0.331,0.229-0.635,0.282-0.914c0.053-0.277,0.086-0.727,0.102-1.343c0.045-1.068,0.068-2.181,0.068-3.34
					c0-0.27,0-0.684,0-1.24c-0.017-0.692-0.022-1.113-0.022-1.265v-2.911c-0.016-0.812-0.026-1.379-0.034-1.702
					s-0.025-0.765-0.056-1.32v-0.045c-0.316-0.016-0.681-0.03-1.095-0.045c-0.414-0.016-0.786-0.023-1.117-0.023
					c-0.542,0-0.934,0.072-1.173,0.215c-0.241,0.145-0.451,0.335-0.632,0.575l-0.022,0.023c0.015-0.21,0.022-0.444,0.022-0.699
					c0-0.256,0.007-0.489,0.022-0.7c0-0.375-0.016-0.782-0.045-1.219c0-0.029,0-0.075,0-0.135c0.12,0,0.331,0.015,0.632,0.045
					c0.392,0.03,0.685,0.053,0.88,0.067c0.934,0.03,1.986,0.045,3.159,0.045c0.707,0,1.564-0.008,2.572-0.022
					c0.722-0.014,1.396-0.034,2.02-0.056c0.624-0.023,1.096-0.049,1.41-0.079c-0.016,0.167-0.03,0.354-0.045,0.563
					c-0.015,0.211-0.022,0.467-0.022,0.769c0,0.27,0.004,0.477,0.012,0.619c0.007,0.144,0.025,0.357,0.056,0.644v0.045
					c-0.166-0.21-0.369-0.373-0.608-0.485c-0.24-0.111-0.654-0.169-1.241-0.169c-0.692,0-1.294,0.008-1.806,0.023
					c-0.149,0.016-0.271,0.021-0.36,0.021l-0.068,2.956v2.957H242.266z"/>
				<path fill="#FFFFFF" d="M255.51,176.051c0,0.919,0.031,1.576,0.09,1.976c0.062,0.397,0.181,0.778,0.361,1.139
					c-0.255-0.045-0.496-0.075-0.722-0.09s-0.488-0.021-0.789-0.021c-0.559,0-1.113,0.036-1.671,0.111
					c0.106-0.181,0.178-0.338,0.216-0.474c0.038-0.135,0.071-0.346,0.102-0.632c0.045-0.512,0.071-1.161,0.079-1.951
					s0.011-2.155,0.011-4.095c0-1.31-0.078-2.211-0.236-2.708c-0.159-0.496-0.575-0.745-1.253-0.745
					c-0.572,0-1.009,0.162-1.309,0.485c-0.302,0.323-0.511,0.733-0.632,1.229c-0.106,0.421-0.173,0.99-0.203,1.704
					c-0.031,0.715-0.045,2.005-0.045,3.869v0.135c0.014,0.633,0.025,1.099,0.034,1.398c0.007,0.302,0.021,0.554,0.044,0.757
					c0.022,0.202,0.049,0.376,0.08,0.519c0.03,0.143,0.083,0.313,0.159,0.508c-0.241-0.045-0.459-0.075-0.655-0.09
					s-0.43-0.021-0.699-0.021c-0.376,0-0.806,0.028-1.286,0.089c-0.166,0.016-0.271,0.022-0.315,0.022
					c0.09-0.149,0.153-0.29,0.191-0.417c0.036-0.128,0.063-0.319,0.078-0.575c0.015-0.136,0.026-0.252,0.034-0.351
					c0.007-0.097,0.014-0.251,0.022-0.461c0.008-0.21,0.026-0.903,0.057-2.077v-0.135l0.022-7.897c0-0.255,0-0.504,0-0.745
					c0-0.24-0.016-0.53-0.046-0.868c-0.029-0.339-0.066-0.661-0.111-0.971c-0.046-0.309-0.113-0.561-0.204-0.757
					c-0.09-0.225-0.248-0.429-0.475-0.607l-0.045-0.046c0.828-0.09,1.47-0.203,1.931-0.339c0.458-0.136,0.904-0.331,1.342-0.586
					c-0.044,0.496-0.075,0.921-0.09,1.275c-0.017,0.354-0.03,0.98-0.044,1.884v0.293l-0.023,3.384c0.12-0.301,0.24-0.566,0.36-0.801
					c0.121-0.231,0.297-0.474,0.53-0.722c0.234-0.248,0.534-0.458,0.902-0.632c0.369-0.173,0.816-0.26,1.343-0.26
					c0.842,0,1.513,0.203,2.007,0.609c0.377,0.301,0.617,0.67,0.724,1.105c0.104,0.438,0.158,1.105,0.158,2.009L255.51,176.051z"/>
				<path fill="#FFFFFF" d="M265.957,173.298h-6.002c0,0.437,0.03,0.873,0.09,1.31c0.061,0.437,0.201,0.888,0.419,1.354
					c0.218,0.467,0.578,0.857,1.082,1.174c0.505,0.314,1.164,0.474,1.975,0.474c0.588,0,1.059-0.062,1.41-0.181
					c0.354-0.12,0.696-0.285,1.027-0.497l-0.022,0.067c-0.06,0.375-0.109,0.7-0.147,0.972c-0.037,0.27-0.056,0.602-0.056,0.992
					c-0.016,0-0.03,0.008-0.046,0.022c-0.331,0.09-0.688,0.165-1.07,0.226c-0.385,0.061-0.907,0.09-1.569,0.09
					c-1.79,0-3.156-0.508-4.094-1.522c-0.941-1.015-1.41-2.635-1.41-4.862c0-0.526,0.033-1.091,0.102-1.691
					c0.067-0.603,0.244-1.253,0.53-1.952c0.285-0.699,0.752-1.297,1.397-1.794c0.648-0.496,1.506-0.745,2.574-0.745
					c0.796,0,1.454,0.143,1.975,0.43c0.518,0.285,0.913,0.669,1.184,1.15c0.271,0.48,0.456,1.022,0.553,1.625
					c0.098,0.602,0.148,1.277,0.148,2.029L265.957,173.298z M263.769,171.741c0-0.557-0.021-1.038-0.067-1.444
					c-0.044-0.405-0.128-0.759-0.248-1.06c-0.285-0.692-0.796-1.038-1.535-1.038c-0.736,0-1.271,0.354-1.603,1.06
					c-0.134,0.316-0.234,0.686-0.304,1.106s-0.102,0.879-0.102,1.376H263.769L263.769,171.741z"/>
				<path fill="#FFFFFF" d="M281.82,174.742c0,1.053,0.006,1.756,0.013,2.11c0.009,0.354,0.035,0.681,0.079,0.98
					c0.029,0.36,0.086,0.631,0.169,0.813c0.082,0.181,0.198,0.346,0.351,0.496c-0.438-0.061-0.903-0.089-1.398-0.089
					c-0.361,0-0.845,0.028-1.445,0.089l-0.065-2.144c-0.137,0.271-0.274,0.52-0.419,0.745c-0.144,0.227-0.335,0.458-0.575,0.7
					c-0.239,0.24-0.537,0.438-0.891,0.597c-0.354,0.159-0.764,0.237-1.23,0.237c-0.257,0-0.508-0.014-0.757-0.045
					c-0.247-0.03-0.506-0.104-0.776-0.226c-0.512-0.226-0.868-0.537-1.071-0.937s-0.306-0.974-0.306-1.728l0.023-4.985v-0.383
					c-0.016-0.889-0.025-1.493-0.035-1.817c-0.007-0.323-0.026-0.612-0.055-0.868c-0.062-0.391-0.148-0.659-0.26-0.801
					c-0.112-0.143-0.268-0.26-0.462-0.35h-0.022c0.888,0,1.571-0.045,2.054-0.137c0.48-0.09,0.91-0.21,1.285-0.359
					c-0.075,0.346-0.124,0.643-0.146,0.892c-0.022,0.248-0.035,0.628-0.035,1.139l-0.022,5.077c0,0.917,0,1.496,0,1.737
					c0,0.24,0.017,0.458,0.047,0.654c0.013,0.149,0.036,0.293,0.065,0.429c0.031,0.136,0.091,0.279,0.181,0.429
					c0.092,0.151,0.233,0.279,0.431,0.383c0.195,0.106,0.442,0.158,0.745,0.158c0.45,0,0.814-0.094,1.093-0.282
					c0.279-0.188,0.489-0.424,0.632-0.71c0.144-0.285,0.24-0.57,0.294-0.856c0.053-0.285,0.086-0.586,0.102-0.902
					c0.062-0.587,0.095-1.236,0.102-1.952c0.009-0.714,0.014-1.808,0.014-3.282c0-0.872-0.047-1.446-0.137-1.726
					c-0.091-0.279-0.263-0.508-0.519-0.688c0.779-0.016,1.387-0.057,1.815-0.125c0.427-0.067,0.877-0.198,1.342-0.396
					c-0.044,0.271-0.079,0.52-0.102,0.745s-0.037,0.466-0.044,0.722c-0.009,0.258-0.017,0.674-0.024,1.252
					c-0.007,0.58-0.018,1.262-0.032,2.042v0.362v2.998H281.82z"/>
				<path fill="#FFFFFF" d="M292.628,176.93v0.158c0.013,0.496,0.044,0.899,0.088,1.206c0.046,0.31,0.128,0.6,0.249,0.87
					c-0.135-0.016-0.249-0.031-0.337-0.045c-0.212-0.014-0.424-0.03-0.633-0.045c-0.212-0.015-0.461-0.021-0.745-0.021
					c-0.24,0-0.451,0.007-0.632,0.021c-0.182,0.015-0.392,0.045-0.634,0.09l0.024-0.09c0.044-0.12,0.079-0.229,0.102-0.327
					c0.021-0.098,0.039-0.222,0.056-0.373c0.016-0.104,0.03-0.301,0.047-0.586c0.015-0.287,0.028-0.557,0.044-0.813
					c0.016-0.603,0.023-1.089,0.023-1.467v-2.437c0-0.781-0.005-1.443-0.014-1.985c-0.007-0.541-0.026-0.925-0.055-1.149
					c-0.017-0.166-0.042-0.32-0.08-0.463c-0.037-0.144-0.105-0.29-0.202-0.44c-0.1-0.149-0.245-0.273-0.44-0.372
					c-0.195-0.098-0.442-0.146-0.744-0.146c-0.571,0-1,0.166-1.285,0.497c-0.286,0.331-0.482,0.736-0.588,1.219
					c-0.044,0.195-0.079,0.414-0.103,0.654c-0.021,0.239-0.042,0.533-0.055,0.88c-0.016,0.48-0.024,1.632-0.024,3.451v0.091
					c0.017,0.901,0.024,1.519,0.024,1.85c0,0.332,0.007,0.614,0.021,0.846c0.017,0.234,0.038,0.43,0.068,0.587
					c0.029,0.158,0.075,0.35,0.135,0.575c-0.512-0.06-1.021-0.09-1.533-0.09c-0.256,0-0.488,0.007-0.7,0.023
					c-0.209,0.014-0.429,0.037-0.654,0.066v-0.022c0.09-0.21,0.158-0.417,0.202-0.62c0.047-0.203,0.077-0.589,0.091-1.161
					c0-0.09,0.009-0.481,0.024-1.173c0.027-1.37,0.044-2.498,0.044-3.385c0-1.009-0.012-1.885-0.033-2.629s-0.059-1.274-0.103-1.591
					c-0.046-0.391-0.111-0.67-0.201-0.835c-0.092-0.165-0.22-0.322-0.387-0.474c0.813-0.045,1.419-0.12,1.817-0.227
					c0.398-0.104,0.785-0.256,1.161-0.45v2.391l0.021-0.044c0.105-0.271,0.217-0.516,0.328-0.734
					c0.112-0.218,0.282-0.443,0.507-0.676c0.229-0.233,0.522-0.425,0.894-0.576c0.368-0.149,0.814-0.226,1.342-0.226
					c0.661,0,1.192,0.105,1.591,0.315c0.399,0.212,0.687,0.481,0.857,0.813c0.172,0.332,0.286,0.678,0.339,1.039
					c0.053,0.36,0.08,0.767,0.08,1.217v0.023v6.789H292.628z"/>
				<path fill="#FFFFFF" d="M297.636,172.621c0,0.888,0,1.482,0,1.783c0,0.902,0.007,1.613,0.022,2.132
					c0.015,0.52,0.036,0.94,0.067,1.264c0.028,0.324,0.07,0.583,0.123,0.778c0.053,0.196,0.132,0.393,0.238,0.587
					c-0.258-0.045-0.482-0.075-0.679-0.09c-0.194-0.015-0.443-0.021-0.743-0.021c-0.588,0-1.167,0.036-1.738,0.111
					c0.121-0.24,0.207-0.48,0.26-0.722c0.054-0.241,0.093-0.7,0.124-1.377c0.03-0.496,0.048-1.139,0.058-1.929
					c0.007-0.79,0.012-1.599,0.012-2.426c0-0.946-0.009-1.806-0.022-2.571c-0.016-0.768-0.046-1.293-0.09-1.58
					c-0.047-0.392-0.115-0.658-0.205-0.801c-0.088-0.143-0.225-0.282-0.404-0.418h-0.022c0.917-0.089,1.575-0.18,1.975-0.27
					c0.398-0.09,0.815-0.241,1.251-0.452c-0.09,0.466-0.146,0.883-0.169,1.252c-0.021,0.368-0.032,0.951-0.032,1.749
					C297.658,170.463,297.652,171.464,297.636,172.621z M297.398,165.31c-0.187,0.271-0.506,0.406-0.958,0.406
					c-0.39,0-0.697-0.131-0.926-0.396c-0.225-0.262-0.337-0.613-0.337-1.049c0-0.405,0.093-0.765,0.282-1.072
					c0.188-0.307,0.521-0.461,1.003-0.461c0.451,0,0.769,0.134,0.947,0.405c0.181,0.271,0.271,0.617,0.271,1.038
					C297.68,164.664,297.588,165.039,297.398,165.31z"/>
				<path fill="#FFFFFF" d="M306.842,173.457c-0.105,0.421-0.219,0.854-0.339,1.296c-0.121,0.444-0.215,0.807-0.282,1.083
					c-0.068,0.279-0.15,0.637-0.247,1.072c-0.099,0.437-0.27,1.181-0.509,2.233h-0.022c-0.255-0.03-0.493-0.057-0.711-0.078
					c-0.219-0.023-0.477-0.034-0.778-0.034c-0.301,0-0.549,0.008-0.744,0.023c-0.195,0.014-0.442,0.036-0.744,0.066
					c-0.031,0-0.082,0.008-0.156,0.022c0-0.03-0.009-0.061-0.024-0.089c-0.074-0.438-0.135-0.765-0.181-0.982
					c-0.044-0.218-0.128-0.583-0.247-1.095l-1.468-5.935c-0.016-0.075-0.03-0.128-0.044-0.158c-0.256-0.963-0.484-1.771-0.689-2.426
					c-0.203-0.654-0.426-1.177-0.665-1.567h0.067c0.287,0.061,0.489,0.09,0.607,0.09c0.152,0.016,0.399,0.021,0.745,0.021
					c0.377,0,0.707-0.011,0.993-0.032c0.287-0.023,0.597-0.05,0.926-0.079c-0.062,0.194-0.09,0.398-0.09,0.608
					c0,0.437,0.105,1.218,0.314,2.348c0.212,1.128,0.563,2.857,1.061,5.188l0.521,2.189l0.521-2.211
					c0.014-0.091,0.044-0.227,0.088-0.407c0.228-0.902,0.426-1.7,0.601-2.393c0.172-0.691,0.325-1.346,0.462-1.963
					c0.135-0.616,0.247-1.173,0.338-1.669c0.09-0.497,0.136-0.856,0.136-1.083c0-0.256-0.062-0.459-0.181-0.608
					c0.06,0,0.172,0.016,0.338,0.045c0.105,0.016,0.205,0.029,0.295,0.045c0.061,0,0.156,0,0.293,0
					c0.165,0.016,0.3,0.021,0.405,0.021c0.314,0,0.586-0.011,0.813-0.032c0.226-0.023,0.458-0.05,0.698-0.079
					c-0.148,0.271-0.282,0.525-0.395,0.767s-0.211,0.481-0.293,0.723c-0.084,0.24-0.175,0.541-0.271,0.902
					c-0.1,0.36-0.214,0.782-0.351,1.264L306.842,173.457z"/>
				<path fill="#FFFFFF" d="M317.65,173.298h-6.002c0,0.437,0.028,0.873,0.091,1.31c0.061,0.437,0.198,0.888,0.416,1.354
					c0.218,0.467,0.58,0.857,1.084,1.174c0.503,0.314,1.161,0.474,1.976,0.474c0.586,0,1.056-0.062,1.409-0.181
					c0.354-0.12,0.694-0.285,1.026-0.497l-0.022,0.067c-0.061,0.375-0.108,0.7-0.146,0.972c-0.038,0.27-0.058,0.602-0.058,0.992
					c-0.017,0-0.028,0.008-0.044,0.022c-0.331,0.09-0.689,0.165-1.073,0.226s-0.905,0.09-1.566,0.09
					c-1.792,0-3.155-0.508-4.097-1.522c-0.94-1.015-1.41-2.635-1.41-4.862c0-0.526,0.035-1.091,0.102-1.691
					c0.068-0.603,0.244-1.253,0.531-1.952c0.284-0.699,0.751-1.297,1.399-1.794c0.646-0.496,1.502-0.745,2.571-0.745
					c0.797,0,1.455,0.143,1.974,0.43c0.521,0.285,0.915,0.669,1.186,1.15c0.271,0.48,0.454,1.022,0.555,1.625
					c0.097,0.602,0.146,1.277,0.146,2.029L317.65,173.298z M315.46,171.741c0-0.557-0.022-1.038-0.066-1.444
					c-0.046-0.405-0.128-0.759-0.249-1.06c-0.286-0.692-0.798-1.038-1.533-1.038c-0.738,0-1.271,0.354-1.603,1.06
					c-0.138,0.316-0.237,0.686-0.307,1.106c-0.065,0.421-0.102,0.879-0.102,1.376H315.46L315.46,171.741z"/>
				<path fill="#FFFFFF" d="M319.794,172.283c0-1.069-0.01-1.896-0.024-2.481c-0.016-0.588-0.049-1.054-0.102-1.399
					c-0.054-0.346-0.135-0.605-0.247-0.779c-0.114-0.172-0.275-0.304-0.486-0.394c0.558,0,1.088-0.038,1.591-0.113
					c0.505-0.076,1.059-0.233,1.659-0.474l-0.159,3.294c0.137-0.316,0.282-0.625,0.441-0.926c0.158-0.302,0.39-0.629,0.697-0.981
					c0.309-0.353,0.701-0.666,1.176-0.938c0.474-0.271,1.025-0.429,1.658-0.474c-0.212,0.768-0.332,1.58-0.36,2.438
					c-0.271-0.045-0.489-0.068-0.655-0.068c-0.136,0-0.319,0.02-0.553,0.057c-0.233,0.038-0.505,0.146-0.813,0.327
					s-0.593,0.466-0.856,0.857c-0.264,0.391-0.44,0.91-0.529,1.557c-0.03,0.256-0.062,0.603-0.09,1.038
					c-0.031,0.437-0.053,0.896-0.068,1.376c-0.016,0.769-0.021,1.513-0.021,2.234c0,0.631,0.018,1.17,0.056,1.612
					c0.037,0.444,0.125,0.816,0.26,1.117c-0.225-0.045-0.437-0.075-0.633-0.09c-0.194-0.015-0.427-0.021-0.698-0.021
					c-0.421,0-0.902,0.028-1.444,0.089l-0.136,0.022c0.075-0.181,0.129-0.342,0.159-0.484c0.028-0.144,0.054-0.365,0.065-0.667
					l0.115-3.068L319.794,172.283L319.794,172.283z"/>
				<path fill="#FFFFFF" d="M332.338,166.766c0.479,0.067,0.961,0.185,1.442,0.35c-0.148,0.301-0.265,0.591-0.339,0.868
					c-0.075,0.279-0.135,0.681-0.182,1.208c-0.179-0.227-0.385-0.402-0.619-0.53c-0.233-0.128-0.467-0.223-0.7-0.282
					c-0.23-0.061-0.428-0.098-0.586-0.113c-0.156-0.015-0.305-0.022-0.438-0.022c-0.648,0-1.134,0.162-1.457,0.485
					c-0.323,0.324-0.484,0.703-0.484,1.139c0,0.437,0.135,0.794,0.405,1.072c0.271,0.279,0.751,0.621,1.444,1.026
					c0.571,0.316,1.007,0.567,1.308,0.757c0.302,0.188,0.572,0.395,0.813,0.62c0.542,0.557,0.813,1.271,0.813,2.144
					c0,1.309-0.431,2.29-1.286,2.944c-0.857,0.653-2.032,0.98-3.521,0.98c-0.69,0-1.256-0.042-1.691-0.123
					c-0.437-0.084-0.835-0.184-1.196-0.305c0.181-0.346,0.315-0.669,0.405-0.971c0.091-0.301,0.166-0.699,0.228-1.195
					c0.209,0.255,0.502,0.48,0.879,0.676c0.377,0.196,0.889,0.294,1.534,0.294c0.707,0,1.266-0.173,1.67-0.519
					c0.405-0.347,0.61-0.774,0.61-1.287c0-0.24-0.031-0.443-0.091-0.609c-0.063-0.166-0.175-0.323-0.339-0.474
					c-0.165-0.149-0.389-0.313-0.666-0.484c-0.277-0.173-0.682-0.41-1.207-0.711c-0.361-0.226-0.675-0.428-0.938-0.608
					c-0.262-0.182-0.516-0.407-0.756-0.679c-0.24-0.27-0.438-0.583-0.586-0.936c-0.149-0.354-0.228-0.757-0.228-1.208
					c0-1.022,0.361-1.88,1.085-2.572c0.723-0.691,1.813-1.038,3.271-1.038C331.391,166.664,331.856,166.698,332.338,166.766z"/>
				<path fill="#FFFFFF" d="M336.693,172.406c0.826-0.654,2-0.981,3.52-0.981c0.271,0,0.609,0.017,1.016,0.046
					c0.181,0.016,0.309,0.022,0.384,0.022c0-0.572-0.012-1.016-0.033-1.332c-0.021-0.314-0.091-0.601-0.202-0.856
					c-0.112-0.257-0.303-0.455-0.563-0.6c-0.265-0.142-0.622-0.213-1.073-0.213c-0.602,0-1.177,0.102-1.726,0.304
					c-0.549,0.204-1.042,0.494-1.479,0.87c-0.09-0.437-0.188-0.782-0.293-1.038c-0.104-0.255-0.239-0.542-0.404-0.856
					c0.542-0.287,1.135-0.527,1.781-0.724c0.646-0.194,1.45-0.293,2.413-0.293c0.813,0,1.475,0.091,1.987,0.271
					c0.512,0.181,0.901,0.429,1.173,0.745c0.271,0.314,0.451,0.668,0.542,1.06c0.09,0.392,0.134,0.835,0.134,1.331l-0.021,4.604
					c0,0.736,0.004,1.298,0.011,1.681s0.021,0.793,0.033,1.229c0.03,0.392,0.077,0.682,0.137,0.869
					c0.061,0.188,0.165,0.396,0.314,0.621c-0.09,0-0.219-0.008-0.383-0.022c-0.315-0.03-0.564-0.044-0.745-0.044
					c-0.33,0-0.722,0.014-1.173,0.044c-0.074,0-0.181,0.008-0.316,0.022c-0.029-0.286-0.049-0.598-0.056-0.937
					c-0.01-0.338-0.012-0.823-0.012-1.456c-0.165,0.346-0.316,0.644-0.45,0.892c-0.138,0.248-0.324,0.497-0.564,0.745
					s-0.547,0.451-0.914,0.609c-0.368,0.156-0.794,0.236-1.274,0.236c-0.181,0-0.383-0.016-0.609-0.045
					c-0.226-0.03-0.458-0.098-0.698-0.203c-0.588-0.286-1.016-0.736-1.287-1.354c-0.271-0.617-0.404-1.316-0.404-2.099
					C335.45,174.11,335.864,173.061,336.693,172.406z M340.46,172.779c-0.286,0-0.575,0.023-0.868,0.068s-0.586,0.142-0.882,0.293
					c-0.294,0.149-0.533,0.383-0.721,0.699c-0.188,0.315-0.282,0.723-0.282,1.219c0,0.662,0.119,1.199,0.361,1.612
					c0.24,0.414,0.667,0.62,1.284,0.62c0.346,0,0.688-0.102,1.027-0.304c0.339-0.204,0.611-0.538,0.823-1.005
					c0.165-0.346,0.272-0.74,0.325-1.185c0.054-0.442,0.097-1.086,0.126-1.929v-0.09H340.46z"/>
				<path fill="#FFFFFF" d="M348.83,172.396c0,2.105,0.021,3.625,0.068,4.558c0.028,0.647,0.074,1.105,0.134,1.376
					c0.061,0.271,0.145,0.55,0.249,0.835c-0.24-0.045-0.474-0.075-0.7-0.09c-0.225-0.015-0.486-0.021-0.788-0.021
					c-0.361,0-0.671,0.011-0.927,0.032c-0.255,0.023-0.518,0.05-0.788,0.08l0.021-0.066c0.091-0.182,0.154-0.339,0.19-0.476
					c0.038-0.135,0.071-0.322,0.103-0.563c0.047-0.436,0.084-1.631,0.112-3.587c0.016-0.24,0.023-0.467,0.023-0.678v-3.926
					c0-1.563-0.009-2.674-0.023-3.329c-0.014-0.653-0.054-1.229-0.112-1.725c-0.075-0.527-0.172-0.888-0.293-1.083
					c-0.121-0.196-0.293-0.369-0.519-0.52c0.722-0.061,1.312-0.153,1.771-0.281c0.46-0.128,1.011-0.344,1.659-0.645
					c-0.044,0.316-0.075,0.606-0.091,0.868c-0.017,0.263-0.03,0.576-0.045,0.938c-0.016,0.525-0.029,1.888-0.046,4.084v0.09
					L348.83,172.396L348.83,172.396z"/>
				<path fill="#FFFFFF" d="M365.776,175.216c-0.119,0.723-0.342,1.396-0.666,2.021c-0.323,0.625-0.793,1.128-1.41,1.512
					c-0.615,0.383-1.397,0.575-2.347,0.575c-0.976,0-1.782-0.191-2.412-0.575c-0.633-0.384-1.102-0.88-1.41-1.49
					c-0.308-0.609-0.516-1.251-0.622-1.929c-0.104-0.676-0.157-1.414-0.157-2.211s0.058-1.549,0.17-2.256
					c0.111-0.707,0.33-1.376,0.653-2.007c0.323-0.632,0.803-1.142,1.433-1.524c0.633-0.383,1.438-0.575,2.415-0.575
					c0.947,0,1.729,0.174,2.347,0.52s1.08,0.806,1.389,1.376c0.31,0.572,0.519,1.208,0.632,1.907
					c0.112,0.699,0.169,1.471,0.169,2.313C365.955,173.712,365.897,174.494,365.776,175.216z M363.012,169.226
					c-0.339-0.715-0.868-1.072-1.591-1.072c-0.437,0-0.801,0.124-1.096,0.373c-0.293,0.248-0.521,0.604-0.688,1.071
					c-0.286,0.782-0.428,2.016-0.428,3.7c0,0.588,0.021,1.133,0.065,1.637c0.046,0.505,0.139,0.979,0.282,1.421
					c0.143,0.443,0.365,0.801,0.665,1.072c0.302,0.271,0.686,0.406,1.152,0.406c0.735,0,1.272-0.375,1.612-1.128
					c0.337-0.752,0.517-2.039,0.528-3.857C363.519,171.147,363.352,169.94,363.012,169.226z"/>
				<path fill="#FFFFFF" d="M370.334,181.083c0,0.917,0.025,1.546,0.078,1.884c0.055,0.339,0.161,0.681,0.326,1.027l-0.225-0.045
					c-0.211-0.031-0.377-0.053-0.495-0.068c-0.168-0.015-0.483-0.021-0.95-0.021c-0.314,0-0.577,0.011-0.789,0.034
					c-0.211,0.021-0.441,0.056-0.698,0.101l0.022-0.068c0.06-0.104,0.107-0.236,0.146-0.394c0.036-0.159,0.078-0.437,0.125-0.835
					c0.044-0.399,0.081-0.974,0.111-1.726c0.031-0.752,0.044-1.707,0.044-2.866v-3.136v-2.956c0-0.918-0.013-1.645-0.044-2.179
					c-0.03-0.532-0.074-0.966-0.134-1.297c-0.063-0.331-0.137-0.587-0.228-0.767c-0.091-0.182-0.219-0.347-0.384-0.497
					c0.872-0.014,1.526-0.083,1.963-0.203c0.438-0.12,0.843-0.279,1.22-0.474v2.819c0.134-0.346,0.272-0.653,0.416-0.925
					c0.144-0.271,0.335-0.545,0.574-0.824c0.242-0.277,0.552-0.507,0.927-0.688c0.377-0.182,0.818-0.271,1.331-0.271
					c0.828,0,1.488,0.215,1.986,0.645c0.495,0.428,0.854,0.946,1.07,1.557c0.219,0.609,0.353,1.17,0.406,1.681
					c0.053,0.512,0.079,1,0.079,1.467c0,0.828-0.068,1.64-0.203,2.437c-0.134,0.796-0.398,1.561-0.789,2.29
					c-0.393,0.73-0.967,1.328-1.729,1.793c-0.76,0.467-1.725,0.7-2.898,0.7c-0.193,0-0.383-0.003-0.564-0.011
					c-0.181-0.009-0.411-0.034-0.697-0.079L370.334,181.083L370.334,181.083z M370.334,177.653c0.135,0.061,0.286,0.104,0.451,0.136
					c0.165,0.029,0.374,0.045,0.631,0.045c0.737,0,1.335-0.135,1.796-0.406c0.458-0.271,0.805-0.632,1.038-1.083
					c0.23-0.452,0.386-0.937,0.46-1.455c0.076-0.52,0.114-1.103,0.114-1.749c0-0.437-0.021-0.88-0.058-1.332
					c-0.037-0.451-0.123-0.917-0.26-1.398c-0.136-0.48-0.354-0.884-0.654-1.208c-0.3-0.323-0.684-0.484-1.15-0.484
					c-0.468,0-0.877,0.181-1.229,0.54c-0.354,0.361-0.613,0.857-0.778,1.49c-0.09,0.285-0.158,0.631-0.202,1.038
					c-0.047,0.407-0.08,0.828-0.102,1.265c-0.024,0.437-0.04,0.815-0.047,1.139c-0.006,0.324-0.011,0.681-0.011,1.072V177.653
					L370.334,177.653z"/>
				<path fill="#FFFFFF" d="M387.189,173.298h-6.002c0,0.437,0.03,0.873,0.09,1.31c0.063,0.437,0.2,0.888,0.419,1.354
					c0.218,0.467,0.577,0.857,1.082,1.174c0.504,0.314,1.163,0.474,1.975,0.474c0.589,0,1.058-0.062,1.409-0.181
					c0.355-0.12,0.696-0.285,1.027-0.497l-0.022,0.067c-0.06,0.375-0.109,0.7-0.146,0.972c-0.037,0.27-0.055,0.602-0.055,0.992
					c-0.017,0-0.031,0.008-0.047,0.022c-0.33,0.09-0.688,0.165-1.07,0.226c-0.384,0.061-0.906,0.09-1.569,0.09
					c-1.789,0-3.155-0.508-4.094-1.522c-0.94-1.015-1.41-2.635-1.41-4.862c0-0.526,0.033-1.091,0.103-1.691
					c0.064-0.603,0.243-1.253,0.527-1.952c0.287-0.699,0.754-1.297,1.399-1.794c0.646-0.496,1.505-0.745,2.573-0.745
					c0.796,0,1.454,0.143,1.975,0.43c0.518,0.285,0.912,0.669,1.184,1.15c0.271,0.48,0.456,1.022,0.554,1.625
					c0.097,0.602,0.146,1.277,0.146,2.029L387.189,173.298z M385,171.741c0-0.557-0.021-1.038-0.068-1.444
					c-0.044-0.405-0.127-0.759-0.246-1.06c-0.287-0.692-0.798-1.038-1.536-1.038c-0.736,0-1.271,0.354-1.602,1.06
					c-0.136,0.316-0.236,0.686-0.306,1.106c-0.068,0.421-0.101,0.879-0.101,1.376H385L385,171.741z"/>
				<path fill="#FFFFFF" d="M389.331,172.283c0-1.069-0.009-1.896-0.023-2.481c-0.015-0.588-0.048-1.054-0.102-1.399
					c-0.053-0.346-0.135-0.605-0.246-0.779c-0.114-0.172-0.275-0.304-0.487-0.394c0.558,0,1.089-0.038,1.591-0.113
					c0.505-0.076,1.058-0.233,1.659-0.474l-0.158,3.294c0.137-0.316,0.282-0.625,0.44-0.926c0.158-0.302,0.391-0.629,0.697-0.981
					c0.31-0.354,0.701-0.666,1.176-0.938c0.474-0.271,1.026-0.429,1.658-0.474c-0.211,0.768-0.333,1.58-0.36,2.438
					c-0.271-0.045-0.489-0.068-0.654-0.068c-0.137,0-0.319,0.02-0.553,0.057c-0.234,0.038-0.505,0.146-0.813,0.327
					s-0.593,0.466-0.856,0.857c-0.263,0.391-0.44,0.91-0.528,1.557c-0.031,0.256-0.062,0.603-0.091,1.038
					c-0.03,0.437-0.053,0.896-0.068,1.376c-0.015,0.769-0.021,1.513-0.021,2.234c0,0.631,0.018,1.17,0.055,1.612
					c0.038,0.444,0.126,0.816,0.26,1.117c-0.225-0.045-0.436-0.075-0.632-0.09s-0.428-0.021-0.698-0.021
					c-0.421,0-0.902,0.028-1.445,0.089l-0.135,0.022c0.075-0.181,0.128-0.342,0.158-0.484c0.029-0.144,0.053-0.365,0.066-0.667
					l0.114-3.068v-2.66H389.331z"/>
				<path fill="#FFFFFF" d="M396.846,172.406c0.827-0.654,2.001-0.981,3.52-0.981c0.271,0,0.61,0.017,1.017,0.046
					c0.181,0.016,0.309,0.022,0.384,0.022c0-0.572-0.012-1.016-0.033-1.332c-0.021-0.314-0.091-0.601-0.203-0.856
					c-0.111-0.257-0.302-0.455-0.563-0.6c-0.265-0.142-0.621-0.213-1.072-0.213c-0.602,0-1.177,0.102-1.726,0.304
					c-0.55,0.204-1.042,0.494-1.479,0.87c-0.091-0.437-0.188-0.782-0.293-1.038c-0.105-0.255-0.24-0.542-0.405-0.856
					c0.542-0.287,1.136-0.527,1.782-0.724c0.646-0.194,1.45-0.293,2.413-0.293c0.813,0,1.474,0.091,1.987,0.271
					c0.511,0.181,0.9,0.429,1.172,0.745c0.271,0.314,0.452,0.668,0.542,1.06c0.091,0.392,0.135,0.835,0.135,1.331L404,174.765
					c0,0.736,0.005,1.298,0.012,1.681c0.006,0.383,0.02,0.793,0.033,1.229c0.029,0.392,0.076,0.682,0.136,0.869
					c0.06,0.188,0.166,0.396,0.314,0.621c-0.09,0-0.218-0.008-0.384-0.022c-0.313-0.03-0.563-0.044-0.744-0.044
					c-0.331,0-0.721,0.014-1.173,0.044c-0.074,0-0.181,0.008-0.315,0.022c-0.029-0.286-0.05-0.598-0.057-0.937
					c-0.009-0.338-0.011-0.823-0.011-1.456c-0.165,0.346-0.317,0.644-0.452,0.892c-0.137,0.248-0.323,0.497-0.563,0.745
					c-0.24,0.248-0.547,0.451-0.915,0.609c-0.367,0.156-0.793,0.236-1.273,0.236c-0.181,0-0.383-0.016-0.61-0.045
					c-0.225-0.03-0.458-0.098-0.697-0.203c-0.589-0.286-1.017-0.736-1.287-1.354c-0.271-0.617-0.405-1.316-0.405-2.099
					C395.606,174.11,396.018,173.061,396.846,172.406z M400.615,172.779c-0.287,0-0.575,0.023-0.868,0.068s-0.586,0.142-0.882,0.293
					c-0.293,0.149-0.533,0.383-0.721,0.699c-0.189,0.315-0.281,0.723-0.281,1.219c0,0.662,0.118,1.199,0.361,1.612
					c0.24,0.414,0.667,0.62,1.284,0.62c0.346,0,0.688-0.102,1.025-0.304c0.34-0.204,0.613-0.538,0.824-1.005
					c0.166-0.346,0.273-0.74,0.326-1.185c0.053-0.442,0.095-1.086,0.126-1.929v-0.09H400.615z"/>
				<path fill="#FFFFFF" d="M409.165,174.99c0,0.963,0.102,1.618,0.305,1.963c0.202,0.346,0.537,0.52,1.003,0.52
					c0.181,0,0.323-0.015,0.429-0.045c0.106-0.029,0.234-0.083,0.384-0.157l-0.021,0.066c-0.091,0.481-0.137,0.889-0.137,1.22
					l0.046,0.631c-0.512,0.061-0.956,0.09-1.331,0.09c-0.691,0-1.24-0.086-1.648-0.259c-0.405-0.173-0.698-0.421-0.879-0.745
					c-0.181-0.323-0.297-0.707-0.351-1.15s-0.079-1.042-0.079-1.795l0.067-6.205c-0.36,0-0.657,0.005-0.89,0.013
					c-0.234,0.008-0.403,0.032-0.51,0.078c0.016-0.136,0.021-0.293,0.021-0.474s0.009-0.338,0.024-0.474
					c-0.017-0.104-0.024-0.232-0.024-0.384c0-0.149-0.007-0.278-0.021-0.383c0.377,0.062,0.723,0.09,1.038,0.09
					c0.046,0,0.111-0.008,0.202-0.022c0.105,0,0.182,0,0.228,0c0-0.692-0.009-1.256-0.024-1.692
					c-0.013-0.359-0.039-0.688-0.077-0.981c-0.036-0.293-0.088-0.522-0.146-0.688c0.633-0.061,1.122-0.135,1.468-0.226
					s0.735-0.24,1.172-0.452c-0.029,0.211-0.053,0.396-0.067,0.553c-0.014,0.158-0.028,0.373-0.044,0.645
					c-0.017,0.271-0.03,0.642-0.046,1.116c-0.015,0.475-0.022,1.05-0.022,1.726c0.663,0,1.203-0.03,1.626-0.09
					c0,0.105-0.009,0.249-0.023,0.429c-0.028,0.316-0.045,0.55-0.045,0.7c0.017,0.09,0.022,0.159,0.022,0.204
					c0.016,0.166,0.031,0.301,0.046,0.405c-0.242-0.029-0.482-0.06-0.723-0.091c-0.24-0.028-0.451-0.045-0.633-0.045
					c-0.016,0-0.067,0.008-0.158,0.023c-0.044,0-0.081,0-0.112,0L409.165,174.99z"/>
				<path fill="#FFFFFF" d="M415.12,172.621c0,0.888,0,1.482,0,1.783c0,0.902,0.008,1.613,0.022,2.132
					c0.015,0.52,0.037,0.94,0.068,1.264c0.027,0.324,0.069,0.583,0.123,0.778c0.053,0.196,0.133,0.393,0.237,0.587
					c-0.258-0.045-0.481-0.075-0.679-0.09c-0.194-0.015-0.443-0.021-0.742-0.021c-0.589,0-1.168,0.036-1.739,0.111
					c0.121-0.24,0.207-0.48,0.262-0.722c0.053-0.241,0.092-0.7,0.123-1.377c0.03-0.496,0.049-1.139,0.058-1.929
					c0.006-0.79,0.011-1.599,0.011-2.426c0-0.946-0.009-1.806-0.021-2.571c-0.016-0.768-0.046-1.293-0.09-1.58
					c-0.048-0.392-0.115-0.658-0.205-0.801c-0.089-0.143-0.226-0.282-0.405-0.418h-0.022c0.917-0.089,1.576-0.18,1.976-0.27
					c0.398-0.09,0.814-0.241,1.252-0.452c-0.091,0.466-0.146,0.883-0.17,1.252c-0.022,0.368-0.033,0.951-0.033,1.749
					C415.144,170.463,415.137,171.464,415.12,172.621z M414.884,165.31c-0.188,0.271-0.507,0.406-0.959,0.406
					c-0.391,0-0.698-0.131-0.925-0.396c-0.227-0.262-0.339-0.613-0.339-1.049c0-0.405,0.094-0.765,0.282-1.072
					c0.188-0.307,0.522-0.461,1.003-0.461c0.451,0,0.77,0.134,0.947,0.405c0.181,0.271,0.271,0.617,0.271,1.038
					C415.164,164.664,415.073,165.039,414.884,165.31z"/>
				<path fill="#FFFFFF" d="M426.088,176.93v0.158c0.014,0.496,0.044,0.899,0.088,1.206c0.047,0.31,0.128,0.6,0.249,0.87
					c-0.134-0.016-0.249-0.031-0.337-0.045c-0.211-0.014-0.424-0.03-0.633-0.045c-0.212-0.015-0.461-0.021-0.744-0.021
					c-0.24,0-0.452,0.007-0.634,0.021c-0.181,0.015-0.39,0.045-0.632,0.09l0.024-0.09c0.044-0.12,0.079-0.229,0.101-0.327
					c0.022-0.098,0.04-0.222,0.057-0.373c0.016-0.104,0.029-0.301,0.046-0.586c0.016-0.287,0.028-0.557,0.044-0.813
					c0.016-0.603,0.023-1.089,0.023-1.467v-2.437c0-0.781-0.004-1.443-0.013-1.985c-0.007-0.541-0.026-0.925-0.056-1.149
					c-0.017-0.166-0.042-0.32-0.079-0.463c-0.037-0.144-0.105-0.29-0.203-0.44c-0.099-0.149-0.244-0.273-0.44-0.372
					c-0.195-0.098-0.441-0.146-0.745-0.146c-0.569,0-1,0.166-1.283,0.497c-0.286,0.331-0.482,0.736-0.589,1.219
					c-0.045,0.195-0.079,0.414-0.102,0.654c-0.021,0.239-0.042,0.533-0.056,0.88c-0.016,0.48-0.023,1.632-0.023,3.451v0.091
					c0.016,0.901,0.023,1.519,0.023,1.85c0,0.332,0.007,0.614,0.021,0.846c0.017,0.234,0.037,0.43,0.068,0.587
					c0.028,0.158,0.075,0.35,0.135,0.575c-0.512-0.06-1.021-0.09-1.534-0.09c-0.256,0-0.488,0.007-0.699,0.023
					c-0.211,0.014-0.429,0.037-0.655,0.066v-0.022c0.091-0.21,0.159-0.417,0.203-0.62c0.046-0.203,0.077-0.589,0.091-1.161
					c0-0.09,0.009-0.481,0.022-1.173c0.029-1.37,0.046-2.498,0.046-3.385c0-1.009-0.013-1.885-0.033-2.629
					c-0.022-0.744-0.059-1.274-0.103-1.591c-0.047-0.391-0.111-0.67-0.203-0.835c-0.09-0.165-0.218-0.322-0.386-0.474
					c0.813-0.045,1.42-0.12,1.818-0.227c0.397-0.104,0.784-0.256,1.161-0.45v2.391l0.021-0.044c0.105-0.271,0.216-0.516,0.328-0.734
					c0.112-0.218,0.282-0.443,0.507-0.676c0.228-0.233,0.521-0.425,0.894-0.576c0.366-0.149,0.813-0.226,1.342-0.226
					c0.661,0,1.19,0.105,1.591,0.315c0.398,0.212,0.686,0.481,0.856,0.813c0.172,0.332,0.286,0.678,0.34,1.039
					c0.053,0.36,0.079,0.767,0.079,1.217v0.023v6.789H426.088z"/>
				<path fill="#FFFFFF" d="M435.18,167.161l0.293,0.134c0.572,0,1.067-0.029,1.489-0.089c0.421-0.061,0.805-0.135,1.149-0.226
					c-0.027,0.255-0.049,0.477-0.055,0.666c-0.01,0.188-0.012,0.47-0.012,0.846c-0.228-0.06-0.46-0.104-0.7-0.136
					c-0.24-0.03-0.617-0.045-1.129-0.045c0.181,0.271,0.331,0.579,0.452,0.925c0.12,0.346,0.181,0.827,0.181,1.443
					c0,1.188-0.339,2.154-1.017,2.898c-0.677,0.745-1.677,1.117-3.001,1.117c-0.437,0-0.835-0.037-1.193-0.112l-0.361-0.067
					c-0.105,0-0.309,0.098-0.609,0.293s-0.452,0.443-0.452,0.745c0,0.301,0.117,0.519,0.351,0.653s0.479,0.227,0.733,0.271
					c0.149,0.029,0.305,0.056,0.463,0.079c0.159,0.021,0.463,0.049,0.915,0.079c0.271,0.015,0.485,0.03,0.653,0.045h0.091
					c0.779,0.061,1.417,0.128,1.905,0.202c0.489,0.076,0.943,0.216,1.364,0.419s0.753,0.508,0.993,0.913
					c0.24,0.406,0.361,0.948,0.361,1.624c0,0.752-0.147,1.399-0.44,1.941c-0.293,0.541-0.703,0.981-1.229,1.32
					c-0.526,0.339-1.124,0.583-1.794,0.731c-0.671,0.151-1.403,0.227-2.199,0.227c-0.707,0-1.361-0.067-1.963-0.203
					c-0.754-0.167-1.373-0.463-1.862-0.893c-0.488-0.428-0.733-0.974-0.733-1.636c0-0.361,0.079-0.685,0.238-0.971
					c0.156-0.286,0.359-0.533,0.608-0.744c0.248-0.211,0.495-0.388,0.743-0.531c0.249-0.142,0.531-0.289,0.848-0.438h0.021
					c-0.271-0.075-0.511-0.146-0.721-0.215c-0.211-0.067-0.423-0.177-0.632-0.327c-0.212-0.15-0.388-0.343-0.531-0.575
					s-0.214-0.522-0.214-0.868s0.079-0.666,0.236-0.959s0.354-0.541,0.588-0.745c0.23-0.203,0.449-0.368,0.653-0.496
					c0.203-0.128,0.41-0.236,0.619-0.327c-0.016-0.016-0.029-0.022-0.044-0.022c-0.196-0.105-0.384-0.226-0.563-0.36
					c-0.182-0.136-0.365-0.324-0.554-0.563c-0.188-0.24-0.346-0.562-0.474-0.96c-0.128-0.397-0.191-0.86-0.191-1.388
					c0-0.781,0.131-1.443,0.396-1.984c0.262-0.542,0.612-0.967,1.049-1.276c0.437-0.308,0.903-0.524,1.398-0.653
					c0.496-0.128,1.007-0.192,1.533-0.192C433.69,166.732,434.472,166.875,435.18,167.161z M430.994,178.917
					c-0.144,0.104-0.291,0.251-0.439,0.439c-0.15,0.188-0.282,0.407-0.396,0.655c-0.111,0.247-0.17,0.508-0.17,0.778
					c0,0.676,0.286,1.181,0.857,1.512c0.572,0.33,1.293,0.495,2.166,0.495c1.009,0,1.813-0.194,2.415-0.586
					c0.602-0.391,0.902-0.901,0.902-1.534c0-0.723-0.365-1.192-1.096-1.41c-0.729-0.219-2.049-0.388-3.959-0.509
					C431.231,178.758,431.139,178.811,430.994,178.917z M430.837,171.594c0.036,0.264,0.115,0.534,0.236,0.812
					c0.119,0.279,0.312,0.513,0.575,0.7c0.263,0.188,0.612,0.282,1.049,0.282c0.421,0,0.762-0.091,1.017-0.271
					c0.256-0.181,0.442-0.41,0.563-0.688c0.119-0.279,0.193-0.562,0.226-0.847c0.03-0.287,0.046-0.587,0.046-0.902
					c0-0.843-0.132-1.5-0.396-1.976c-0.262-0.474-0.73-0.71-1.41-0.71c-0.721,0-1.229,0.257-1.521,0.769
					c-0.293,0.511-0.44,1.194-0.44,2.052C430.78,171.073,430.799,171.331,430.837,171.594z"/>
				<path fill="#FFFFFF" d="M450.297,166.766c0.479,0.067,0.961,0.185,1.442,0.35c-0.148,0.301-0.264,0.591-0.339,0.868
					c-0.075,0.279-0.135,0.681-0.181,1.208c-0.179-0.227-0.386-0.402-0.619-0.53s-0.468-0.223-0.701-0.282
					c-0.23-0.061-0.427-0.098-0.586-0.113c-0.156-0.015-0.304-0.022-0.438-0.022c-0.647,0-1.134,0.162-1.456,0.485
					c-0.324,0.324-0.485,0.703-0.485,1.139c0,0.437,0.135,0.794,0.405,1.072c0.271,0.279,0.752,0.621,1.445,1.026
					c0.57,0.316,1.008,0.567,1.308,0.757c0.302,0.188,0.572,0.395,0.813,0.62c0.542,0.557,0.813,1.271,0.813,2.144
					c0,1.309-0.43,2.29-1.287,2.944c-0.857,0.653-2.031,0.98-3.52,0.98c-0.691,0-1.256-0.042-1.691-0.123
					c-0.438-0.084-0.835-0.184-1.196-0.305c0.181-0.346,0.314-0.669,0.405-0.971c0.09-0.301,0.165-0.699,0.227-1.195
					c0.21,0.255,0.503,0.48,0.879,0.676c0.377,0.196,0.89,0.294,1.534,0.294c0.707,0,1.266-0.173,1.67-0.519
					c0.405-0.347,0.61-0.774,0.61-1.287c0-0.24-0.03-0.443-0.09-0.609c-0.063-0.166-0.175-0.323-0.34-0.474
					c-0.165-0.149-0.389-0.313-0.665-0.484c-0.278-0.173-0.682-0.41-1.208-0.711c-0.361-0.226-0.675-0.428-0.938-0.608
					c-0.262-0.182-0.516-0.407-0.756-0.679c-0.239-0.27-0.436-0.583-0.586-0.936c-0.149-0.354-0.227-0.757-0.227-1.208
					c0-1.022,0.36-1.88,1.084-2.572c0.723-0.691,1.813-1.038,3.271-1.038C449.35,166.664,449.815,166.698,450.297,166.766z"/>
				<path fill="#FFFFFF" d="M457.946,174.629c0.196-0.78,0.357-1.445,0.485-1.996c0.127-0.549,0.264-1.149,0.405-1.805
					c0.143-0.654,0.26-1.26,0.35-1.816c0.091-0.557,0.137-0.971,0.137-1.24c0-0.301-0.053-0.596-0.158-0.88
					c0.091,0.016,0.188,0.029,0.293,0.045c0.105,0.016,0.203,0.029,0.294,0.045c0.06,0,0.174,0,0.34,0
					c0.181,0.016,0.33,0.021,0.45,0.021c0.524,0,1.066-0.038,1.624-0.111c-0.195,0.45-0.367,0.88-0.52,1.286
					c-0.15,0.406-0.305,0.861-0.463,1.364c-0.157,0.504-0.347,1.154-0.564,1.952c-0.218,0.797-0.49,1.842-0.821,3.135
					c-0.016,0.091-0.03,0.151-0.046,0.182c-0.496,1.971-0.801,3.171-0.914,3.6c-0.112,0.429-0.192,0.718-0.236,0.868
					c-0.046,0.151-0.105,0.346-0.181,0.587v0.022c-0.165,0.511-0.33,0.951-0.495,1.319c-0.166,0.369-0.419,0.745-0.756,1.128
					c-0.341,0.386-0.799,0.7-1.378,0.949c-0.579,0.248-1.289,0.371-2.134,0.371c-0.225,0-0.416-0.011-0.575-0.033
					c-0.155-0.022-0.341-0.057-0.553-0.102c0.152-0.377,0.266-0.715,0.34-1.017c0.074-0.301,0.127-0.654,0.158-1.061
					c0.182,0.121,0.342,0.204,0.484,0.249c0.144,0.045,0.351,0.066,0.619,0.066c0.468,0,0.861-0.087,1.186-0.259
					c0.324-0.173,0.58-0.396,0.769-0.667c0.187-0.27,0.327-0.541,0.418-0.812c0.091-0.271,0.165-0.572,0.225-0.902
					c-0.044,0-0.165-0.008-0.361-0.021c-0.194,0-0.313,0-0.36,0c-0.028,0-0.144,0-0.337,0c-0.196,0.014-0.317,0.021-0.361,0.021
					c-0.061-0.406-0.186-1.061-0.372-1.963c-0.188-0.902-0.417-1.948-0.688-3.135c-0.271-1.189-0.523-2.249-0.756-3.183
					s-0.439-1.699-0.621-2.302c-0.149-0.452-0.275-0.79-0.373-1.016c-0.097-0.227-0.223-0.438-0.371-0.631
					c0.314,0.029,0.511,0.045,0.586,0.045l0.181,0.021c0.181,0.016,0.505,0.023,0.972,0.023c0.405,0,0.71-0.008,0.912-0.023
					c0.203-0.015,0.463-0.038,0.78-0.066v0.021c-0.063,0.106-0.104,0.207-0.126,0.305c-0.021,0.099-0.032,0.237-0.032,0.417
					c0,0.137,0.041,0.481,0.123,1.038c0.084,0.557,0.207,1.278,0.372,2.166c0.165,0.889,0.361,1.876,0.586,2.968
					c0.228,1.091,0.483,2.26,0.77,3.509L457.946,174.629z"/>
				<path fill="#FFFFFF" d="M468.618,166.766c0.48,0.067,0.961,0.185,1.443,0.35c-0.15,0.301-0.265,0.591-0.34,0.868
					c-0.075,0.279-0.134,0.681-0.182,1.208c-0.179-0.227-0.386-0.402-0.618-0.53c-0.233-0.128-0.468-0.223-0.7-0.282
					c-0.231-0.061-0.428-0.098-0.587-0.113c-0.156-0.015-0.305-0.022-0.438-0.022c-0.646,0-1.132,0.162-1.456,0.485
					c-0.324,0.324-0.483,0.703-0.483,1.139c0,0.437,0.134,0.794,0.404,1.072c0.271,0.279,0.751,0.621,1.445,1.026
					c0.57,0.316,1.007,0.567,1.307,0.757c0.303,0.188,0.573,0.395,0.813,0.62c0.542,0.557,0.813,1.271,0.813,2.144
					c0,1.309-0.43,2.29-1.286,2.944c-0.856,0.653-2.031,0.98-3.52,0.98c-0.69,0-1.256-0.042-1.692-0.123
					c-0.437-0.084-0.835-0.184-1.195-0.305c0.181-0.346,0.314-0.669,0.404-0.971c0.092-0.301,0.165-0.699,0.229-1.195
					c0.209,0.255,0.502,0.48,0.879,0.676c0.377,0.196,0.888,0.294,1.533,0.294c0.708,0,1.265-0.173,1.671-0.519
					c0.405-0.347,0.61-0.774,0.61-1.287c0-0.24-0.031-0.443-0.092-0.609c-0.062-0.166-0.174-0.323-0.339-0.474
					c-0.166-0.149-0.389-0.313-0.666-0.484c-0.276-0.173-0.681-0.41-1.207-0.711c-0.36-0.226-0.675-0.428-0.937-0.608
					c-0.264-0.182-0.517-0.407-0.756-0.679c-0.24-0.27-0.438-0.583-0.586-0.936c-0.15-0.354-0.229-0.757-0.229-1.208
					c0-1.022,0.361-1.88,1.084-2.572c0.724-0.691,1.813-1.038,3.272-1.038C467.672,166.664,468.137,166.698,468.618,166.766z"/>
				<path fill="#FFFFFF" d="M474.485,174.99c0,0.963,0.103,1.618,0.304,1.963c0.203,0.346,0.538,0.52,1.006,0.52
					c0.181,0,0.323-0.015,0.43-0.045c0.104-0.029,0.23-0.083,0.384-0.157l-0.023,0.066c-0.091,0.481-0.135,0.889-0.135,1.22
					l0.044,0.631c-0.512,0.061-0.954,0.09-1.331,0.09c-0.691,0-1.239-0.086-1.646-0.259c-0.407-0.173-0.7-0.421-0.881-0.745
					c-0.182-0.323-0.298-0.707-0.35-1.15c-0.053-0.443-0.079-1.042-0.079-1.795l0.068-6.205c-0.361,0-0.659,0.005-0.893,0.013
					s-0.403,0.032-0.508,0.078c0.015-0.136,0.022-0.293,0.022-0.474s0.007-0.338,0.021-0.474c-0.016-0.104-0.021-0.232-0.021-0.384
					c0-0.149-0.009-0.278-0.022-0.383c0.375,0.062,0.722,0.09,1.038,0.09c0.044,0,0.112-0.008,0.203-0.022c0.105,0,0.182,0,0.226,0
					c0-0.692-0.007-1.256-0.022-1.692c-0.016-0.359-0.042-0.688-0.079-0.981c-0.037-0.293-0.086-0.522-0.146-0.688
					c0.63-0.061,1.119-0.135,1.465-0.226c0.347-0.09,0.738-0.24,1.175-0.452c-0.031,0.211-0.053,0.396-0.068,0.553
					c-0.016,0.158-0.029,0.373-0.046,0.645c-0.014,0.271-0.028,0.642-0.044,1.116s-0.021,1.05-0.021,1.726
					c0.661,0,1.203-0.03,1.624-0.09c0,0.105-0.007,0.249-0.022,0.429c-0.029,0.316-0.046,0.55-0.046,0.7
					c0.017,0.09,0.024,0.159,0.024,0.204c0.013,0.166,0.027,0.301,0.044,0.405c-0.24-0.029-0.482-0.06-0.724-0.091
					c-0.239-0.028-0.448-0.045-0.63-0.045c-0.016,0-0.067,0.008-0.159,0.023c-0.046,0-0.084,0-0.111,0L474.485,174.99z"/>
				<path fill="#FFFFFF" d="M485.879,173.298h-6.003c0,0.437,0.03,0.873,0.091,1.31c0.062,0.437,0.2,0.888,0.419,1.354
					c0.218,0.467,0.577,0.857,1.081,1.174c0.505,0.314,1.164,0.474,1.975,0.474c0.589,0,1.059-0.062,1.41-0.181
					c0.354-0.12,0.696-0.285,1.027-0.497l-0.022,0.067c-0.06,0.375-0.11,0.7-0.146,0.972c-0.038,0.27-0.057,0.602-0.057,0.992
					c-0.015,0-0.03,0.008-0.046,0.022c-0.33,0.09-0.688,0.165-1.071,0.226c-0.383,0.061-0.904,0.09-1.567,0.09
					c-1.789,0-3.155-0.508-4.094-1.522c-0.941-1.015-1.41-2.635-1.41-4.862c0-0.526,0.032-1.091,0.101-1.691
					c0.066-0.603,0.245-1.253,0.529-1.952c0.286-0.699,0.754-1.297,1.398-1.794c0.647-0.496,1.505-0.745,2.573-0.745
					c0.796,0,1.454,0.143,1.976,0.43c0.518,0.285,0.911,0.669,1.183,1.15c0.271,0.48,0.457,1.022,0.554,1.625
					c0.098,0.602,0.147,1.277,0.147,2.029L485.879,173.298z M483.691,171.741c0-0.557-0.021-1.038-0.068-1.444
					c-0.044-0.405-0.128-0.759-0.246-1.06c-0.286-0.692-0.798-1.038-1.535-1.038c-0.736,0-1.271,0.354-1.604,1.06
					c-0.134,0.316-0.234,0.686-0.304,1.106s-0.102,0.879-0.102,1.376H483.691L483.691,171.741z"/>
				<path fill="#FFFFFF" d="M487.865,172.35v-0.271c-0.014-1.309-0.028-2.14-0.045-2.493c-0.015-0.353-0.046-0.688-0.09-1.003
					c-0.075-0.437-0.174-0.741-0.293-0.915c-0.121-0.172-0.287-0.318-0.496-0.438h-0.024c0.724-0.03,1.313-0.099,1.771-0.203
					c0.459-0.105,0.906-0.241,1.343-0.406l0.114-0.045v2.482c0.119-0.271,0.244-0.522,0.372-0.756
					c0.128-0.234,0.311-0.475,0.554-0.724c0.239-0.248,0.544-0.451,0.912-0.607c0.367-0.159,0.802-0.238,1.298-0.238
					c0.495,0,0.909,0.079,1.24,0.238c0.33,0.157,0.586,0.359,0.767,0.607c0.182,0.249,0.31,0.494,0.385,0.734
					c0.076,0.241,0.137,0.48,0.181,0.722c0.137-0.27,0.275-0.521,0.418-0.756c0.144-0.232,0.338-0.47,0.587-0.711
					c0.249-0.24,0.563-0.439,0.947-0.597c0.383-0.159,0.83-0.238,1.342-0.238c0.558,0,1.009,0.076,1.355,0.226
					c0.346,0.151,0.604,0.364,0.776,0.644c0.174,0.278,0.289,0.602,0.352,0.971c0.06,0.368,0.09,0.801,0.09,1.297v3.159
					c0,2.105,0.018,3.569,0.056,4.389c0.037,0.82,0.125,1.402,0.26,1.749h-0.044c-0.212-0.045-0.43-0.08-0.653-0.102
					c-0.229-0.023-0.498-0.034-0.813-0.034c-0.271,0-0.505,0.011-0.698,0.034c-0.195,0.021-0.451,0.056-0.77,0.102
					c0.105-0.21,0.181-0.413,0.228-0.608c0.044-0.195,0.091-0.564,0.136-1.106v-1.917v-1.422v-3.114
					c0-0.796-0.099-1.384-0.294-1.759s-0.633-0.564-1.31-0.564c-0.421,0-0.793,0.14-1.117,0.417
					c-0.32,0.277-0.516,0.567-0.574,0.868c-0.074,0.316-0.123,0.734-0.146,1.252c-0.023,0.52-0.035,1.207-0.035,2.065v2.911
					c0,0.873,0.024,1.529,0.068,1.974c0.047,0.443,0.128,0.778,0.249,1.004l-0.138-0.022c-0.239-0.03-0.457-0.053-0.653-0.067
					c-0.193-0.015-0.421-0.021-0.677-0.021c-0.286,0-0.508,0.007-0.665,0.021c-0.158,0.015-0.396,0.037-0.712,0.067
					c-0.061,0.016-0.112,0.022-0.156,0.022c0.075-0.149,0.128-0.278,0.156-0.383c0.03-0.105,0.053-0.256,0.067-0.452
					c0-0.045,0.017-0.187,0.047-0.428c0.074-0.918,0.112-1.738,0.112-2.459v-2.482c0-0.917-0.021-1.628-0.058-2.132
					c-0.037-0.504-0.108-0.915-0.215-1.229c-0.104-0.315-0.265-0.541-0.474-0.678c-0.212-0.135-0.496-0.202-0.857-0.202
					c-0.404,0-0.737,0.094-0.992,0.281c-0.257,0.188-0.447,0.444-0.575,0.768c-0.128,0.324-0.212,0.691-0.247,1.105
					c-0.04,0.413-0.059,0.913-0.059,1.499v2.415c0,2.542,0.075,4.001,0.227,4.377c-0.24-0.045-0.454-0.08-0.645-0.102
					c-0.188-0.023-0.409-0.034-0.666-0.034c-0.479,0-1.007,0.045-1.576,0.136c0.104-0.21,0.181-0.417,0.225-0.621
					s0.09-0.598,0.135-1.184v-2.731L487.865,172.35L487.865,172.35z"/>
			</g>
		</g>
		<g id="tentacle">
			<g id="octopus_2_">
				
					<radialGradient id="SVGID_3_" cx="4969.8887" cy="-1698.8948" r="314.96" gradientTransform="matrix(-0.9931 -0.1172 -0.1172 0.9931 5018.293 2600.5623)" gradientUnits="userSpaceOnUse">
					<stop  offset="0" style="stop-color:#BCCCB3"/>
					<stop  offset="1" style="stop-color:#FEF9C8;stop-opacity:0"/>
				</radialGradient>
				<path opacity="0.1" fill="url(#SVGID_3_)" enable-background="new    " d="M-19.728,69.345c0,0-84.479,81.738-71.254,180.649
					c22.362,167.2,145.017,207.985,354.105,185.854C631.57,396.846,622.522,580.01,617.865,596.567l22.814-25.942
					c4.655-16.557,13.702-199.718-354.741-160.72c-209.092,22.133-331.745-18.65-354.104-185.85
					C-81.394,125.143-19.728,69.345-19.728,69.345"/>
				
					<radialGradient id="SVGID_4_" cx="4876.2588" cy="-1818.3098" r="631.2034" gradientTransform="matrix(-0.9931 -0.1172 -0.1172 0.9931 5018.293 2600.5623)" gradientUnits="userSpaceOnUse">
					<stop  offset="0" style="stop-color:#BCCCB3"/>
					<stop  offset="1" style="stop-color:#FEF9C8;stop-opacity:0"/>
				</radialGradient>
				<path opacity="0.65" fill="url(#SVGID_4_)" enable-background="new    " d="M-81.813,14.849c0,0-84.48,81.739-71.254,180.65
					c22.361,167.202,145.014,207.983,354.105,185.854c368.441-39.002,359.396,144.16,354.74,160.716l25.497,0.434
					c15.872-27.063,11.021-226.094-357.424-187.094C14.764,377.54-107.891,336.76-130.251,169.558
					C-143.479,70.647-81.813,14.849-81.813,14.849"/>
				
					<radialGradient id="SVGID_5_" cx="4939.7148" cy="-1710.4275" r="314.9589" gradientTransform="matrix(-0.9931 -0.1172 -0.1172 0.9931 5018.293 2600.5623)" gradientUnits="userSpaceOnUse">
					<stop  offset="0" style="stop-color:#BCCCB3"/>
					<stop  offset="1" style="stop-color:#FEF9C8;stop-opacity:0"/>
				</radialGradient>
				<path opacity="0.2" fill="url(#SVGID_5_)" enable-background="new    " d="M11.591,61.428c0,0-84.481,81.741-71.254,180.65
					c22.362,167.199,145.016,207.98,354.104,185.853c368.443-38.999,359.397,144.161,354.742,160.719l22.813-25.94
					c4.656-16.558,13.702-199.721-354.74-160.719c-209.09,22.132-331.743-18.652-354.104-185.85
					C-50.075,117.226,11.591,61.428,11.591,61.428"/>
				
					<linearGradient id="SVGID_6_" gradientUnits="userSpaceOnUse" x1="4584.7461" y1="-1785.7903" x2="5368.6797" y2="-1785.7903" gradientTransform="matrix(-0.9931 -0.1172 -0.1172 0.9931 5018.293 2600.5623)">
					<stop  offset="0" style="stop-color:#ABCCB3;stop-opacity:0.7"/>
					<stop  offset="0.33" style="stop-color:#B4CFB5;stop-opacity:0.05"/>
					<stop  offset="0.803" style="stop-color:#C1D4B7;stop-opacity:0.5"/>
					<stop  offset="1" style="stop-color:#FEF9C8;stop-opacity:0"/>
				</linearGradient>
				<path opacity="0.4" fill="url(#SVGID_6_)" enable-background="new    " d="M-94.642,118.179c0,0,30.47-77.383,127.689-99.882
					C215.027-32.231,298.485,123.073,341.86,273.344c3.834,13.28,13.379,46.815,28.121,110.676
					c19.475,84.347,58.92,90.005,148.582,83.856c138.932-14.707,121.748,52.731,119.992,58.977l8.604-9.782
					c1.758-6.241,18.938-73.683-119.992-58.977c-85.802,8.021-124.338-15.229-140.551-79.537
					c-16.211-64.312-17.385-66.781-32.84-126.087C300.755,49.002,222.703-38.483,49.278-12.2
					C-47.942,10.301-94.642,118.179-94.642,118.179"/>
			</g>
		</g>
		<g id="circles">
			<circle opacity="0.9" fill="#FFFFFF" enable-background="new    " cx="403.242" cy="332.955" r="5"/>
			<circle opacity="0.3" fill="#FFFFFF" enable-background="new    " cx="510.5" cy="374.5" r="5"/>
			<circle opacity="0.5" fill="#FFFFFF" enable-background="new    " cx="458.5" cy="348.5" r="5"/>
		</g>
		<g id="logo_3_">
			<g id="logoGroup_2_">
				<g id="logo_2_" enable-background="new    ">
					<path fill="#FFFFFF" d="M140.894,183.745c-1.688,0.021,0.321,0.863,2.526,1.204c0.608-0.477,1.16-0.956,1.649-1.424
						C143.702,183.864,142.304,183.873,140.894,183.745"/>
					<path fill="#FFFFFF" d="M149.958,181.485c1.01-1.391,1.741-2.908,1.998-4.479c-0.229,1.122-0.833,2.083-1.404,3.107
						c-3.159,1.989-0.296-1.18-0.006-2.385C147.158,182.001,150.08,180.29,149.958,181.485"/>
					<path fill="#FFFFFF" d="M153.307,172.776c0.207-3.04-0.599-2.075-0.864-0.919C152.752,172.022,153.003,174.002,153.307,172.776
						"/>
					<path fill="#FFFFFF" d="M134.488,131.209c0.902,0.167,1.948,0.287,1.801,0.503C137.275,131.491,137.5,131.296,134.488,131.209"
						/>
					<path fill="#FFFFFF" d="M136.288,131.709l-0.634,0.136l0.595-0.059L136.288,131.709"/>
					<path fill="#FFFFFF" d="M164.399,173.932c0.1,2.729-0.8,4.058-1.61,6.402l-1.459,0.729c-1.196,2.322,0.116,1.478-0.737,3.315
						c-1.868,1.662-5.658,5.189-6.87,5.511c-0.889-0.021,0.604-1.049,0.795-1.449c-2.496,1.715-2,2.572-5.822,3.617l-0.111-0.25
						c-9.417,4.431-22.493-4.345-22.324-16.323c-0.098,0.76-0.284,0.571-0.494,0.875c-0.485-6.162,2.849-12.349,8.466-14.881
						c5.501-2.721,11.946-1.61,15.875,2.066c-2.16-2.833-6.464-5.835-11.563-5.555c-4.995,0.083-9.674,3.26-11.229,6.705
						c-2.563,1.611-2.856,6.211-3.972,7.051c-1.505,11.029,2.821,15.794,10.138,21.403c1.147,0.779,0.323,0.892,0.479,1.481
						c-2.435-1.135-4.653-2.854-6.483-4.958c0.972,1.42,2.022,2.798,3.375,3.884c-2.292-0.774-5.354-5.557-6.248-5.746
						c3.951,7.076,16.021,12.404,22.354,9.755c-2.931,0.111-6.646,0.062-9.938-1.155c-1.381-0.71-3.261-2.18-2.926-2.457
						c8.634,3.225,17.543,2.438,25.016-3.545c1.901-1.479,3.979-3.996,4.577-4.03c-0.904,1.358,0.154,0.652-0.54,1.853
						c1.893-3.055-0.824-1.245,1.955-5.271l1.024,1.411c-0.386-2.536,3.147-5.609,2.79-9.618c0.812-1.225,0.9,1.32,0.041,4.139
						c1.191-3.129,0.315-3.624,0.62-6.212c0.325,0.865,0.764,1.792,0.992,2.706c-0.776-3.023,0.792-5.091,1.187-6.845
						c-0.388-0.169-1.198,1.335-1.387-2.231c0.027-1.553,0.433-0.813,0.589-1.195c-0.305-0.177-1.104-1.366-1.587-3.648
						c0.349-0.532,0.939,1.389,1.419,1.466c-0.308-1.813-0.838-3.191-0.863-4.584c-1.4-2.928-0.497,0.394-1.63-1.251
						c-1.49-4.654,1.232-1.08,1.423-3.193c2.255,3.275,3.546,8.347,4.138,10.45c-0.451-2.563-1.174-5.039-2.073-7.447
						c0.686,0.295-1.109-5.271,0.891-1.585c-2.132-7.851-9.132-15.188-15.566-18.625c0.787,0.72,1.78,1.623,1.432,1.767
						c-3.211-1.902-2.646-2.055-3.105-2.859c-2.607-1.063-2.776,0.089-4.5,0.004c-4.915-2.609-5.864-2.333-10.389-3.964l0.204,0.967
						c-3.258-1.086-3.796,0.406-7.313,0.003c-0.215-0.167,1.127-0.606,2.231-0.767c-3.149,0.416-3.003-0.621-6.081,0.115
						c0.758-0.529,1.56-0.889,2.373-1.339c-2.566,0.158-6.132,1.493-5.033,0.272c-4.189,1.87-11.623,4.498-15.799,8.41l-0.13-0.876
						c-1.915,2.298-8.341,6.854-8.855,9.835l-0.509,0.113c-0.993,1.688-1.638,3.598-2.428,5.325
						c-1.305,2.218-1.909,0.854-1.725,1.201c-2.56,5.192-3.833,9.552-4.931,13.131c0.783,1.17,0.02,7.042,0.314,11.743
						c-1.283,23.211,16.294,45.761,35.509,50.963c2.814,1.012,7.002,0.975,10.565,1.07c-4.204-1.2-4.748-0.633-8.841-2.067
						c-2.953-1.391-3.6-2.977-5.693-4.794l0.828,1.461c-4.102-1.452-2.385-1.797-5.725-2.853l0.888-1.15
						c-1.328-0.101-3.521-2.238-4.124-3.429l-1.456,0.059c-1.746-2.15-2.679-3.71-2.608-4.915l-0.475,0.839
						c-0.528-0.915-6.43-8.088-3.369-6.418c-0.568-0.52-1.327-0.845-2.146-2.335l0.624-0.709c-1.474-1.894-2.714-4.322-2.616-5.139
						c0.786,1.063,1.328,1.258,1.869,1.441c-3.722-9.229-3.931-0.505-6.743-9.394l0.6-0.046c-0.454-0.692-0.735-1.435-1.103-2.17
						l0.26-2.583c-2.673-3.092-0.748-13.159-0.358-18.681c0.268-2.243,2.23-4.639,3.727-8.387l-0.912-0.158
						c1.74-3.032,9.947-12.203,13.751-11.737c1.843-2.307-0.367-0.009-0.729-0.588c4.046-4.188,5.316-2.953,8.046-3.711
						c2.946-1.741-2.524,0.683-1.13-0.66c5.092-1.301,3.604-2.955,10.247-3.617c0.7,0.399-1.623,0.611-2.205,1.127
						c4.24-2.074,13.419-1.601,19.378,1.151c6.917,3.233,14.686,12.788,14.993,21.775l0.349,0.09
						c-0.176,3.574,0.551,7.707-0.709,11.506L164.399,173.932"/>
					<path fill="#FFFFFF" d="M122.461,186.059l-0.237,1.184c1.109,1.508,1.99,3.146,3.406,4.318
						C124.61,189.574,123.855,188.753,122.461,186.059"/>
					<path fill="#FFFFFF" d="M125.081,185.959c-0.586-0.65-0.938-1.43-1.327-2.207c0.373,1.369,1.138,2.54,1.845,3.743
						L125.081,185.959"/>
					<path fill="#FFFFFF" d="M171.519,175.866l-0.243,0.624c-0.453,3.232-1.438,6.429-2.945,9.391
						C169.992,182.753,171.063,179.333,171.519,175.866"/>
					<path fill="#FFFFFF" d="M134.825,130.398c1.146-0.417,2.805-0.229,4.019-0.504c-1.581,0.137-3.154,0.216-4.703,0.408
						L134.825,130.398"/>
					<path fill="#FFFFFF" d="M94.736,151.717c0.265,2.437-1.833,3.38,0.461,1.772C96.43,150.716,94.721,152.724,94.736,151.717"/>
					<path fill="#FFFFFF" d="M92.036,162.991c0.527-1.625,0.627-2.596,0.83-3.54C91.402,161.32,92.189,161.719,92.036,162.991"/>
				</g>
			</g>
		</g>
		<g id="debian_1_">
			<rect x="60.21" y="253.839" fill="none" width="108.14" height="39.474"/>
			
				<text transform="matrix(1 0 0 1 60.2112 284.5564)" fill="#FFFFFF" font-family="'Poppl-Laudatio-Condensed'" font-size="41.2339">debian</text>
			<rect x="63.016" y="294.6" fill="none" width="63.925" height="17.563"/>
			
				<text transform="matrix(1 0 0 1 63.0159 304.8337)" opacity="0.6" fill="#FFFFFF" enable-background="new    " font-family="'Poppl-Laudatio-Condensed'" font-size="13.7446">GNU/Linux</text>
			<g>
				<g>
					<path fill="#FFFFFF" d="M191.077,291.535c-7.773,0.229-14.524-6.58-14.524-13.965c0-8.176,5.919-15.355,14.761-15.355
						c8.838,0,14.291,7.182,14.291,18.218c0,9.51-3.188,16.156-7.445,20.279c-3.323,3.255-7.914,5.251-12.565,5.783
						c-2.128,0.333-3.988,0.399-5.384,0.333c0,0,19.852-5.967,20.477-22.292c0.138-3.656,2.66-18.197-9.839-17.865
						c-4.981,0.133-8.511,4.389-8.511,10.503c0,5.387,1.652,9.199,7.11,10.535c3.813,0.936,6.203-0.544,9.03-7.45
						C198.476,280.259,199.726,291.277,191.077,291.535z"/>
				</g>
			</g>
		</g>
		<g id="logo_1_">
			<g opacity="0.8" enable-background="new    ">
				<path fill="#FFFFFF" d="M243.528,491.006c-0.102,0.731-0.309,1.445-0.62,2.143c-0.313,0.697-0.789,1.266-1.432,1.71
					c-0.642,0.444-1.479,0.666-2.511,0.666c-1.104,0-1.995-0.24-2.673-0.72c-0.679-0.48-1.167-1.071-1.467-1.773
					c-0.301-0.702-0.486-1.365-0.559-1.989c-0.072-0.622-0.107-1.254-0.107-1.89c0-0.624,0.035-1.26,0.107-1.908
					c0.072-0.646,0.261-1.344,0.567-2.088c0.306-0.744,0.807-1.374,1.503-1.89c0.696-0.517,1.614-0.774,2.754-0.774
					c1.02,0,1.848,0.21,2.484,0.63c0.636,0.421,1.104,0.954,1.403,1.604c0.3,0.646,0.492,1.299,0.576,1.953
					c0.084,0.652,0.126,1.329,0.126,2.023C243.68,489.507,243.629,490.273,243.528,491.006z M240.998,485.084
					c-0.385-0.793-1.044-1.188-1.98-1.188c-0.563,0-1.025,0.15-1.386,0.45s-0.633,0.699-0.819,1.196
					c-0.186,0.497-0.312,1.044-0.378,1.639c-0.065,0.594-0.099,1.257-0.099,1.988c0,0.589,0.026,1.148,0.081,1.684
					c0.054,0.534,0.171,1.047,0.351,1.539s0.453,0.896,0.819,1.215c0.366,0.318,0.843,0.478,1.431,0.478
					c0.408,0,0.766-0.088,1.071-0.262s0.566-0.459,0.783-0.854c0.216-0.396,0.384-0.932,0.504-1.604s0.186-1.506,0.198-2.502
					C241.574,487.135,241.383,485.875,240.998,485.084z"/>
				<path fill="#FFFFFF" d="M247.568,492.571c0,0.89,0.027,1.521,0.081,1.899c0.055,0.378,0.123,0.687,0.207,0.927
					c-0.205-0.036-0.39-0.06-0.558-0.072c-0.168-0.012-0.378-0.018-0.63-0.018s-0.459,0.006-0.621,0.018
					c-0.162,0.014-0.345,0.036-0.549,0.072c0.048-0.145,0.087-0.264,0.116-0.36c0.03-0.096,0.052-0.222,0.063-0.378
					c0.036-0.3,0.06-1.002,0.072-2.104c0-0.12,0-0.354,0-0.702l0.018-4.446c-0.288,0-0.519,0.003-0.692,0.009
					c-0.175,0.008-0.321,0.021-0.441,0.046v-0.107c0.024-0.276,0.036-0.48,0.036-0.612c0-0.107-0.006-0.27-0.019-0.485
					c-0.012-0.049-0.018-0.097-0.018-0.145c0.132,0.012,0.279,0.024,0.441,0.036c0.161,0.012,0.381,0.019,0.656,0.019
					c0-0.721,0.027-1.267,0.081-1.639c0.055-0.372,0.171-0.696,0.352-0.972c0.3-0.456,0.747-0.804,1.341-1.044
					s1.287-0.36,2.079-0.36c-0.072,0.288-0.126,0.537-0.162,0.747s-0.072,0.478-0.108,0.801l-0.036-0.018
					c-0.144-0.048-0.281-0.072-0.414-0.072c-0.287,0-0.519,0.063-0.692,0.188c-0.174,0.126-0.307,0.307-0.396,0.54
					s-0.149,0.495-0.18,0.782c-0.03,0.288-0.045,0.638-0.045,1.044c0.444,0,0.762-0.006,0.954-0.018
					c0.191-0.012,0.359-0.03,0.504-0.054c0,0.022-0.006,0.078-0.019,0.161c-0.023,0.191-0.035,0.337-0.035,0.433
					c0.012,0.264,0.029,0.516,0.054,0.756c-0.36-0.048-0.702-0.071-1.026-0.071c-0.048,0-0.113,0.007-0.197,0.019
					c-0.097,0-0.162,0-0.198,0L247.568,492.571z"/>
				<path fill="#FFFFFF" d="M252.446,492.571c0,0.89,0.027,1.521,0.081,1.899c0.055,0.378,0.123,0.687,0.207,0.927
					c-0.205-0.036-0.39-0.06-0.558-0.072c-0.168-0.012-0.378-0.018-0.63-0.018s-0.459,0.006-0.621,0.018
					c-0.162,0.014-0.345,0.036-0.549,0.072c0.048-0.145,0.087-0.264,0.117-0.36c0.029-0.096,0.051-0.222,0.063-0.378
					c0.036-0.3,0.061-1.002,0.072-2.104c0-0.12,0-0.354,0-0.702l0.018-4.446c-0.288,0-0.519,0.003-0.692,0.009
					c-0.175,0.008-0.321,0.021-0.441,0.046v-0.107c0.024-0.276,0.036-0.48,0.036-0.612c0-0.107-0.006-0.27-0.019-0.485
					c-0.012-0.049-0.018-0.097-0.018-0.145c0.132,0.012,0.279,0.024,0.441,0.036c0.161,0.012,0.381,0.019,0.656,0.019
					c0-0.721,0.027-1.267,0.081-1.639c0.055-0.372,0.171-0.696,0.352-0.972c0.3-0.456,0.747-0.804,1.341-1.044
					s1.287-0.36,2.079-0.36c-0.072,0.288-0.126,0.537-0.162,0.747s-0.072,0.478-0.108,0.801l-0.036-0.018
					c-0.144-0.048-0.281-0.072-0.413-0.072c-0.288,0-0.52,0.063-0.693,0.188c-0.174,0.126-0.306,0.307-0.396,0.54
					c-0.09,0.233-0.149,0.495-0.18,0.782c-0.03,0.288-0.045,0.638-0.045,1.044c0.444,0,0.762-0.006,0.954-0.018
					s0.36-0.03,0.504-0.054c0,0.022-0.006,0.078-0.018,0.161c-0.024,0.191-0.036,0.337-0.036,0.433
					c0.012,0.264,0.029,0.516,0.054,0.756c-0.36-0.048-0.702-0.071-1.026-0.071c-0.048,0-0.113,0.007-0.197,0.019
					c-0.097,0-0.162,0-0.198,0L252.446,492.571z"/>
				<path fill="#FFFFFF" d="M257.09,490.177c0,0.708,0,1.182,0,1.422c0,0.72,0.006,1.287,0.018,1.701
					c0.013,0.413,0.03,0.75,0.055,1.008c0.023,0.258,0.057,0.465,0.099,0.621c0.042,0.154,0.105,0.312,0.189,0.468
					c-0.204-0.036-0.385-0.06-0.54-0.072c-0.156-0.012-0.354-0.018-0.595-0.018c-0.468,0-0.93,0.03-1.386,0.09
					c0.096-0.192,0.165-0.384,0.207-0.576c0.042-0.19,0.075-0.558,0.099-1.098c0.024-0.396,0.039-0.909,0.045-1.539
					c0.007-0.63,0.01-1.275,0.01-1.937c0-0.756-0.006-1.438-0.019-2.052c-0.012-0.613-0.036-1.032-0.071-1.26
					c-0.036-0.313-0.091-0.525-0.162-0.64c-0.072-0.113-0.181-0.226-0.324-0.333h-0.019c0.731-0.071,1.258-0.145,1.575-0.217
					c0.318-0.07,0.651-0.19,0.999-0.358c-0.072,0.372-0.117,0.705-0.135,0.999c-0.019,0.294-0.027,0.759-0.027,1.395
					C257.108,488.455,257.102,489.255,257.09,490.177z M256.901,484.345c-0.149,0.216-0.404,0.323-0.765,0.323
					c-0.313,0-0.558-0.104-0.738-0.314c-0.18-0.21-0.27-0.489-0.27-0.837c0-0.324,0.075-0.609,0.225-0.855
					c0.15-0.244,0.417-0.368,0.801-0.368c0.36,0,0.612,0.107,0.757,0.323c0.144,0.217,0.216,0.492,0.216,0.828
					C257.126,483.829,257.051,484.13,256.901,484.345z"/>
				<path fill="#FFFFFF" d="M260.033,486.794c0.797-0.863,1.959-1.297,3.481-1.297c0.287,0,0.531,0.017,0.729,0.046
					s0.43,0.08,0.692,0.152c-0.022,0.048-0.035,0.078-0.035,0.09c-0.084,0.217-0.153,0.434-0.207,0.648
					c-0.055,0.216-0.104,0.504-0.153,0.863c-0.168-0.119-0.338-0.217-0.513-0.287c-0.174-0.072-0.418-0.108-0.729-0.108
					c-0.504,0-0.924,0.104-1.26,0.307s-0.595,0.475-0.773,0.811s-0.307,0.699-0.377,1.089c-0.072,0.391-0.109,0.789-0.109,1.197
					c0,0.479,0.043,0.938,0.127,1.377c0.084,0.438,0.23,0.84,0.441,1.206c0.209,0.366,0.504,0.66,0.881,0.882
					c0.379,0.222,0.851,0.333,1.414,0.333c0.252,0,0.455-0.019,0.611-0.055c0.156-0.035,0.317-0.09,0.485-0.161
					c-0.098,0.252-0.168,0.492-0.217,0.72c-0.047,0.229-0.084,0.504-0.106,0.828c-0.168,0.036-0.324,0.06-0.47,0.071
					c-0.145,0.013-0.329,0.019-0.557,0.019c-0.889,0-1.633-0.142-2.232-0.423c-0.602-0.282-1.067-0.663-1.403-1.144
					c-0.336-0.479-0.573-1.015-0.711-1.603c-0.14-0.588-0.207-1.218-0.207-1.891C258.836,488.882,259.235,487.657,260.033,486.794z"
					/>
				<path fill="#FFFFFF" d="M267.583,490.177c0,0.708,0,1.182,0,1.422c0,0.72,0.006,1.287,0.019,1.701
					c0.012,0.413,0.029,0.75,0.054,1.008c0.023,0.258,0.058,0.465,0.1,0.621c0.042,0.154,0.104,0.312,0.188,0.468
					c-0.204-0.036-0.384-0.06-0.54-0.072c-0.155-0.012-0.354-0.018-0.594-0.018c-0.469,0-0.931,0.03-1.387,0.09
					c0.097-0.192,0.165-0.384,0.207-0.576c0.042-0.19,0.075-0.558,0.1-1.098c0.023-0.396,0.039-0.909,0.045-1.539
					c0.007-0.63,0.01-1.275,0.01-1.937c0-0.756-0.007-1.438-0.019-2.052c-0.013-0.612-0.036-1.032-0.072-1.26
					c-0.035-0.313-0.09-0.525-0.161-0.64c-0.072-0.113-0.181-0.226-0.324-0.333h-0.019c0.731-0.071,1.257-0.145,1.575-0.217
					c0.317-0.07,0.65-0.19,0.999-0.358c-0.072,0.372-0.117,0.705-0.136,0.999s-0.026,0.759-0.026,1.395
					C267.602,488.455,267.595,489.255,267.583,490.177z M267.395,484.345c-0.149,0.216-0.405,0.323-0.766,0.323
					c-0.313,0-0.559-0.104-0.737-0.314c-0.181-0.21-0.271-0.489-0.271-0.837c0-0.324,0.074-0.609,0.226-0.855
					c0.149-0.244,0.416-0.368,0.801-0.368c0.359,0,0.612,0.107,0.756,0.323c0.145,0.217,0.217,0.492,0.217,0.828
					C267.619,483.829,267.544,484.13,267.395,484.345z"/>
				<path fill="#FFFFFF" d="M270.247,490.007c0.66-0.521,1.596-0.782,2.809-0.782c0.216,0,0.485,0.012,0.811,0.036
					c0.145,0.012,0.245,0.018,0.306,0.018c0-0.456-0.009-0.81-0.026-1.063c-0.019-0.252-0.071-0.479-0.162-0.685
					c-0.09-0.205-0.239-0.361-0.449-0.477c-0.211-0.115-0.495-0.171-0.854-0.171c-0.479,0-0.938,0.08-1.377,0.242
					c-0.438,0.161-0.831,0.394-1.18,0.692c-0.071-0.348-0.15-0.624-0.233-0.828c-0.084-0.204-0.192-0.432-0.324-0.684
					c0.433-0.229,0.906-0.42,1.422-0.576c0.517-0.156,1.158-0.234,1.927-0.234c0.647,0,1.176,0.072,1.584,0.217
					c0.407,0.145,0.721,0.343,0.937,0.595s0.359,0.534,0.433,0.846c0.071,0.313,0.107,0.666,0.107,1.063l-0.019,3.673
					c0,0.588,0.003,1.034,0.009,1.341c0.006,0.306,0.016,0.633,0.027,0.98c0.023,0.313,0.06,0.543,0.107,0.692
					c0.048,0.15,0.132,0.315,0.252,0.495c-0.072,0-0.175-0.006-0.307-0.019c-0.252-0.023-0.449-0.035-0.594-0.035
					c-0.265,0-0.576,0.012-0.937,0.035c-0.061,0-0.145,0.006-0.252,0.019c-0.024-0.228-0.039-0.478-0.045-0.747
					c-0.007-0.271-0.01-0.657-0.01-1.161c-0.132,0.276-0.252,0.514-0.359,0.711c-0.108,0.198-0.259,0.396-0.45,0.595
					c-0.191,0.197-0.436,0.359-0.729,0.485s-0.633,0.189-1.018,0.189c-0.144,0-0.306-0.013-0.485-0.036
					c-0.181-0.024-0.366-0.078-0.559-0.162c-0.468-0.228-0.811-0.588-1.025-1.08s-0.323-1.05-0.323-1.674
					C269.258,491.365,269.587,490.528,270.247,490.007z M273.253,490.303c-0.229,0-0.459,0.018-0.692,0.054
					s-0.468,0.114-0.702,0.234c-0.233,0.119-0.426,0.306-0.575,0.558c-0.15,0.252-0.226,0.576-0.226,0.972
					c0,0.528,0.096,0.957,0.288,1.287c0.191,0.33,0.533,0.495,1.025,0.495c0.275,0,0.549-0.081,0.818-0.243
					c0.271-0.162,0.488-0.429,0.657-0.801c0.132-0.276,0.219-0.591,0.261-0.945c0.042-0.354,0.075-0.865,0.1-1.539v-0.07
					L273.253,490.303L273.253,490.303z"/>
				<path fill="#FFFFFF" d="M279.932,489.997c0,1.682,0.019,2.894,0.054,3.638c0.024,0.516,0.061,0.882,0.108,1.098
					s0.113,0.438,0.197,0.666c-0.191-0.036-0.378-0.06-0.559-0.072c-0.18-0.012-0.39-0.018-0.63-0.018
					c-0.288,0-0.534,0.009-0.738,0.025c-0.203,0.02-0.413,0.039-0.63,0.063l0.02-0.054c0.071-0.146,0.122-0.271,0.151-0.379
					c0.03-0.107,0.058-0.259,0.081-0.449c0.036-0.35,0.066-1.302,0.091-2.862c0.012-0.19,0.019-0.372,0.019-0.54v-3.132
					c0-1.248-0.007-2.133-0.019-2.655c-0.013-0.521-0.042-0.979-0.091-1.377c-0.06-0.42-0.138-0.708-0.232-0.863
					c-0.098-0.155-0.234-0.295-0.414-0.414c0.575-0.049,1.047-0.122,1.413-0.226c0.365-0.102,0.807-0.271,1.321-0.513
					c-0.035,0.252-0.06,0.482-0.07,0.691c-0.014,0.21-0.024,0.459-0.036,0.747c-0.013,0.421-0.024,1.508-0.036,3.259v0.071V489.997
					L279.932,489.997z"/>
				<path fill="#FFFFFF" d="M287.113,490.007c0.66-0.521,1.597-0.782,2.81-0.782c0.216,0,0.484,0.012,0.81,0.036
					c0.146,0.012,0.246,0.018,0.307,0.018c0-0.456-0.01-0.81-0.026-1.063c-0.019-0.252-0.072-0.479-0.162-0.685
					s-0.24-0.361-0.45-0.477s-0.495-0.171-0.854-0.171c-0.48,0-0.939,0.08-1.377,0.242c-0.438,0.161-0.831,0.394-1.181,0.692
					c-0.07-0.348-0.149-0.624-0.232-0.828c-0.084-0.204-0.192-0.432-0.324-0.684c0.432-0.229,0.906-0.42,1.422-0.576
					c0.517-0.156,1.158-0.234,1.926-0.234c0.648,0,1.177,0.072,1.584,0.217c0.408,0.145,0.722,0.343,0.938,0.595
					s0.359,0.534,0.432,0.846c0.072,0.313,0.108,0.666,0.108,1.063l-0.02,3.673c0,0.588,0.004,1.034,0.01,1.341
					c0.006,0.306,0.016,0.633,0.026,0.98c0.024,0.313,0.061,0.543,0.108,0.692c0.048,0.15,0.132,0.315,0.252,0.495
					c-0.072,0-0.175-0.006-0.307-0.019c-0.252-0.023-0.449-0.035-0.595-0.035c-0.264,0-0.575,0.012-0.936,0.035
					c-0.062,0-0.146,0.006-0.252,0.019c-0.024-0.228-0.039-0.478-0.045-0.747c-0.007-0.271-0.011-0.657-0.011-1.161
					c-0.132,0.276-0.252,0.514-0.358,0.711c-0.108,0.198-0.259,0.396-0.45,0.595c-0.192,0.197-0.436,0.359-0.729,0.485
					s-0.634,0.189-1.018,0.189c-0.144,0-0.306-0.013-0.486-0.036c-0.18-0.024-0.365-0.078-0.558-0.162
					c-0.468-0.228-0.811-0.588-1.026-1.08c-0.215-0.492-0.322-1.05-0.322-1.674C286.123,491.365,286.452,490.528,287.113,490.007z
					 M290.118,490.303c-0.229,0-0.459,0.018-0.692,0.054c-0.234,0.036-0.468,0.114-0.702,0.234
					c-0.233,0.119-0.426,0.306-0.576,0.558c-0.149,0.252-0.225,0.576-0.225,0.972c0,0.528,0.096,0.957,0.288,1.287
					c0.19,0.33,0.533,0.495,1.024,0.495c0.276,0,0.55-0.081,0.819-0.243c0.271-0.162,0.488-0.429,0.657-0.801
					c0.132-0.276,0.219-0.591,0.261-0.945c0.042-0.354,0.075-0.865,0.099-1.539v-0.07L290.118,490.303L290.118,490.303z"/>
				<path fill="#FFFFFF" d="M294.871,489.962v-0.217c-0.014-1.044-0.024-1.707-0.036-1.988c-0.014-0.281-0.036-0.55-0.072-0.802
					c-0.061-0.348-0.138-0.591-0.234-0.729c-0.096-0.138-0.228-0.255-0.396-0.353h-0.02c0.576-0.022,1.048-0.076,1.413-0.161
					c0.366-0.083,0.725-0.191,1.071-0.323l0.09-0.036v1.979c0.097-0.216,0.195-0.416,0.297-0.603
					c0.104-0.187,0.249-0.378,0.441-0.576c0.191-0.198,0.435-0.359,0.729-0.485c0.295-0.127,0.641-0.188,1.035-0.188
					c0.396,0,0.727,0.063,0.99,0.188c0.263,0.125,0.468,0.287,0.611,0.485c0.145,0.198,0.245,0.395,0.307,0.585
					c0.06,0.192,0.107,0.384,0.145,0.576c0.107-0.216,0.22-0.417,0.333-0.604s0.271-0.374,0.469-0.566
					c0.197-0.192,0.449-0.352,0.756-0.479c0.306-0.126,0.663-0.188,1.07-0.188c0.443,0,0.805,0.06,1.08,0.18s0.482,0.291,0.62,0.514
					c0.14,0.223,0.231,0.479,0.279,0.773s0.072,0.639,0.072,1.035v2.52c0,1.682,0.015,2.849,0.045,3.502
					c0.028,0.653,0.099,1.118,0.207,1.396h-0.036c-0.168-0.036-0.342-0.063-0.521-0.081c-0.181-0.019-0.396-0.027-0.647-0.027
					c-0.216,0-0.402,0.01-0.559,0.027c-0.155,0.018-0.359,0.045-0.611,0.081c0.084-0.168,0.144-0.33,0.18-0.486
					c0.036-0.154,0.072-0.449,0.108-0.882v-1.53v-1.134v-2.483c0-0.637-0.078-1.104-0.234-1.403s-0.504-0.45-1.044-0.45
					c-0.336,0-0.633,0.111-0.892,0.333s-0.41,0.453-0.459,0.693c-0.061,0.252-0.1,0.585-0.116,0.999
					c-0.02,0.414-0.027,0.963-0.027,1.646v2.322c0,0.696,0.019,1.221,0.055,1.575c0.035,0.354,0.103,0.621,0.197,0.801l-0.107-0.019
					c-0.191-0.023-0.365-0.041-0.521-0.055c-0.156-0.012-0.336-0.018-0.54-0.018c-0.229,0-0.404,0.006-0.53,0.018
					c-0.127,0.014-0.314,0.03-0.566,0.055c-0.049,0.013-0.091,0.019-0.126,0.019c0.06-0.12,0.102-0.222,0.126-0.306
					c0.022-0.084,0.042-0.204,0.054-0.36c0-0.036,0.012-0.15,0.036-0.342c0.06-0.732,0.09-1.388,0.09-1.962v-1.98
					c0-0.73-0.015-1.299-0.045-1.701c-0.03-0.4-0.087-0.729-0.171-0.979s-0.21-0.434-0.378-0.54
					c-0.168-0.108-0.396-0.162-0.684-0.162c-0.324,0-0.59,0.075-0.792,0.225c-0.205,0.15-0.357,0.354-0.46,0.612
					s-0.169,0.552-0.197,0.882c-0.03,0.33-0.045,0.729-0.045,1.197v1.926c0,2.028,0.06,3.192,0.18,3.492
					c-0.192-0.036-0.363-0.063-0.513-0.081c-0.15-0.019-0.327-0.027-0.531-0.027c-0.384,0-0.804,0.036-1.26,0.108
					c0.084-0.168,0.144-0.333,0.18-0.495s0.072-0.477,0.108-0.945v-2.178v-1.818H294.871z"/>
				<path fill="#FFFFFF" d="M307.714,488.656c0.102-0.558,0.284-1.077,0.549-1.557c0.264-0.48,0.647-0.867,1.151-1.161
					c0.505-0.294,1.135-0.441,1.891-0.441c0.336,0,0.615,0.021,0.837,0.063s0.447,0.099,0.675,0.171
					c0-0.708-0.003-1.215-0.009-1.521c-0.006-0.307-0.024-0.562-0.054-0.766c-0.03-0.204-0.075-0.366-0.136-0.486
					c-0.061-0.118-0.155-0.252-0.288-0.396c0.563-0.048,1.021-0.12,1.368-0.216c0.349-0.098,0.701-0.229,1.063-0.396
					c-0.062,0.324-0.105,0.831-0.135,1.521c-0.03,0.688-0.053,1.479-0.063,2.366c-0.023,1.115-0.036,2.741-0.036,4.879
					c0,1.318,0.046,2.352,0.136,3.096c0.091,0.744,0.214,1.271,0.369,1.584h-0.055c-0.18-0.024-0.313-0.036-0.396-0.036
					c-0.097-0.012-0.265-0.018-0.504-0.018c-0.275,0-0.601,0.012-0.973,0.035c-0.06,0-0.149,0.006-0.27,0.019l-0.036-1.603
					c-0.324,1.115-1.038,1.675-2.143,1.675c-0.229,0-0.488-0.039-0.782-0.117c-0.295-0.078-0.624-0.276-0.99-0.594
					c-0.366-0.318-0.679-0.834-0.937-1.55c-0.259-0.714-0.388-1.651-0.388-2.815C307.561,489.794,307.612,489.215,307.714,488.656z
					 M312.763,487.099c-0.192-0.096-0.378-0.174-0.559-0.234c-0.181-0.06-0.401-0.09-0.666-0.09c-0.469,0-0.85,0.12-1.144,0.36
					c-0.294,0.239-0.507,0.537-0.639,0.891c-0.133,0.354-0.217,0.696-0.252,1.026c-0.036,0.33-0.055,0.663-0.055,0.999
					c0,0.239,0.01,0.491,0.026,0.756c0.019,0.264,0.051,0.552,0.1,0.863c0.036,0.229,0.087,0.457,0.152,0.685
					c0.066,0.228,0.165,0.462,0.297,0.702c0.133,0.24,0.307,0.435,0.522,0.585c0.215,0.149,0.479,0.225,0.792,0.225
					c0.3,0,0.543-0.064,0.729-0.197c0.188-0.133,0.324-0.295,0.414-0.485c0.091-0.192,0.15-0.381,0.181-0.567
					c0.029-0.186,0.052-0.397,0.063-0.639v-0.036c0.012-0.19,0.021-0.468,0.027-0.828c0.006-0.359,0.009-0.894,0.009-1.602
					l0.019-1.242L312.763,487.099z"/>
				<path fill="#FFFFFF" d="M322.861,482.707c0.349,0.098,0.653,0.204,0.918,0.324c0.012,0,0.023,0.006,0.035,0.02
					c-0.107,0.238-0.197,0.459-0.27,0.655c-0.072,0.198-0.156,0.521-0.253,0.964l-0.18-0.217c-0.133-0.154-0.337-0.291-0.611-0.404
					c-0.276-0.113-0.618-0.171-1.026-0.171c-0.647,0-1.173,0.142-1.575,0.424c-0.401,0.281-0.701,0.646-0.898,1.098
					c-0.198,0.451-0.33,0.921-0.396,1.413c-0.065,0.492-0.123,1.074-0.171,1.746v0.018c0.12-0.19,0.243-0.368,0.369-0.53
					c0.126-0.161,0.267-0.304,0.423-0.424c0.444-0.348,0.99-0.521,1.639-0.521c0.252,0,0.533,0.036,0.847,0.107
					c0.312,0.071,0.645,0.233,0.999,0.485c0.354,0.252,0.652,0.648,0.898,1.188s0.369,1.235,0.369,2.089
					c0,0.646-0.071,1.248-0.216,1.8s-0.369,1.035-0.675,1.449c-0.307,0.414-0.702,0.733-1.188,0.963
					c-0.485,0.228-1.053,0.342-1.7,0.342c-0.744,0-1.365-0.145-1.862-0.432c-0.498-0.288-0.886-0.688-1.161-1.197
					c-0.276-0.509-0.472-1.092-0.585-1.746c-0.114-0.654-0.171-1.371-0.171-2.15c0-2.509,0.4-4.374,1.205-5.599
					c0.805-1.224,2.101-1.836,3.889-1.836C322.062,482.563,322.512,482.611,322.861,482.707z M321.969,490.357
					c-0.03-0.264-0.1-0.537-0.207-0.819c-0.107-0.28-0.285-0.519-0.531-0.711c-0.246-0.19-0.566-0.288-0.963-0.288
					c-0.611,0-1.077,0.246-1.396,0.738c-0.317,0.492-0.478,1.158-0.478,1.998c0,0.3,0.021,0.606,0.063,0.918
					c0.042,0.313,0.123,0.618,0.243,0.918c0.119,0.3,0.3,0.552,0.54,0.756c0.239,0.204,0.553,0.307,0.937,0.307
					s0.702-0.097,0.954-0.287c0.252-0.192,0.44-0.441,0.566-0.747c0.126-0.308,0.21-0.627,0.252-0.963s0.063-0.68,0.063-1.026
					C322.014,490.885,321.998,490.621,321.969,490.357z"/>
				<path fill="#FFFFFF" d="M331.735,491.006c0.479,0,0.911-0.041,1.296-0.126c-0.036,0.359-0.055,0.673-0.055,0.937
					c0,0.145,0.003,0.268,0.01,0.369c0.006,0.102,0.021,0.225,0.045,0.369c-0.252-0.024-0.459-0.036-0.621-0.036s-0.394,0-0.692,0
					v1.764c0,0.48,0.084,0.854,0.252,1.116c-0.024,0-0.062-0.006-0.107-0.019c-0.217-0.023-0.398-0.038-0.55-0.046
					c-0.149-0.006-0.345-0.009-0.585-0.009c-0.216,0-0.393,0.006-0.53,0.02c-0.139,0.012-0.327,0.028-0.566,0.054h-0.036
					c0.12-0.264,0.195-0.594,0.225-0.99c0.03-0.396,0.046-1.025,0.046-1.89h-4.733v-1.352c0.155-0.37,0.423-0.956,0.801-1.755
					c0.378-0.798,0.771-1.615,1.179-2.457c0.408-0.84,0.816-1.654,1.226-2.446c0.406-0.793,0.737-1.404,0.989-1.837
					c0.239,0.023,0.433,0.043,0.575,0.055c0.062,0,0.174,0,0.343,0c0.217,0.012,0.396,0.018,0.54,0.018
					c0.239,0,0.436-0.006,0.585-0.018s0.32-0.03,0.514-0.055v0.035c-0.048,0.229-0.084,0.437-0.108,0.621
					c-0.022,0.188-0.035,0.447-0.035,0.783v6.895H331.735z M329.898,490.987c0.024-1.476,0.048-3.072,0.072-4.788
					c0.012-0.611,0.019-1.062,0.019-1.35v-0.595c-0.229,0.407-0.508,0.938-0.837,1.594c-0.331,0.654-0.65,1.308-0.964,1.962
					c-0.312,0.654-0.603,1.281-0.873,1.881c-0.27,0.602-0.459,1.032-0.566,1.296H329.898z"/>
			</g>
		</g>
	</g>
</g>
</svg>
