<?xml version="1.0" encoding="utf-8"?>
<!-- Generator: Adobe Illustrator 16.0.0, SVG Export Plug-In . SVG Version: 6.00 Build 0)  -->
<!DOCTYPE svg PUBLIC "-//W3C//DTD SVG 1.1//EN" "http://www.w3.org/Graphics/SVG/1.1/DTD/svg11.dtd">
<svg version="1.1" xmlns="http://www.w3.org/2000/svg" xmlns:xlink="http://www.w3.org/1999/xlink" x="0px" y="0px" width="842px"
	 height="595px" viewBox="0 0 842 595" enable-background="new 0 0 842 595" xml:space="preserve">
<g id="Layer_2">
</g>
<g id="Layer_3">
	<g>
		<defs>
			<rect id="SVGID_1_" x="400.768" y="38.77" width="40.466" height="517.529"/>
		</defs>
		<clipPath id="SVGID_2_">
			<use xlink:href="#SVGID_1_"  overflow="visible"/>
		</clipPath>
		<g clip-path="url(#SVGID_2_)">
			<rect x="400.744" y="38.77" fill="#366C6C" width="40.466" height="517.529"/>
			
				<text transform="matrix(-4.371139e-008 1 -1 -4.371139e-008 412.2368 477.7705)" opacity="0.6" fill="#FFFFFF" enable-background="new    " font-family="'Poppl-Laudatio-Condensed'" font-size="10.1197">Official amd64</text>
			<g id="debian_4_">
				<rect x="413.035" y="56.235" fill="none" width="23.271" height="63.756"/>
				
					<text transform="matrix(-4.371139e-008 1 -1 -4.371139e-008 418.1992 56.2344)" fill="#FFFFFF" font-family="'Poppl-Laudatio-Condensed'" font-size="24.3103">debian</text>
				<rect x="401.922" y="57.889" fill="none" width="10.354" height="37.688"/>
				
					<text transform="matrix(-4.371139e-008 1 -1 -4.371139e-008 406.2441 57.8857)" opacity="0.6" fill="#FFFFFF" enable-background="new    " font-family="'Poppl-Laudatio-Condensed'" font-size="8.1034">GNU/Linux</text>
				<g>
					<g>
						<path fill="#FFFFFF" d="M414.084,133.392c-0.137-4.584,3.879-8.564,8.232-8.564c4.82,0,9.055,3.49,9.055,8.702
							c0,5.211-4.234,8.426-10.74,8.426c-5.607,0-9.527-1.88-11.959-4.39c-1.918-1.959-3.096-4.666-3.41-7.408
							c-0.195-1.255-0.234-2.352-0.195-3.175c0,0,3.52,11.705,13.143,12.073c2.156,0.08,10.729,1.569,10.533-5.802
							c-0.078-2.937-2.586-5.017-6.193-5.017c-3.174,0-5.422,0.976-6.209,4.192c-0.553,2.248,0.32,3.657,4.393,5.325
							C420.732,137.753,414.234,138.489,414.084,133.392z"/>
					</g>
				</g>
			</g>
			<g id="debian">
				<g enable-background="new    ">
					<path fill="#FFFFFF" d="M428.793,368.819l-3.526-0.65l-0.181-0.574c0.936-1.439,1.403-2.879,1.403-3.924
						c0-1.225-0.754-1.873-1.548-1.873c-2.661,0-2.016,7.414-7.234,7.414c-2.769,0-5.47-2.086-5.47-6.693
						c0-1.617,0.36-3.527,1.081-5.363l3.743,0.541l0.287,0.467c-1.296,1.549-2.052,3.563-2.052,4.895s0.791,2.053,1.657,2.053
						c2.662,0,2.014-7.451,7.34-7.451c3.023,0,5.326,2.412,5.326,6.549C429.62,365.794,429.332,367.415,428.793,368.819z"/>
					<path fill="#FFFFFF" d="M416.735,381.595l-0.358,0.396l-2.844-0.469c-0.612-1.188-1.009-2.447-1.151-3.744
						c0.323-3.238,1.905-4.859,4.75-4.859l2.988,0.18l6.189-0.035v-2.23l0.252-0.18l2.628,0.25v2.123h2.772l1.403,4.357
						l-0.289,0.324l-3.885-0.109v4.283l-0.254,0.143l-2.626-0.215v-4.281l-8.064-0.219c-1.583,0-2.122,0.576-2.122,1.871
						C416.123,379.901,416.304,380.694,416.735,381.595z"/>
					<path fill="#FFFFFF" d="M429.296,394.659h-4.426l-0.179-0.469c0.179-0.467,0.25-0.934,0.25-1.332
						c0-1.295-0.792-2.59-2.663-3.779h-2.304l-7.377,0.252v-4.787l6.91,0.254l9.5-0.217l0.396,4.57l-3.274-0.037v0.254
						c2.303,1.258,3.239,2.844,3.239,4.426C429.369,394.046,429.332,394.372,429.296,394.659z"/>
					<path fill="#FFFFFF" d="M420.334,400.056c-2.949,0.182-4.534,1.551-4.534,4.465c0,1.404,0.434,3.166,1.296,4.822l-0.252,0.396
						l-3.528-0.646c-0.646-1.512-1.079-3.313-1.079-5.039c0-5.328,3.276-8.424,8.639-8.424c5.472,0,8.745,3.238,8.745,8.277
						c0,4.213-2.483,6.516-6.586,6.516c-0.61,0-1.476-0.07-1.979-0.145l-0.684-0.684L420.334,400.056z M423.573,406.284
						c1.981,0,2.916-0.973,2.916-2.557c0-1.869-1.26-3.133-3.527-3.563l0.18,6.049L423.573,406.284z"/>
					<path fill="#FFFFFF" d="M416.735,422.911l-0.358,0.396l-2.844-0.467c-0.612-1.189-1.009-2.447-1.151-3.746
						c0.323-3.238,1.905-4.857,4.75-4.857l2.988,0.18l6.189-0.035v-2.232l0.252-0.182l2.628,0.254v2.125h2.772l1.403,4.354
						l-0.289,0.326l-3.885-0.109v4.283l-0.254,0.145l-2.626-0.217v-4.283l-8.064-0.217c-1.583,0-2.122,0.574-2.122,1.869
						C416.123,421.222,416.304,422.011,416.735,422.911z"/>
					<path fill="#FFFFFF" d="M428.757,436.841l-3.815-0.793l-0.18-0.395c0.612-1.117,1.008-2.197,1.008-3.277
						c0-2.195-1.62-3.453-4.569-3.453c-3.35,0-5.183,1.33-5.183,3.742c0,1.115,0.324,2.34,0.898,3.598l-0.287,0.361l-3.708-0.467
						c-0.433-1.369-0.684-2.953-0.684-4.428c0-4.607,3.167-7.344,8.53-7.344c5.542,0,8.89,2.988,8.89,8.027
						C429.656,433.96,429.332,435.616,428.757,436.841z"/>
					<path fill="#FFFFFF" d="M423.034,449.655c1.692,0.035,2.664-0.758,2.664-2.271c0-1.115-0.54-2.266-1.512-3.416l-4.212-0.074
						l-7.377,0.252v-4.785l6.947,0.25l17.958-0.215l0.359,4.785l-10.905-0.178v0.215c1.225,1.332,2.088,2.807,2.592,4.32
						c0,3.672-1.729,5.613-4.822,5.543l-4.788-0.107l-7.341,0.215v-4.822L423.034,449.655z"/>
				</g>
			</g>
			<g>
				<g id="waves_1_" opacity="0.8" enable-background="new    ">
					
						<radialGradient id="SVGID_3_" cx="1813.8857" cy="2084.8281" r="140.7873" gradientTransform="matrix(0.0413 0.8324 -0.8876 0.0441 2226.4429 -1402.2896)" gradientUnits="userSpaceOnUse">
						<stop  offset="0" style="stop-color:#FFFFFF"/>
						<stop  offset="1" style="stop-color:#FFFFFF;stop-opacity:0"/>
					</radialGradient>
					<path opacity="0.5" fill="url(#SVGID_3_)" enable-background="new    " d="M546.021,317.783c0,0-23.843,21.584-62.659,14.286
						c-65.614-12.337-78.314-58.925-63.654-136.135c25.834-136.056-46.99-137.101-53.681-135.768l-10.921,7.857
						c6.69-1.332,79.515-0.287,53.679,135.766c-14.657,77.213-1.959,123.799,63.658,136.138
						C511.256,347.227,546.021,317.783,546.021,317.783"/>
					
						<radialGradient id="SVGID_4_" cx="1876.6465" cy="2147.9375" r="113.78" gradientTransform="matrix(0.0413 0.8324 -0.8876 0.0441 2226.4429 -1402.2896)" gradientUnits="userSpaceOnUse">
						<stop  offset="0" style="stop-color:#FFFFFF"/>
						<stop  offset="1" style="stop-color:#FFFFFF;stop-opacity:0"/>
					</radialGradient>
					<path opacity="0.5" fill="url(#SVGID_4_)" enable-background="new    " d="M440.527,382.024
						c-25.719-34.916-29.769-64.38-21.169-119.971c25.835-136.052-46.985-137.098-53.68-135.766l-10.918,7.861
						c6.69-1.335,79.511-0.29,53.676,135.765C396.216,328.125,418.501,363.358,440.527,382.024z"/>
					
						<radialGradient id="SVGID_5_" cx="2034.5225" cy="-1592.854" r="41.056" gradientTransform="matrix(0.0413 0.8324 0.8876 -0.0441 1764.2491 -1464.7461)" gradientUnits="userSpaceOnUse">
						<stop  offset="0" style="stop-color:#FFFFFF"/>
						<stop  offset="1" style="stop-color:#FFFFFF;stop-opacity:0"/>
					</radialGradient>
					<path opacity="0.3" fill="url(#SVGID_5_)" enable-background="new    " d="M473.746,311.516c0,0-4.569,10.145-18.53,13.638
						c-23.598,5.905-34.961-6.514-41.979-32.368c-4.038-24.369-16.87-25.121-18.881-23.725c2.011-1.396,11.773,5.927,16.476,27.753
						c7.019,25.855,18.383,38.272,41.982,32.367C466.773,325.687,473.746,311.516,473.746,311.516"/>
				</g>
				<g id="rounds_1_">
					<path opacity="0.2" fill="#FFFFFF" enable-background="new    " d="M416.765,321.936c-0.188,0.426-0.711,0.607-1.165,0.407
						c-0.455-0.2-0.671-0.708-0.483-1.134c0.188-0.429,0.71-0.613,1.164-0.413S416.954,321.507,416.765,321.936z"/>
					
						<ellipse transform="matrix(0.9152 0.4031 -0.4031 0.9152 167.9071 -141.3992)" opacity="0.3" fill="#FFFFFF" enable-background="new    " cx="419.883" cy="328.207" rx="0.9" ry="0.844"/>
					
						<ellipse transform="matrix(0.9151 0.4033 -0.4033 0.9151 170.8051 -143.4277)" opacity="0.4" fill="#FFFFFF" enable-background="new    " cx="425.917" cy="333.798" rx="0.901" ry="0.842"/>
					
						<ellipse transform="matrix(0.915 0.4035 -0.4035 0.915 173.1172 -146.56)" opacity="0.5" fill="#FFFFFF" enable-background="new    " cx="434.321" cy="337.498" rx="0.9" ry="0.844"/>
				</g>
			</g>
		</g>
	</g>
	<rect x="441.233" y="38.771" fill="none" width="359.591" height="517.528"/>
	<g>
		<defs>
			<rect id="SVGID_6_" x="441.233" y="38.401" width="366.769" height="517.527"/>
		</defs>
		<clipPath id="SVGID_7_">
			<use xlink:href="#SVGID_6_"  overflow="visible"/>
		</clipPath>
		<g clip-path="url(#SVGID_7_)">
			<g id="background_2_">
				<g id="background_3_">
					
						<linearGradient id="SVGID_8_" gradientUnits="userSpaceOnUse" x1="-1803.2046" y1="-1823.1187" x2="-1803.2048" y2="-1306.9233" gradientTransform="matrix(1 0 0 1 2430.4551 1863.1074)">
						<stop  offset="0" style="stop-color:#133456"/>
						<stop  offset="0.5025" style="stop-color:#7C9999"/>
						<stop  offset="1" style="stop-color:#333333"/>
					</linearGradient>
					<rect x="440.844" y="38.747" fill="url(#SVGID_8_)" width="372.814" height="517.159"/>
				</g>
				<g id="Layer_4_1_">
					
						<radialGradient id="SVGID_9_" cx="-1665.9258" cy="-719.1055" r="750.7021" gradientTransform="matrix(0.2012 0 0 0.4986 962.3776 656.119)" gradientUnits="userSpaceOnUse">
						<stop  offset="0" style="stop-color:#E4C8A5;stop-opacity:0.5"/>
						<stop  offset="0.4765" style="stop-color:#597F78;stop-opacity:0.3331"/>
						<stop  offset="1" style="stop-color:#386D6D;stop-opacity:0.2857"/>
					</radialGradient>
					<rect x="440.844" y="39.23" fill="url(#SVGID_9_)" width="372.814" height="516.678"/>
				</g>
			</g>
			<g id="glows_1_">
				
					<radialGradient id="SVGID_10_" cx="-1336.8535" cy="3590.2275" r="90.627" gradientTransform="matrix(1 0 0 -0.9849 2107.4746 3846.8389)" gradientUnits="userSpaceOnUse">
					<stop  offset="0" style="stop-color:#FFFCDD"/>
					<stop  offset="1" style="stop-color:#FEF9C8;stop-opacity:0"/>
				</radialGradient>
				<ellipse opacity="0.2" fill="url(#SVGID_10_)" enable-background="new    " cx="770.62" cy="310.791" rx="90.628" ry="89.26"/>
				
					<radialGradient id="SVGID_11_" cx="-1387.1841" cy="3621.416" r="71.7341" gradientTransform="matrix(1 0 0 -0.9849 2107.4746 3846.8389)" gradientUnits="userSpaceOnUse">
					<stop  offset="0" style="stop-color:#99CCCC"/>
					<stop  offset="1" style="stop-color:#FEF9C8;stop-opacity:0"/>
				</radialGradient>
				
					<ellipse opacity="0.2" fill="url(#SVGID_11_)" enable-background="new    " cx="720.292" cy="280.073" rx="71.732" ry="70.651"/>
				
					<radialGradient id="SVGID_12_" cx="-1696.8125" cy="3633.751" r="95.104" gradientTransform="matrix(1 0 0 -0.9849 2107.4746 3846.8389)" gradientUnits="userSpaceOnUse">
					<stop  offset="0" style="stop-color:#FFFCDD"/>
					<stop  offset="1" style="stop-color:#FEF9C8;stop-opacity:0"/>
				</radialGradient>
				
					<ellipse opacity="0.1" fill="url(#SVGID_12_)" enable-background="new    " cx="410.663" cy="267.925" rx="95.103" ry="93.669"/>
				
					<radialGradient id="SVGID_13_" cx="-1635.79" cy="3572.3887" r="95.1045" gradientTransform="matrix(1 0 0 -0.9849 2107.4746 3846.8389)" gradientUnits="userSpaceOnUse">
					<stop  offset="0" style="stop-color:#FFFCDD"/>
					<stop  offset="1" style="stop-color:#FEF9C8;stop-opacity:0"/>
				</radialGradient>
				<ellipse opacity="0.1" fill="url(#SVGID_13_)" enable-background="new    " cx="471.685" cy="328.361" rx="95.104" ry="93.67"/>
				
					<radialGradient id="SVGID_14_" cx="-1604.5215" cy="3542.2578" r="121.6641" gradientTransform="matrix(1 0 0 -0.9849 2107.4746 3846.8389)" gradientUnits="userSpaceOnUse">
					<stop  offset="0" style="stop-color:#FFFCDD"/>
					<stop  offset="1" style="stop-color:#FEF9C8;stop-opacity:0"/>
				</radialGradient>
				<path opacity="0.1" fill="url(#SVGID_14_)" enable-background="new    " d="M502.953,238.209
					c67.193,0,121.665,53.648,121.665,119.828c0,66.182-54.472,119.826-121.665,119.826s-121.665-53.645-121.665-119.826
					C381.288,291.858,435.76,238.209,502.953,238.209z"/>
				
					<radialGradient id="SVGID_15_" cx="-1406.041" cy="3567.5" r="121.6636" gradientTransform="matrix(1 0 0 -0.9849 2107.4746 3846.8389)" gradientUnits="userSpaceOnUse">
					<stop  offset="0" style="stop-color:#FFFCDD"/>
					<stop  offset="1" style="stop-color:#FEF9C8;stop-opacity:0"/>
				</radialGradient>
				<path opacity="0.1" fill="url(#SVGID_15_)" enable-background="new    " d="M701.434,213.349
					c67.192,0,121.664,53.648,121.664,119.828c0,66.179-54.472,119.825-121.664,119.825c-67.193,0-121.664-53.646-121.664-119.825
					C579.77,266.997,634.24,213.349,701.434,213.349z"/>
				
					<radialGradient id="SVGID_16_" cx="-1615.9292" cy="3616.1855" r="121.6638" gradientTransform="matrix(1 0 0 -0.9849 2107.4746 3846.8389)" gradientUnits="userSpaceOnUse">
					<stop  offset="0" style="stop-color:#99CCCC"/>
					<stop  offset="1" style="stop-color:#FEF9C8;stop-opacity:0"/>
				</radialGradient>
				
					<ellipse opacity="0.2" fill="url(#SVGID_16_)" enable-background="new    " cx="491.544" cy="285.225" rx="121.665" ry="119.828"/>
				
					<radialGradient id="SVGID_17_" cx="-1312.6714" cy="3610.3428" r="121.6648" gradientTransform="matrix(1 0 0 -0.9849 2107.4746 3846.8389)" gradientUnits="userSpaceOnUse">
					<stop  offset="0" style="stop-color:#FFFCDD"/>
					<stop  offset="1" style="stop-color:#FEF9C8;stop-opacity:0"/>
				</radialGradient>
				
					<ellipse opacity="0.2" fill="url(#SVGID_17_)" enable-background="new    " cx="794.803" cy="290.979" rx="121.665" ry="119.829"/>
				
					<radialGradient id="SVGID_18_" cx="-1348.3213" cy="3524.6543" r="121.6636" gradientTransform="matrix(1 0 0 -0.9849 2107.4746 3846.8389)" gradientUnits="userSpaceOnUse">
					<stop  offset="0" style="stop-color:#99CCCC"/>
					<stop  offset="1" style="stop-color:#FEF9C8;stop-opacity:0"/>
				</radialGradient>
				<path opacity="0.2" fill="url(#SVGID_18_)" enable-background="new    " d="M759.155,255.547
					c67.191,0,121.662,53.647,121.662,119.826c0,66.178-54.471,119.83-121.662,119.83c-67.194,0-121.666-53.652-121.666-119.83
					C637.489,309.194,691.961,255.547,759.155,255.547z"/>
			</g>
			<g id="logo">
				
					<text transform="matrix(1 0 0 1 505.4844 92.9448)" opacity="0.8" fill="#FFFFFF" enable-background="new    " font-family="'Poppl-Laudatio-Condensed'" font-size="21">The universal operating system</text>
			</g>
			<g id="octopus_4_">
				
					<radialGradient id="SVGID_19_" cx="4229.9424" cy="1574.251" r="371.7294" gradientTransform="matrix(-0.9074 -0.3753 0.444 -1.0735 3905.7715 3642.2473)" gradientUnits="userSpaceOnUse">
					<stop  offset="0" style="stop-color:#BCCCB3"/>
					<stop  offset="1" style="stop-color:#FDF9C9;stop-opacity:0"/>
				</radialGradient>
				<path opacity="0.5" fill="url(#SVGID_19_)" enable-background="new    " d="M543.33,160.296c0,0-63.53,41.157-75.591,107.744
					c-20.393,112.558,40.427,157.046,162.162,172.978C844.413,469.08,803.246,587.51,797.374,597.66l14.228,3.984
					c14.24-15.383,50.726-146.205-163.782-174.273c-121.732-15.924-182.552-60.422-162.163-172.973
					C497.721,187.807,543.33,160.296,543.33,160.296"/>
				
					<radialGradient id="SVGID_20_" cx="4267.1953" cy="1510.5957" r="185.4817" gradientTransform="matrix(-0.9074 -0.3753 0.444 -1.0735 3905.7715 3642.2473)" gradientUnits="userSpaceOnUse">
					<stop  offset="0" style="stop-color:#BCCCB3"/>
					<stop  offset="1" style="stop-color:#FDF9C9;stop-opacity:0"/>
				</radialGradient>
				<path opacity="0.2" fill="url(#SVGID_20_)" enable-background="new    " d="M586.586,204.323c0,0-63.528,41.161-75.591,107.748
					c-20.391,112.556,40.427,157.048,162.16,172.976c214.508,28.068,173.351,146.496,167.469,156.643l17.922-13.643
					c5.873-10.15,47.039-128.574-167.471-156.646c-121.733-15.922-182.553-60.414-162.163-172.973
					C540.973,231.843,586.586,204.323,586.586,204.323"/>
				
					<linearGradient id="SVGID_21_" gradientUnits="userSpaceOnUse" x1="3990.2402" y1="1314.665" x2="4543.584" y2="1314.665" gradientTransform="matrix(-0.7571 -0.3131 0.3413 -0.8252 3485.8823 2784.3013)">
					<stop  offset="0" style="stop-color:#ABCCB3;stop-opacity:0.7"/>
					<stop  offset="0.33" style="stop-color:#B4CFB5;stop-opacity:0.05"/>
					<stop  offset="0.803" style="stop-color:#C1D4B8;stop-opacity:0.5"/>
					<stop  offset="1" style="stop-color:#FDF9C9;stop-opacity:0"/>
				</linearGradient>
				<path opacity="0.4" fill="url(#SVGID_21_)" enable-background="new    " d="M515.77,225.983c0,0,32.351-46.16,91.356-46.735
					C719.239,172.67,735.49,286.335,730.23,390.883c-0.461,9.234-1.714,32.551-6.021,76.439
					c-5.684,57.971,15.341,67.402,66.887,76.42c80.886,10.584,57.954,52.176,55.731,55.998l6.762-5.145
					c2.213-3.824,25.148-45.416-55.737-55.998c-49.745-7.23-66.8-28.029-63.229-72.43c3.57-44.4,3.4-46.184,6.407-87.203
					c10.325-140.728-16.25-209.266-118.783-217.295C563.239,162.246,515.77,225.983,515.77,225.983"/>
			</g>
			<g id="debian_5_">
				<path id="_x39__1_" fill="#FFFFFF" d="M729.717,280.764c-7.001,0.207-13.084-5.928-13.084-12.582
					c0-7.366,5.331-13.835,13.294-13.835c7.961,0,12.868,6.469,12.868,16.413c0,8.568-2.869,14.558-6.705,18.273
					c-2.99,2.932-7.124,4.73-11.316,5.21c-1.913,0.3-3.591,0.359-4.845,0.3c0,0,17.875-5.376,18.439-20.085
					c0.121-3.293,2.396-16.394-8.862-16.095c-4.487,0.118-7.664,3.953-7.664,9.465c0,4.85,1.489,8.286,6.401,9.49
					c3.433,0.841,5.587-0.49,8.134-6.709C736.38,270.607,737.506,280.535,729.717,280.764z"/>
				<g enable-background="new    ">
					<path fill="#FFFFFF" d="M629.812,305.128l-1.072,5.838l-0.953,0.299c-2.383-1.551-4.767-2.324-6.494-2.324
						c-2.026,0-3.099,1.252-3.099,2.563c0,4.408,12.273,3.336,12.273,11.975c0,4.588-3.456,9.057-11.082,9.057
						c-2.682,0-5.84-0.596-8.878-1.787l0.894-6.195l0.775-0.477c2.561,2.145,5.897,3.395,8.103,3.395
						c2.204,0,3.396-1.311,3.396-2.74c0-4.408-12.333-3.336-12.333-12.154c0-5.004,3.992-8.818,10.844-8.818
						C624.807,303.759,627.488,304.235,629.812,305.128z"/>
					<path fill="#FFFFFF" d="M650.96,325.087l0.654,0.598l-0.773,4.705c-1.967,1.014-4.051,1.668-6.196,1.906
						c-5.362-0.535-8.044-3.156-8.044-7.863l0.299-4.945l-0.06-10.248h-3.694l-0.298-0.418l0.417-4.35h3.516v-4.586l7.209-2.325
						l0.536,0.477l-0.179,6.434h7.09l0.237,0.418l-0.356,4.348h-7.09l-0.358,13.348c0,2.621,0.953,3.514,3.1,3.514
						C648.159,326.101,649.47,325.802,650.96,325.087z"/>
					<path fill="#FFFFFF" d="M672.587,304.294v7.328l-0.776,0.299c-0.773-0.299-1.548-0.418-2.204-0.418
						c-2.145,0-4.289,1.311-6.256,4.408v3.813l0.417,12.215h-7.924l0.417-11.439l-0.357-15.729l7.567-0.654l-0.06,5.42h0.417
						c2.085-3.813,4.706-5.361,7.328-5.361C671.573,304.175,672.109,304.235,672.587,304.294z"/>
					<path fill="#FFFFFF" d="M681.521,319.13c0.299,4.885,2.563,7.508,7.389,7.508c2.324,0,5.243-0.717,7.983-2.146l0.656,0.418
						l-1.073,5.838c-2.502,1.074-5.481,1.787-8.341,1.787c-8.818,0-13.942-5.42-13.942-14.299c0-9.057,5.361-14.477,13.703-14.477
						c6.972,0,10.784,4.109,10.784,10.902c0,1.014-0.119,2.441-0.237,3.275l-1.133,1.133L681.521,319.13z M691.829,313.767
						c0-3.277-1.608-4.824-4.229-4.824c-3.099,0-5.184,2.084-5.899,5.838l10.011-0.297L691.829,313.767z"/>
					<path fill="#FFFFFF" d="M719.354,325.087l0.655,0.598l-0.774,4.705c-1.967,1.014-4.052,1.668-6.197,1.906
						c-5.362-0.535-8.043-3.156-8.043-7.863l0.297-4.945l-0.059-10.248h-3.695l-0.296-0.418l0.417-4.35h3.515v-4.586l7.209-2.325
						l0.537,0.477l-0.181,6.434h7.091l0.238,0.418l-0.357,4.348h-7.09l-0.359,13.348c0,2.621,0.954,3.514,3.099,3.514
						C716.554,326.101,717.864,325.802,719.354,325.087z"/>
					<path fill="#FFFFFF" d="M742.409,305.188l-1.311,6.314l-0.655,0.297c-1.847-1.014-3.635-1.668-5.422-1.668
						c-3.635,0-5.72,2.682-5.72,7.566c0,5.543,2.204,8.58,6.195,8.58c1.847,0,3.874-0.535,5.958-1.49l0.596,0.479l-0.773,6.135
						c-2.265,0.715-4.887,1.133-7.329,1.133c-7.626,0-12.154-5.242-12.154-14.121c0-9.174,4.945-14.717,13.287-14.717
						C737.643,303.698,740.385,304.235,742.409,305.188z"/>
					<path fill="#FFFFFF" d="M763.619,314.661c0.06-2.801-1.251-4.408-3.755-4.408c-1.847,0-3.753,0.893-5.659,2.5l-0.12,6.971
						l0.417,12.215h-7.924l0.418-11.498l-0.358-29.73l7.924-0.596l-0.297,18.053h0.357c2.204-2.025,4.647-3.455,7.149-4.289
						c6.078,0,9.295,2.859,9.176,7.984l-0.179,7.922l0.357,12.154h-7.983L763.619,314.661z"/>
				</g>
				<g>
					<path fill="#FFFFFF" d="M625.54,269.79c-0.038,0.042-0.038,6.431-0.117,8.098c-0.079,1.348-0.199,4.247-3.058,4.247
						c-2.938,0-3.652-3.375-3.89-4.843c-0.278-1.625-0.278-2.979-0.278-3.571c0-1.906,0.119-7.226,4.604-7.226
						c1.351,0,2.104,0.397,2.7,0.716L625.54,269.79z M614.028,274.475c0,11.193,5.954,11.193,6.828,11.193
						c2.461,0,4.05-1.351,4.723-3.691l0.081,3.532c0.753-0.04,1.51-0.119,2.738-0.119c0.438,0,0.793,0,1.112,0.039
						c0.318,0,0.635,0.039,0.992,0.079c-0.635-1.269-1.111-4.126-1.111-10.322c0-6.035,0-16.234,0.518-19.331
						c-1.43,0.676-2.661,1.113-5.361,1.35c1.071,1.152,1.071,1.747,1.071,6.985c-0.752-0.238-1.706-0.517-3.334-0.517
						C615.181,263.677,614.028,269.87,614.028,274.475"/>
					<path fill="#FFFFFF" d="M635.558,272.447c0.039-3.294,0.715-6.23,3.532-6.23c3.098,0,3.334,3.413,3.255,6.23H635.558z
						 M646.274,272.847c0-4.644-0.913-9.209-6.787-9.209c-8.098,0-8.098,8.972-8.098,10.876c0,8.057,3.611,11.234,9.686,11.234
						c2.697,0,4.009-0.397,4.723-0.596c-0.037-1.43,0.158-2.343,0.397-3.572c-0.835,0.517-1.905,1.19-4.289,1.19
						c-6.192,0-6.272-5.638-6.272-7.583h10.561L646.274,272.847"/>
					<path fill="#FFFFFF" d="M659.189,274.553c0,3.691-0.674,8.654-5.28,8.654c-0.636,0-1.43-0.121-1.944-0.239
						c-0.082-1.43-0.082-3.89-0.082-6.749c0-3.414,0.357-5.197,0.638-6.074c0.832-2.817,2.698-2.855,3.054-2.855
						C658.594,267.292,659.189,271.458,659.189,274.553z M647.797,278.88c0,2.938,0,4.605-0.478,5.877
						c1.628,0.635,3.651,0.992,6.075,0.992c1.547,0,6.033,0,8.455-4.961c1.152-2.302,1.547-5.399,1.547-7.742
						c0-1.429-0.157-4.564-1.31-6.55c-1.111-1.864-2.897-2.817-4.803-2.817c-3.812,0-4.921,3.175-5.517,4.803
						c0-2.023,0.039-9.089,0.355-12.702c-2.579,1.191-4.168,1.387-5.873,1.546c1.548,0.636,1.548,3.257,1.548,11.791L647.797,278.88
						"/>
					<path fill="#FFFFFF" d="M671.027,285.508c-0.795-0.118-1.353-0.197-2.501-0.197c-1.269,0-2.145,0.079-3.056,0.197
						c0.396-0.753,0.56-1.112,0.675-3.691c0.158-3.533,0.197-12.98-0.081-14.966c-0.198-1.51-0.554-1.747-1.11-2.144
						c3.255-0.317,4.166-0.554,5.675-1.27c-0.316,1.745-0.358,2.622-0.358,5.279C670.191,282.415,670.153,283.882,671.027,285.508"
						/>
					<path fill="#FFFFFF" d="M683.739,274.274c-0.079,2.501-0.12,4.248-0.796,5.636c-0.834,1.788-2.224,2.303-3.256,2.303
						c-2.384,0-2.897-1.982-2.897-3.929c0-3.728,3.335-4.01,4.842-4.01H683.739z M672.821,279.158c0,2.503,0.757,5.002,2.979,6.075
						c0.992,0.436,1.984,0.436,2.303,0.436c3.652,0,4.88-2.699,5.637-4.366c-0.041,1.747,0,2.816,0.119,4.208
						c0.716-0.04,1.43-0.12,2.623-0.12c0.673,0,1.308,0.08,1.982,0.12c-0.437-0.674-0.674-1.072-0.795-2.62
						c-0.079-1.507-0.079-3.017-0.079-5.121l0.041-8.099c0-3.02-0.795-5.996-6.75-5.996c-3.931,0-6.229,1.191-7.382,1.788
						c0.477,0.873,0.876,1.624,1.23,3.334c1.55-1.351,3.573-2.065,5.635-2.065c3.298,0,3.298,2.185,3.298,5.28
						c-0.754-0.039-1.391-0.117-2.462-0.117C676.155,271.895,672.821,273.838,672.821,279.158"/>
					<path fill="#FFFFFF" d="M706.603,281.58c0.041,1.351,0.041,2.78,0.597,3.932c-0.877-0.081-1.392-0.199-3.018-0.199
						c-0.951,0-1.467,0.081-2.224,0.199c0.157-0.517,0.239-0.714,0.319-1.39c0.119-0.913,0.198-3.971,0.198-5.044v-4.287
						c0-1.866,0-4.567-0.121-5.517c-0.08-0.675-0.275-2.502-2.581-2.502c-2.261,0-3.017,1.667-3.292,3.017
						c-0.316,1.388-0.316,2.897-0.316,8.772c0.038,5.083,0.038,5.556,0.433,6.948c-0.672-0.079-1.506-0.157-2.697-0.157
						c-0.954,0-1.591,0.039-2.383,0.157c0.28-0.637,0.438-0.954,0.516-3.176c0.082-2.185,0.239-12.901-0.121-15.441
						c-0.197-1.549-0.596-1.906-1.03-2.303c3.217-0.158,4.248-0.675,5.241-1.189v4.205c0.475-1.23,1.466-3.969,5.437-3.969
						c4.963,0,5.001,3.612,5.041,5.994L706.603,281.58"/>
					<path fill="#FFFFFF" d="M671.362,257.821l-3.289,3.286l-3.285-3.286l3.285-3.287L671.362,257.821"/>
				</g>
			</g>
			<g id="logoGroup_4_">
				<circle fill="#386D6D" cx="546.732" cy="288.274" r="42.01"/>
				<g id="logo_6_" enable-background="new    ">
					<path fill="#FFFFFF" d="M550.424,290.352c-0.779,0.008,0.149,0.398,1.166,0.556c0.281-0.22,0.534-0.441,0.763-0.658
						C551.72,290.408,551.074,290.412,550.424,290.352"/>
					<path fill="#FFFFFF" d="M554.608,289.308c0.465-0.642,0.805-1.343,0.922-2.068c-0.104,0.519-0.386,0.962-0.647,1.434
						c-1.458,0.917-0.138-0.543-0.001-1.102C553.315,289.546,554.666,288.757,554.608,289.308"/>
					<path fill="#FFFFFF" d="M556.153,285.287c0.095-1.403-0.273-0.958-0.396-0.425
						C555.898,284.938,556.016,285.852,556.153,285.287"/>
					<path fill="#FFFFFF" d="M547.466,266.092c0.416,0.076,0.901,0.133,0.832,0.231
						C548.752,266.222,548.855,266.131,547.466,266.092"/>
					<path fill="#FFFFFF" d="M548.298,266.322l-0.293,0.063l0.271-0.028L548.298,266.322"/>
					<path fill="#FFFFFF" d="M561.275,285.819c0.048,1.261-0.368,1.875-0.742,2.958l-0.675,0.335
						c-0.551,1.073,0.055,0.684-0.339,1.533c-0.863,0.769-2.613,2.396-3.172,2.545c-0.411-0.012,0.278-0.486,0.365-0.668
						c-1.151,0.791-0.922,1.187-2.688,1.667l-0.053-0.115c-4.347,2.047-10.386-2.004-10.307-7.536
						c-0.046,0.349-0.13,0.264-0.229,0.404c-0.225-2.844,1.315-5.704,3.909-6.874c2.541-1.256,5.518-0.743,7.332,0.956
						c-1-1.308-2.985-2.693-5.34-2.567c-2.307,0.042-4.469,1.508-5.188,3.098c-1.184,0.743-1.32,2.869-1.834,3.257
						c-0.695,5.092,1.305,7.293,4.686,9.884c0.527,0.359,0.147,0.411,0.22,0.684c-1.124-0.524-2.149-1.319-2.995-2.291
						c0.448,0.656,0.935,1.292,1.56,1.794c-1.058-0.356-2.473-2.565-2.886-2.653c1.825,3.266,7.397,5.729,10.321,4.504
						c-1.351,0.052-3.066,0.027-4.588-0.534c-0.637-0.327-1.506-1.005-1.352-1.132c3.987,1.489,8.101,1.124,11.551-1.638
						c0.88-0.685,1.838-1.845,2.113-1.862c-0.417,0.629,0.071,0.303-0.251,0.855c0.875-1.411-0.379-0.574,0.903-2.435l0.474,0.651
						c-0.178-1.171,1.455-2.59,1.289-4.442c0.376-0.566,0.417,0.611,0.018,1.913c0.552-1.445,0.147-1.673,0.288-2.869
						c0.151,0.399,0.354,0.828,0.459,1.249c-0.36-1.397,0.365-2.35,0.548-3.159c-0.182-0.08-0.555,0.614-0.641-1.031
						c0.014-0.717,0.2-0.377,0.271-0.554c-0.141-0.081-0.51-0.63-0.733-1.684c0.162-0.246,0.434,0.64,0.655,0.676
						c-0.142-0.834-0.387-1.474-0.398-2.116c-0.647-1.351-0.23,0.181-0.753-0.58c-0.688-2.148,0.569-0.499,0.659-1.474
						c1.04,1.513,1.635,3.854,1.909,4.827c-0.208-1.183-0.543-2.329-0.956-3.44c0.314,0.137-0.513-2.433,0.41-0.732
						c-0.984-3.625-4.217-7.011-7.188-8.599c0.364,0.331,0.823,0.749,0.662,0.816c-1.482-0.879-1.222-0.948-1.433-1.322
						c-1.206-0.491-1.285,0.041-2.078,0.001c-2.27-1.206-2.709-1.078-4.798-1.831l0.095,0.448c-1.505-0.503-1.753,0.188-3.377,0
						c-0.097-0.079,0.521-0.281,1.031-0.355c-1.455,0.191-1.387-0.285-2.809,0.056c0.349-0.245,0.721-0.411,1.094-0.618
						c-1.184,0.071-2.83,0.691-2.322,0.125c-1.936,0.865-5.368,2.076-7.295,3.885l-0.061-0.406
						c-0.886,1.062-3.851,3.164-4.089,4.541l-0.234,0.052c-0.459,0.781-0.757,1.662-1.123,2.46
						c-0.601,1.023-0.881,0.394-0.794,0.553c-1.184,2.397-1.771,4.412-2.277,6.064c0.361,0.541,0.008,3.254,0.145,5.424
						c-0.593,10.72,7.525,21.132,16.397,23.534c1.3,0.467,3.233,0.449,4.877,0.494c-1.939-0.555-2.188-0.293-4.08-0.955
						c-1.363-0.639-1.663-1.371-2.63-2.215l0.383,0.676c-1.894-0.67-1.101-0.828-2.644-1.316l0.411-0.533
						c-0.613-0.047-1.625-1.033-1.905-1.586l-0.671,0.029c-0.808-0.998-1.238-1.713-1.206-2.273l-0.219,0.389
						c-0.244-0.422-2.969-3.734-1.558-2.965c-0.261-0.238-0.612-0.389-0.989-1.076l0.288-0.326c-0.68-0.875-1.253-1.999-1.207-2.374
						c0.363,0.49,0.612,0.581,0.861,0.665c-1.716-4.26-1.814-0.234-3.112-4.338l0.277-0.02c-0.212-0.32-0.342-0.663-0.511-1.003
						l0.121-1.193c-1.233-1.425-0.345-6.077-0.167-8.625c0.124-1.037,1.031-2.141,1.723-3.874l-0.421-0.073
						c0.803-1.4,4.593-5.635,6.349-5.42c0.853-1.065-0.168-0.003-0.337-0.271c1.87-1.933,2.456-1.362,3.718-1.711
						c1.358-0.807-1.166,0.313-0.521-0.306c2.351-0.601,1.665-1.364,4.73-1.671c0.323,0.184-0.75,0.281-1.019,0.522
						c1.959-0.958,6.196-0.74,8.948,0.529c3.191,1.496,6.779,5.905,6.922,10.056l0.162,0.042c-0.083,1.65,0.253,3.559-0.328,5.313
						L561.275,285.819"/>
					<path fill="#FFFFFF" d="M541.913,291.42l-0.111,0.548c0.512,0.695,0.919,1.451,1.573,1.992
						C542.904,293.044,542.556,292.665,541.913,291.42"/>
					<path fill="#FFFFFF" d="M543.123,291.373c-0.271-0.3-0.433-0.66-0.614-1.017c0.175,0.63,0.526,1.172,0.854,1.728
						L543.123,291.373"/>
					<path fill="#FFFFFF" d="M564.565,286.713l-0.114,0.29c-0.21,1.491-0.666,2.967-1.36,4.335
						C563.859,289.893,564.354,288.315,564.565,286.713"/>
					<path fill="#FFFFFF" d="M547.621,265.716c0.529-0.19,1.295-0.103,1.855-0.229c-0.731,0.062-1.456,0.098-2.172,0.185
						L547.621,265.716"/>
					<path fill="#FFFFFF" d="M529.108,275.563c0.122,1.124-0.847,1.56,0.214,0.817C529.891,275.098,529.101,276.026,529.108,275.563
						"/>
					<path fill="#FFFFFF" d="M527.862,280.768c0.243-0.75,0.289-1.199,0.382-1.634C527.57,279.995,527.932,280.18,527.862,280.768"
						/>
				</g>
			</g>
			<g id="logo_8_">
				
					<text transform="matrix(1 0 0 1 610.5078 358.0371)" opacity="0.8" fill="#FFFFFF" enable-background="new    " font-family="'Poppl-Laudatio-Condensed'" font-size="12">Official amd64</text>
			</g>
		</g>
	</g>
	<rect x="33.998" y="38.768" fill="#366C6C" width="366.746" height="517.531"/>
	<g>
		
			<text transform="matrix(1 0 0 1 71.4199 517.3018)" opacity="0.6" fill="#FFFFFF" enable-background="new    " font-family="'Poppl-Laudatio-Condensed'" font-size="7.8389">GNU/Linux</text>
		<g id="logo_4_">
			<g id="logoGroup_3_">
				<g id="logo_5_" enable-background="new    ">
					<path fill="#FFFFFF" d="M117.436,447.091c-0.962,0.012,0.184,0.492,1.441,0.687c0.348-0.271,0.662-0.545,0.941-0.812
						C119.038,447.159,118.24,447.164,117.436,447.091"/>
					<path fill="#FFFFFF" d="M122.605,445.802c0.576-0.793,0.993-1.658,1.14-2.555c-0.13,0.641-0.475,1.188-0.801,1.772
						c-1.802,1.135-0.169-0.673-0.003-1.36C121.009,446.097,122.675,445.12,122.605,445.802"/>
					<path fill="#FFFFFF" d="M124.515,440.835c0.118-1.733-0.341-1.184-0.493-0.523
						C124.199,440.405,124.342,441.534,124.515,440.835"/>
					<path fill="#FFFFFF" d="M113.782,417.128c0.515,0.096,1.111,0.164,1.026,0.287C115.372,417.289,115.5,417.178,113.782,417.128"
						/>
					<path fill="#FFFFFF" d="M114.809,417.413l-0.361,0.077l0.339-0.033L114.809,417.413"/>
					<path fill="#FFFFFF" d="M130.841,441.495c0.056,1.557-0.456,2.313-0.919,3.651l-0.832,0.416
						c-0.683,1.324,0.067,0.843-0.421,1.892c-1.065,0.948-3.227,2.96-3.918,3.143c-0.507-0.012,0.345-0.598,0.453-0.827
						c-1.423,0.979-1.141,1.468-3.32,2.063l-0.064-0.143c-5.371,2.527-12.829-2.478-12.732-9.31
						c-0.056,0.434-0.162,0.326-0.282,0.499c-0.277-3.515,1.625-7.043,4.829-8.487c3.137-1.551,6.813-0.918,9.054,1.18
						c-1.232-1.616-3.687-3.328-6.594-3.168c-2.849,0.047-5.518,1.858-6.405,3.824c-1.462,0.919-1.629,3.542-2.265,4.021
						c-0.858,6.291,1.609,9.008,5.782,12.207c0.655,0.444,0.185,0.509,0.273,0.846c-1.388-0.647-2.654-1.629-3.697-2.828
						c0.554,0.81,1.153,1.596,1.925,2.215c-1.307-0.441-3.053-3.169-3.563-3.277c2.253,4.036,9.137,7.075,12.748,5.563
						c-1.671,0.063-3.791,0.035-5.667-0.659c-0.788-0.404-1.86-1.242-1.669-1.4c4.924,1.838,10.005,1.39,14.267-2.022
						c1.084-0.843,2.269-2.279,2.611-2.298c-0.516,0.774,0.088,0.371-0.308,1.056c1.079-1.742-0.47-0.71,1.115-3.006l0.584,0.805
						c-0.219-1.446,1.795-3.2,1.591-5.485c0.463-0.698,0.514,0.753,0.023,2.359c0.68-1.784,0.18-2.066,0.354-3.543
						c0.186,0.494,0.436,1.022,0.566,1.544c-0.443-1.725,0.452-2.903,0.676-3.903c-0.221-0.097-0.684,0.762-0.791-1.273
						c0.016-0.885,0.247-0.464,0.336-0.682c-0.173-0.101-0.629-0.779-0.905-2.081c0.199-0.304,0.537,0.792,0.81,0.836
						c-0.175-1.033-0.478-1.82-0.493-2.614c-0.798-1.67-0.283,0.225-0.929-0.714c-0.85-2.654,0.703-0.616,0.812-1.821
						c1.286,1.868,2.022,4.761,2.359,5.96c-0.257-1.461-0.669-2.874-1.183-4.247c0.391,0.168-0.633-3.006,0.508-0.904
						c-1.216-4.478-5.208-8.661-8.878-10.622c0.449,0.41,1.015,0.926,0.816,1.008c-1.831-1.086-1.509-1.172-1.771-1.632
						c-1.488-0.605-1.584,0.051-2.566,0.003c-2.803-1.488-3.345-1.331-5.925-2.261l0.117,0.551c-1.858-0.619-2.165,0.231-4.17,0.002
						c-0.123-0.096,0.643-0.346,1.272-0.438c-1.796,0.237-1.712-0.354-3.468,0.066c0.432-0.303,0.89-0.507,1.354-0.764
						c-1.464,0.091-3.497,0.852-2.871,0.155c-2.389,1.066-6.629,2.565-9.01,4.797l-0.074-0.5c-1.092,1.311-4.756,3.909-5.051,5.609
						l-0.29,0.065c-0.566,0.963-0.934,2.051-1.384,3.037c-0.744,1.265-1.089,0.487-0.983,0.685
						c-1.459,2.962-2.186,5.448-2.812,7.489c0.447,0.667,0.011,4.017,0.18,6.697c-0.732,13.238,9.292,26.099,20.251,29.065
						c1.605,0.577,3.993,0.556,6.026,0.61c-2.397-0.685-2.708-0.36-5.042-1.179c-1.684-0.793-2.053-1.698-3.247-2.734l0.472,0.833
						c-2.339-0.828-1.36-1.024-3.265-1.627l0.506-0.656c-0.757-0.057-2.008-1.276-2.352-1.955l-0.831,0.033
						c-0.996-1.227-1.528-2.115-1.488-2.803l-0.27,0.479c-0.302-0.522-3.667-4.613-1.921-3.66c-0.325-0.297-0.757-0.482-1.224-1.332
						l0.356-0.404c-0.841-1.08-1.548-2.466-1.492-2.931c0.448,0.605,0.757,0.717,1.066,0.822c-2.123-5.263-2.242-0.288-3.846-5.357
						l0.341-0.026c-0.259-0.395-0.419-0.817-0.628-1.237l0.148-1.473c-1.524-1.764-0.427-7.505-0.205-10.654
						c0.153-1.279,1.272-2.646,2.125-4.782l-0.521-0.091c0.993-1.729,5.673-6.96,7.843-6.694c1.05-1.315-0.209-0.005-0.416-0.336
						c2.308-2.387,3.033-1.684,4.589-2.116c1.68-0.993-1.44,0.39-0.645-0.376c2.904-0.742,2.056-1.686,5.844-2.063
						c0.399,0.228-0.926,0.349-1.258,0.643c2.418-1.183,7.653-0.912,11.052,0.657c3.945,1.845,8.375,7.293,8.551,12.42l0.199,0.051
						c-0.1,2.038,0.314,4.396-0.404,6.562L130.841,441.495"/>
					<path fill="#FFFFFF" d="M106.923,448.411l-0.135,0.675c0.632,0.86,1.135,1.794,1.942,2.463
						C108.148,450.415,107.718,449.947,106.923,448.411"/>
					<path fill="#FFFFFF" d="M108.417,448.354c-0.334-0.371-0.535-0.815-0.757-1.259c0.213,0.781,0.649,1.449,1.052,2.135
						L108.417,448.354"/>
					<path fill="#FFFFFF" d="M134.902,442.598l-0.139,0.355c-0.258,1.844-0.821,3.667-1.68,5.356
						C134.031,446.525,134.642,444.574,134.902,442.598"/>
					<path fill="#FFFFFF" d="M113.975,416.666c0.653-0.238,1.6-0.131,2.292-0.287c-0.901,0.078-1.799,0.123-2.682,0.232
						L113.975,416.666"/>
					<path fill="#FFFFFF" d="M91.11,428.824c0.15,1.39-1.045,1.928,0.263,1.011C92.077,428.254,91.102,429.399,91.11,428.824"/>
					<path fill="#FFFFFF" d="M89.571,435.255c0.301-0.927,0.357-1.48,0.473-2.02C89.209,434.302,89.658,434.528,89.571,435.255"/>
				</g>
			</g>
		</g>
		
			<text transform="matrix(1 0 0 1 71.4199 504.5859)" fill="#FFFFFF" font-family="'Poppl-Laudatio-Condensed'" font-size="23.5168">debian</text>
		<g>
			<g>
				<path fill="#FFFFFF" d="M146.057,508.565c-4.433,0.132-8.284-3.752-8.284-7.964c0-4.663,3.376-8.758,8.418-8.758
					c5.041,0,8.151,4.096,8.151,10.39c0,5.424-1.819,9.215-4.247,11.566c-1.895,1.856-4.514,2.994-7.167,3.299
					c-1.213,0.189-2.274,0.228-3.07,0.189c0,0,11.322-3.403,11.678-12.713c0.078-2.086,1.517-10.379-5.611-10.189
					c-2.842,0.074-4.854,2.502-4.854,5.989c0,3.072,0.943,5.247,4.056,6.009c2.174,0.533,3.538-0.31,5.15-4.249
					C150.276,502.135,150.989,508.419,146.057,508.565z"/>
			</g>
		</g>
	</g>
</g>
</svg>
