<?xml version="1.0" encoding="UTF-8" standalone="no"?>
<!-- Created with Inkscape (http://www.inkscape.org/) -->

<svg
   xmlns:ns2="http://ns.adobe.com/AdobeIllustrator/10.0/"
   xmlns:dc="http://purl.org/dc/elements/1.1/"
   xmlns:cc="http://creativecommons.org/ns#"
   xmlns:rdf="http://www.w3.org/1999/02/22-rdf-syntax-ns#"
   xmlns:svg="http://www.w3.org/2000/svg"
   xmlns="http://www.w3.org/2000/svg"
   xmlns:sodipodi="http://sodipodi.sourceforge.net/DTD/sodipodi-0.dtd"
   xmlns:inkscape="http://www.inkscape.org/namespaces/inkscape"
   width="800"
   height="75"
   viewBox="0 0 211.66666 19.843751"
   version="1.1"
   id="svg8"
   inkscape:version="0.92.2 (5c3e80d, 2017-08-06)"
   sodipodi:docname="installer.svg"
   inkscape:export-filename="C:\Users\xine\Documents\2018-debian-buster\futurePrototype-source\debian-installer\png\installer.png"
   inkscape:export-xdpi="96"
   inkscape:export-ydpi="96">
  <defs
     id="defs2" />
  <sodipodi:namedview
     id="base"
     pagecolor="#ffffff"
     bordercolor="#b20eb2"
     borderopacity="1"
     inkscape:pageopacity="0.0"
     inkscape:pageshadow="2"
     inkscape:zoom="0.87598803"
     inkscape:cx="131.27999"
     inkscape:cy="56.43548"
     inkscape:document-units="px"
     inkscape:current-layer="layer1"
     showgrid="false"
     units="px"
     borderlayer="true"
     inkscape:showpageshadow="false"
     showborder="true"
     inkscape:window-width="1920"
     inkscape:window-height="1017"
     inkscape:window-x="-8"
     inkscape:window-y="-8"
     inkscape:window-maximized="1"
     inkscape:snap-bbox="true"
     inkscape:bbox-paths="true"
     inkscape:bbox-nodes="true"
     inkscape:snap-bbox-edge-midpoints="true"
     inkscape:snap-bbox-midpoints="true"
     inkscape:object-paths="true"
     inkscape:snap-intersection-paths="true"
     inkscape:snap-smooth-nodes="true"
     inkscape:snap-page="true" />
  <metadata
     id="metadata5">
    <rdf:RDF>
      <cc:Work
         rdf:about="">
        <dc:format>image/svg+xml</dc:format>
        <dc:type
           rdf:resource="http://purl.org/dc/dcmitype/StillImage" />
        <dc:title></dc:title>
      </cc:Work>
    </rdf:RDF>
  </metadata>
  <g
     inkscape:label="Layer 1"
     inkscape:groupmode="layer"
     id="layer1"
     transform="translate(0,-277.15624)">
    <rect
       style="opacity:1;fill:#1f2b43;fill-opacity:1;fill-rule:nonzero;stroke:none;stroke-width:2.64583349;stroke-linecap:square;stroke-linejoin:miter;stroke-miterlimit:4;stroke-dasharray:none;stroke-dashoffset:0;stroke-opacity:1;paint-order:normal"
       id="rect812"
       width="211.66667"
       height="19.84375"
       x="0"
       y="277.15625" />
    <g
       id="g990"
       transform="translate(-0.26104079,-0.52917668)">
      <g
         style="display:inline;stroke-width:13.16655159"
         transform="matrix(0.07595003,0,0,0.07595003,140.25173,212.94636)"
         id="g1124">
        <flowRoot
           xml:space="preserve"
           id="flowRoot898"
           style="font-style:normal;font-weight:normal;font-size:96px;line-height:1.25;font-family:sans-serif;letter-spacing:0px;word-spacing:0px;display:inline;fill:#9ab0c9;fill-opacity:1;stroke:none;stroke-width:8.40830994"
           transform="matrix(0.25894399,0,0,0.25894399,-907.63983,608.9833)"><flowRegion
             id="flowRegion900"
             style="font-size:96px;fill:#9ab0c9;fill-opacity:1;stroke-width:8.40830994"><rect
               id="rect902"
               width="1058.4043"
               height="486.29398"
               x="2774.7358"
               y="1080.1415"
               style="font-size:96px;fill:#9ab0c9;fill-opacity:1;stroke-width:8.40830994" /></flowRegion><flowPara
             id="flowPara904"
             style="font-style:normal;font-variant:normal;font-weight:bold;font-stretch:normal;font-size:266.66665649px;font-family:quicksand;-inkscape-font-specification:'quicksand Bold';fill:#9ab0c9;fill-opacity:1;stroke-width:8.40830994">10</flowPara></flowRoot>        <g
           style="overflow:visible;stroke-width:0.95304579"
           id="g1021"
           transform="matrix(3.6552808,0,0,3.6552808,-581.99035,521.75131)">
          <g
             ns2:rgbTrio="#4F008000FFFF"
             ns2:dimmedPercent="50"
             ns2:layer="yes"
             id="Layer_1"
             style="stroke-width:0.95304579">
            <g
               id="g991"
               style="stroke-width:0.95304579">
              <path
                 id="path977"
                 d="m 13.437,125.506 c -0.045,0.047 -0.045,7.506 -0.138,9.453 -0.092,1.574 -0.232,4.957 -3.568,4.957 -3.429,0 -4.263,-3.939 -4.541,-5.652 -0.324,-1.9 -0.324,-3.477 -0.324,-4.17 0,-2.225 0.139,-8.436 5.375,-8.436 1.576,0 2.456,0.465 3.151,0.834 z M 0,130.975 c 0,13.066 6.951,13.066 7.97,13.066 2.873,0 4.727,-1.576 5.514,-4.309 l 0.093,4.123 c 0.881,-0.047 1.761,-0.139 3.197,-0.139 0.51,0 0.926,0 1.298,0.047 0.371,0 0.741,0.045 1.158,0.092 -0.741,-1.482 -1.297,-4.818 -1.297,-12.049 0,-7.043 0,-18.951 0.602,-22.566 -1.667,0.789 -3.105,1.299 -6.256,1.576 1.251,1.344 1.251,2.039 1.251,8.154 -0.879,-0.277 -1.992,-0.602 -3.892,-0.602 C 1.344,118.369 0,125.598 0,130.975"
                 ns2:knockout="Off"
                 inkscape:connector-curvature="0"
                 style="fill:#f9f9f9;stroke-width:0.95304579" />
              <path
                 id="path979"
                 d="m 25.13,128.609 c 0.047,-3.846 0.835,-7.275 4.124,-7.275 3.615,0 3.891,3.984 3.799,7.275 z m 12.51,0.465 c 0,-5.422 -1.065,-10.752 -7.923,-10.752 -9.452,0 -9.452,10.475 -9.452,12.697 0,9.406 4.216,13.113 11.306,13.113 3.149,0 4.68,-0.461 5.514,-0.695 -0.046,-1.668 0.185,-2.734 0.465,-4.17 -0.975,0.604 -2.226,1.391 -5.006,1.391 -7.229,0 -7.322,-6.582 -7.322,-8.852 H 37.55 l 0.09,-2.732"
                 ns2:knockout="Off"
                 inkscape:connector-curvature="0"
                 style="fill:#f9f9f9;stroke-width:0.95304579" />
              <path
                 id="path981"
                 d="m 52.715,131.066 c 0,4.309 -0.787,10.102 -6.162,10.102 -0.742,0 -1.668,-0.141 -2.27,-0.279 -0.093,-1.668 -0.093,-4.541 -0.093,-7.877 0,-3.986 0.416,-6.068 0.742,-7.09 0.972,-3.289 3.15,-3.334 3.566,-3.334 3.522,0 4.217,4.865 4.217,8.478 z m -13.298,5.051 c 0,3.43 0,5.375 -0.556,6.857 1.9,0.742 4.262,1.158 7.09,1.158 1.807,0 7.043,0 9.869,-5.791 1.344,-2.688 1.807,-6.303 1.807,-9.037 0,-1.668 -0.186,-5.328 -1.529,-7.646 -1.296,-2.176 -3.382,-3.289 -5.605,-3.289 -4.449,0 -5.746,3.707 -6.44,5.607 0,-2.363 0.045,-10.611 0.415,-14.828 -3.011,1.391 -4.866,1.621 -6.857,1.807 1.807,0.74 1.807,3.801 1.807,13.764 v 11.398"
                 ns2:knockout="Off"
                 inkscape:connector-curvature="0"
                 style="fill:#f9f9f9;stroke-width:0.95304579" />
              <path
                 id="path983"
                 d="m 66.535,143.855 c -0.928,-0.139 -1.578,-0.232 -2.922,-0.232 -1.48,0 -2.502,0.094 -3.566,0.232 0.463,-0.881 0.648,-1.299 0.787,-4.309 0.186,-4.125 0.232,-15.154 -0.092,-17.471 -0.232,-1.762 -0.648,-2.039 -1.297,-2.502 3.799,-0.371 4.865,-0.648 6.625,-1.482 -0.369,2.037 -0.418,3.059 -0.418,6.162 -0.091,15.989 -0.138,17.702 0.883,19.602"
                 ns2:knockout="Off"
                 inkscape:connector-curvature="0"
                 style="fill:#f9f9f9;stroke-width:0.95304579" />
              <path
                 id="path985"
                 d="m 81.373,130.74 c -0.092,2.92 -0.139,4.959 -0.928,6.58 -0.973,2.086 -2.594,2.688 -3.799,2.688 -2.783,0 -3.383,-2.316 -3.383,-4.586 0,-4.355 3.893,-4.682 5.652,-4.682 z m -12.744,5.701 c 0,2.92 0.881,5.838 3.477,7.09 1.158,0.51 2.316,0.51 2.688,0.51 4.264,0 5.699,-3.152 6.58,-5.098 -0.047,2.039 0,3.289 0.139,4.912 0.834,-0.047 1.668,-0.139 3.059,-0.139 0.787,0 1.529,0.092 2.316,0.139 -0.51,-0.787 -0.787,-1.252 -0.928,-3.059 -0.092,-1.76 -0.092,-3.521 -0.092,-5.977 l 0.047,-9.453 c 0,-3.523 -0.928,-6.998 -7.879,-6.998 -4.586,0 -7.273,1.391 -8.617,2.086 0.557,1.02 1.02,1.898 1.436,3.893 1.809,-1.576 4.172,-2.41 6.58,-2.41 3.848,0 3.848,2.549 3.848,6.162 -0.881,-0.045 -1.623,-0.137 -2.875,-0.137 -5.887,10e-4 -9.779,2.268 -9.779,8.479"
                 ns2:knockout="Off"
                 inkscape:connector-curvature="0"
                 style="fill:#f9f9f9;stroke-width:0.95304579" />
              <path
                 id="path987"
                 d="m 108.063,139.268 c 0.047,1.576 0.047,3.244 0.695,4.588 -1.021,-0.092 -1.623,-0.232 -3.521,-0.232 -1.113,0 -1.715,0.094 -2.596,0.232 0.184,-0.602 0.279,-0.834 0.371,-1.623 0.139,-1.064 0.232,-4.633 0.232,-5.885 v -5.004 c 0,-2.178 0,-5.33 -0.141,-6.441 -0.092,-0.787 -0.322,-2.918 -3.012,-2.918 -2.641,0 -3.521,1.945 -3.846,3.521 -0.369,1.621 -0.369,3.383 -0.369,10.24 0.045,5.932 0.045,6.486 0.508,8.109 -0.787,-0.092 -1.76,-0.184 -3.15,-0.184 -1.113,0 -1.854,0.045 -2.779,0.184 0.324,-0.742 0.51,-1.113 0.602,-3.707 0.094,-2.549 0.279,-15.061 -0.141,-18.025 -0.23,-1.809 -0.695,-2.225 -1.203,-2.688 3.754,-0.186 4.957,-0.789 6.117,-1.389 v 4.91 c 0.555,-1.438 1.713,-4.635 6.348,-4.635 5.793,0 5.838,4.217 5.885,6.996 v 13.951"
                 ns2:knockout="Off"
                 inkscape:connector-curvature="0"
                 style="fill:#f9f9f9;stroke-width:0.95304579" />
              <path
                 id="path989"
                 d="m 66.926,111.533 -3.838,3.836 -3.836,-3.836 3.836,-3.836 3.838,3.836"
                 ns2:knockout="Off"
                 inkscape:connector-curvature="0"
                 style="fill:#9ab0c9;fill-opacity:1;stroke-width:0.95304579" />
            </g>
          </g>
        </g>
      </g>
      <g
         transform="matrix(0.1732189,0,0,0.1732189,97.642828,270.35566)"
         id="g1108"
         style="overflow:visible;fill:#9ab0c9;fill-opacity:1;stroke-width:1.52745044">
        <g
           transform="translate(-93.766085,42.315052)"
           style="fill:#9ab0c9;fill-opacity:1;stroke-width:1.52745044"
           id="Layer_1-8"
           ns2:layer="yes"
           ns2:dimmedPercent="50"
           ns2:rgbTrio="#4F008000FFFF">
          <g
             style="fill:#9ab0c9;fill-opacity:1;stroke-width:1.52745044"
             id="g1085">
            <path
               style="fill:#9ab0c9;fill-opacity:1;stroke-width:1.52745044"
               inkscape:connector-curvature="0"
               ns2:knockout="Off"
               d="m 51.986,57.297 c -1.797,0.025 0.34,0.926 2.686,1.287 0.648,-0.506 1.236,-1.018 1.76,-1.516 -1.461,0.358 -2.948,0.366 -4.446,0.229"
               id="path1061" />
            <path
               style="fill:#9ab0c9;fill-opacity:1;stroke-width:1.52745044"
               inkscape:connector-curvature="0"
               ns2:knockout="Off"
               d="m 61.631,54.893 c 1.07,-1.477 1.85,-3.094 2.125,-4.766 -0.24,1.192 -0.887,2.221 -1.496,3.307 -3.359,2.115 -0.316,-1.256 -0.002,-2.537 -3.612,4.546 -0.496,2.726 -0.627,3.996"
               id="path1063" />
            <path
               style="fill:#9ab0c9;fill-opacity:1;stroke-width:1.52745044"
               inkscape:connector-curvature="0"
               ns2:knockout="Off"
               d="m 65.191,45.629 c 0.217,-3.236 -0.637,-2.213 -0.924,-0.978 0.335,0.174 0.6,2.281 0.924,0.978"
               id="path1065" />
            <path
               style="fill:#9ab0c9;fill-opacity:1;stroke-width:1.52745044"
               inkscape:connector-curvature="0"
               ns2:knockout="Off"
               d="m 45.172,1.399 c 0.959,0.172 2.072,0.304 1.916,0.533 1.049,-0.23 1.287,-0.442 -1.916,-0.533"
               id="path1067" />
            <path
               style="fill:#9ab0c9;fill-opacity:1;stroke-width:1.52745044"
               inkscape:connector-curvature="0"
               ns2:knockout="Off"
               d="M 47.088,1.932 46.41,2.072 47.041,2.016 47.088,1.932"
               id="path1069" />
            <path
               style="fill:#9ab0c9;fill-opacity:1;stroke-width:1.52745044"
               inkscape:connector-curvature="0"
               ns2:knockout="Off"
               d="m 71.033421,51.656235 c 0.09866,2.679522 -0.783756,3.979634 -1.579498,6.281109 l -1.431967,0.715523 c -1.171945,2.275657 0.113414,1.444876 -0.725666,3.25489 -1.829377,1.626523 -5.551755,5.0898 -6.743063,5.406068 -0.869507,-0.01936 0.5892,-1.026258 0.780067,-1.420902 -2.449005,1.681847 -1.964921,2.524615 -5.71035,3.546263 l -0.109726,-0.243425 c -9.237249,4.345693 -22.068709,-4.266396 -21.899971,-16.017196 -0.09866,0.745951 -0.280308,0.559694 -0.485007,0.861209 -0.476707,-6.045982 2.792014,-12.118703 8.305042,-14.598137 5.392238,-2.669379 11.713917,-1.573965 15.576448,2.025777 -2.121672,-2.779104 -6.344731,-5.725103 -11.349701,-5.449405 -4.902621,0.07745 -9.488973,3.193112 -11.019602,6.575247 -2.511705,1.581342 -2.803078,6.095773 -3.897569,6.921944 -1.472539,10.82228 2.769884,15.498073 9.946317,20.998192 1.12953,0.761626 0.318113,0.876884 0.471176,1.456863 -2.384461,-1.116621 -4.567911,-2.802156 -6.363173,-4.865738 0.952494,1.394162 1.980597,2.749598 3.309293,3.814584 -2.247995,-0.761626 -5.251162,-5.447562 -6.128046,-5.638429 3.87544,6.938541 15.723057,12.168495 21.926712,9.573803 -2.870389,0.106038 -6.517158,0.05901 -9.742542,-1.133218 -1.354514,-0.697081 -3.1968,-2.141036 -2.867623,-2.411201 8.466403,3.162684 17.212192,2.395526 24.538001,-3.477108 1.863494,-1.451331 3.899414,-3.920621 4.487691,-3.954738 -0.886104,1.332385 0.151219,0.640836 -0.529265,1.817391 1.857039,-2.994868 -0.806807,-1.21897 1.91974,-5.171864 l 1.006895,1.386786 c -0.374359,-2.485888 3.087074,-5.504729 2.735768,-9.436416 0.793898,-1.202373 0.886104,1.293658 0.04334,4.059854 1.169178,-3.068634 0.307969,-3.561938 0.608563,-6.09393 0.324567,0.851067 0.750561,1.755613 0.96909,2.653704 -0.761626,-2.965362 0.781912,-4.993905 1.163647,-6.717245 -0.376203,-0.166894 -1.175634,1.311177 -1.358202,-2.191749 0.02674,-1.521408 0.423227,-0.797587 0.57629,-1.171945 -0.298749,-0.171504 -1.082504,-1.337917 -1.559212,-3.574847 0.345774,-0.525577 0.923909,1.362812 1.394163,1.440266 -0.302438,-1.778664 -0.823405,-3.135022 -0.844612,-4.499679 -1.373877,-2.871311 -0.485929,0.382657 -1.600705,-1.232801 -1.462396,-4.561457 1.213437,-1.058531 1.394162,-3.131334 2.216645,3.211554 3.480797,8.188862 4.060776,10.2506 -0.442592,-2.51355 -1.158114,-4.948724 -2.03131,-7.304601 0.673107,0.283074 -1.084349,-5.171864 0.87504,-1.559212 -2.093088,-7.701089 -8.957864,-14.896887 -15.273089,-18.273489 0.772691,0.707224 1.748236,1.595172 1.397851,1.734404 -3.140554,-1.869948 -2.588237,-2.015634 -3.038205,-2.805844 -2.558731,-1.041012 -2.726547,0.08391 -4.421303,0.0018 -4.822401,-2.557809 -5.751843,-2.2858 -10.189743,-3.888349 l 0.201932,0.943272 c -3.194956,-1.064063 -3.722377,0.403865 -7.175512,0.0037 -0.21023,-0.164128 1.106479,-0.59381 2.189905,-0.751484 -3.088918,0.407553 -2.944154,-0.6085626 -5.966684,0.112492 0.745026,-0.5227775 1.53247,-0.868552 2.32729,-1.3129875 -2.519082,0.1530629 -6.01371,1.4660835 -4.934893,0.2720093 C 30.153658,11.269778 22.856434,13.843262 18.761542,17.682741 L 18.632453,16.822454 C 16.75605,19.07506 10.450046,23.549843 9.94752,26.467257 l -0.5016035,0.117102 c -0.9764671,1.653263 -1.6080818,3.5269 -2.3826166,5.22811 -1.2770604,2.176074 -1.8717924,0.837235 -1.6901456,1.1784 C 2.8614486,38.083435 1.6138943,42.36274 0.536,45.87212 c 0.7680804,1.147971 0.0184413,6.910879 0.30889186,11.52305 -1.26138526,22.7787 15.98676714,44.89536 34.84023514,50.00175 2.76343,0.98846 6.873075,0.95065 10.368624,1.05208 -4.124398,-1.17932 -4.657352,-0.62516 -8.67479,-2.02578 -2.898051,-1.36465 -3.533354,-2.92294 -5.585871,-4.70437 l 0.812339,1.43565 c -4.025736,-1.42459 -2.341123,-1.76299 -5.616299,-2.80031 l 0.867663,-1.133219 c -1.304722,-0.09866 -3.4559,-2.199125 -4.044178,-3.36185 l -1.427357,0.05625 C 20.670217,93.799228 19.75645,92.274132 19.822839,91.092966 l -0.461033,0.82156 c -0.522811,-0.897169 -6.309692,-7.936215 -3.307448,-6.297705 -0.557849,-0.509902 -1.29919,-0.829859 -2.103231,-2.29041 l 0.61133,-0.698926 c -1.444877,-1.858883 -2.659237,-4.2415 -2.56703,-5.035398 0.770846,1.041011 1.305644,1.235567 1.83491,1.413526 -3.648612,-9.052837 -3.8533109,-0.498837 -6.6167405,-9.21512 l 0.5845894,-0.04703 C 7.3500622,69.068516 7.078053,68.335474 6.7175254,67.616263 l 0.25449,-2.53568 C 4.3450516,62.0433 6.2371294,52.166138 6.6160983,46.749004 6.8788869,44.54619 8.8087694,42.201378 10.276697,38.524182 L 9.382294,38.370197 c 1.709509,-2.981959 9.760983,-11.975783 13.489815,-11.512906 1.806325,-2.269203 -0.358684,-0.0083 -0.711835,-0.579979 3.967647,-4.105957 5.215201,-2.900818 7.892879,-3.639392 2.887908,-1.714119 -2.478512,0.668497 -1.109245,-0.653744 4.992062,-1.275217 3.537965,-2.898973 10.050512,-3.546263 0.686938,0.390955 -1.594251,0.603952 -2.166854,1.111088 4.159437,-2.034998 13.162482,-1.572121 19.010219,1.12953 6.785479,3.170983 14.409114,12.544698 14.709707,21.364252 l 0.342087,0.09221 c -0.173349,3.505692 0.536642,7.560013 -0.693393,11.284234 l 0.837235,-1.762989"
               id="path1071" />
            <path
               style="fill:#9ab0c9;fill-opacity:1;stroke-width:1.52745044"
               inkscape:connector-curvature="0"
               ns2:knockout="Off"
               d="m 32.372,59.764 -0.252,1.26 c 1.181,1.604 2.118,3.342 3.626,4.596 -1.085,-2.118 -1.891,-2.993 -3.374,-5.856"
               id="path1073" />
            <path
               style="fill:#9ab0c9;fill-opacity:1;stroke-width:1.52745044"
               inkscape:connector-curvature="0"
               ns2:knockout="Off"
               d="m 35.164,59.654 c -0.625,-0.691 -0.995,-1.523 -1.409,-2.352 0.396,1.457 1.207,2.709 1.962,3.982 l -0.553,-1.63"
               id="path1075" />
            <path
               style="fill:#9ab0c9;fill-opacity:1;stroke-width:1.52745044"
               inkscape:connector-curvature="0"
               ns2:knockout="Off"
               d="m 84.568,48.916 -0.264,0.662 c -0.484,3.438 -1.529,6.84 -3.131,9.994 1.77,-3.328 2.915,-6.968 3.395,-10.656"
               id="path1077" />
            <path
               style="fill:#9ab0c9;fill-opacity:1;stroke-width:1.52745044"
               inkscape:connector-curvature="0"
               ns2:knockout="Off"
               d="M 45.527,0.537 C 46.742,0.092 48.514,0.293 49.803,0 48.123,0.141 46.451,0.225 44.8,0.438 l 0.727,0.099"
               id="path1079" />
            <path
               style="fill:#9ab0c9;fill-opacity:1;stroke-width:1.52745044"
               inkscape:connector-curvature="0"
               ns2:knockout="Off"
               d="m 2.872,23.219 c 0.28,2.592 -1.95,3.598 0.494,1.889 1.31,-2.951 -0.512,-0.815 -0.494,-1.889"
               id="path1081" />
            <path
               style="fill:#9ab0c9;fill-opacity:1;stroke-width:1.52745044"
               inkscape:connector-curvature="0"
               ns2:knockout="Off"
               d="M 0,35.215 C 0.563,33.487 0.665,32.449 0.88,31.449 -0.676,33.438 0.164,33.862 0,35.215"
               id="path1083" />
          </g>
        </g>
      </g>
    </g>
    <path
       inkscape:connector-curvature="0"
       style="display:inline;opacity:0.05;fill:#ffffff;fill-opacity:1;fill-rule:nonzero;stroke:none;stroke-width:6.98096466;stroke-linecap:butt;stroke-linejoin:round;stroke-miterlimit:4;stroke-dasharray:none;stroke-dashoffset:0;stroke-opacity:1;paint-order:normal;enable-background:new"
       d="m 0,241.18944 v 111.6211 h 101.78481 c 3.6852,-5.75327 5.56291,-12.50653 4.2192,-19.42762 -1.32232,-8.68758 -9.106882,-14.7554 -17.36046,-16.39424 -10.78435,-1.93019 -22.36144,-0.56938 -32.44987,-5.66271 -17.49965,-8.03333 -27.24316,-29.27421 -22.22057,-47.79899 2.16114,-8.95471 7.63031,-16.77649 14.84769,-22.33754 z"
       id="rect839" />
    <path
       inkscape:connector-curvature="0"
       style="display:inline;opacity:0.05;fill:#ffffff;fill-opacity:1;fill-rule:nonzero;stroke:none;stroke-width:6.98096466;stroke-linecap:butt;stroke-linejoin:round;stroke-miterlimit:4;stroke-dasharray:none;stroke-dashoffset:0;stroke-opacity:1;paint-order:normal;enable-background:new"
       d="M 165.41182,315.18475 C 123.79254,315.11015 99.268598,334.10998 74.00065,332.34667 34.6875,329.60324 25.48534,340.83567 0,347.60656 v 5.20398 H 211.66667 V 319.4205 c -13.41635,0.23207 -28.79465,-4.08197 -45.26856,-4.2304 -0.32984,-0.003 -0.65857,-0.005 -0.98629,-0.005 z"
       id="rect841" />
    <path
       inkscape:connector-curvature="0"
       style="display:inline;opacity:0.05;fill:#ffffff;fill-opacity:1;fill-rule:nonzero;stroke:none;stroke-width:6.98096466;stroke-linecap:butt;stroke-linejoin:round;stroke-miterlimit:4;stroke-dasharray:none;stroke-dashoffset:0;stroke-opacity:1;paint-order:normal;enable-background:new"
       d="m 0,311.83638 v 40.97416 h 211.66667 v -16.35529 c -13.56393,-5.39354 -33.81413,-10.02993 -49.19596,-8.24269 -22.86445,2.65665 -71.50378,23.23558 -107.69369,12.60905 C 29.70837,333.46064 19.10387,316.89372 0,311.83638 Z"
       id="rect843" />
    <path
       inkscape:connector-curvature="0"
       style="display:inline;opacity:0.05;fill:#ffffff;fill-opacity:1;fill-rule:nonzero;stroke:none;stroke-width:6.98096466;stroke-linecap:butt;stroke-linejoin:round;stroke-miterlimit:4;stroke-dasharray:none;stroke-dashoffset:0;stroke-opacity:1;paint-order:normal;enable-background:new"
       d="m 0,241.18944 v 64.3514 c 12.2398,-0.48436 26.79933,-3.16894 33.38489,-6.26577 10.07651,-4.73845 18.18914,-13.50195 22.13548,-23.91126 3.40576,-8.98341 3.71473,-19.10752 0.86306,-28.28174 -0.62759,-2.01903 -1.40755,-3.98922 -2.32635,-5.89263 z"
       id="rect845" />
    <path
       inkscape:connector-curvature="0"
       style="display:inline;opacity:0.05;fill:#ffffff;fill-opacity:1;fill-rule:nonzero;stroke:none;stroke-width:6.98096466;stroke-linecap:butt;stroke-linejoin:round;stroke-miterlimit:4;stroke-dasharray:none;stroke-dashoffset:0;stroke-opacity:1;paint-order:normal;enable-background:new"
       d="m 0,241.18944 v 45.99546 c 7.6728796,1.60883 15.52171,2.37527 23.36097,2.24984 19.20388,-0.30726 38.29443,-5.96319 54.56648,-16.16625 6.78773,-4.2561 13.13883,-9.30776 20.471028,-12.53678 7.316022,-3.22189 15.458832,-4.51057 23.422562,-3.81497 7.96371,0.6956 15.73504,3.36378 22.50598,7.61339 13.54187,8.49922 22.71896,23.33023 25.09849,39.14026 0.7528,5.00162 0.88453,10.16177 2.63096,14.90865 2.1024,5.71439 6.44779,10.42045 11.54162,13.75623 5.09381,3.33577 10.91947,5.39799 16.81201,6.93292 3.70321,0.96467 7.48637,1.74499 11.25657,2.55747 V 241.18944 Z"
       id="rect847" />
    <path
       inkscape:connector-curvature="0"
       style="display:inline;opacity:0.05;fill:#ffffff;fill-opacity:1;fill-rule:nonzero;stroke:none;stroke-width:6.98096466;stroke-linecap:butt;stroke-linejoin:round;stroke-miterlimit:4;stroke-dasharray:none;stroke-dashoffset:0;stroke-opacity:1;paint-order:normal;enable-background:new"
       d="m 143.98831,241.18944 c -17.80856,6.29772 -33.4812,20.35587 -40.61293,39.14177 -12.97841,34.18675 57.36361,48.78084 40.89906,8.86856 -14.06397,-34.09295 36.05033,-12.90176 67.39223,35.78796 V 254.8621 c -4.76489,-2.3281 -11.8662,-6.24735 -23.10149,-11.84138 -1.35603,-0.67517 -2.73193,-1.2849 -4.12433,-1.83128 z"
       id="rect849" />
  </g>
</svg>
