<?xml version="1.0" encoding="UTF-8" standalone="no"?>
<svg
   xmlns:dc="http://purl.org/dc/elements/1.1/"
   xmlns:cc="http://creativecommons.org/ns#"
   xmlns:rdf="http://www.w3.org/1999/02/22-rdf-syntax-ns#"
   xmlns:svg="http://www.w3.org/2000/svg"
   xmlns="http://www.w3.org/2000/svg"
   version="1.1"
   id="svg4339"
   viewBox="0 0 744.09448819 1052.3622047"
   height="297mm"
   width="210mm">
  <defs
     id="defs4341" />
  <metadata
     id="metadata4344">
    <rdf:RDF>
      <cc:Work
         rdf:about="">
        <dc:format>image/svg+xml</dc:format>
        <dc:type
           rdf:resource="http://purl.org/dc/dcmitype/StillImage" />
        <dc:title></dc:title>
      </cc:Work>
    </rdf:RDF>
  </metadata>
  <g
     id="layer1">
    <g
       id="debian"
       transform="translate(-804.36428,-765.85405)">
      <rect
         id="rect165"
         height="75.821999"
         width="207.739"
         y="785.086"
         x="819"
         style="fill:none" />
      <g
         id="g167"
         enable-background="new    ">
        <path
           id="path169"
           d="m 822.29,814.587 c 0.448,-2.454 1.253,-4.737 2.416,-6.852 1.161,-2.111 2.852,-3.813 5.07,-5.109 2.216,-1.292 4.989,-1.939 8.315,-1.939 1.479,0 2.706,0.093 3.685,0.276 0.976,0.188 1.966,0.437 2.97,0.753 0,-3.115 -0.014,-5.345 -0.04,-6.691 -0.028,-1.349 -0.108,-2.47 -0.238,-3.367 -0.133,-0.896 -0.331,-1.609 -0.594,-2.14 -0.266,-0.525 -0.687,-1.108 -1.268,-1.741 2.481,-0.211 4.487,-0.526 6.021,-0.95 1.532,-0.422 3.089,-1.004 4.673,-1.743 -0.265,1.427 -0.462,3.658 -0.593,6.694 -0.134,3.036 -0.227,6.509 -0.278,10.415 -0.106,4.91 -0.159,12.066 -0.159,21.467 0,5.809 0.199,10.35 0.596,13.624 0.396,3.274 0.937,5.6 1.623,6.973 l -0.237,0 c -0.792,-0.106 -1.375,-0.159 -1.743,-0.159 -0.423,-0.053 -1.162,-0.079 -2.217,-0.079 -1.216,0 -2.643,0.054 -4.278,0.157 -0.266,0 -0.66,0.027 -1.188,0.081 l -0.158,-7.052 c -1.425,4.912 -4.568,7.368 -9.426,7.368 -1.006,0 -2.153,-0.173 -3.446,-0.518 -1.294,-0.342 -2.747,-1.214 -4.357,-2.612 -1.609,-1.399 -2.981,-3.671 -4.118,-6.812 -1.137,-3.142 -1.703,-7.275 -1.703,-12.398 -0.003,-2.641 0.221,-5.191 0.672,-7.646 z m 22.219,-6.852 c -0.846,-0.42 -1.665,-0.765 -2.456,-1.03 -0.792,-0.261 -1.771,-0.396 -2.931,-0.396 -2.061,0 -3.737,0.528 -5.03,1.584 -1.294,1.058 -2.231,2.363 -2.813,3.92 -0.582,1.56 -0.951,3.063 -1.108,4.517 -0.158,1.452 -0.238,2.918 -0.238,4.396 0,1.057 0.04,2.165 0.118,3.326 0.08,1.163 0.225,2.43 0.436,3.803 0.158,1.006 0.383,2.006 0.675,3.012 0.289,1.005 0.724,2.032 1.306,3.09 0.581,1.057 1.348,1.915 2.298,2.573 0.951,0.66 2.111,0.99 3.485,0.99 1.32,0 2.389,-0.29 3.208,-0.873 0.817,-0.578 1.425,-1.292 1.822,-2.138 0.396,-0.844 0.659,-1.676 0.792,-2.495 0.131,-0.816 0.224,-1.756 0.276,-2.813 l 0,-0.158 c 0.053,-0.845 0.093,-2.06 0.119,-3.644 0.025,-1.587 0.04,-3.937 0.04,-7.053 l 0.08,-5.466 -0.079,-5.145 z"
           style="fill:#ffffff" />
        <path
           id="path171"
           d="m 889.105,823.658 -21.071,0 c 0,1.532 0.104,3.063 0.316,4.595 0.209,1.532 0.7,3.115 1.466,4.752 0.765,1.639 2.032,3.011 3.803,4.119 1.769,1.109 4.079,1.663 6.933,1.663 2.059,0 3.708,-0.208 4.95,-0.634 1.239,-0.423 2.441,-1.001 3.604,-1.742 l -0.079,0.238 c -0.212,1.32 -0.385,2.455 -0.518,3.404 -0.131,0.951 -0.197,2.114 -0.197,3.486 -0.053,0 -0.105,0.027 -0.157,0.081 -1.163,0.315 -2.416,0.579 -3.764,0.792 -1.347,0.209 -3.183,0.316 -5.505,0.316 -6.286,0 -11.079,-1.782 -14.377,-5.348 -3.302,-3.563 -4.952,-9.256 -4.952,-17.07 0,-1.848 0.119,-3.829 0.357,-5.941 0.238,-2.112 0.856,-4.396 1.862,-6.854 1.003,-2.453 2.641,-4.553 4.911,-6.297 2.27,-1.744 5.278,-2.612 9.03,-2.612 2.799,0 5.109,0.502 6.934,1.505 1.821,1.005 3.207,2.35 4.157,4.04 0.951,1.688 1.598,3.591 1.941,5.702 0.343,2.11 0.515,4.488 0.515,7.129 l -0.159,4.676 z m -7.684,-5.466 c 0,-1.954 -0.08,-3.645 -0.238,-5.069 -0.157,-1.426 -0.448,-2.666 -0.87,-3.722 -1.006,-2.431 -2.8,-3.646 -5.388,-3.646 -2.587,0 -4.462,1.241 -5.624,3.725 -0.475,1.106 -0.833,2.402 -1.069,3.88 -0.238,1.479 -0.355,3.091 -0.355,4.831 l 13.545,0 0,10e-4 z"
           style="fill:#ffffff" />
        <path
           id="path173"
           d="m 895.601,811.538 c 0,-5.175 -0.014,-8.991 -0.04,-11.446 -0.026,-2.455 -0.146,-4.554 -0.356,-6.297 -0.21,-1.743 -0.515,-3.063 -0.91,-3.961 -0.396,-0.896 -0.991,-1.506 -1.782,-1.821 2.111,-0.21 4.014,-0.516 5.703,-0.912 1.689,-0.396 3.696,-1.12 6.021,-2.179 -0.158,1.743 -0.276,3.83 -0.355,6.259 -0.08,2.432 -0.146,4.966 -0.2,7.604 -0.104,3.803 -0.157,7.632 -0.157,11.487 l 0.08,-0.159 c 0.423,-1.215 0.872,-2.299 1.347,-3.249 0.475,-0.949 1.109,-1.898 1.9,-2.854 0.793,-0.95 1.822,-1.742 3.09,-2.375 1.267,-0.633 2.798,-0.95 4.594,-0.95 1.954,0 3.763,0.478 5.427,1.426 1.664,0.949 3.048,2.352 4.159,4.198 1.004,1.742 1.689,3.828 2.06,6.259 0.368,2.429 0.556,4.699 0.556,6.812 0,2.641 -0.251,5.334 -0.752,8.08 -0.502,2.746 -1.282,5.202 -2.338,7.368 -1.108,2.324 -2.442,4.171 -4,5.545 -1.558,1.373 -3.143,2.362 -4.753,2.97 -1.611,0.607 -3.05,0.989 -4.317,1.147 -1.267,0.158 -2.535,0.237 -3.802,0.237 -4.701,0 -8.741,-0.658 -12.121,-1.979 0.423,-1.161 0.686,-2.534 0.792,-4.119 0.105,-1.585 0.158,-4.119 0.158,-7.604 l -0.004,-19.487 0,0 z m 22.418,5.742 c -0.212,-1.663 -0.581,-3.208 -1.108,-4.633 -0.528,-1.426 -1.269,-2.575 -2.218,-3.446 -0.951,-0.871 -2.139,-1.308 -3.564,-1.308 -0.317,0 -0.713,0.039 -1.188,0.117 -0.476,0.081 -1.018,0.307 -1.625,0.674 -0.605,0.369 -1.216,0.951 -1.82,1.743 -0.608,0.793 -1.098,1.851 -1.466,3.17 -0.37,1.106 -0.673,2.64 -0.91,4.593 -0.238,1.955 -0.357,4.463 -0.357,7.524 0,3.646 0.014,6.444 0.041,8.398 0.025,1.954 0.066,3.644 0.118,5.068 0.581,0.105 1.229,0.21 1.941,0.318 0.713,0.104 1.358,0.157 1.939,0.157 2.165,0 3.961,-0.528 5.386,-1.585 1.427,-1.057 2.509,-2.429 3.249,-4.118 0.738,-1.69 1.24,-3.498 1.506,-5.427 0.264,-1.928 0.396,-3.976 0.396,-6.141 -0.004,-1.737 -0.11,-3.441 -0.32,-5.104 z"
           style="fill:#ffffff" />
        <path
           id="path175"
           d="m 942.574,821.281 c 0,3.116 0,5.203 0,6.258 0,3.17 0.024,5.664 0.079,7.486 0.053,1.82 0.132,3.3 0.239,4.436 0.104,1.136 0.249,2.047 0.434,2.732 0.186,0.688 0.463,1.375 0.833,2.061 -0.898,-0.158 -1.69,-0.266 -2.375,-0.315 -0.688,-0.055 -1.56,-0.081 -2.614,-0.081 -2.06,0 -4.093,0.132 -6.099,0.396 0.421,-0.845 0.725,-1.69 0.909,-2.536 0.186,-0.844 0.33,-2.456 0.437,-4.832 0.104,-1.743 0.171,-4 0.198,-6.771 0.025,-2.772 0.04,-5.612 0.04,-8.518 0,-3.327 -0.027,-6.336 -0.08,-9.027 -0.054,-2.693 -0.158,-4.542 -0.317,-5.545 -0.158,-1.374 -0.396,-2.312 -0.712,-2.813 -0.316,-0.5 -0.792,-0.989 -1.426,-1.466 l -0.079,0 c 3.219,-0.315 5.53,-0.633 6.931,-0.951 1.398,-0.314 2.865,-0.843 4.396,-1.582 -0.316,1.639 -0.517,3.103 -0.595,4.396 -0.08,1.294 -0.118,3.34 -0.118,6.14 -0.002,2.954 -0.03,6.467 -0.081,10.532 z m -0.833,-25.663 c -0.661,0.95 -1.782,1.424 -3.366,1.424 -1.374,0 -2.456,-0.461 -3.247,-1.386 -0.792,-0.923 -1.188,-2.151 -1.188,-3.684 0,-1.427 0.33,-2.68 0.989,-3.764 0.659,-1.081 1.833,-1.623 3.524,-1.623 1.584,0 2.692,0.476 3.328,1.426 0.633,0.95 0.951,2.165 0.951,3.645 0,1.692 -0.332,3.011 -0.991,3.962 z"
           style="fill:#ffffff" />
        <path
           id="path177"
           d="m 954.297,820.529 c 2.903,-2.298 7.022,-3.446 12.356,-3.446 0.95,0 2.139,0.053 3.563,0.159 0.635,0.051 1.083,0.078 1.349,0.078 0,-2.005 -0.041,-3.563 -0.12,-4.673 -0.077,-1.109 -0.316,-2.111 -0.713,-3.012 -0.396,-0.896 -1.058,-1.597 -1.979,-2.099 -0.926,-0.5 -2.181,-0.752 -3.764,-0.752 -2.113,0 -4.133,0.356 -6.06,1.069 -1.93,0.713 -3.657,1.729 -5.188,3.05 -0.317,-1.532 -0.66,-2.744 -1.029,-3.645 -0.37,-0.897 -0.846,-1.9 -1.427,-3.011 1.902,-1.002 3.987,-1.848 6.259,-2.536 2.269,-0.686 5.095,-1.03 8.474,-1.03 2.854,0 5.176,0.316 6.973,0.949 1.794,0.635 3.168,1.507 4.118,2.615 0.95,1.109 1.584,2.352 1.9,3.724 0.316,1.373 0.477,2.932 0.477,4.672 l -0.079,16.159 c 0,2.589 0.012,4.557 0.04,5.902 0.024,1.347 0.063,2.786 0.118,4.316 0.104,1.375 0.263,2.391 0.476,3.049 0.209,0.662 0.58,1.39 1.106,2.181 -0.314,0 -0.767,-0.028 -1.347,-0.079 -1.108,-0.105 -1.98,-0.159 -2.614,-0.159 -1.161,0 -2.533,0.054 -4.118,0.159 -0.266,0 -0.634,0.025 -1.108,0.079 -0.106,-1.003 -0.173,-2.1 -0.199,-3.287 -0.026,-1.188 -0.039,-2.892 -0.039,-5.109 -0.581,1.216 -1.108,2.258 -1.584,3.13 -0.476,0.87 -1.135,1.741 -1.98,2.612 -0.844,0.871 -1.914,1.584 -3.207,2.141 -1.294,0.554 -2.785,0.831 -4.477,0.831 -0.634,0 -1.347,-0.053 -2.137,-0.157 -0.792,-0.107 -1.612,-0.344 -2.456,-0.715 -2.06,-1.002 -3.564,-2.586 -4.516,-4.753 -0.949,-2.164 -1.425,-4.62 -1.425,-7.367 -0.001,-5.064 1.453,-8.749 4.357,-11.045 z m 13.227,1.307 c -1.003,0 -2.021,0.078 -3.049,0.236 -1.028,0.158 -2.06,0.505 -3.09,1.03 -1.03,0.527 -1.875,1.348 -2.535,2.456 -0.659,1.106 -0.989,2.534 -0.989,4.276 0,2.324 0.422,4.213 1.266,5.664 0.845,1.453 2.35,2.179 4.518,2.179 1.213,0 2.414,-0.356 3.604,-1.069 1.188,-0.711 2.151,-1.887 2.892,-3.523 0.579,-1.214 0.962,-2.601 1.147,-4.158 0.186,-1.559 0.33,-3.814 0.437,-6.773 l 0,-0.316 -4.201,-0.002 0,0 z"
           style="fill:#ffffff" />
        <path
           id="path179"
           d="m 1017.351,836.411 0,0.554 c 0.052,1.744 0.158,3.157 0.316,4.238 0.158,1.084 0.449,2.1 0.872,3.051 -0.477,-0.053 -0.872,-0.105 -1.188,-0.158 -0.739,-0.054 -1.479,-0.106 -2.219,-0.157 -0.74,-0.055 -1.608,-0.081 -2.612,-0.081 -0.847,0 -1.584,0.026 -2.219,0.081 -0.635,0.051 -1.374,0.157 -2.218,0.315 l 0.08,-0.315 c 0.158,-0.424 0.275,-0.806 0.354,-1.149 0.079,-0.343 0.146,-0.779 0.199,-1.307 0.052,-0.369 0.104,-1.057 0.158,-2.061 0.053,-1.003 0.104,-1.953 0.159,-2.852 0.052,-2.111 0.079,-3.828 0.079,-5.15 l 0,-8.556 c 0,-2.745 -0.016,-5.069 -0.04,-6.971 -0.025,-1.9 -0.092,-3.246 -0.198,-4.038 -0.053,-0.58 -0.145,-1.122 -0.278,-1.624 -0.131,-0.501 -0.369,-1.018 -0.712,-1.547 -0.344,-0.523 -0.857,-0.963 -1.546,-1.307 -0.687,-0.342 -1.557,-0.515 -2.613,-0.515 -2.008,0 -3.513,0.582 -4.515,1.741 -1.005,1.163 -1.689,2.589 -2.06,4.278 -0.158,0.688 -0.277,1.451 -0.357,2.297 -0.079,0.847 -0.146,1.874 -0.197,3.088 -0.054,1.691 -0.079,5.732 -0.079,12.12 l 0,0.317 c 0.052,3.168 0.079,5.335 0.079,6.496 0,1.161 0.025,2.151 0.079,2.97 0.053,0.82 0.132,1.504 0.237,2.059 0.105,0.556 0.265,1.229 0.476,2.021 -1.795,-0.21 -3.591,-0.316 -5.386,-0.316 -0.897,0 -1.716,0.027 -2.456,0.08 -0.739,0.053 -1.505,0.133 -2.298,0.238 l 0,-0.081 c 0.317,-0.738 0.555,-1.466 0.713,-2.178 0.158,-0.713 0.265,-2.072 0.317,-4.08 0,-0.317 0.026,-1.688 0.081,-4.119 0.104,-4.806 0.157,-8.766 0.157,-11.883 0,-3.536 -0.041,-6.613 -0.119,-9.229 -0.079,-2.612 -0.197,-4.477 -0.355,-5.583 -0.158,-1.374 -0.396,-2.35 -0.713,-2.932 -0.317,-0.581 -0.767,-1.135 -1.347,-1.663 2.853,-0.158 4.977,-0.423 6.375,-0.793 1.398,-0.367 2.76,-0.896 4.081,-1.585 l 0,8.398 0.078,-0.157 c 0.368,-0.952 0.753,-1.811 1.148,-2.575 0.396,-0.768 0.991,-1.559 1.783,-2.377 0.793,-0.818 1.833,-1.49 3.129,-2.021 1.293,-0.524 2.863,-0.792 4.714,-0.792 2.322,0 4.185,0.37 5.583,1.109 1.4,0.741 2.403,1.691 3.011,2.853 0.606,1.163 1.005,2.375 1.188,3.645 0.187,1.268 0.278,2.693 0.278,4.276 l 0,0.079 0,23.844 0,0 0,0.004 z"
           style="fill:#ffffff" />
      </g>
      <g
         id="g181">
        <g
           id="g183">
          <path
             id="path185"
             d="m 1070.396,834.521 c -14.933,0.442 -27.897,-12.639 -27.897,-26.821 0,-15.705 11.37,-29.498 28.353,-29.498 16.979,0 27.448,13.792 27.448,34.992 0,18.268 -6.123,31.038 -14.302,38.958 -6.382,6.253 -15.2,10.087 -24.136,11.109 -4.087,0.64 -7.659,0.766 -10.341,0.64 0,0 38.13,-11.462 39.332,-42.825 0.264,-7.02 5.111,-34.951 -18.9,-34.313 -9.57,0.251 -16.349,8.429 -16.349,20.177 0,10.343 3.177,17.668 13.661,20.232 7.32,1.794 11.914,-1.043 17.346,-14.306 0,-10e-4 2.399,21.165 -14.215,21.655 z"
             style="fill:#ffffff" />
        </g>
      </g>
    </g>
  </g>
</svg>
