<?xml version="1.0" encoding="utf-8"?>
<!-- Generator: Adobe Illustrator 16.0.0, SVG Export Plug-In . SVG Version: 6.00 Build 0)  -->
<!DOCTYPE svg PUBLIC "-//W3C//DTD SVG 1.1//EN" "http://www.w3.org/Graphics/SVG/1.1/DTD/svg11.dtd">
<svg version="1.1" id="Layer_1" xmlns="http://www.w3.org/2000/svg" xmlns:xlink="http://www.w3.org/1999/xlink" x="0px" y="0px"
	 width="380px" height="380px" viewBox="0 0 380 380" enable-background="new 0 0 380 380" xml:space="preserve">
<g id="root">
	<g id="logo_x5F_circleGlow">
		
			<linearGradient id="SVGID_1_" gradientUnits="userSpaceOnUse" x1="-902.3987" y1="2602.4375" x2="-542.3992" y2="2602.4375" gradientTransform="matrix(1 0 0 -1 907.0649 2793.3945)">
			<stop  offset="0" style="stop-color:#FFFFFF"/>
			<stop  offset="0.1882" style="stop-color:#FFFFFF;stop-opacity:0"/>
		</linearGradient>
		<path fill="url(#SVGID_1_)" d="M184.666,23.953c44.607,0,86.544,17.371,118.085,48.914
			c31.545,31.541,48.914,73.479,48.914,118.086c0,44.611-17.369,86.551-48.914,118.096c-31.541,31.543-73.479,48.913-118.085,48.913
			c-44.606,0-86.545-17.37-118.087-48.913c-31.542-31.545-48.913-73.484-48.913-118.096c0-44.607,17.371-86.545,48.913-118.087
			S140.059,23.953,184.666,23.953 M184.666,10.953c-99.411,0-180,80.589-180,180c0,99.42,80.589,180.009,180,180.009
			c99.41,0,180-80.589,180-180.009C364.666,91.542,284.076,10.953,184.666,10.953L184.666,10.953z"/>
	</g>
</g>
</svg>
