<?xml version="1.0" encoding="utf-8"?>
<!-- Generator: Adobe Illustrator 16.0.0, SVG Export Plug-In . SVG Version: 6.00 Build 0)  -->
<!DOCTYPE svg PUBLIC "-//W3C//DTD SVG 1.1//EN" "http://www.w3.org/Graphics/SVG/1.1/DTD/svg11.dtd">
<svg version="1.1"
	 id="root" xmlns:svg="http://www.w3.org/2000/svg" xmlns:dc="http://purl.org/dc/elements/1.1/" xmlns:cc="http://creativecommons.org/ns#" xmlns:rdf="http://www.w3.org/1999/02/22-rdf-syntax-ns#"
	 xmlns="http://www.w3.org/2000/svg" xmlns:xlink="http://www.w3.org/1999/xlink" x="0px" y="0px" width="1920px" height="1200px"
	 viewBox="0 0 1920 1200" enable-background="new 0 0 1920 1200" xml:space="preserve">
<g id="background">
	<g id="background_1_">
		
			<linearGradient id="rect12_1_" gradientUnits="userSpaceOnUse" x1="-1744.0195" y1="3958.0332" x2="-1744.02" y2="2759.9014" gradientTransform="matrix(1 0 0 -1 2704.0195 3960.918)">
			<stop  offset="0" style="stop-color:#133356"/>
			<stop  offset="0.5025" style="stop-color:#7C9999"/>
			<stop  offset="1" style="stop-color:#333333"/>
		</linearGradient>
		<rect id="rect12" fill="url(#rect12_1_)" width="1920" height="1200.373"/>
	</g>
	<g id="Layer_4">
		
			<radialGradient id="rect24_1_" cx="-1864.2754" cy="3059.2725" r="942.2248" gradientTransform="matrix(0.994 0 0 -1.1103 2723.54 3965.0935)" gradientUnits="userSpaceOnUse">
			<stop  offset="0" style="stop-color:#E4C8A5;stop-opacity:0.5"/>
			<stop  offset="0.1429" style="stop-color:#AEAB93;stop-opacity:0.4372"/>
			<stop  offset="0.3797" style="stop-color:#587E77;stop-opacity:0.3331"/>
			<stop  offset="0.4877" style="stop-color:#366C6C;stop-opacity:0.2857"/>
		</radialGradient>
		<rect id="rect24" y="0.749" fill="url(#rect24_1_)" width="1920" height="1199.251"/>
	</g>
</g>
<g id="glows">
	
		<radialGradient id="circle32_1_" cx="-1211.9863" cy="3368.2197" r="279.21" gradientTransform="matrix(1 0 0 -1 2704.0195 3960.918)" gradientUnits="userSpaceOnUse">
		<stop  offset="0" style="stop-color:#FFFCDD"/>
		<stop  offset="1" style="stop-color:#FEF9C8;stop-opacity:0"/>
	</radialGradient>
	
		<circle id="circle32" opacity="0.2" fill="url(#circle32_1_)" enable-background="new    " cx="1492.033" cy="592.698" r="279.21"/>
	
		<radialGradient id="circle39_1_" cx="-1367.0488" cy="3464.3066" r="221.0019" gradientTransform="matrix(1 0 0 -1 2704.0195 3960.918)" gradientUnits="userSpaceOnUse">
		<stop  offset="0" style="stop-color:#99CCCC"/>
		<stop  offset="1" style="stop-color:#FEF9C8;stop-opacity:0"/>
	</radialGradient>
	
		<circle id="circle39" opacity="0.2" fill="url(#circle39_1_)" enable-background="new    " cx="1336.971" cy="496.611" r="221.002"/>
	
		<radialGradient id="circle46_1_" cx="-2320.9727" cy="3502.3076" r="293.0029" gradientTransform="matrix(1 0 0 -1 2704.0195 3960.918)" gradientUnits="userSpaceOnUse">
		<stop  offset="0" style="stop-color:#FFFCDD"/>
		<stop  offset="1" style="stop-color:#FEF9C8;stop-opacity:0"/>
	</radialGradient>
	<circle id="circle46" opacity="0.1" fill="url(#circle46_1_)" enable-background="new    " cx="383.047" cy="458.61" r="293.003"/>
	
		<radialGradient id="circle53_1_" cx="-2132.9727" cy="3313.2627" r="293.0029" gradientTransform="matrix(1 0 0 -1 2704.0195 3960.918)" gradientUnits="userSpaceOnUse">
		<stop  offset="0" style="stop-color:#FFFCDD"/>
		<stop  offset="1" style="stop-color:#FEF9C8;stop-opacity:0"/>
	</radialGradient>
	
		<circle id="circle53" opacity="0.1" fill="url(#circle53_1_)" enable-background="new    " cx="571.047" cy="647.655" r="293.003"/>
	
		<radialGradient id="circle60_1_" cx="-2036.6377" cy="3220.4287" r="374.833" gradientTransform="matrix(1 0 0 -1 2704.0195 3960.918)" gradientUnits="userSpaceOnUse">
		<stop  offset="0" style="stop-color:#FFFCDD"/>
		<stop  offset="1" style="stop-color:#FEF9C8;stop-opacity:0"/>
	</radialGradient>
	
		<circle id="circle60" opacity="0.1" fill="url(#circle60_1_)" enable-background="new    " cx="667.382" cy="740.489" r="374.833"/>
	
		<radialGradient id="path67_1_" cx="-1425.1426" cy="3298.1953" r="374.832" gradientTransform="matrix(1 0 0 -1 2704.0195 3960.918)" gradientUnits="userSpaceOnUse">
		<stop  offset="0" style="stop-color:#FFFCDD"/>
		<stop  offset="1" style="stop-color:#FEF9C8;stop-opacity:0"/>
	</radialGradient>
	<path id="path67" opacity="0.1" fill="url(#path67_1_)" enable-background="new    " d="M1278.877,287.89
		c207.014,0,374.832,167.815,374.832,374.833s-167.818,374.832-374.832,374.832S904.045,869.739,904.045,662.726
		C904.045,455.707,1071.863,287.89,1278.877,287.89z"/>
	
		<radialGradient id="circle74_1_" cx="-2071.7832" cy="3448.1934" r="374.8325" gradientTransform="matrix(1 0 0 -1 2704.0195 3960.918)" gradientUnits="userSpaceOnUse">
		<stop  offset="0" style="stop-color:#99CCCC"/>
		<stop  offset="1" style="stop-color:#FEF9C8;stop-opacity:0"/>
	</radialGradient>
	
		<circle id="circle74" opacity="0.2" fill="url(#circle74_1_)" enable-background="new    " cx="632.236" cy="512.725" r="374.833"/>
	
		<radialGradient id="circle81_1_" cx="-1137.4844" cy="3430.1943" r="374.833" gradientTransform="matrix(1 0 0 -1 2704.0195 3960.918)" gradientUnits="userSpaceOnUse">
		<stop  offset="0" style="stop-color:#FFFCDD"/>
		<stop  offset="1" style="stop-color:#FEF9C8;stop-opacity:0"/>
	</radialGradient>
	
		<circle id="circle81" opacity="0.2" fill="url(#circle81_1_)" enable-background="new    " cx="1566.535" cy="530.724" r="374.833"/>
	
		<radialGradient id="circle88_1_" cx="-1247.3145" cy="3166.1953" r="374.8325" gradientTransform="matrix(1 0 0 -1 2704.0195 3960.918)" gradientUnits="userSpaceOnUse">
		<stop  offset="0" style="stop-color:#99CCCC"/>
		<stop  offset="1" style="stop-color:#FEF9C8;stop-opacity:0"/>
	</radialGradient>
	
		<circle id="circle88" opacity="0.2" fill="url(#circle88_1_)" enable-background="new    " cx="1456.705" cy="794.723" r="374.833"/>
</g>
<g id="waves">
	<g id="octopus_2_">
		
			<radialGradient id="path137_1_" cx="9018.9473" cy="-2425.2119" r="704.5267" gradientTransform="matrix(-1 0 0 1 10386.3047 3271.2568)" gradientUnits="userSpaceOnUse">
			<stop  offset="0" style="stop-color:#BCCCB3"/>
			<stop  offset="1" style="stop-color:#FEF9C8;stop-opacity:0"/>
		</radialGradient>
		<path id="path137" opacity="0.1" fill="url(#path137_1_)" enable-background="new    " d="M628.902,344.042
			c0,0-166.237,203.738-110.913,420.006c93.523,365.563,376.689,424,835.374,320c808.271-183.268,836.201,226,830.201,264
			l43.879-63.617c6-38-21.938-447.26-830.199-264c-458.688,104-741.854,45.568-835.375-320
			C506.546,484.167,628.902,344.042,628.902,344.042"/>
		
			<radialGradient id="path144_1_" cx="8809.3945" cy="-2692.7344" r="1411.9435" gradientTransform="matrix(-1 0 0 1 10386.3047 3271.2568)" gradientUnits="userSpaceOnUse">
			<stop  offset="0" style="stop-color:#BCCCB3"/>
			<stop  offset="1" style="stop-color:#FEF9C8;stop-opacity:0"/>
		</radialGradient>
		<path id="path144" opacity="0.5" fill="url(#path144_1_)" enable-background="new    " d="M476.689,239.262
			c0,0-166.237,203.742-110.914,420.004c93.521,365.568,376.688,424.001,835.377,320
			c808.26-183.262,836.197,226.001,830.197,264.001l56.754-5.729c28.162-64.277-34.813-505.146-843.072-321.887
			c-458.688,104-741.854,45.566-835.374-320C354.333,379.387,476.689,239.262,476.689,239.262"/>
		
			<radialGradient id="path151_1_" cx="8951.4512" cy="-2451.0122" r="704.525" gradientTransform="matrix(-1 0 0 1 10386.3047 3271.2568)" gradientUnits="userSpaceOnUse">
			<stop  offset="0" style="stop-color:#BCCCB3"/>
			<stop  offset="1" style="stop-color:#FEF9C8;stop-opacity:0"/>
		</radialGradient>
		<path id="path151" opacity="0.2" fill="url(#path151_1_)" enable-background="new    " d="M696.4,318.243
			c0,0-166.237,203.742-110.914,420.003c93.522,365.567,376.688,424,835.374,320c808.264-183.262,836.2,226,830.2,264l43.879-63.611
			c6-38-21.938-447.266-830.198-264c-458.688,104-741.854,45.564-835.374-320C574.044,458.367,696.4,318.243,696.4,318.243"/>
		
			<linearGradient id="path162_1_" gradientUnits="userSpaceOnUse" x1="8157.4297" y1="-2619.5918" x2="9911.0156" y2="-2619.5918" gradientTransform="matrix(-1 0 0 1 10386.3047 3271.2568)">
			<stop  offset="0" style="stop-color:#ABCCB3;stop-opacity:0.7"/>
			<stop  offset="0.33" style="stop-color:#B4CFB5;stop-opacity:0.05"/>
			<stop  offset="0.803" style="stop-color:#C1D4B7;stop-opacity:0.5"/>
			<stop  offset="1" style="stop-color:#FEF9C8;stop-opacity:0"/>
		</linearGradient>
		<path id="path162" opacity="0.4" fill="url(#path162_1_)" enable-background="new    " d="M475.29,472.172
			c0,0,47.39-179.889,257.465-255.367c391.015-159.975,617.14,163.146,752.901,485.597c12,28.498,41.998,100.492,91.496,238.486
			c65.379,182.268,154.492,184.488,352.063,147.318c304.773-69.104,284.291,85.219,282.025,99.549l16.545-23.985
			c2.266-14.327,22.748-168.651-282.025-99.552c-188.504,40.322-280.207-1.221-333.086-139.832
			c-52.881-138.605-56.135-143.793-106.021-271.48c-171.141-438.1-367.475-611.979-745.84-508.109
			C550.741,220.277,475.29,472.172,475.29,472.172"/>
	</g>
</g>
<g id="debian" display="none">
	<g id="debian_1_" display="inline">
		<g>
			<path fill="#FFFFFF" d="M865.787,813.115c-0.069,0.075-0.069,11.778-0.217,14.836c-0.146,2.47-0.364,7.775-5.601,7.775
				c-5.381,0-6.688-6.181-7.124-8.87c-0.51-2.979-0.51-5.452-0.51-6.538c0-3.491,0.218-13.241,8.436-13.241
				c2.473,0,3.854,0.729,4.942,1.309L865.787,813.115z M844.704,821.7c0,20.501,10.906,20.501,12.504,20.501
				c4.508,0,7.417-2.475,8.653-6.763l0.146,6.471c1.381-0.071,2.768-0.219,5.02-0.219c0.801,0,1.449,0,2.034,0.072
				c0.584,0,1.163,0.071,1.817,0.146c-1.163-2.324-2.035-7.56-2.035-18.904c0-11.053,0-29.744,0.946-35.421
				c-2.617,1.24-4.874,2.04-9.817,2.477c1.966,2.108,1.966,3.201,1.966,12.798c-1.381-0.436-3.127-0.944-6.106-0.944
				C846.813,801.915,844.704,813.261,844.704,821.7"/>
			<path fill="#FFFFFF" d="M884.131,817.987c0.072-6.036,1.313-11.418,6.472-11.418c5.676,0,6.105,6.253,5.962,11.418H884.131z
				 M903.76,818.718c0-8.512-1.67-16.877-12.428-16.877c-14.831,0-14.831,16.444-14.831,19.931c0,14.76,6.614,20.573,17.737,20.573
				c4.939,0,7.342-0.723,8.649-1.091c-0.067-2.617,0.291-4.289,0.729-6.542c-1.528,0.947-3.49,2.183-7.854,2.183
				c-11.341,0-11.485-10.328-11.485-13.888h19.342L903.76,818.718"/>
			<path fill="#FFFFFF" d="M927.413,821.844c0,6.76-1.235,15.85-9.669,15.85c-1.165,0-2.617-0.221-3.563-0.438
				c-0.146-2.617-0.146-7.124-0.146-12.359c0-6.253,0.65-9.52,1.164-11.126c1.523-5.16,4.941-5.231,5.597-5.231
				C926.323,808.536,927.413,816.172,927.413,821.844z M906.548,829.769c0,5.381,0,8.436-0.872,10.762
				c2.98,1.163,6.688,1.814,11.126,1.814c2.833,0,11.05,0,15.483-9.086c2.107-4.217,2.836-9.889,2.836-14.179
				c0-2.62-0.291-8.364-2.4-12.003c-2.034-3.416-5.308-5.162-8.795-5.162c-6.979,0-9.013,5.818-10.103,8.801
				c0-3.707,0.068-16.654,0.647-23.275c-4.724,2.184-7.635,2.542-10.759,2.835c2.838,1.164,2.838,5.968,2.838,21.605v17.888"/>
			<path fill="#FFFFFF" d="M949.097,841.909c-1.455-0.219-2.476-0.364-4.583-0.364c-2.321,0-3.925,0.146-5.597,0.364
				c0.727-1.381,1.018-2.037,1.235-6.759c0.29-6.474,0.362-23.781-0.146-27.419c-0.365-2.768-1.018-3.201-2.035-3.929
				c5.961-0.583,7.631-1.017,10.396-2.324c-0.579,3.194-0.656,4.803-0.656,9.675C947.567,836.24,947.494,838.927,949.097,841.909"/>
			<path fill="#FFFFFF" d="M972.379,821.333c-0.146,4.58-0.22,7.78-1.457,10.324c-1.526,3.271-4.072,4.218-5.961,4.218
				c-4.366,0-5.31-3.633-5.31-7.194c0-6.833,6.108-7.346,8.868-7.346h3.857L972.379,821.333L972.379,821.333z M952.382,830.277
				c0,4.578,1.383,9.156,5.455,11.121c1.817,0.803,3.634,0.803,4.217,0.803c6.689,0,8.941-4.946,10.325-7.999
				c-0.073,3.197,0,5.159,0.216,7.707c1.312-0.071,2.617-0.219,4.805-0.219c1.233,0,2.396,0.146,3.631,0.219
				c-0.802-1.234-1.235-1.967-1.454-4.798c-0.146-2.764-0.146-5.526-0.146-9.379l0.072-14.836c0-5.531-1.454-10.984-12.361-10.984
				c-7.193,0-11.41,2.183-13.521,3.273c0.875,1.602,1.604,2.98,2.256,6.11c2.84-2.475,6.545-3.785,10.322-3.785
				c6.038,0,6.038,4.005,6.038,9.676c-1.381-0.069-2.544-0.215-4.512-0.215C958.489,816.974,952.382,820.531,952.382,830.277"/>
			<path fill="#FFFFFF" d="M1014.253,834.711c0.073,2.474,0.073,5.09,1.089,7.2c-1.603-0.148-2.546-0.365-5.523-0.365
				c-1.745,0-2.688,0.149-4.071,0.365c0.289-0.946,0.438-1.309,0.584-2.546c0.217-1.669,0.365-7.271,0.365-9.234v-7.852
				c0-3.417,0-8.365-0.227-10.108c-0.146-1.233-0.503-4.583-4.726-4.583c-4.146,0-5.523,3.053-6.034,5.526
				c-0.579,2.545-0.579,5.311-0.579,16.068c0.069,9.309,0.069,10.179,0.797,12.726c-1.233-0.146-2.762-0.288-4.938-0.288
				c-1.747,0-2.912,0.067-4.36,0.288c0.509-1.164,0.8-1.747,0.943-5.815c0.147-4.001,0.438-23.635-0.222-28.287
				c-0.359-2.839-1.091-3.489-1.888-4.222c5.893-0.291,7.778-1.235,9.599-2.181v7.708c0.87-2.256,2.688-7.276,9.959-7.276
				c9.092,0,9.159,6.62,9.232,10.985L1014.253,834.711"/>
			<path fill="#FFFFFF" d="M949.711,791.185l-6.023,6.021l-6.018-6.021l6.018-6.023L949.711,791.185"/>
		</g>
		<g id="_x39_">
			<g>
				<g>
					<path fill="#FFFFFF" d="M1055.398,831.253c-10.646,0.313-19.894-9.016-19.894-19.132c0-11.204,8.105-21.044,20.216-21.044
						c12.104,0,19.573,9.84,19.573,24.961c0,13.03-4.364,22.135-10.198,27.785c-4.55,4.46-10.836,7.19-17.208,7.923
						c-2.913,0.454-5.461,0.545-7.374,0.454c0,0,27.19-8.176,28.045-30.541c0.188-5.007,3.646-24.934-13.476-24.479
						c-6.824,0.181-11.657,6.014-11.657,14.396c0,7.375,2.268,12.601,9.739,14.432c5.221,1.279,8.498-0.743,12.366-10.202
						C1065.532,815.807,1067.245,830.905,1055.398,831.253z"/>
				</g>
			</g>
		</g>
	</g>
</g>
</svg>
