<?xml version="1.0" encoding="UTF-8" standalone="no"?>
<!-- Generator: Adobe Illustrator 16.0.0, SVG Export Plug-In . SVG Version: 6.00 Build 0)  -->

<svg
   xmlns:ns2="http://ns.adobe.com/AdobeIllustrator/10.0/"
   xmlns:dc="http://purl.org/dc/elements/1.1/"
   xmlns:cc="http://creativecommons.org/ns#"
   xmlns:rdf="http://www.w3.org/1999/02/22-rdf-syntax-ns#"
   xmlns:svg="http://www.w3.org/2000/svg"
   xmlns="http://www.w3.org/2000/svg"
   xmlns:xlink="http://www.w3.org/1999/xlink"
   xmlns:sodipodi="http://sodipodi.sourceforge.net/DTD/sodipodi-0.dtd"
   xmlns:inkscape="http://www.inkscape.org/namespaces/inkscape"
   version="1.1"
   x="0px"
   y="0px"
   width="250"
   height="250"
   viewBox="0 0 250 250"
   enable-background="new 0 0 380 380"
   xml:space="preserve"
   id="svg124"
   sodipodi:docname="blog-banner.svg"
   inkscape:version="0.92.2 (5c3e80d, 2017-08-06)"
   inkscape:export-filename="C:\Users\xine\Documents\2018-debian-buster\futurePrototype-source\blog-banner\png\blog-banner.png"
   inkscape:export-xdpi="96"
   inkscape:export-ydpi="96"><metadata
     id="metadata130"><rdf:RDF><cc:Work
         rdf:about=""><dc:format>image/svg+xml</dc:format><dc:type
           rdf:resource="http://purl.org/dc/dcmitype/StillImage" /><dc:title></dc:title></cc:Work></rdf:RDF></metadata><defs
     id="defs128"><linearGradient
       inkscape:collect="always"
       id="linearGradient873"><stop
         style="stop-color:#0c1830;stop-opacity:1"
         offset="0"
         id="stop869" /><stop
         style="stop-color:#5f7794;stop-opacity:1"
         offset="1"
         id="stop871" /></linearGradient><linearGradient
       inkscape:collect="always"
       xlink:href="#linearGradient873"
       id="linearGradient875-2"
       x1="535.66125"
       y1="-265.37906"
       x2="535.66125"
       y2="297.17203"
       gradientUnits="userSpaceOnUse"
       gradientTransform="translate(-8.2957913e-5,274.50006)" /><clipPath
       clipPathUnits="userSpaceOnUse"
       id="clipPath984"><rect
         style="opacity:1;fill:#000000;fill-opacity:1;fill-rule:nonzero;stroke:none;stroke-width:15;stroke-linecap:square;stroke-linejoin:round;stroke-miterlimit:4;stroke-dasharray:none;stroke-dashoffset:0;stroke-opacity:1;paint-order:markers stroke fill"
         id="rect986"
         width="571.5"
         height="571.5"
         x="138.69725"
         y="0" /></clipPath></defs><sodipodi:namedview
     pagecolor="#ffffff"
     bordercolor="#cc009d"
     borderopacity="1"
     objecttolerance="10"
     gridtolerance="10"
     guidetolerance="10"
     inkscape:pageopacity="0"
     inkscape:pageshadow="2"
     inkscape:window-width="1920"
     inkscape:window-height="1017"
     id="namedview126"
     showgrid="false"
     inkscape:showpageshadow="false"
     borderlayer="true"
     inkscape:zoom="1.099116"
     inkscape:cx="-41.522018"
     inkscape:cy="110.9895"
     inkscape:window-x="-8"
     inkscape:window-y="-8"
     inkscape:window-maximized="1"
     inkscape:current-layer="svg124"
     inkscape:snap-bbox="true"
     inkscape:bbox-paths="true"
     inkscape:bbox-nodes="true"
     inkscape:snap-bbox-midpoints="true"
     inkscape:snap-bbox-edge-midpoints="true"
     inkscape:snap-intersection-paths="true"
     inkscape:object-paths="true"
     inkscape:snap-smooth-nodes="true"
     inkscape:snap-midpoints="true"
     inkscape:snap-page="true" /><g
     id="Layer_1"
     transform="translate(0,-130)"><g
       id="Layer_1_1_" /></g><g
     transform="matrix(0.43744532,0,0,0.43744532,-60.672466,0)"
     style="display:inline;stroke-width:8.64000034"
     id="g865"
     clip-path="url(#clipPath984)"><rect
       inkscape:export-filename="C:\Users\xine\Documents\2018-debian-buster\futurePrototype\wallpapers\png\4096x2160\futurePrototype-wallpaper-06-4096x2160.png"
       inkscape:export-ydpi="96"
       inkscape:export-xdpi="96"
       y="2.8421709e-014"
       x="0"
       height="571.5"
       width="1083.7333"
       id="rect1009-2"
       style="display:inline;opacity:1;fill:url(#linearGradient875-2);fill-opacity:1;fill-rule:nonzero;stroke:none;stroke-width:60.3155365;stroke-linecap:butt;stroke-linejoin:round;stroke-miterlimit:4;stroke-dasharray:none;stroke-dashoffset:0;stroke-opacity:1;paint-order:normal;enable-background:new" /><path
       inkscape:connector-curvature="0"
       id="rect839"
       transform="scale(0.26458333)"
       d="m 0,0 v 2160 h 1969.6562 c 71.3132,-111.3325 107.6491,-242.016 81.6465,-375.9473 -25.5884,-168.1151 -176.2285,-285.5345 -335.9453,-317.248 -208.6898,-37.3515 -432.7203,-11.0181 -627.9433,-109.5801 C 748.77516,1201.7701 560.22684,790.73413 657.41992,432.25781 699.2405,258.97365 805.07533,107.61286 944.74023,0 Z"
       style="display:inline;opacity:0.05;fill:#ffffff;fill-opacity:1;fill-rule:nonzero;stroke:none;stroke-width:227.9642334;stroke-linecap:butt;stroke-linejoin:round;stroke-miterlimit:4;stroke-dasharray:none;stroke-dashoffset:0;stroke-opacity:1;paint-order:normal;enable-background:new" /><path
       inkscape:connector-curvature="0"
       id="rect841"
       transform="scale(0.26458333)"
       d="M 3200.9141,1431.8965 C 2395.5319,1430.4531 1920.9648,1798.122 1432,1764 671.24411,1710.9113 493.17151,1928.2722 0,2059.2969 V 2160 h 4096 v -646.1367 c -259.6224,4.4909 -557.2105,-78.9909 -876,-81.8633 -6.3828,-0.057 -12.7443,-0.092 -19.0859,-0.1035 z"
       style="display:inline;opacity:0.05;fill:#ffffff;fill-opacity:1;fill-rule:nonzero;stroke:none;stroke-width:227.9642334;stroke-linecap:butt;stroke-linejoin:round;stroke-miterlimit:4;stroke-dasharray:none;stroke-dashoffset:0;stroke-opacity:1;paint-order:normal;enable-background:new" /><path
       inkscape:connector-curvature="0"
       id="rect843"
       transform="scale(0.26458333)"
       d="M 0,1367.1016 V 2160 H 4096 V 1843.5059 C 3833.5218,1739.1345 3441.657,1649.4148 3144,1684 2701.546,1735.4094 1760.3175,2133.636 1060,1928 574.89204,1785.5566 369.68256,1464.9672 0,1367.1016 Z"
       style="display:inline;opacity:0.05;fill:#ffffff;fill-opacity:1;fill-rule:nonzero;stroke:none;stroke-width:227.9642334;stroke-linecap:butt;stroke-linejoin:round;stroke-miterlimit:4;stroke-dasharray:none;stroke-dashoffset:0;stroke-opacity:1;paint-order:normal;enable-background:new" /><path
       inkscape:connector-curvature="0"
       id="rect845"
       transform="scale(0.26458333)"
       d="m 0,0 v 1245.2754 c 236.85472,-9.3728 518.59878,-61.3227 646.03711,-121.25 C 841.0294,1032.331 998.01847,862.74676 1074.3848,661.31445 1140.2903,487.47478 1146.2692,291.56133 1091.0859,114.0293 1078.9414,74.958814 1063.8482,36.833273 1046.0684,0 Z"
       style="display:inline;opacity:0.05;fill:#ffffff;fill-opacity:1;fill-rule:nonzero;stroke:none;stroke-width:227.9642334;stroke-linecap:butt;stroke-linejoin:round;stroke-miterlimit:4;stroke-dasharray:none;stroke-dashoffset:0;stroke-opacity:1;paint-order:normal;enable-background:new" /><path
       inkscape:connector-curvature="0"
       id="rect847"
       transform="scale(0.26458333)"
       d="m 0,0 v 890.06641 c 148.47939,31.13283 300.36346,45.96429 452.0625,43.53711 371.61755,-5.94588 741.0424,-115.39471 1055.9258,-312.83594 131.3506,-82.36075 254.2519,-180.11618 396.1387,-242.60156 141.5736,-62.34748 299.1463,-87.28497 453.2539,-73.82422 154.1074,13.46075 304.4919,65.09306 435.5175,147.32812 262.0513,164.47 439.6385,451.46749 485.6856,757.41018 14.5673,96.7872 17.1164,196.6423 50.9121,288.5 40.684,110.5802 124.7724,201.6479 223.3437,266.1992 98.5714,64.5512 211.3049,104.4575 325.3321,134.1602 71.6617,18.6676 144.8702,33.7677 217.8281,49.4902 V 0 Z"
       style="display:inline;opacity:0.05;fill:#ffffff;fill-opacity:1;fill-rule:nonzero;stroke:none;stroke-width:227.9642334;stroke-linecap:butt;stroke-linejoin:round;stroke-miterlimit:4;stroke-dasharray:none;stroke-dashoffset:0;stroke-opacity:1;paint-order:normal;enable-background:new" /><path
       inkscape:connector-curvature="0"
       id="rect849"
       transform="scale(0.26458333)"
       d="M 2786.3438,0 C 2441.7273,121.86837 2138.4432,393.91015 2000.4355,757.43945 1749.2881,1418.9933 3110.4893,1701.4063 2791.8809,929.05664 2519.7265,269.31781 3489.4973,679.39231 4096,1621.5957 V 264.58203 C 4003.7937,219.53067 3866.3749,143.68851 3648.959,35.4375 3622.7181,22.372185 3596.0928,10.573154 3569.1484,0 Z"
       style="display:inline;opacity:0.05;fill:#ffffff;fill-opacity:1;fill-rule:nonzero;stroke:none;stroke-width:227.9642334;stroke-linecap:butt;stroke-linejoin:round;stroke-miterlimit:4;stroke-dasharray:none;stroke-dashoffset:0;stroke-opacity:1;paint-order:normal;enable-background:new" /></g><g
     id="g1498"
     transform="matrix(0.76111956,0,0,0.76111956,-86.551449,-210.83897)"
     style="stroke-width:1.31385398"><g
       style="display:inline;stroke-width:5.50398588"
       transform="matrix(0.90220937,0,0,0.90220937,-295.72404,42.641572)"
       id="g1191"><g
         id="g1124"
         transform="matrix(0.4872608,0,0,0.4872608,856.6649,-46.548487)"
         style="display:inline;stroke-width:11.29576778"><flowRoot
           transform="matrix(0.25894399,0,0,0.25894399,-907.63983,608.9833)"
           style="font-style:normal;font-weight:normal;font-size:96px;line-height:1.25;font-family:sans-serif;letter-spacing:0px;word-spacing:0px;display:inline;fill:#9ab0c9;fill-opacity:1;stroke:none;stroke-width:7.21360683"
           id="flowRoot898"
           xml:space="preserve"><flowRegion
             style="font-size:96px;fill:#9ab0c9;fill-opacity:1;stroke-width:7.21360683"
             id="flowRegion900"><rect
               style="font-size:96px;fill:#9ab0c9;fill-opacity:1;stroke-width:7.21360683"
               y="1080.1415"
               x="2774.7358"
               height="486.29398"
               width="1058.4043"
               id="rect902" /></flowRegion><flowPara
             style="font-style:normal;font-variant:normal;font-weight:bold;font-stretch:normal;font-size:266.66665649px;font-family:quicksand;-inkscape-font-specification:'quicksand Bold';fill:#9ab0c9;fill-opacity:1;stroke-width:7.21360683"
             id="flowPara904">10</flowPara></flowRoot><g
           transform="matrix(3.6552808,0,0,3.6552808,-581.99035,521.75131)"
           id="g1021"
           style="overflow:visible;stroke-width:0.81763136"><g
             style="stroke-width:0.81763136"
             id="Layer_1-9"
             ns2:layer="yes"
             ns2:dimmedPercent="50"
             ns2:rgbTrio="#4F008000FFFF"><g
               style="stroke-width:0.81763136"
               id="g991"><path
                 style="fill:#f9f9f9;stroke-width:0.81763136"
                 inkscape:connector-curvature="0"
                 ns2:knockout="Off"
                 d="m 13.437,125.506 c -0.045,0.047 -0.045,7.506 -0.138,9.453 -0.092,1.574 -0.232,4.957 -3.568,4.957 -3.429,0 -4.263,-3.939 -4.541,-5.652 -0.324,-1.9 -0.324,-3.477 -0.324,-4.17 0,-2.225 0.139,-8.436 5.375,-8.436 1.576,0 2.456,0.465 3.151,0.834 z M 0,130.975 c 0,13.066 6.951,13.066 7.97,13.066 2.873,0 4.727,-1.576 5.514,-4.309 l 0.093,4.123 c 0.881,-0.047 1.761,-0.139 3.197,-0.139 0.51,0 0.926,0 1.298,0.047 0.371,0 0.741,0.045 1.158,0.092 -0.741,-1.482 -1.297,-4.818 -1.297,-12.049 0,-7.043 0,-18.951 0.602,-22.566 -1.667,0.789 -3.105,1.299 -6.256,1.576 1.251,1.344 1.251,2.039 1.251,8.154 -0.879,-0.277 -1.992,-0.602 -3.892,-0.602 C 1.344,118.369 0,125.598 0,130.975"
                 id="path977" /><path
                 style="fill:#f9f9f9;stroke-width:0.81763136"
                 inkscape:connector-curvature="0"
                 ns2:knockout="Off"
                 d="m 25.13,128.609 c 0.047,-3.846 0.835,-7.275 4.124,-7.275 3.615,0 3.891,3.984 3.799,7.275 z m 12.51,0.465 c 0,-5.422 -1.065,-10.752 -7.923,-10.752 -9.452,0 -9.452,10.475 -9.452,12.697 0,9.406 4.216,13.113 11.306,13.113 3.149,0 4.68,-0.461 5.514,-0.695 -0.046,-1.668 0.185,-2.734 0.465,-4.17 -0.975,0.604 -2.226,1.391 -5.006,1.391 -7.229,0 -7.322,-6.582 -7.322,-8.852 H 37.55 l 0.09,-2.732"
                 id="path979" /><path
                 style="fill:#f9f9f9;stroke-width:0.81763136"
                 inkscape:connector-curvature="0"
                 ns2:knockout="Off"
                 d="m 52.715,131.066 c 0,4.309 -0.787,10.102 -6.162,10.102 -0.742,0 -1.668,-0.141 -2.27,-0.279 -0.093,-1.668 -0.093,-4.541 -0.093,-7.877 0,-3.986 0.416,-6.068 0.742,-7.09 0.972,-3.289 3.15,-3.334 3.566,-3.334 3.522,0 4.217,4.865 4.217,8.478 z m -13.298,5.051 c 0,3.43 0,5.375 -0.556,6.857 1.9,0.742 4.262,1.158 7.09,1.158 1.807,0 7.043,0 9.869,-5.791 1.344,-2.688 1.807,-6.303 1.807,-9.037 0,-1.668 -0.186,-5.328 -1.529,-7.646 -1.296,-2.176 -3.382,-3.289 -5.605,-3.289 -4.449,0 -5.746,3.707 -6.44,5.607 0,-2.363 0.045,-10.611 0.415,-14.828 -3.011,1.391 -4.866,1.621 -6.857,1.807 1.807,0.74 1.807,3.801 1.807,13.764 v 11.398"
                 id="path981" /><path
                 style="fill:#f9f9f9;stroke-width:0.81763136"
                 inkscape:connector-curvature="0"
                 ns2:knockout="Off"
                 d="m 66.535,143.855 c -0.928,-0.139 -1.578,-0.232 -2.922,-0.232 -1.48,0 -2.502,0.094 -3.566,0.232 0.463,-0.881 0.648,-1.299 0.787,-4.309 0.186,-4.125 0.232,-15.154 -0.092,-17.471 -0.232,-1.762 -0.648,-2.039 -1.297,-2.502 3.799,-0.371 4.865,-0.648 6.625,-1.482 -0.369,2.037 -0.418,3.059 -0.418,6.162 -0.091,15.989 -0.138,17.702 0.883,19.602"
                 id="path983" /><path
                 style="fill:#f9f9f9;stroke-width:0.81763136"
                 inkscape:connector-curvature="0"
                 ns2:knockout="Off"
                 d="m 81.373,130.74 c -0.092,2.92 -0.139,4.959 -0.928,6.58 -0.973,2.086 -2.594,2.688 -3.799,2.688 -2.783,0 -3.383,-2.316 -3.383,-4.586 0,-4.355 3.893,-4.682 5.652,-4.682 z m -12.744,5.701 c 0,2.92 0.881,5.838 3.477,7.09 1.158,0.51 2.316,0.51 2.688,0.51 4.264,0 5.699,-3.152 6.58,-5.098 -0.047,2.039 0,3.289 0.139,4.912 0.834,-0.047 1.668,-0.139 3.059,-0.139 0.787,0 1.529,0.092 2.316,0.139 -0.51,-0.787 -0.787,-1.252 -0.928,-3.059 -0.092,-1.76 -0.092,-3.521 -0.092,-5.977 l 0.047,-9.453 c 0,-3.523 -0.928,-6.998 -7.879,-6.998 -4.586,0 -7.273,1.391 -8.617,2.086 0.557,1.02 1.02,1.898 1.436,3.893 1.809,-1.576 4.172,-2.41 6.58,-2.41 3.848,0 3.848,2.549 3.848,6.162 -0.881,-0.045 -1.623,-0.137 -2.875,-0.137 -5.887,10e-4 -9.779,2.268 -9.779,8.479"
                 id="path985" /><path
                 style="fill:#f9f9f9;stroke-width:0.81763136"
                 inkscape:connector-curvature="0"
                 ns2:knockout="Off"
                 d="m 108.063,139.268 c 0.047,1.576 0.047,3.244 0.695,4.588 -1.021,-0.092 -1.623,-0.232 -3.521,-0.232 -1.113,0 -1.715,0.094 -2.596,0.232 0.184,-0.602 0.279,-0.834 0.371,-1.623 0.139,-1.064 0.232,-4.633 0.232,-5.885 v -5.004 c 0,-2.178 0,-5.33 -0.141,-6.441 -0.092,-0.787 -0.322,-2.918 -3.012,-2.918 -2.641,0 -3.521,1.945 -3.846,3.521 -0.369,1.621 -0.369,3.383 -0.369,10.24 0.045,5.932 0.045,6.486 0.508,8.109 -0.787,-0.092 -1.76,-0.184 -3.15,-0.184 -1.113,0 -1.854,0.045 -2.779,0.184 0.324,-0.742 0.51,-1.113 0.602,-3.707 0.094,-2.549 0.279,-15.061 -0.141,-18.025 -0.23,-1.809 -0.695,-2.225 -1.203,-2.688 3.754,-0.186 4.957,-0.789 6.117,-1.389 v 4.91 c 0.555,-1.438 1.713,-4.635 6.348,-4.635 5.793,0 5.838,4.217 5.885,6.996 v 13.951"
                 id="path987" /><path
                 style="fill:#9ab0c9;fill-opacity:1;stroke-width:0.81763136"
                 inkscape:connector-curvature="0"
                 ns2:knockout="Off"
                 d="m 66.926,111.533 -3.838,3.836 -3.836,-3.836 3.836,-3.836 3.838,3.836"
                 id="path989" /></g></g></g></g><g
         style="overflow:visible;fill:#9ab0c9;fill-opacity:1;stroke-width:1.31042123"
         id="g1108"
         transform="matrix(1.1112936,0,0,1.1112936,579.95612,321.7634)"><g
           ns2:rgbTrio="#4F008000FFFF"
           ns2:dimmedPercent="50"
           ns2:layer="yes"
           id="Layer_1-8"
           style="fill:#9ab0c9;fill-opacity:1;stroke-width:1.31042123"
           transform="translate(-93.766085,42.315052)"><g
             id="g1085"
             style="fill:#9ab0c9;fill-opacity:1;stroke-width:1.31042123"><path
               id="path1061"
               d="m 51.986,57.297 c -1.797,0.025 0.34,0.926 2.686,1.287 0.648,-0.506 1.236,-1.018 1.76,-1.516 -1.461,0.358 -2.948,0.366 -4.446,0.229"
               ns2:knockout="Off"
               inkscape:connector-curvature="0"
               style="fill:#9ab0c9;fill-opacity:1;stroke-width:1.31042123" /><path
               id="path1063"
               d="m 61.631,54.893 c 1.07,-1.477 1.85,-3.094 2.125,-4.766 -0.24,1.192 -0.887,2.221 -1.496,3.307 -3.359,2.115 -0.316,-1.256 -0.002,-2.537 -3.612,4.546 -0.496,2.726 -0.627,3.996"
               ns2:knockout="Off"
               inkscape:connector-curvature="0"
               style="fill:#9ab0c9;fill-opacity:1;stroke-width:1.31042123" /><path
               id="path1065"
               d="m 65.191,45.629 c 0.217,-3.236 -0.637,-2.213 -0.924,-0.978 0.335,0.174 0.6,2.281 0.924,0.978"
               ns2:knockout="Off"
               inkscape:connector-curvature="0"
               style="fill:#9ab0c9;fill-opacity:1;stroke-width:1.31042123" /><path
               id="path1067"
               d="m 45.172,1.399 c 0.959,0.172 2.072,0.304 1.916,0.533 1.049,-0.23 1.287,-0.442 -1.916,-0.533"
               ns2:knockout="Off"
               inkscape:connector-curvature="0"
               style="fill:#9ab0c9;fill-opacity:1;stroke-width:1.31042123" /><path
               id="path1069"
               d="M 47.088,1.932 46.41,2.072 47.041,2.016 47.088,1.932"
               ns2:knockout="Off"
               inkscape:connector-curvature="0"
               style="fill:#9ab0c9;fill-opacity:1;stroke-width:1.31042123" /><path
               id="path1071"
               d="m 76.992,46.856 c 0.107,2.906 -0.85,4.316 -1.713,6.812 l -1.553,0.776 c -1.271,2.468 0.123,1.567 -0.787,3.53 -1.984,1.764 -6.021,5.52 -7.313,5.863 -0.943,-0.021 0.639,-1.113 0.846,-1.541 -2.656,1.824 -2.131,2.738 -6.193,3.846 L 60.16,65.878 C 50.142,70.591 36.226,61.251 36.409,48.507 c -0.107,0.809 -0.304,0.607 -0.526,0.934 -0.517,-6.557 3.028,-13.143 9.007,-15.832 5.848,-2.895 12.704,-1.707 16.893,2.197 -2.301,-3.014 -6.881,-6.209 -12.309,-5.91 -5.317,0.084 -10.291,3.463 -11.951,7.131 -2.724,1.715 -3.04,6.611 -4.227,7.507 -1.597,11.737 3.004,16.808 10.787,22.773 1.225,0.826 0.345,0.951 0.511,1.58 -2.586,-1.211 -4.954,-3.039 -6.901,-5.277 1.033,1.512 2.148,2.982 3.589,4.137 -2.438,-0.826 -5.695,-5.908 -6.646,-6.115 4.203,7.525 17.052,13.197 23.78,10.383 -3.113,0.115 -7.068,0.064 -10.566,-1.229 -1.469,-0.756 -3.467,-2.322 -3.11,-2.615 9.182,3.43 18.667,2.598 26.612,-3.771 2.021,-1.574 4.229,-4.252 4.867,-4.289 -0.961,1.445 0.164,0.695 -0.574,1.971 2.014,-3.248 -0.875,-1.322 2.082,-5.609 l 1.092,1.504 c -0.406,-2.696 3.348,-5.97 2.967,-10.234 0.861,-1.304 0.961,1.403 0.047,4.403 1.268,-3.328 0.334,-3.863 0.66,-6.609 0.352,0.923 0.814,1.904 1.051,2.878 -0.826,-3.216 0.848,-5.416 1.262,-7.285 -0.408,-0.181 -1.275,1.422 -1.473,-2.377 0.029,-1.65 0.459,-0.865 0.625,-1.271 -0.324,-0.186 -1.174,-1.451 -1.691,-3.877 0.375,-0.57 1.002,1.478 1.512,1.562 -0.328,-1.929 -0.893,-3.4 -0.916,-4.88 -1.49,-3.114 -0.527,0.415 -1.736,-1.337 -1.586,-4.947 1.316,-1.148 1.512,-3.396 2.404,3.483 3.775,8.881 4.404,11.117 -0.48,-2.726 -1.256,-5.367 -2.203,-7.922 0.73,0.307 -1.176,-5.609 0.949,-1.691 C 83.519,18.706 76.074,10.902 69.225,7.24 70.063,8.007 71.121,8.97 70.741,9.121 67.335,7.093 67.934,6.935 67.446,6.078 64.671,4.949 64.489,6.169 62.651,6.08 57.421,3.306 56.413,3.601 51.6,1.863 l 0.219,1.023 c -3.465,-1.154 -4.037,0.438 -7.782,0.004 -0.228,-0.178 1.2,-0.644 2.375,-0.815 -3.35,0.442 -3.193,-0.66 -6.471,0.122 0.808,-0.567 1.662,-0.942 2.524,-1.424 -2.732,0.166 -6.522,1.59 -5.352,0.295 -4.456,1.988 -12.37,4.779 -16.811,8.943 l -0.14,-0.933 c -2.035,2.443 -8.874,7.296 -9.419,10.46 l -0.544,0.127 c -1.059,1.793 -1.744,3.825 -2.584,5.67 -1.385,2.36 -2.03,0.908 -1.833,1.278 -2.724,5.523 -4.077,10.164 -5.246,13.97 0.833,1.245 0.02,7.495 0.335,12.497 -1.368,24.704 17.338,48.69 37.785,54.228 2.997,1.072 7.454,1.031 11.245,1.141 -4.473,-1.279 -5.051,-0.678 -9.408,-2.197 -3.143,-1.48 -3.832,-3.17 -6.058,-5.102 l 0.881,1.557 c -4.366,-1.545 -2.539,-1.912 -6.091,-3.037 l 0.941,-1.229 C 28.751,98.334 26.418,96.056 25.78,94.795 l -1.548,0.061 c -1.86,-2.295 -2.851,-3.949 -2.779,-5.23 l -0.5,0.891 c -0.567,-0.973 -6.843,-8.607 -3.587,-6.83 -0.605,-0.553 -1.409,-0.9 -2.281,-2.484 l 0.663,-0.758 c -1.567,-2.016 -2.884,-4.6 -2.784,-5.461 0.836,1.129 1.416,1.34 1.99,1.533 -3.957,-9.818 -4.179,-0.541 -7.176,-9.994 L 8.412,66.472 C 7.926,65.74 7.631,64.945 7.24,64.165 l 0.276,-2.75 C 4.667,58.121 6.719,47.409 7.13,41.534 7.415,39.145 9.508,36.602 11.1,32.614 l -0.97,-0.167 c 1.854,-3.234 10.586,-12.988 14.63,-12.486 1.959,-2.461 -0.389,-0.009 -0.772,-0.629 4.303,-4.453 5.656,-3.146 8.56,-3.947 3.132,-1.859 -2.688,0.725 -1.203,-0.709 5.414,-1.383 3.837,-3.144 10.9,-3.846 0.745,0.424 -1.729,0.655 -2.35,1.205 4.511,-2.207 14.275,-1.705 20.617,1.225 7.359,3.439 15.627,13.605 15.953,23.17 l 0.371,0.1 c -0.188,3.802 0.582,8.199 -0.752,12.238 l 0.908,-1.912"
               ns2:knockout="Off"
               inkscape:connector-curvature="0"
               style="fill:#9ab0c9;fill-opacity:1;stroke-width:1.31042123" /><path
               id="path1073"
               d="m 32.372,59.764 -0.252,1.26 c 1.181,1.604 2.118,3.342 3.626,4.596 -1.085,-2.118 -1.891,-2.993 -3.374,-5.856"
               ns2:knockout="Off"
               inkscape:connector-curvature="0"
               style="fill:#9ab0c9;fill-opacity:1;stroke-width:1.31042123" /><path
               id="path1075"
               d="m 35.164,59.654 c -0.625,-0.691 -0.995,-1.523 -1.409,-2.352 0.396,1.457 1.207,2.709 1.962,3.982 l -0.553,-1.63"
               ns2:knockout="Off"
               inkscape:connector-curvature="0"
               style="fill:#9ab0c9;fill-opacity:1;stroke-width:1.31042123" /><path
               id="path1077"
               d="m 84.568,48.916 -0.264,0.662 c -0.484,3.438 -1.529,6.84 -3.131,9.994 1.77,-3.328 2.915,-6.968 3.395,-10.656"
               ns2:knockout="Off"
               inkscape:connector-curvature="0"
               style="fill:#9ab0c9;fill-opacity:1;stroke-width:1.31042123" /><path
               id="path1079"
               d="M 45.527,0.537 C 46.742,0.092 48.514,0.293 49.803,0 48.123,0.141 46.451,0.225 44.8,0.438 l 0.727,0.099"
               ns2:knockout="Off"
               inkscape:connector-curvature="0"
               style="fill:#9ab0c9;fill-opacity:1;stroke-width:1.31042123" /><path
               id="path1081"
               d="m 2.872,23.219 c 0.28,2.592 -1.95,3.598 0.494,1.889 1.31,-2.951 -0.512,-0.815 -0.494,-1.889"
               ns2:knockout="Off"
               inkscape:connector-curvature="0"
               style="fill:#9ab0c9;fill-opacity:1;stroke-width:1.31042123" /><path
               id="path1083"
               d="M 0,35.215 C 0.563,33.487 0.665,32.449 0.88,31.449 -0.676,33.438 0.164,33.862 0,35.215"
               ns2:knockout="Off"
               inkscape:connector-curvature="0"
               style="fill:#9ab0c9;fill-opacity:1;stroke-width:1.31042123" /></g></g></g></g><flowRoot
       transform="translate(93.795591,74.232511)"
       style="font-style:normal;font-variant:normal;font-weight:300;font-stretch:normal;font-size:40px;line-height:1.25;font-family:quicksand;-inkscape-font-specification:'quicksand Light';letter-spacing:0px;word-spacing:0px;fill:#17243b;fill-opacity:1;stroke:none;stroke-width:1.31385398"
       id="flowRoot1455"
       xml:space="preserve"><flowRegion
         style="font-style:normal;font-variant:normal;font-weight:300;font-stretch:normal;font-family:quicksand;-inkscape-font-specification:'quicksand Light';fill:#17243b;fill-opacity:1;stroke-width:1.31385398"
         id="flowRegion1457"><rect
           style="font-style:normal;font-variant:normal;font-weight:300;font-stretch:normal;font-family:quicksand;-inkscape-font-specification:'quicksand Light';fill:#17243b;fill-opacity:1;stroke-width:1.31385398"
           y="373.04907"
           x="94.331566"
           height="109.33886"
           width="338.73608"
           id="rect1459" /></flowRegion><flowPara
         style="font-style:normal;font-variant:normal;font-weight:bold;font-stretch:normal;font-size:64px;font-family:quicksand;-inkscape-font-specification:'quicksand Bold';fill:#17243b;fill-opacity:1;stroke-width:1.31385398"
         id="flowPara1461">Buster</flowPara></flowRoot></g></svg>