<?xml version="1.0" encoding="UTF-8" standalone="no"?>
<!-- Created with Inkscape (http://www.inkscape.org/) -->

<svg
   xmlns:dc="http://purl.org/dc/elements/1.1/"
   xmlns:cc="http://creativecommons.org/ns#"
   xmlns:rdf="http://www.w3.org/1999/02/22-rdf-syntax-ns#"
   xmlns:svg="http://www.w3.org/2000/svg"
   xmlns="http://www.w3.org/2000/svg"
   xmlns:xlink="http://www.w3.org/1999/xlink"
   xmlns:sodipodi="http://sodipodi.sourceforge.net/DTD/sodipodi-0.dtd"
   xmlns:inkscape="http://www.inkscape.org/namespaces/inkscape"
   width="640"
   height="480"
   id="svg5507"
   version="1.1"
   inkscape:version="0.48.3.1 r9886"
   sodipodi:docname="elive-wallpaper-generic-grub.svg">
  <defs
     id="defs5509">
    <linearGradient
       inkscape:collect="always"
       xlink:href="#linearGradient3755"
       id="linearGradient5481"
       x1="1775.8481"
       y1="1364.9309"
       x2="2.7304764"
       y2="-23.018661"
       gradientUnits="userSpaceOnUse" />
    <linearGradient
       id="linearGradient3755">
      <stop
         style="stop-color:#8f9db3;stop-opacity:1;"
         offset="0"
         id="stop3757" />
      <stop
         style="stop-color:#161b2b;stop-opacity:1;"
         offset="1"
         id="stop3759" />
    </linearGradient>
    <linearGradient
       gradientTransform="matrix(0.33333332,0,0,0.44444448,2.6886719e-5,12.283424)"
       y2="-23.018661"
       x2="2.7304764"
       y1="1364.9309"
       x1="1775.8481"
       gradientUnits="userSpaceOnUse"
       id="linearGradient5651"
       xlink:href="#linearGradient3755"
       inkscape:collect="always" />
  </defs>
  <sodipodi:namedview
     id="base"
     pagecolor="#ffffff"
     bordercolor="#666666"
     borderopacity="1.0"
     inkscape:pageopacity="0.0"
     inkscape:pageshadow="2"
     inkscape:zoom="0.98994949"
     inkscape:cx="277.00073"
     inkscape:cy="216.88704"
     inkscape:document-units="px"
     inkscape:current-layer="layer1"
     showgrid="false"
     fit-margin-top="0"
     fit-margin-left="0"
     fit-margin-right="0"
     fit-margin-bottom="0"
     width="640px"
     inkscape:window-width="1335"
     inkscape:window-height="855"
     inkscape:window-x="487"
     inkscape:window-y="1158"
     inkscape:window-maximized="0" />
  <metadata
     id="metadata5512">
    <rdf:RDF>
      <cc:Work
         rdf:about="">
        <dc:format>image/svg+xml</dc:format>
        <dc:type
           rdf:resource="http://purl.org/dc/dcmitype/StillImage" />
        <dc:title />
      </cc:Work>
    </rdf:RDF>
  </metadata>
  <g
     inkscape:groupmode="layer"
     id="layer5"
     inkscape:label="Background">
    <rect
       y="0"
       x="0"
       height="480"
       width="640"
       id="rect4033"
       style="fill:url(#linearGradient5651);fill-opacity:1;stroke:none" />
  </g>
  <g
     inkscape:groupmode="layer"
     id="layer6"
     inkscape:label="Background#1" />
  <g
     inkscape:label="Logo"
     inkscape:groupmode="layer"
     id="layer1"
     transform="translate(0,-572.36218)">
    <g
       transform="matrix(0.42402434,0,0,0.52474151,414.59769,778.30506)"
       id="g5489"
       style="opacity:0.75;fill:#c9c8c9;fill-opacity:1;display:inline;overflow:visible">
      <g
         style="fill:#c9c8c9;fill-opacity:1"
         id="g5491"
         transform="matrix(0.8333333,0,0,0.8333333,33.957082,78.564596)">
        <g
           style="fill:#c9c8c9;fill-opacity:1"
           id="g5493">
          <g
             style="fill:#c9c8c9;fill-opacity:1"
             id="g5495">
            <path
               inkscape:connector-curvature="0"
               d="m 275.345,426.681 0,0 c -8.187,22.492 -12.093,49.984 -13.041,57.371 3.683,1.34 389.729,141.842 394.35,143.524 1.607,-4.418 39.011,-107.188 40.619,-111.605 -4.621,-1.682 -390.595,-142.161 -394.323,-143.518 -4.112,6.572 -19.388,31.649 -27.605,54.228 z"
               id="path5497"
               style="fill:#c9c8c9;fill-opacity:1" />
            <path
               style="fill:#c9c8c9;fill-opacity:1"
               inkscape:connector-curvature="0"
               d="m 301.912,369.416 c 0,0 -19.201,29.719 -28.916,56.411 -9.715,26.693 -13.417,59.894 -13.417,59.894 l 398.569,145.061 1.71,-4.698 0,0 0,0 0,0 40.619,-111.606 -398.565,-145.062 0,0 z M 265.045,482.39 c 1.289,-9.44 5.171,-34.307 12.648,-54.854 7.531,-20.689 21.104,-43.588 26.309,-52.04 L 694.068,517.464 655.16,624.373 265.045,482.39 l 0,0 z"
               id="path5499" />
          </g>
          <g
             style="fill:#c9c8c9;fill-opacity:1"
             id="g5501">
            <path
               inkscape:connector-curvature="0"
               d="M 314.667,152.057 C 222.06,195.24 151.812,271.901 116.863,367.919 l 0,0 c -34.948,96.019 -30.413,199.898 12.769,292.502 43.182,92.603 119.841,162.847 215.856,197.792 40.908,14.89 83.516,22.679 126.641,23.151 41.684,0.457 82.998,-5.907 122.796,-18.917 C 673.362,836.808 742.27,785.78 789.386,718.637 783.683,716.561 702.56,687.033 699.53,685.93 661.693,731.052 611.648,763.337 554.654,779.306 495.831,795.787 434.295,793.418 376.7,772.454 303.593,745.847 245.222,692.362 212.343,621.852 179.462,551.339 176.009,472.242 202.619,399.13 c 26.61,-73.111 80.099,-131.484 150.612,-164.365 70.514,-32.881 149.61,-36.335 222.72,-9.725 57.594,20.963 106.255,58.701 140.721,109.135 33.377,48.84 50.988,105.7 50.988,164.551 0,0.037 0,0.073 0,0.109 3.08,1.122 84.104,30.614 89.821,32.695 0.929,-10.739 1.452,-21.504 1.452,-32.267 0,-71.136 -20.097,-142.041 -57.971,-202.891 -22.125,-35.546 -49.683,-66.978 -81.907,-93.42 C 685.716,175.595 648.069,154.174 607.16,139.285 511.148,104.34 407.271,108.875 314.667,152.057 z"
               id="path5503"
               style="fill:#c9c8c9;fill-opacity:1" />
            <path
               style="fill:#c9c8c9;fill-opacity:1"
               inkscape:connector-curvature="0"
               d="M 476.359,113.613 C 319.07,113.597 171.428,210.695 114.515,367.065 98.676,410.582 91.172,455.1 91.189,498.872 c 0.059,157.222 97.139,304.801 253.444,361.69 43.466,15.82 87.934,23.324 131.657,23.324 123.879,0 241.79,-60.239 314.09,-162.227 l 0,0 c 0.036,-0.05 0.065,-0.092 0.102,-0.143 l 0,0 c 0.961,-1.357 1.918,-2.727 2.862,-4.099 L 698.763,682.99 c -54.748,66.092 -136.713,104.605 -222.477,104.605 -32.794,0 -66.127,-5.625 -98.731,-17.492 C 260.327,727.44 187.518,616.756 187.474,498.841 c -0.012,-32.828 5.615,-66.216 17.495,-98.854 42.683,-117.268 153.427,-190.089 271.384,-190.089 32.793,0 66.142,5.628 98.744,17.493 117.291,42.692 190.098,153.47 190.064,271.458 0,0.579 -0.002,1.158 -0.006,1.737 l 89.729,32.66 0,0 0.158,0.058 0,0 4.698,1.71 c 0.158,-1.664 0.305,-3.317 0.441,-4.98 l 0,0 c 0.005,-0.052 0.01,-0.122 0.015,-0.174 l 0,0 c 0.851,-10.426 1.269,-20.824 1.266,-31.189 C 861.417,341.431 764.339,193.833 608.018,136.938 564.562,121.122 520.071,113.617 476.359,113.613 l 0,0 z m -0.069,765.273 c -44.253,0 -87.974,-7.746 -129.947,-23.021 -24.232,-8.82 -47.56,-20.075 -69.334,-33.452 C 255.79,809.378 235.787,794.17 217.555,777.212 199.653,760.561 183.277,742.056 168.88,722.21 154.62,702.552 142.177,681.407 131.898,659.364 121.619,637.321 113.42,614.198 107.527,590.636 101.578,566.851 97.929,542.41 96.681,517.993 c -1.271,-24.867 -0.063,-49.966 3.59,-74.6 3.749,-25.28 10.122,-50.385 18.942,-74.618 13.75,-37.776 33.153,-72.836 57.671,-104.204 23.718,-30.344 51.894,-56.842 83.746,-78.758 31.455,-21.642 65.884,-38.405 102.333,-49.823 36.819,-11.534 74.97,-17.381 113.395,-17.377 44.266,0.004 87.986,7.75 129.949,23.022 40.642,14.793 78.043,36.073 111.162,63.251 32.014,26.27 59.391,57.495 81.371,92.809 10.797,17.347 20.27,35.707 28.153,54.569 7.898,18.894 14.314,38.558 19.069,58.445 9.221,38.568 12.33,78.02 9.259,117.376 l -85.166,-30.999 c -0.165,-28.677 -4.542,-57.146 -13.027,-84.676 -8.738,-28.358 -21.656,-55.153 -38.393,-79.644 -16.949,-24.801 -37.481,-46.74 -61.027,-65.207 -24.341,-19.091 -51.561,-34.186 -80.902,-44.866 -32.443,-11.808 -66.24,-17.795 -100.454,-17.795 -29.705,0 -59.198,4.522 -87.66,13.439 -28.171,8.827 -54.782,21.784 -79.094,38.511 -24.625,16.942 -46.408,37.427 -64.746,60.886 -18.957,24.25 -33.956,51.349 -44.582,80.543 -6.817,18.727 -11.742,38.131 -14.64,57.671 -2.825,19.047 -3.759,38.454 -2.776,57.681 0.965,18.876 3.786,37.771 8.384,56.157 4.555,18.211 10.893,36.083 18.837,53.12 7.944,17.036 17.561,33.38 28.583,48.573 11.129,15.343 23.79,29.647 37.629,42.521 14.097,13.112 29.563,24.87 45.969,34.949 16.832,10.34 34.861,19.039 53.588,25.854 32.439,11.808 66.232,17.794 100.441,17.794 21.58,0 43.229,-2.413 64.344,-7.173 20.859,-4.702 41.267,-11.707 60.652,-20.821 19.39,-9.114 37.806,-20.36 54.737,-33.426 16.208,-12.509 31.105,-26.724 44.324,-42.29 l 85.162,30.998 c -16.713,23.392 -36.108,44.866 -57.726,63.902 -22.845,20.117 -48.143,37.493 -75.191,51.644 -26.971,14.111 -55.604,24.978 -85.107,32.295 -29.853,7.405 -60.533,11.16 -91.19,11.16 l 0,0 z"
               id="path5505" />
          </g>
        </g>
      </g>
    </g>
  </g>
</svg>
