<?xml version="1.0" encoding="UTF-8" standalone="no"?>
<!-- Created with Inkscape (http://www.inkscape.org/) -->

<svg
   xmlns:dc="http://purl.org/dc/elements/1.1/"
   xmlns:cc="http://creativecommons.org/ns#"
   xmlns:rdf="http://www.w3.org/1999/02/22-rdf-syntax-ns#"
   xmlns:svg="http://www.w3.org/2000/svg"
   xmlns="http://www.w3.org/2000/svg"
   xmlns:xlink="http://www.w3.org/1999/xlink"
   xmlns:sodipodi="http://sodipodi.sourceforge.net/DTD/sodipodi-0.dtd"
   xmlns:inkscape="http://www.inkscape.org/namespaces/inkscape"
   width="1920"
   height="1080"
   viewBox="0 0 507.99998 285.75001"
   version="1.1"
   id="svg8"
   inkscape:version="0.92.4 (5da689c313, 2019-01-14)"
   sodipodi:docname="background-nologo.svg"
   inkscape:export-filename="C:\Users\xine\Documents\2018-debian-buster\futurePrototype-source\login-screen\png\login-1920x1080.png"
   inkscape:export-xdpi="96"
   inkscape:export-ydpi="96">
  <defs
     id="defs2">
    <linearGradient
       inkscape:collect="always"
       id="linearGradient873">
      <stop
         style="stop-color:#0c1830;stop-opacity:1"
         offset="0"
         id="stop869" />
      <stop
         style="stop-color:#5f7794;stop-opacity:1"
         offset="1"
         id="stop871" />
    </linearGradient>
    <linearGradient
       inkscape:collect="always"
       xlink:href="#linearGradient873"
       id="linearGradient875-7"
       x1="535.66125"
       y1="-265.37906"
       x2="535.66125"
       y2="297.17203"
       gradientUnits="userSpaceOnUse"
       gradientTransform="translate(-8.2957913e-5,274.50006)" />
  </defs>
  <sodipodi:namedview
     id="base"
     pagecolor="#ffffff"
     bordercolor="#b20eb2"
     borderopacity="1"
     inkscape:pageopacity="0.0"
     inkscape:pageshadow="2"
     inkscape:zoom="0.33946559"
     inkscape:cx="844.27436"
     inkscape:cy="728.06253"
     inkscape:document-units="px"
     inkscape:current-layer="layer3"
     showgrid="false"
     units="px"
     borderlayer="true"
     inkscape:showpageshadow="false"
     showborder="true"
     inkscape:window-width="1920"
     inkscape:window-height="1008"
     inkscape:window-x="0"
     inkscape:window-y="36"
     inkscape:window-maximized="1"
     inkscape:snap-bbox="true"
     inkscape:bbox-paths="true"
     inkscape:bbox-nodes="true"
     inkscape:snap-bbox-edge-midpoints="true"
     inkscape:snap-bbox-midpoints="true"
     inkscape:snap-page="true"
     inkscape:snap-nodes="true"
     inkscape:snap-global="true"
     inkscape:object-paths="true"
     inkscape:snap-intersection-paths="true"
     inkscape:snap-smooth-nodes="true"
     inkscape:snap-others="true" />
  <metadata
     id="metadata5">
    <rdf:RDF>
      <cc:Work
         rdf:about="">
        <dc:format>image/svg+xml</dc:format>
        <dc:type
           rdf:resource="http://purl.org/dc/dcmitype/StillImage" />
        <dc:title />
      </cc:Work>
    </rdf:RDF>
  </metadata>
  <g
     inkscape:groupmode="layer"
     id="layer2"
     inkscape:label="back"
     style="display:inline"
     transform="translate(0,-285.75)">
    <g
       transform="matrix(0.5,0,0,0.5,-16.933319,285.75)"
       style="display:inline;stroke-width:2"
       id="g865">
      <rect
         inkscape:export-filename="C:\Users\xine\Documents\2018-debian-buster\futurePrototype\wallpapers\png\4096x2160\futurePrototype-wallpaper-06-4096x2160.png"
         inkscape:export-ydpi="96"
         inkscape:export-xdpi="96"
         y="2.8421709e-014"
         x="0"
         height="571.5"
         width="1083.7333"
         id="rect1009-2"
         style="display:inline;opacity:1;fill:url(#linearGradient875-7);fill-opacity:1;fill-rule:nonzero;stroke:none;stroke-width:13.96192932;stroke-linecap:butt;stroke-linejoin:round;stroke-miterlimit:4;stroke-dasharray:none;stroke-dashoffset:0;stroke-opacity:1;paint-order:normal;enable-background:new" />
      <path
         inkscape:connector-curvature="0"
         id="rect839"
         transform="scale(0.26458333)"
         d="m 0,0 v 2160 h 1969.6562 c 71.3132,-111.3325 107.6491,-242.016 81.6465,-375.9473 -25.5884,-168.1151 -176.2285,-285.5345 -335.9453,-317.248 -208.6898,-37.3515 -432.7203,-11.0181 -627.9433,-109.5801 C 748.77516,1201.7701 560.22684,790.73413 657.41992,432.25781 699.2405,258.97365 805.07533,107.61286 944.74023,0 Z"
         style="display:inline;opacity:0.05;fill:#ffffff;fill-opacity:1;fill-rule:nonzero;stroke:none;stroke-width:52.76949692;stroke-linecap:butt;stroke-linejoin:round;stroke-miterlimit:4;stroke-dasharray:none;stroke-dashoffset:0;stroke-opacity:1;paint-order:normal;enable-background:new" />
      <path
         inkscape:connector-curvature="0"
         id="rect841"
         transform="scale(0.26458333)"
         d="M 3200.9141,1431.8965 C 2395.5319,1430.4531 1920.9648,1798.122 1432,1764 671.24411,1710.9113 493.17151,1928.2722 0,2059.2969 V 2160 h 4096 v -646.1367 c -259.6224,4.4909 -557.2105,-78.9909 -876,-81.8633 -6.3828,-0.057 -12.7443,-0.092 -19.0859,-0.1035 z"
         style="display:inline;opacity:0.05;fill:#ffffff;fill-opacity:1;fill-rule:nonzero;stroke:none;stroke-width:52.76949692;stroke-linecap:butt;stroke-linejoin:round;stroke-miterlimit:4;stroke-dasharray:none;stroke-dashoffset:0;stroke-opacity:1;paint-order:normal;enable-background:new" />
      <path
         inkscape:connector-curvature="0"
         id="rect843"
         transform="scale(0.26458333)"
         d="M 0,1367.1016 V 2160 H 4096 V 1843.5059 C 3833.5218,1739.1345 3441.657,1649.4148 3144,1684 2701.546,1735.4094 1760.3175,2133.636 1060,1928 574.89204,1785.5566 369.68256,1464.9672 0,1367.1016 Z"
         style="display:inline;opacity:0.05;fill:#ffffff;fill-opacity:1;fill-rule:nonzero;stroke:none;stroke-width:52.76949692;stroke-linecap:butt;stroke-linejoin:round;stroke-miterlimit:4;stroke-dasharray:none;stroke-dashoffset:0;stroke-opacity:1;paint-order:normal;enable-background:new" />
      <path
         inkscape:connector-curvature="0"
         id="rect845"
         transform="scale(0.26458333)"
         d="m 0,0 v 1245.2754 c 236.85472,-9.3728 518.59878,-61.3227 646.03711,-121.25 C 841.0294,1032.331 998.01847,862.74676 1074.3848,661.31445 1140.2903,487.47478 1146.2692,291.56133 1091.0859,114.0293 1078.9414,74.958814 1063.8482,36.833273 1046.0684,0 Z"
         style="display:inline;opacity:0.05;fill:#ffffff;fill-opacity:1;fill-rule:nonzero;stroke:none;stroke-width:52.76949692;stroke-linecap:butt;stroke-linejoin:round;stroke-miterlimit:4;stroke-dasharray:none;stroke-dashoffset:0;stroke-opacity:1;paint-order:normal;enable-background:new" />
      <path
         inkscape:connector-curvature="0"
         id="rect847"
         transform="scale(0.26458333)"
         d="m 0,0 v 890.06641 c 148.47939,31.13283 300.36346,45.96429 452.0625,43.53711 371.61755,-5.94588 741.0424,-115.39471 1055.9258,-312.83594 131.3506,-82.36075 254.2519,-180.11618 396.1387,-242.60156 141.5736,-62.34748 299.1463,-87.28497 453.2539,-73.82422 154.1074,13.46075 304.4919,65.09306 435.5175,147.32812 262.0513,164.47 439.6385,451.46749 485.6856,757.41018 14.5673,96.7872 17.1164,196.6423 50.9121,288.5 40.684,110.5802 124.7724,201.6479 223.3437,266.1992 98.5714,64.5512 211.3049,104.4575 325.3321,134.1602 71.6617,18.6676 144.8702,33.7677 217.8281,49.4902 V 0 Z"
         style="display:inline;opacity:0.05;fill:#ffffff;fill-opacity:1;fill-rule:nonzero;stroke:none;stroke-width:52.76949692;stroke-linecap:butt;stroke-linejoin:round;stroke-miterlimit:4;stroke-dasharray:none;stroke-dashoffset:0;stroke-opacity:1;paint-order:normal;enable-background:new" />
      <path
         inkscape:connector-curvature="0"
         id="rect849"
         transform="scale(0.26458333)"
         d="M 2786.3438,0 C 2441.7273,121.86837 2138.4432,393.91015 2000.4355,757.43945 1749.2881,1418.9933 3110.4893,1701.4063 2791.8809,929.05664 2519.7265,269.31781 3489.4973,679.39231 4096,1621.5957 V 264.58203 C 4003.7937,219.53067 3866.3749,143.68851 3648.959,35.4375 3622.7181,22.372185 3596.0928,10.573154 3569.1484,0 Z"
         style="display:inline;opacity:0.05;fill:#ffffff;fill-opacity:1;fill-rule:nonzero;stroke:none;stroke-width:52.76949692;stroke-linecap:butt;stroke-linejoin:round;stroke-miterlimit:4;stroke-dasharray:none;stroke-dashoffset:0;stroke-opacity:1;paint-order:normal;enable-background:new" />
    </g>
  </g>
  <g
     inkscape:groupmode="layer"
     id="layer3"
     inkscape:label="logo"
     style="display:inline"
     transform="translate(0,-285.75)" />
</svg>
