<?xml version="1.0" encoding="UTF-8" standalone="no"?>
<!-- Generator: Adobe Illustrator 16.0.0, SVG Export Plug-In . SVG Version: 6.00 Build 0)  -->

<svg
   xmlns:dc="http://purl.org/dc/elements/1.1/"
   xmlns:cc="http://creativecommons.org/ns#"
   xmlns:rdf="http://www.w3.org/1999/02/22-rdf-syntax-ns#"
   xmlns:svg="http://www.w3.org/2000/svg"
   xmlns="http://www.w3.org/2000/svg"
   xmlns:xlink="http://www.w3.org/1999/xlink"
   xmlns:sodipodi="http://sodipodi.sourceforge.net/DTD/sodipodi-0.dtd"
   xmlns:inkscape="http://www.inkscape.org/namespaces/inkscape"
   version="1.1"
   id="root"
   x="0px"
   y="0px"
   width="1920px"
   height="1200px"
   viewBox="0 0 1920 1200"
   enable-background="new 0 0 1920 1200"
   xml:space="preserve"
   sodipodi:docname="plymouth_background.svg"
   inkscape:version="0.92.2 (5c3e80d, 2017-08-06)"
   inkscape:export-filename="C:\Users\xine\Documents\2018-debian-buster\futurePrototype-source\boot-screen\plymouth\plymouth_background_future.png"
   inkscape:export-xdpi="96"
   inkscape:export-ydpi="96"><metadata
     id="metadata138"><rdf:RDF><cc:Work
         rdf:about=""><dc:format>image/svg+xml</dc:format><dc:type
           rdf:resource="http://purl.org/dc/dcmitype/StillImage" /><dc:title></dc:title></cc:Work></rdf:RDF></metadata><defs
     id="defs136"><linearGradient
       inkscape:collect="always"
       xlink:href="#linearGradient873"
       id="linearGradient875"
       x1="535.66125"
       y1="-265.37906"
       x2="535.66125"
       y2="297.17203"
       gradientUnits="userSpaceOnUse"
       gradientTransform="matrix(0.55555555,0,0,0.55555555,-47.037057,406.50002)" /><linearGradient
       inkscape:collect="always"
       id="linearGradient873"><stop
         style="stop-color:#0c1830;stop-opacity:1"
         offset="0"
         id="stop869" /><stop
         style="stop-color:#5f7794;stop-opacity:1"
         offset="1"
         id="stop871" /></linearGradient></defs><sodipodi:namedview
     pagecolor="#ffffff"
     bordercolor="#cc00c4"
     borderopacity="1"
     objecttolerance="10"
     gridtolerance="10"
     guidetolerance="10"
     inkscape:pageopacity="0"
     inkscape:pageshadow="2"
     inkscape:window-width="1920"
     inkscape:window-height="1017"
     id="namedview134"
     showgrid="false"
     inkscape:showpageshadow="false"
     borderlayer="true"
     inkscape:zoom="0.4043508"
     inkscape:cx="1377.6815"
     inkscape:cy="536.68448"
     inkscape:window-x="-8"
     inkscape:window-y="-8"
     inkscape:window-maximized="1"
     inkscape:current-layer="root" /><g
     id="debian"
     display="none"><g
       id="debian_1_"
       display="inline"><g
         id="g122"><path
           fill="#FFFFFF"
           d="M865.787,813.115c-0.069,0.075-0.069,11.778-0.217,14.836c-0.146,2.47-0.364,7.775-5.601,7.775     c-5.381,0-6.688-6.181-7.124-8.87c-0.51-2.979-0.51-5.452-0.51-6.538c0-3.491,0.218-13.241,8.436-13.241     c2.473,0,3.854,0.729,4.942,1.309L865.787,813.115z M844.704,821.7c0,20.501,10.906,20.501,12.504,20.501     c4.508,0,7.417-2.475,8.653-6.763l0.146,6.471c1.381-0.071,2.768-0.219,5.02-0.219c0.801,0,1.449,0,2.034,0.072     c0.584,0,1.163,0.071,1.817,0.146c-1.163-2.324-2.035-7.56-2.035-18.904c0-11.053,0-29.744,0.946-35.421     c-2.617,1.24-4.874,2.04-9.817,2.477c1.966,2.108,1.966,3.201,1.966,12.798c-1.381-0.436-3.127-0.944-6.106-0.944     C846.813,801.915,844.704,813.261,844.704,821.7"
           id="path108" /><path
           fill="#FFFFFF"
           d="M884.131,817.987c0.072-6.036,1.313-11.418,6.472-11.418c5.676,0,6.105,6.253,5.962,11.418H884.131z      M903.76,818.718c0-8.512-1.67-16.877-12.428-16.877c-14.831,0-14.831,16.444-14.831,19.931c0,14.76,6.614,20.573,17.737,20.573     c4.939,0,7.342-0.723,8.649-1.091c-0.067-2.617,0.291-4.289,0.729-6.542c-1.528,0.947-3.49,2.183-7.854,2.183     c-11.341,0-11.485-10.328-11.485-13.888h19.342L903.76,818.718"
           id="path110" /><path
           fill="#FFFFFF"
           d="M927.413,821.844c0,6.76-1.235,15.85-9.669,15.85c-1.165,0-2.617-0.221-3.563-0.438     c-0.146-2.617-0.146-7.124-0.146-12.359c0-6.253,0.65-9.52,1.164-11.126c1.523-5.16,4.941-5.231,5.597-5.231     C926.323,808.536,927.413,816.172,927.413,821.844z M906.548,829.769c0,5.381,0,8.436-0.872,10.762     c2.98,1.163,6.688,1.814,11.126,1.814c2.833,0,11.05,0,15.483-9.086c2.107-4.217,2.836-9.889,2.836-14.179     c0-2.62-0.291-8.364-2.4-12.003c-2.034-3.416-5.308-5.162-8.795-5.162c-6.979,0-9.013,5.818-10.103,8.801     c0-3.707,0.068-16.654,0.647-23.275c-4.724,2.184-7.635,2.542-10.759,2.835c2.838,1.164,2.838,5.968,2.838,21.605v17.888"
           id="path112" /><path
           fill="#FFFFFF"
           d="M949.097,841.909c-1.455-0.219-2.476-0.364-4.583-0.364c-2.321,0-3.925,0.146-5.597,0.364     c0.727-1.381,1.018-2.037,1.235-6.759c0.29-6.474,0.362-23.781-0.146-27.419c-0.365-2.768-1.018-3.201-2.035-3.929     c5.961-0.583,7.631-1.017,10.396-2.324c-0.579,3.194-0.656,4.803-0.656,9.675C947.567,836.24,947.494,838.927,949.097,841.909"
           id="path114" /><path
           fill="#FFFFFF"
           d="M972.379,821.333c-0.146,4.58-0.22,7.78-1.457,10.324c-1.526,3.271-4.072,4.218-5.961,4.218     c-4.366,0-5.31-3.633-5.31-7.194c0-6.833,6.108-7.346,8.868-7.346h3.857L972.379,821.333L972.379,821.333z M952.382,830.277     c0,4.578,1.383,9.156,5.455,11.121c1.817,0.803,3.634,0.803,4.217,0.803c6.689,0,8.941-4.946,10.325-7.999     c-0.073,3.197,0,5.159,0.216,7.707c1.312-0.071,2.617-0.219,4.805-0.219c1.233,0,2.396,0.146,3.631,0.219     c-0.802-1.234-1.235-1.967-1.454-4.798c-0.146-2.764-0.146-5.526-0.146-9.379l0.072-14.836c0-5.531-1.454-10.984-12.361-10.984     c-7.193,0-11.41,2.183-13.521,3.273c0.875,1.602,1.604,2.98,2.256,6.11c2.84-2.475,6.545-3.785,10.322-3.785     c6.038,0,6.038,4.005,6.038,9.676c-1.381-0.069-2.544-0.215-4.512-0.215C958.489,816.974,952.382,820.531,952.382,830.277"
           id="path116" /><path
           fill="#FFFFFF"
           d="M1014.253,834.711c0.073,2.474,0.073,5.09,1.089,7.2c-1.603-0.148-2.546-0.365-5.523-0.365     c-1.745,0-2.688,0.149-4.071,0.365c0.289-0.946,0.438-1.309,0.584-2.546c0.217-1.669,0.365-7.271,0.365-9.234v-7.852     c0-3.417,0-8.365-0.227-10.108c-0.146-1.233-0.503-4.583-4.726-4.583c-4.146,0-5.523,3.053-6.034,5.526     c-0.579,2.545-0.579,5.311-0.579,16.068c0.069,9.309,0.069,10.179,0.797,12.726c-1.233-0.146-2.762-0.288-4.938-0.288     c-1.747,0-2.912,0.067-4.36,0.288c0.509-1.164,0.8-1.747,0.943-5.815c0.147-4.001,0.438-23.635-0.222-28.287     c-0.359-2.839-1.091-3.489-1.888-4.222c5.893-0.291,7.778-1.235,9.599-2.181v7.708c0.87-2.256,2.688-7.276,9.959-7.276     c9.092,0,9.159,6.62,9.232,10.985L1014.253,834.711"
           id="path118" /><path
           fill="#FFFFFF"
           d="M949.711,791.185l-6.023,6.021l-6.018-6.021l6.018-6.023L949.711,791.185"
           id="path120" /></g><g
         id="_x39_"><g
           id="g128"><g
             id="g126"><path
               fill="#FFFFFF"
               d="M1055.398,831.253c-10.646,0.313-19.894-9.016-19.894-19.132c0-11.204,8.105-21.044,20.216-21.044       c12.104,0,19.573,9.84,19.573,24.961c0,13.03-4.364,22.135-10.198,27.785c-4.55,4.46-10.836,7.19-17.208,7.923       c-2.913,0.454-5.461,0.545-7.374,0.454c0,0,27.19-8.176,28.045-30.541c0.188-5.007,3.646-24.934-13.476-24.479       c-6.824,0.181-11.657,6.014-11.657,14.396c0,7.375,2.268,12.601,9.739,14.432c5.221,1.279,8.498-0.743,12.366-10.202       C1065.532,815.807,1067.245,830.905,1055.398,831.253z"
               id="path124" /></g></g></g></g></g><g
     transform="matrix(3.7795276,0,0,3.7795276,-2.4689297e-4,77.480341)"
     style="display:inline"
     id="g854"><rect
       inkscape:export-filename="C:\Users\xine\Documents\2018-debian-buster\futurePrototype-source\desktop-wallpaper\png\wallpaper-4096x2160.png"
       style="display:inline;opacity:1;fill:url(#linearGradient875);fill-opacity:1;fill-rule:nonzero;stroke:none;stroke-width:6.98096466;stroke-linecap:butt;stroke-linejoin:round;stroke-miterlimit:4;stroke-dasharray:none;stroke-dashoffset:0;stroke-opacity:1;paint-order:normal;enable-background:new"
       id="rect1009"
       width="602.07404"
       height="317.5"
       x="-47.037018"
       y="254"
       inkscape:export-xdpi="96"
       inkscape:export-ydpi="96"
       transform="translate(0,-274.50001)" /><g
       style="stroke-width:1.80000007"
       transform="matrix(0.55555555,0,0,0.55555555,-47.03703,131.99999)"
       inkscape:export-ydpi="96"
       inkscape:export-xdpi="96"
       inkscape:export-filename="C:\Users\xine\Documents\2018-debian-buster\futurePrototype-source\desktop-wallpaper\png\wallpaper-4096x2160.png"
       id="g850"><path
         style="display:inline;opacity:0.05;fill:#ffffff;fill-opacity:1;fill-rule:nonzero;stroke:none;stroke-width:47.49254608;stroke-linecap:butt;stroke-linejoin:round;stroke-miterlimit:4;stroke-dasharray:none;stroke-dashoffset:0;stroke-opacity:1;paint-order:normal;enable-background:new"
         d="m 4096,213.4043 c -181.398,49.84648 -356.9629,122.70831 -521.1699,217.33398 -280.0429,161.37687 -528.7374,387.17968 -702.1231,667.63472 -173.3857,280.4551 -268.7325,616.7129 -247.5468,949.6875 2.3768,37.3559 6.2014,74.6656 10.748,111.9395 H 4096 Z"
         id="rect6945"
         inkscape:connector-curvature="0"
         transform="matrix(0.26458333,0,0,0.26458333,0,-274.50001)" /><path
         style="display:inline;opacity:0.05;fill:#ffffff;fill-opacity:1;fill-rule:nonzero;stroke:none;stroke-width:47.49254608;stroke-linecap:butt;stroke-linejoin:round;stroke-miterlimit:4;stroke-dasharray:none;stroke-dashoffset:0;stroke-opacity:1;paint-order:normal;enable-background:new"
         d="m 4062.6191,1015.5117 c -99.5265,-0.085 -196.6509,12.7657 -290.2636,38.3731 -198.726,54.3595 -381.6278,166.2091 -538.1075,333.832 C 3055.83,1578.8404 2912.7906,1843.693 2814.5645,2160 H 4096 V 1016.043 c -11.155,-0.3314 -22.2841,-0.5218 -33.3809,-0.5313 z"
         id="rect1009-3"
         inkscape:connector-curvature="0"
         transform="matrix(0.26458333,0,0,0.26458333,0,-274.50001)" /><path
         style="display:inline;opacity:0.05;fill:#ffffff;fill-opacity:1;fill-rule:nonzero;stroke:none;stroke-width:47.49254608;stroke-linecap:butt;stroke-linejoin:round;stroke-miterlimit:4;stroke-dasharray:none;stroke-dashoffset:0;stroke-opacity:1;paint-order:normal;enable-background:new"
         d="m 1629.8184,0 c -90.8566,137.17997 -158.1081,289.98136 -196.1153,450.0957 -29.9677,126.24631 -42.5685,257.0985 -86.873,379.05469 -22.1522,60.97809 -52.3846,119.56156 -94.2129,169.1543 -41.8283,49.59271 -95.7277,89.95811 -157.2793,110.46291 -58.3878,19.4507 -121.98209,20.5153 -182.38673,8.7363 C 852.54654,1105.725 795.10069,1081.4887 741.33203,1051.5488 633.79472,991.66914 540.39745,909.26708 435.01953,845.66406 303.28246,766.15145 153.18345,717.73529 0,703.61133 V 2160 h 4096 l -2e-4,-2160 z"
         id="rect6824"
         inkscape:connector-curvature="0"
         sodipodi:nodetypes="csssccssccccc"
         transform="matrix(0.26458333,0,0,0.26458333,0,-274.50001)" /><path
         style="display:inline;opacity:0.05;fill:#ffffff;fill-opacity:1;fill-rule:nonzero;stroke:none;stroke-width:47.49254608;stroke-linecap:butt;stroke-linejoin:round;stroke-miterlimit:4;stroke-dasharray:none;stroke-dashoffset:0;stroke-opacity:1;paint-order:normal;enable-background:new"
         d="m 2980.1582,94.371094 c -310.3353,-0.787389 -620.7967,81.515716 -892.498,238.085936 -224.6687,129.46711 -424.1877,310.62161 -563.2891,535.62109 -139.1014,224.99948 -215.5942,494.76828 -198.5977,761.90238 11.0104,173.0494 60.2189,344.848 41.6328,517.1914 -0.4617,4.2812 -0.9765,8.5581 -1.5234,12.8281 H 4096 V 495.32227 c -1.1582,-0.93757 -2.3083,-1.88572 -3.4688,-2.82032 -280.792,-226.14051 -625.7729,-364.44268 -979.4941,-392.679684 -44.215,-3.529626 -88.5454,-5.338694 -132.8789,-5.451172 z"
         id="rect6875"
         inkscape:connector-curvature="0"
         transform="matrix(0.26458333,0,0,0.26458333,0,-274.50001)" /><path
         style="display:inline;opacity:0.05;fill:#ffffff;fill-opacity:1;fill-rule:nonzero;stroke:none;stroke-width:47.49254608;stroke-linecap:butt;stroke-linejoin:round;stroke-miterlimit:4;stroke-dasharray:none;stroke-dashoffset:0;stroke-opacity:1;paint-order:normal;enable-background:new"
         d="m 3131.8008,1240.3203 c -206.0267,-0.081 -412.0023,32.5252 -607.25,98.4473 C 2106.4691,1479.9258 1739.9267,1776.6323 1524.2246,2160 H 4096 v -660.1211 c -46.9581,-27.6701 -95.1308,-53.2934 -144.3906,-76.7109 -255.0478,-121.2466 -537.4758,-182.7374 -819.8086,-182.8477 z"
         id="rect6840"
         inkscape:connector-curvature="0"
         transform="matrix(0.26458333,0,0,0.26458333,0,-274.50001)" /><path
         style="display:inline;opacity:0.05;fill:#ffffff;fill-opacity:1;fill-rule:nonzero;stroke:none;stroke-width:12.56573677;stroke-linecap:butt;stroke-linejoin:round;stroke-miterlimit:4;stroke-dasharray:none;stroke-dashoffset:0;stroke-opacity:1;paint-order:normal;enable-background:new"
         d="m 201.57064,-274.50001 c -59.50544,41.03786 -96.04816,143.75354 -49.31765,204.466707 28.96227,34.740607 124.88358,22.289386 116.56482,81.279915 -5.83416,47.811626 23.42057,110.378938 61.44848,143.126948 72.49429,66.64872 141.31456,64.35723 233.94718,55.68375 106.98566,-10.57677 217.94537,-30.28748 322.72016,4.85305 58.44363,17.39381 113.68707,45.39844 162.38007,82.08962 8.9188,-20.07147 -95.2243,-128.1934 -132.8661,-177.66382 -25.79515,-33.901047 -156.81148,-185.463177 -296.19092,-316.62217 -23.88689,-22.47807 -69.39444,-77.214 -92.86571,-77.214 z"
         id="rect6831"
         inkscape:connector-curvature="0"
         sodipodi:nodetypes="cccccccsscc" /><path
         style="display:inline;opacity:0.05;fill:#ffffff;fill-opacity:1;fill-rule:nonzero;stroke:none;stroke-width:12.56573677;stroke-linecap:butt;stroke-linejoin:round;stroke-miterlimit:4;stroke-dasharray:none;stroke-dashoffset:0;stroke-opacity:1;paint-order:normal;enable-background:new"
         d="M 0,-257.14758 V 296.99998 H 915.53481 C 929.42435,202.41422 886.96698,93.287011 794.56467,54.980584 692.79396,13.343476 578.64554,57.25018 476.34252,17.279761 421.66235,1.2559597 362.47488,-33.12403 351.30822,-93.878903 c -4.05099,-35.686387 -42.72504,-63.856167 -74.36559,-58.787477 -52.85192,8.46667 -49.22915,48.66914 -141.82849,51.1401 C 69.787089,-99.783066 18.291006,-195.34546 0,-257.14758 Z"
         id="rect6834"
         inkscape:connector-curvature="0"
         sodipodi:nodetypes="ccccccssc" /><path
         style="display:inline;opacity:0.05;fill:#ffffff;fill-opacity:1;fill-rule:nonzero;stroke:none;stroke-width:12.56573677;stroke-linecap:butt;stroke-linejoin:round;stroke-miterlimit:4;stroke-dasharray:none;stroke-dashoffset:0;stroke-opacity:1;paint-order:normal;enable-background:new"
         d="m 88.215286,85.414205 c -2.702105,-0.0026 -5.407353,0.04133 -8.1163,0.13642 C 52.526755,86.518523 25.202344,92.981051 0,104.19703 V 296.915 c 218.55761,0.19124 437.30603,-2e-5 655.86384,-2e-5 2.66756,-10.68399 4.27509,-21.63138 4.73975,-32.63472 1.29953,-30.77316 -6.29613,-61.8709 -21.63641,-88.57959 C 623.62693,148.99199 600.59291,126.76072 573.35724,112.37689 525.27739,86.984746 467.89607,87.009325 413.89567,93.364617 359.89524,99.719909 306.02306,111.80293 251.75931,108.35646 196.75429,104.86291 143.15807,85.468207 88.215286,85.414205 Z"
         id="rect6828"
         inkscape:connector-curvature="0"
         sodipodi:nodetypes="cccccsssssc" /></g></g></svg>