<?xml version="1.0" encoding="UTF-8" standalone="no"?>
<svg
   xmlns:dc="http://purl.org/dc/elements/1.1/"
   xmlns:cc="http://creativecommons.org/ns#"
   xmlns:rdf="http://www.w3.org/1999/02/22-rdf-syntax-ns#"
   xmlns:svg="http://www.w3.org/2000/svg"
   xmlns="http://www.w3.org/2000/svg"
   xmlns:sodipodi="http://sodipodi.sourceforge.net/DTD/sodipodi-0.dtd"
   xmlns:inkscape="http://www.inkscape.org/namespaces/inkscape"
   version="1.1"
   id="Layer_1"
   x="0px"
   y="0px"
   width="640px"
   height="480px"
   viewBox="0 0 640 480"
   enable-background="new 0 0 640 480"
   xml:space="preserve"
   inkscape:version="0.91 r13725"
   sodipodi:docname="grub-4x3.svg"
   inkscape:export-filename="/tmp/grub.png"
   inkscape:export-xdpi="90"
   inkscape:export-ydpi="90"><metadata
     id="metadata3111"><rdf:RDF><cc:Work
         rdf:about=""><dc:format>image/svg+xml</dc:format><dc:type
           rdf:resource="http://purl.org/dc/dcmitype/StillImage" /><dc:title /></cc:Work></rdf:RDF></metadata><defs
     id="defs3109" /><sodipodi:namedview
     pagecolor="#ffffff"
     bordercolor="#666666"
     borderopacity="1"
     objecttolerance="10"
     gridtolerance="10"
     guidetolerance="10"
     inkscape:pageopacity="0"
     inkscape:pageshadow="2"
     inkscape:window-width="1920"
     inkscape:window-height="1007"
     id="namedview3107"
     showgrid="false"
     inkscape:zoom="0.98333333"
     inkscape:cx="341.97314"
     inkscape:cy="225.72977"
     inkscape:window-x="0"
     inkscape:window-y="0"
     inkscape:window-maximized="1"
     inkscape:current-layer="Layer_1" /><radialGradient
     id="background_1_"
     cx="739.7764"
     cy="47.0376"
     r="855.789"
     fx="650.5538"
     fy="51.8628"
     gradientTransform="matrix(0.7783 0 0 1.0096 3.9834 5.9004)"
     gradientUnits="userSpaceOnUse"><stop
       offset="0"
       style="stop-color:#073246"
       id="stop2987" /><stop
       offset="0.1012"
       style="stop-color:#144352"
       id="stop2989" /><stop
       offset="0.3207"
       style="stop-color:#357177"
       id="stop2991" /><stop
       offset="0.4409"
       style="stop-color:#489291"
       id="stop2993" /><stop
       offset="0.5707"
       style="stop-color:#37757B"
       id="stop2995" /><stop
       offset="0.8567"
       style="stop-color:#164353"
       id="stop2997" /><stop
       offset="0.9891"
       style="stop-color:#063246"
       id="stop2999" /></radialGradient><rect
     id="background"
     fill-rule="evenodd"
     clip-rule="evenodd"
     fill="url(#background_1_)"
     width="644.332"
     height="483.668" /><g
     id="swirl"><radialGradient
       id="SVGID_1_"
       cx="552.4375"
       cy="377.9375"
       r="3.3804"
       gradientTransform="matrix(1.0725 0 0 0.9931 -22.7588 -0.2271)"
       gradientUnits="userSpaceOnUse"><stop
         offset="0"
         style="stop-color:#FFF1E9"
         id="stop3004" /><stop
         offset="1"
         style="stop-color:#FFFFFF;stop-opacity:0.2"
         id="stop3006" /></radialGradient><path
       fill="url(#SVGID_1_)"
       d="M566.125,374.093c-3.433,0.049,0.649,1.765,5.129,2.455c1.239-0.966,2.363-1.94,3.36-2.891   C571.824,374.338,568.986,374.354,566.125,374.093"
       id="path3008" /><radialGradient
       id="SVGID_2_"
       cx="567.1455"
       cy="367.7295"
       r="3.8273"
       gradientTransform="matrix(1.0725 0 0 0.9931 -22.7588 -0.2271)"
       gradientUnits="userSpaceOnUse"><stop
         offset="0"
         style="stop-color:#FFF1E9"
         id="stop3011" /><stop
         offset="1"
         style="stop-color:#FFFFFF;stop-opacity:0.2"
         id="stop3013" /></radialGradient><path
       fill="url(#SVGID_2_)"
       d="M584.549,369.508c2.043-2.814,3.534-5.898,4.059-9.086c-0.459,2.271-1.694,4.234-2.855,6.303   c-6.416,4.034-0.606-2.393-0.005-4.837C578.849,370.557,584.797,367.087,584.549,369.508"
       id="path3015" /><radialGradient
       id="SVGID_3_"
       cx="571.8037"
       cy="352.8438"
       r="1.8586"
       gradientTransform="matrix(1.0725 0 0 0.9931 -22.7588 -0.2271)"
       gradientUnits="userSpaceOnUse"><stop
         offset="0"
         style="stop-color:#FFF1E9"
         id="stop3018" /><stop
         offset="1"
         style="stop-color:#FFFFFF;stop-opacity:0.2"
         id="stop3020" /></radialGradient><path
       fill="url(#SVGID_3_)"
       d="M591.352,351.844c0.413-6.171-1.219-4.22-1.769-1.863   C590.223,350.311,590.732,354.328,591.352,351.844"
       id="path3022" /><radialGradient
       id="SVGID_4_"
       cx="539.2695"
       cy="270.1064"
       r="1.6877"
       gradientTransform="matrix(1.0725 0 0 0.9931 -22.7588 -0.2271)"
       gradientUnits="userSpaceOnUse"><stop
         offset="0"
         style="stop-color:#FFF1E9"
         id="stop3025" /><stop
         offset="1"
         style="stop-color:#FFFFFF;stop-opacity:0.2"
         id="stop3027" /></radialGradient><path
       fill="url(#SVGID_4_)"
       d="M553.106,267.506c1.833,0.329,3.96,0.58,3.66,1.019   C558.771,268.083,559.226,267.683,553.106,267.506"
       id="path3029" /><radialGradient
       id="SVGID_5_"
       cx="539.748"
       cy="270.7529"
       r="0.4364"
       gradientTransform="matrix(1.0725 0 0 0.9931 -22.7588 -0.2271)"
       gradientUnits="userSpaceOnUse"><stop
         offset="0"
         style="stop-color:#FFF1E9"
         id="stop3032" /><stop
         offset="1"
         style="stop-color:#FFFFFF;stop-opacity:0.2"
         id="stop3034" /></radialGradient><path
       fill="url(#SVGID_5_)"
       d="M556.767,268.524l-1.293,0.266l1.203-0.105L556.767,268.524"
       id="path3036" /><radialGradient
       id="SVGID_6_"
       cx="534.4756"
       cy="371.7637"
       r="91.1613"
       gradientTransform="matrix(1.0725 0 0 0.9931 -22.7588 -0.2271)"
       gradientUnits="userSpaceOnUse"><stop
         offset="0"
         style="stop-color:#FFF1E9"
         id="stop3039" /><stop
         offset="1"
         style="stop-color:#FFFFFF;stop-opacity:0.2"
         id="stop3041" /></radialGradient><path
       fill="url(#SVGID_6_)"
       d="M613.893,354.184c0.204,5.541-1.623,8.23-3.272,12.989l-2.969,1.479   c-2.427,4.707,0.236,2.987-1.501,6.729c-3.791,3.366-11.503,10.528-13.972,11.179c-1.8-0.036,1.223-2.122,1.616-2.938   c-5.072,3.479-4.067,5.223-11.828,7.336l-0.228-0.503c-19.139,8.985-45.722-8.824-45.371-33.125   c-0.207,1.544-0.579,1.159-1.007,1.782c-0.986-12.503,5.787-25.061,17.206-30.188c11.173-5.521,24.269-3.255,32.272,4.188   c-4.396-5.748-13.144-11.838-23.516-11.27c-10.157,0.162-19.656,6.603-22.827,13.598c-5.206,3.272-5.808,12.607-8.076,14.314   c-3.051,22.381,5.736,32.048,20.603,43.422c2.341,1.576,0.665,1.813,0.98,3.011c-4.941-2.307-9.463-5.794-13.182-10.059   c1.973,2.882,4.102,5.685,6.855,7.89c-4.66-1.575-10.881-11.27-12.698-11.663c8.029,14.351,32.573,25.166,45.426,19.799   c-5.944,0.222-13.502,0.122-20.185-2.34c-2.804-1.443-6.622-4.43-5.937-4.988c17.539,6.54,35.657,4.952,50.836-7.189   c3.859-3.002,8.078-8.106,9.294-8.177c-1.833,2.751,0.316,1.321-1.095,3.755c3.85-6.192-1.672-2.52,3.975-10.694l2.088,2.866   c-0.775-5.138,6.397-11.384,5.67-19.514c1.644-2.487,1.834,2.676,0.089,8.396c2.422-6.345,0.639-7.364,1.259-12.6   c0.674,1.757,1.557,3.628,2.009,5.483c-1.578-6.129,1.62-10.325,2.41-13.889c-0.776-0.345-2.435,2.71-2.813-4.533   c0.058-3.146,0.878-1.648,1.196-2.423c-0.62-0.356-2.243-2.767-3.232-7.394c0.717-1.084,1.912,2.817,2.89,2.979   c-0.626-3.678-1.707-6.481-1.75-9.303c-2.846-5.939-1.005,0.788-3.318-2.551c-3.027-9.435,2.517-2.191,2.89-6.476   c4.594,6.643,7.211,16.936,8.412,21.196c-0.917-5.196-2.398-10.231-4.209-15.105c1.396,0.586-2.244-10.691,1.813-3.224   c-4.335-15.927-18.555-30.806-31.643-37.785c1.603,1.458,3.622,7.11,2.897,7.397c-6.508-3.867-5.363-7.981-6.294-9.615   c-5.304-2.151-5.648,0.172-9.159,0.005c-9.992-5.29-11.918-4.728-21.112-8.043l0.42,1.952c-6.622-2.201-7.713,0.834-14.867,0.006   c-0.436-0.338,2.292-1.226,4.538-1.554c-6.397,0.844-6.101-1.258-12.361,0.23c1.543-1.081,3.174-1.795,4.821-2.714   c-5.219,0.315-12.46,3.033-10.223,0.564c-8.516,3.79-23.633,9.112-32.116,17.053l-0.266-1.779   c-3.889,4.657-16.953,13.911-17.992,19.945l-1.041,0.24c-2.021,3.42-3.332,7.296-4.936,10.809   c-2.646,4.503-3.879,1.736-3.502,2.439c-5.2,10.531-7.788,19.382-10.021,26.636c1.591,2.377,0.038,14.294,0.638,23.832   c-2.613,47.106,33.121,92.84,72.184,103.402c5.724,2.044,14.237,1.967,21.479,2.175c-8.543-2.438-9.65-1.291-17.972-4.19   c-6.003-2.817-7.321-6.043-11.572-9.725l1.686,2.967c-8.343-2.948-4.853-3.647-11.639-5.792l1.797-2.343   c-2.702-0.204-7.159-4.548-8.376-6.951l-2.957,0.117c-3.557-4.38-5.447-7.53-5.311-9.973l-0.953,1.697   c-1.083-1.854-13.076-16.415-6.854-13.023c-1.154-1.057-2.692-1.717-4.356-4.739l1.268-1.443   c-2.994-3.845-5.511-8.771-5.319-10.412c1.595,2.15,2.704,2.552,3.802,2.924c-7.561-18.724-7.982-1.032-13.711-19.059l1.214-0.097   c-0.93-1.394-1.494-2.909-2.237-4.4l0.524-5.244c-5.442-6.277-1.522-26.707-0.737-37.907c0.543-4.555,4.542-9.402,7.584-17.009   l-1.853-0.317c3.543-6.166,20.222-24.764,27.946-23.806c3.744-4.694-0.741-0.021-1.473-1.2c8.22-8.491,10.806-6.001,16.351-7.527   c5.982-3.544-5.136,1.383-2.294-1.353c10.34-2.639,7.327-5.995,20.816-7.332c1.424,0.808-3.3,1.246-4.486,2.296   c8.615-4.206,27.267-3.249,39.383,2.337c14.059,6.56,29.852,25.944,30.477,44.18l0.709,0.19c-0.36,7.25,1.108,15.633-1.436,23.336   L613.893,354.184"
       id="path3043" /><radialGradient
       id="SVGID_7_"
       cx="516.9199"
       cy="387.2793"
       r="4.584"
       gradientTransform="matrix(1.0725 0 0 0.9931 -22.7588 -0.2271)"
       gradientUnits="userSpaceOnUse"><stop
         offset="0"
         style="stop-color:#FFF1E9"
         id="stop3046" /><stop
         offset="1"
         style="stop-color:#FFFFFF;stop-opacity:0.2"
         id="stop3048" /></radialGradient><path
       fill="url(#SVGID_7_)"
       d="M528.655,378.797l-0.481,2.4c2.256,3.059,4.047,6.374,6.928,8.765   C533.027,385.925,531.489,384.256,528.655,378.797"
       id="path3050" /><radialGradient
       id="SVGID_8_"
       cx="518.3516"
       cy="380.752"
       r="2.9717"
       gradientTransform="matrix(1.0725 0 0 0.9931 -22.7588 -0.2271)"
       gradientUnits="userSpaceOnUse"><stop
         offset="0"
         style="stop-color:#FFF1E9"
         id="stop3053" /><stop
         offset="1"
         style="stop-color:#FFFFFF;stop-opacity:0.2"
         id="stop3055" /></radialGradient><path
       fill="url(#SVGID_8_)"
       d="M533.989,378.589c-1.191-1.319-1.901-2.907-2.69-4.488c0.754,2.777,2.306,5.165,3.748,7.593   L533.989,378.589"
       id="path3057" /><radialGradient
       id="SVGID_9_"
       cx="604.084"
       cy="371.0586"
       r="7.544"
       gradientTransform="matrix(1.0725 0 0 0.9931 -22.7588 -0.2271)"
       gradientUnits="userSpaceOnUse"><stop
         offset="0"
         style="stop-color:#FFF1E9"
         id="stop3060" /><stop
         offset="1"
         style="stop-color:#FFFFFF;stop-opacity:0.2"
         id="stop3062" /></radialGradient><path
       fill="url(#SVGID_9_)"
       d="M628.363,358.111l-0.505,1.263c-0.922,6.556-2.919,13.044-5.979,19.058   C625.259,372.084,627.447,365.143,628.363,358.111"
       id="path3064" /><radialGradient
       id="SVGID_10_"
       cx="540.7305"
       cy="267.4238"
       r="3.1712"
       gradientTransform="matrix(1.0725 0 0 0.9931 -22.7588 -0.2271)"
       gradientUnits="userSpaceOnUse"><stop
         offset="0"
         style="stop-color:#FFF1E9"
         id="stop3067" /><stop
         offset="1"
         style="stop-color:#FFFFFF;stop-opacity:0.2"
         id="stop3069" /></radialGradient><path
       fill="url(#SVGID_10_)"
       d="M553.787,265.863c2.318-0.848,5.704-0.466,8.165-1.023c-3.21,0.267-6.4,0.429-9.557,0.835   L553.787,265.863"
       id="path3071" /><radialGradient
       id="SVGID_11_"
       cx="461.8672"
       cy="314.1152"
       r="2.1212"
       gradientTransform="matrix(1.0725 0 0 0.9931 -22.7588 -0.2271)"
       gradientUnits="userSpaceOnUse"><stop
         offset="0"
         style="stop-color:#FFF1E9"
         id="stop3074" /><stop
         offset="1"
         style="stop-color:#FFFFFF;stop-opacity:0.2"
         id="stop3076" /></radialGradient><path
       fill="url(#SVGID_11_)"
       d="M472.303,309.113c0.534,4.942-3.726,6.859,0.944,3.601   C475.746,307.086,472.267,311.161,472.303,309.113"
       id="path3078" /><radialGradient
       id="SVGID_12_"
       cx="457.1895"
       cy="330.9063"
       r="2.6271"
       gradientTransform="matrix(1.0725 0 0 0.9931 -22.7588 -0.2271)"
       gradientUnits="userSpaceOnUse"><stop
         offset="0"
         style="stop-color:#FFF1E9"
         id="stop3081" /><stop
         offset="1"
         style="stop-color:#FFFFFF;stop-opacity:0.2"
         id="stop3083" /></radialGradient><path
       fill="url(#SVGID_12_)"
       d="M466.816,331.986c1.074-3.295,1.27-5.273,1.679-7.181   C465.526,328.6,467.129,329.406,466.816,331.986"
       id="path3085" /></g></svg>