<?xml version="1.0" encoding="UTF-8" standalone="no"?>
<svg
   xmlns:dc="http://purl.org/dc/elements/1.1/"
   xmlns:cc="http://creativecommons.org/ns#"
   xmlns:rdf="http://www.w3.org/1999/02/22-rdf-syntax-ns#"
   xmlns:svg="http://www.w3.org/2000/svg"
   xmlns="http://www.w3.org/2000/svg"
   xmlns:sodipodi="http://sodipodi.sourceforge.net/DTD/sodipodi-0.dtd"
   xmlns:inkscape="http://www.inkscape.org/namespaces/inkscape"
   version="1.1"
   id="Layer_1"
   x="0px"
   y="0px"
   width="640px"
   height="480px"
   viewBox="0 0 640 480"
   enable-background="new 0 0 640 480"
   xml:space="preserve"
   inkscape:version="0.91 r13725"
   sodipodi:docname="grub-16x9.svg"
   inkscape:export-filename="/tmp/grub.png"
   inkscape:export-xdpi="90"
   inkscape:export-ydpi="90"><metadata
     id="metadata3111"><rdf:RDF><cc:Work
         rdf:about=""><dc:format>image/svg+xml</dc:format><dc:type
           rdf:resource="http://purl.org/dc/dcmitype/StillImage" /><dc:title /></cc:Work></rdf:RDF></metadata><defs
     id="defs3109" /><sodipodi:namedview
     pagecolor="#ffffff"
     bordercolor="#666666"
     borderopacity="1"
     objecttolerance="10"
     gridtolerance="10"
     guidetolerance="10"
     inkscape:pageopacity="0"
     inkscape:pageshadow="2"
     inkscape:window-width="1920"
     inkscape:window-height="1007"
     id="namedview3107"
     showgrid="false"
     inkscape:zoom="1.3906433"
     inkscape:cx="257.10407"
     inkscape:cy="200.12367"
     inkscape:window-x="0"
     inkscape:window-y="0"
     inkscape:window-maximized="1"
     inkscape:current-layer="Layer_1" /><radialGradient
     id="background_1_"
     cx="739.7764"
     cy="47.0376"
     r="855.789"
     fx="650.5538"
     fy="51.8628"
     gradientTransform="matrix(1.038619,0,0,1.0096,5.315733,5.9004)"
     gradientUnits="userSpaceOnUse"><stop
       offset="0"
       style="stop-color:#073246"
       id="stop2987" /><stop
       offset="0.1012"
       style="stop-color:#144352"
       id="stop2989" /><stop
       offset="0.3207"
       style="stop-color:#357177"
       id="stop2991" /><stop
       offset="0.4409"
       style="stop-color:#489291"
       id="stop2993" /><stop
       offset="0.5707"
       style="stop-color:#37757B"
       id="stop2995" /><stop
       offset="0.8567"
       style="stop-color:#164353"
       id="stop2997" /><stop
       offset="0.9891"
       style="stop-color:#063246"
       id="stop2999" /></radialGradient><rect
     id="background"
     clip-rule="evenodd"
     width="859.84253"
     height="483.668"
     style="fill:url(#background_1_);fill-rule:evenodd"
     x="0"
     y="0"
     inkscape:export-filename="/tmp/lines-grub-1920x1080.png"
     inkscape:export-xdpi="200.97"
     inkscape:export-ydpi="200.97" /><g
     id="swirl"
     transform="translate(196,0)"
     inkscape:export-filename="/tmp/lines-grub-1920x1080.png"
     inkscape:export-xdpi="200.97"
     inkscape:export-ydpi="200.97"><radialGradient
       id="SVGID_1_"
       cx="552.4375"
       cy="377.9375"
       r="3.3803999"
       gradientTransform="matrix(1.0725,0,0,0.9931,-22.7588,-0.2271)"
       gradientUnits="userSpaceOnUse"><stop
         offset="0"
         style="stop-color:#FFF1E9"
         id="stop3004" /><stop
         offset="1"
         style="stop-color:#FFFFFF;stop-opacity:0.2"
         id="stop3006" /></radialGradient><path
       d="m 566.125,374.093 c -3.433,0.049 0.649,1.765 5.129,2.455 1.239,-0.966 2.363,-1.94 3.36,-2.891 -2.79,0.681 -5.628,0.697 -8.489,0.436"
       id="path3008"
       style="fill:url(#SVGID_1_)"
       inkscape:connector-curvature="0" /><radialGradient
       id="SVGID_2_"
       cx="567.14551"
       cy="367.72949"
       r="3.8273001"
       gradientTransform="matrix(1.0725,0,0,0.9931,-22.7588,-0.2271)"
       gradientUnits="userSpaceOnUse"><stop
         offset="0"
         style="stop-color:#FFF1E9"
         id="stop3011" /><stop
         offset="1"
         style="stop-color:#FFFFFF;stop-opacity:0.2"
         id="stop3013" /></radialGradient><path
       d="m 584.549,369.508 c 2.043,-2.814 3.534,-5.898 4.059,-9.086 -0.459,2.271 -1.694,4.234 -2.855,6.303 -6.416,4.034 -0.606,-2.393 -0.005,-4.837 -6.899,8.669 -0.951,5.199 -1.199,7.62"
       id="path3015"
       style="fill:url(#SVGID_2_)"
       inkscape:connector-curvature="0" /><radialGradient
       id="SVGID_3_"
       cx="571.80371"
       cy="352.84381"
       r="1.8586"
       gradientTransform="matrix(1.0725,0,0,0.9931,-22.7588,-0.2271)"
       gradientUnits="userSpaceOnUse"><stop
         offset="0"
         style="stop-color:#FFF1E9"
         id="stop3018" /><stop
         offset="1"
         style="stop-color:#FFFFFF;stop-opacity:0.2"
         id="stop3020" /></radialGradient><path
       d="m 591.352,351.844 c 0.413,-6.171 -1.219,-4.22 -1.769,-1.863 0.64,0.33 1.149,4.347 1.769,1.863"
       id="path3022"
       style="fill:url(#SVGID_3_)"
       inkscape:connector-curvature="0" /><radialGradient
       id="SVGID_4_"
       cx="539.26947"
       cy="270.10641"
       r="1.6877"
       gradientTransform="matrix(1.0725,0,0,0.9931,-22.7588,-0.2271)"
       gradientUnits="userSpaceOnUse"><stop
         offset="0"
         style="stop-color:#FFF1E9"
         id="stop3025" /><stop
         offset="1"
         style="stop-color:#FFFFFF;stop-opacity:0.2"
         id="stop3027" /></radialGradient><path
       d="m 553.106,267.506 c 1.833,0.329 3.96,0.58 3.66,1.019 2.005,-0.442 2.46,-0.842 -3.66,-1.019"
       id="path3029"
       style="fill:url(#SVGID_4_)"
       inkscape:connector-curvature="0" /><radialGradient
       id="SVGID_5_"
       cx="539.74799"
       cy="270.7529"
       r="0.4364"
       gradientTransform="matrix(1.0725,0,0,0.9931,-22.7588,-0.2271)"
       gradientUnits="userSpaceOnUse"><stop
         offset="0"
         style="stop-color:#FFF1E9"
         id="stop3032" /><stop
         offset="1"
         style="stop-color:#FFFFFF;stop-opacity:0.2"
         id="stop3034" /></radialGradient><path
       d="m 556.767,268.524 -1.293,0.266 1.203,-0.105 0.09,-0.161"
       id="path3036"
       style="fill:url(#SVGID_5_)"
       inkscape:connector-curvature="0" /><radialGradient
       id="SVGID_6_"
       cx="534.47559"
       cy="371.7637"
       r="91.161301"
       gradientTransform="matrix(1.0725,0,0,0.9931,-22.7588,-0.2271)"
       gradientUnits="userSpaceOnUse"><stop
         offset="0"
         style="stop-color:#FFF1E9"
         id="stop3039" /><stop
         offset="1"
         style="stop-color:#FFFFFF;stop-opacity:0.2"
         id="stop3041" /></radialGradient><path
       d="m 613.893,354.184 c 0.204,5.541 -1.623,8.23 -3.272,12.989 l -2.969,1.479 c -2.427,4.707 0.236,2.987 -1.501,6.729 -3.791,3.366 -11.503,10.528 -13.972,11.179 -1.8,-0.036 1.223,-2.122 1.616,-2.938 -5.072,3.479 -4.067,5.223 -11.828,7.336 l -0.228,-0.503 c -19.139,8.985 -45.722,-8.824 -45.371,-33.125 -0.207,1.544 -0.579,1.159 -1.007,1.782 -0.986,-12.503 5.787,-25.061 17.206,-30.188 11.173,-5.521 24.269,-3.255 32.272,4.188 -4.396,-5.748 -13.144,-11.838 -23.516,-11.27 -10.157,0.162 -19.656,6.603 -22.827,13.598 -5.206,3.272 -5.808,12.607 -8.076,14.314 -3.051,22.381 5.736,32.048 20.603,43.422 2.341,1.576 0.665,1.813 0.98,3.011 -4.941,-2.307 -9.463,-5.794 -13.182,-10.059 1.973,2.882 4.102,5.685 6.855,7.89 -4.66,-1.575 -10.881,-11.27 -12.698,-11.663 8.029,14.351 32.573,25.166 45.426,19.799 -5.944,0.222 -13.502,0.122 -20.185,-2.34 -2.804,-1.443 -6.622,-4.43 -5.937,-4.988 17.539,6.54 35.657,4.952 50.836,-7.189 3.859,-3.002 8.078,-8.106 9.294,-8.177 -1.833,2.751 0.316,1.321 -1.095,3.755 3.85,-6.192 -1.672,-2.52 3.975,-10.694 l 2.088,2.866 c -0.775,-5.138 6.397,-11.384 5.67,-19.514 1.644,-2.487 1.834,2.676 0.089,8.396 2.422,-6.345 0.639,-7.364 1.259,-12.6 0.674,1.757 1.557,3.628 2.009,5.483 -1.578,-6.129 1.62,-10.325 2.41,-13.889 -0.776,-0.345 -2.435,2.71 -2.813,-4.533 0.058,-3.146 0.878,-1.648 1.196,-2.423 -0.62,-0.356 -2.243,-2.767 -3.232,-7.394 0.717,-1.084 1.912,2.817 2.89,2.979 -0.626,-3.678 -1.707,-6.481 -1.75,-9.303 -2.846,-5.939 -1.005,0.788 -3.318,-2.551 -3.027,-9.435 2.517,-2.191 2.89,-6.476 4.594,6.643 7.211,16.936 8.412,21.196 -0.917,-5.196 -2.398,-10.231 -4.209,-15.105 1.396,0.586 -2.244,-10.691 1.813,-3.224 -4.335,-15.927 -18.555,-30.806 -31.643,-37.785 1.603,1.458 3.622,7.11 2.897,7.397 -6.508,-3.867 -5.363,-7.981 -6.294,-9.615 -5.304,-2.151 -5.648,0.172 -9.159,0.005 -9.992,-5.29 -11.918,-4.728 -21.112,-8.043 l 0.42,1.952 c -6.622,-2.201 -7.713,0.834 -14.867,0.006 -0.436,-0.338 2.292,-1.226 4.538,-1.554 -6.397,0.844 -6.101,-1.258 -12.361,0.23 1.543,-1.081 3.174,-1.795 4.821,-2.714 -5.219,0.315 -12.46,3.033 -10.223,0.564 -8.516,3.79 -23.633,9.112 -32.116,17.053 l -0.266,-1.779 c -3.889,4.657 -16.953,13.911 -17.992,19.945 l -1.041,0.24 c -2.021,3.42 -3.332,7.296 -4.936,10.809 -2.646,4.503 -3.879,1.736 -3.502,2.439 -5.2,10.531 -7.788,19.382 -10.021,26.636 1.591,2.377 0.038,14.294 0.638,23.832 -2.613,47.106 33.121,92.84 72.184,103.402 5.724,2.044 14.237,1.967 21.479,2.175 -8.543,-2.438 -9.65,-1.291 -17.972,-4.19 -6.003,-2.817 -7.321,-6.043 -11.572,-9.725 l 1.686,2.967 c -8.343,-2.948 -4.853,-3.647 -11.639,-5.792 l 1.797,-2.343 c -2.702,-0.204 -7.159,-4.548 -8.376,-6.951 l -2.957,0.117 c -3.557,-4.38 -5.447,-7.53 -5.311,-9.973 l -0.953,1.697 c -1.083,-1.854 -13.076,-16.415 -6.854,-13.023 -1.154,-1.057 -2.692,-1.717 -4.356,-4.739 l 1.268,-1.443 c -2.994,-3.845 -5.511,-8.771 -5.319,-10.412 1.595,2.15 2.704,2.552 3.802,2.924 -7.561,-18.724 -7.982,-1.032 -13.711,-19.059 l 1.214,-0.097 c -0.93,-1.394 -1.494,-2.909 -2.237,-4.4 l 0.524,-5.244 c -5.442,-6.277 -1.522,-26.707 -0.737,-37.907 0.543,-4.555 4.542,-9.402 7.584,-17.009 l -1.853,-0.317 c 3.543,-6.166 20.222,-24.764 27.946,-23.806 3.744,-4.694 -0.741,-0.021 -1.473,-1.2 8.22,-8.491 10.806,-6.001 16.351,-7.527 5.982,-3.544 -5.136,1.383 -2.294,-1.353 10.34,-2.639 7.327,-5.995 20.816,-7.332 1.424,0.808 -3.3,1.246 -4.486,2.296 8.615,-4.206 27.267,-3.249 39.383,2.337 14.059,6.56 29.852,25.944 30.477,44.18 l 0.709,0.19 c -0.36,7.25 1.108,15.633 -1.436,23.336 l 1.732,-3.642"
       id="path3043"
       style="fill:url(#SVGID_6_)"
       inkscape:connector-curvature="0" /><radialGradient
       id="SVGID_7_"
       cx="516.91992"
       cy="387.2793"
       r="4.5840001"
       gradientTransform="matrix(1.0725,0,0,0.9931,-22.7588,-0.2271)"
       gradientUnits="userSpaceOnUse"><stop
         offset="0"
         style="stop-color:#FFF1E9"
         id="stop3046" /><stop
         offset="1"
         style="stop-color:#FFFFFF;stop-opacity:0.2"
         id="stop3048" /></radialGradient><path
       d="m 528.655,378.797 -0.481,2.4 c 2.256,3.059 4.047,6.374 6.928,8.765 -2.075,-4.037 -3.613,-5.706 -6.447,-11.165"
       id="path3050"
       style="fill:url(#SVGID_7_)"
       inkscape:connector-curvature="0" /><radialGradient
       id="SVGID_8_"
       cx="518.35162"
       cy="380.75201"
       r="2.9717"
       gradientTransform="matrix(1.0725,0,0,0.9931,-22.7588,-0.2271)"
       gradientUnits="userSpaceOnUse"><stop
         offset="0"
         style="stop-color:#FFF1E9"
         id="stop3053" /><stop
         offset="1"
         style="stop-color:#FFFFFF;stop-opacity:0.2"
         id="stop3055" /></radialGradient><path
       d="m 533.989,378.589 c -1.191,-1.319 -1.901,-2.907 -2.69,-4.488 0.754,2.777 2.306,5.165 3.748,7.593 l -1.058,-3.105"
       id="path3057"
       style="fill:url(#SVGID_8_)"
       inkscape:connector-curvature="0" /><radialGradient
       id="SVGID_9_"
       cx="604.08398"
       cy="371.05859"
       r="7.5440001"
       gradientTransform="matrix(1.0725,0,0,0.9931,-22.7588,-0.2271)"
       gradientUnits="userSpaceOnUse"><stop
         offset="0"
         style="stop-color:#FFF1E9"
         id="stop3060" /><stop
         offset="1"
         style="stop-color:#FFFFFF;stop-opacity:0.2"
         id="stop3062" /></radialGradient><path
       d="m 628.363,358.111 -0.505,1.263 c -0.922,6.556 -2.919,13.044 -5.979,19.058 3.38,-6.348 5.568,-13.289 6.484,-20.321"
       id="path3064"
       style="fill:url(#SVGID_9_)"
       inkscape:connector-curvature="0" /><radialGradient
       id="SVGID_10_"
       cx="540.73053"
       cy="267.4238"
       r="3.1712"
       gradientTransform="matrix(1.0725,0,0,0.9931,-22.7588,-0.2271)"
       gradientUnits="userSpaceOnUse"><stop
         offset="0"
         style="stop-color:#FFF1E9"
         id="stop3067" /><stop
         offset="1"
         style="stop-color:#FFFFFF;stop-opacity:0.2"
         id="stop3069" /></radialGradient><path
       d="m 553.787,265.863 c 2.318,-0.848 5.704,-0.466 8.165,-1.023 -3.21,0.267 -6.4,0.429 -9.557,0.835 l 1.392,0.188"
       id="path3071"
       style="fill:url(#SVGID_10_)"
       inkscape:connector-curvature="0" /><radialGradient
       id="SVGID_11_"
       cx="461.86719"
       cy="314.1152"
       r="2.1212001"
       gradientTransform="matrix(1.0725,0,0,0.9931,-22.7588,-0.2271)"
       gradientUnits="userSpaceOnUse"><stop
         offset="0"
         style="stop-color:#FFF1E9"
         id="stop3074" /><stop
         offset="1"
         style="stop-color:#FFFFFF;stop-opacity:0.2"
         id="stop3076" /></radialGradient><path
       d="m 472.303,309.113 c 0.534,4.942 -3.726,6.859 0.944,3.601 2.499,-5.628 -0.98,-1.553 -0.944,-3.601"
       id="path3078"
       style="fill:url(#SVGID_11_)"
       inkscape:connector-curvature="0" /><radialGradient
       id="SVGID_12_"
       cx="457.18951"
       cy="330.90631"
       r="2.6271"
       gradientTransform="matrix(1.0725,0,0,0.9931,-22.7588,-0.2271)"
       gradientUnits="userSpaceOnUse"><stop
         offset="0"
         style="stop-color:#FFF1E9"
         id="stop3081" /><stop
         offset="1"
         style="stop-color:#FFFFFF;stop-opacity:0.2"
         id="stop3083" /></radialGradient><path
       d="m 466.816,331.986 c 1.074,-3.295 1.27,-5.273 1.679,-7.181 -2.969,3.795 -1.366,4.601 -1.679,7.181"
       id="path3085"
       style="fill:url(#SVGID_12_)"
       inkscape:connector-curvature="0" /></g></svg>