<?xml version="1.0" encoding="utf-8"?>
<!-- Generator: Adobe Illustrator 16.0.0, SVG Export Plug-In . SVG Version: 6.00 Build 0)  -->
<!DOCTYPE svg PUBLIC "-//W3C//DTD SVG 1.1//EN" "http://www.w3.org/Graphics/SVG/1.1/DTD/svg11.dtd">
<svg version="1.1" id="root" xmlns="http://www.w3.org/2000/svg" xmlns:xlink="http://www.w3.org/1999/xlink" x="0px" y="0px"
	 width="800px" height="75px" viewBox="0 0 800 75" enable-background="new 0 0 800 75" xml:space="preserve">
<g id="Layer_1_1_">
	<g id="background_1_" display="none">
		
			<linearGradient id="SVGID_1_" gradientUnits="userSpaceOnUse" x1="316.0347" y1="211.8857" x2="316.0346" y2="-267.22" gradientTransform="matrix(1 0 0 -1 102.3398 55.04)">
			<stop  offset="0" style="stop-color:#133356"/>
			<stop  offset="0.5025" style="stop-color:#7C9999"/>
			<stop  offset="1" style="stop-color:#333333"/>
		</linearGradient>
		<rect x="-0.968" y="-158" display="inline" fill="url(#SVGID_1_)" width="838.686" height="480"/>
	</g>
	<g id="Layer_4" display="none">
		
			<radialGradient id="SVGID_2_" cx="389.314" cy="-76.2173" r="316.2845" gradientTransform="matrix(1.2934 0 0 -1.324 -123.085 -31.7686)" gradientUnits="userSpaceOnUse">
			<stop  offset="0" style="stop-color:#E4C8A5;stop-opacity:0.5"/>
			<stop  offset="0.1429" style="stop-color:#AEAB93;stop-opacity:0.4372"/>
			<stop  offset="0.3797" style="stop-color:#587E77;stop-opacity:0.3331"/>
			<stop  offset="0.4877" style="stop-color:#366C6C;stop-opacity:0.2857"/>
		</radialGradient>
		<rect x="0.301" y="-158" display="inline" fill="url(#SVGID_2_)" width="838.609" height="480"/>
	</g>
	<g id="backgound">
		<g id="background_2_">
			
				<linearGradient id="SVGID_3_" gradientUnits="userSpaceOnUse" x1="-1313.4199" y1="493.4619" x2="-329.4199" y2="493.4619" gradientTransform="matrix(1 0 0 -1 1180.4199 540.7188)">
				<stop  offset="0" style="stop-color:#133356"/>
				<stop  offset="0.5468" style="stop-color:#7C9999"/>
				<stop  offset="1" style="stop-color:#333333"/>
			</linearGradient>
			<rect x="-133" y="-67.626" fill="url(#SVGID_3_)" width="984" height="229.766"/>
		</g>
		<g id="Layer_4_1_">
			
				<radialGradient id="SVGID_4_" cx="-1023.5547" cy="-303.4883" r="942.2221" gradientTransform="matrix(0.5115 0 0 -0.1867 860.4236 -58.0305)" gradientUnits="userSpaceOnUse">
				<stop  offset="0" style="stop-color:#E4C8A5;stop-opacity:0.5"/>
				<stop  offset="0.1429" style="stop-color:#AEAB93;stop-opacity:0.4372"/>
				<stop  offset="0.557" style="stop-color:#587E77;stop-opacity:0.3331"/>
				<stop  offset="0.8079" style="stop-color:#366C6C;stop-opacity:0.2857"/>
			</radialGradient>
			<rect x="-111" y="-96.833" fill="url(#SVGID_4_)" width="988" height="201.688"/>
		</g>
	</g>
</g>
<g id="glows">
	
		<radialGradient id="SVGID_5_" cx="595.7715" cy="-60.707" r="93.7251" gradientTransform="matrix(1 0 0 -1 102.3398 55.04)" gradientUnits="userSpaceOnUse">
		<stop  offset="0" style="stop-color:#FFFCDD"/>
		<stop  offset="1" style="stop-color:#FEF9C8;stop-opacity:0"/>
	</radialGradient>
	<circle opacity="0.2" fill="url(#SVGID_5_)" enable-background="new    " cx="698.11" cy="115.747" r="93.726"/>
	
		<radialGradient id="SVGID_6_" cx="543.7188" cy="-28.4526" r="74.1868" gradientTransform="matrix(1 0 0 -1 102.3398 55.04)" gradientUnits="userSpaceOnUse">
		<stop  offset="0" style="stop-color:#99CCCC"/>
		<stop  offset="1" style="stop-color:#FEF9C8;stop-opacity:0"/>
	</radialGradient>
	<circle opacity="0.2" fill="url(#SVGID_6_)" enable-background="new    " cx="646.058" cy="83.492" r="74.187"/>
	
		<radialGradient id="SVGID_7_" cx="223.4976" cy="-15.6963" r="98.3562" gradientTransform="matrix(1 0 0 -1 102.3398 55.04)" gradientUnits="userSpaceOnUse">
		<stop  offset="0" style="stop-color:#FFFCDD"/>
		<stop  offset="1" style="stop-color:#FEF9C8;stop-opacity:0"/>
	</radialGradient>
	<circle opacity="0.1" fill="url(#SVGID_7_)" enable-background="new    " cx="325.838" cy="70.736" r="98.357"/>
	
		<radialGradient id="SVGID_8_" cx="286.6074" cy="-79.1563" r="98.3567" gradientTransform="matrix(1 0 0 -1 102.3398 55.04)" gradientUnits="userSpaceOnUse">
		<stop  offset="0" style="stop-color:#FFFCDD"/>
		<stop  offset="1" style="stop-color:#FEF9C8;stop-opacity:0"/>
	</radialGradient>
	<circle opacity="0.1" fill="url(#SVGID_8_)" enable-background="new    " cx="388.947" cy="134.196" r="98.357"/>
	
		<radialGradient id="SVGID_9_" cx="359.73" cy="-138.5156" r="125.8254" gradientTransform="matrix(1 0 0 -1 102.3398 55.04)" gradientUnits="userSpaceOnUse">
		<stop  offset="0" style="stop-color:#FFFCDD"/>
		<stop  offset="1" style="stop-color:#FEF9C8;stop-opacity:0"/>
	</radialGradient>
	<circle opacity="0.1" fill="url(#SVGID_9_)" enable-background="new    " cx="462.07" cy="193.556" r="125.825"/>
	
		<radialGradient id="SVGID_10_" cx="524.2168" cy="-84.2134" r="125.8249" gradientTransform="matrix(1 0 0 -1 102.3398 55.04)" gradientUnits="userSpaceOnUse">
		<stop  offset="0" style="stop-color:#FFFCDD"/>
		<stop  offset="1" style="stop-color:#FEF9C8;stop-opacity:0"/>
	</radialGradient>
	<circle opacity="0.1" fill="url(#SVGID_10_)" enable-background="new    " cx="626.556" cy="139.253" r="125.825"/>
	
		<radialGradient id="SVGID_11_" cx="494.9551" cy="-39.9023" r="125.8252" gradientTransform="matrix(1 0 0 -1 102.3398 55.04)" gradientUnits="userSpaceOnUse">
		<stop  offset="0" style="stop-color:#99CCCC"/>
		<stop  offset="1" style="stop-color:#FEF9C8;stop-opacity:0"/>
	</radialGradient>
	<circle opacity="0.2" fill="url(#SVGID_11_)" enable-background="new    " cx="597.294" cy="94.942" r="125.825"/>
	
		<radialGradient id="SVGID_12_" cx="620.7793" cy="-39.9023" r="125.8257" gradientTransform="matrix(1 0 0 -1 102.3398 55.04)" gradientUnits="userSpaceOnUse">
		<stop  offset="0" style="stop-color:#FFFCDD"/>
		<stop  offset="1" style="stop-color:#FEF9C8;stop-opacity:0"/>
	</radialGradient>
	<circle opacity="0.2" fill="url(#SVGID_12_)" enable-background="new    " cx="723.12" cy="94.942" r="125.825"/>
	
		<radialGradient id="SVGID_13_" cx="583.9121" cy="-128.5234" r="125.8247" gradientTransform="matrix(1 0 0 -1 102.3398 55.04)" gradientUnits="userSpaceOnUse">
		<stop  offset="0" style="stop-color:#99CCCC"/>
		<stop  offset="1" style="stop-color:#FEF9C8;stop-opacity:0"/>
	</radialGradient>
	<circle opacity="0.2" fill="url(#SVGID_13_)" enable-background="new    " cx="686.251" cy="183.563" r="125.825"/>
</g>
<g opacity="0.8">
	
		<radialGradient id="SVGID_14_" cx="391.7422" cy="72.8359" r="236.4995" gradientTransform="matrix(1 0 0 -1 102.3398 55.04)" gradientUnits="userSpaceOnUse">
		<stop  offset="0" style="stop-color:#BCCCB3"/>
		<stop  offset="1" style="stop-color:#FEF9C8;stop-opacity:0"/>
	</radialGradient>
	<path opacity="0.5" fill="url(#SVGID_14_)" enable-background="new    " d="M741.971-186.311c0,0,41.074,47.038,22.502,119.633
		C733.08,56.041,638.023,75.654,484.049,40.744c-271.322-61.52-280.701,75.865-278.687,88.621l14.73,21.354
		c-2.015-12.756,7.364-150.138,278.687-88.621C652.756,97.01,747.809,77.396,779.203-45.323
		C797.775-117.917,741.971-186.311,741.971-186.311"/>
	
		<radialGradient id="SVGID_15_" cx="459.5781" cy="80.3418" r="236.501" gradientTransform="matrix(1 0 0 -1 102.3398 55.04)" gradientUnits="userSpaceOnUse">
		<stop  offset="0" style="stop-color:#BCCCB3"/>
		<stop  offset="1" style="stop-color:#FEF9C8;stop-opacity:0"/>
	</radialGradient>
	<path opacity="0.5" fill="url(#SVGID_15_)" enable-background="new    " d="M809.809-193.817c0,0,41.074,47.037,22.502,119.632
		C800.916,48.533,705.861,68.148,551.885,33.236C280.562-28.283,271.183,109.1,273.197,121.857l14.73,21.355
		c-2.015-12.756,7.365-150.138,278.686-88.621C720.592,89.504,815.646,69.887,847.041-52.83
		C865.611-125.424,809.809-193.817,809.809-193.817"/>
</g>
<g id="octopus_1_">
</g>
<g id="logoGroup_1_">
	<g id="logo_2_" opacity="0.5" enable-background="new    ">
		<radialGradient id="SVGID_16_" cx="36.4683" cy="20.2144" r="156.295" gradientUnits="userSpaceOnUse">
			<stop  offset="0" style="stop-color:#BCCCB3"/>
			<stop  offset="1" style="stop-color:#FEF9C8;stop-opacity:0"/>
		</radialGradient>
		<path fill="url(#SVGID_16_)" d="M40.631,38.199c-0.921,0.012,0.173,0.475,1.376,0.664c0.332-0.264,0.632-0.527,0.9-0.781
			C42.16,38.266,41.398,38.268,40.631,38.199"/>
		<radialGradient id="SVGID_17_" cx="36.4678" cy="20.2466" r="156.0337" gradientUnits="userSpaceOnUse">
			<stop  offset="0" style="stop-color:#BCCCB3"/>
			<stop  offset="1" style="stop-color:#FEF9C8;stop-opacity:0"/>
		</radialGradient>
		<path fill="url(#SVGID_17_)" d="M45.569,36.968c0.549-0.759,0.948-1.585,1.089-2.439c-0.124,0.606-0.454,1.136-0.766,1.693
			c-1.721,1.082-0.163-0.646-0.002-1.302C44.043,37.248,45.636,36.317,45.569,36.968"/>
		<radialGradient id="SVGID_18_" cx="36.4668" cy="20.2417" r="156.0719" gradientUnits="userSpaceOnUse">
			<stop  offset="0" style="stop-color:#BCCCB3"/>
			<stop  offset="1" style="stop-color:#FEF9C8;stop-opacity:0"/>
		</radialGradient>
		<path fill="url(#SVGID_18_)" d="M47.394,32.22c0.11-1.655-0.326-1.131-0.473-0.5C47.094,31.813,47.229,32.889,47.394,32.22"/>
		<radialGradient id="SVGID_19_" cx="36.4683" cy="20.2588" r="156.3005" gradientUnits="userSpaceOnUse">
			<stop  offset="0" style="stop-color:#BCCCB3"/>
			<stop  offset="1" style="stop-color:#FEF9C8;stop-opacity:0"/>
		</radialGradient>
		<path fill="url(#SVGID_19_)" d="M37.139,9.564c0.492,0.089,1.063,0.156,0.98,0.273C38.658,9.719,38.78,9.612,37.139,9.564"/>
		<radialGradient id="SVGID_20_" cx="36.4629" cy="20.2676" r="156.457" gradientUnits="userSpaceOnUse">
			<stop  offset="0" style="stop-color:#BCCCB3"/>
			<stop  offset="1" style="stop-color:#FEF9C8;stop-opacity:0"/>
		</radialGradient>
		<path fill="url(#SVGID_20_)" d="M38.119,9.834L37.772,9.91l0.325-0.029L38.119,9.834"/>
		<radialGradient id="SVGID_21_" cx="36.4312" cy="20.2432" r="156.1243" gradientUnits="userSpaceOnUse">
			<stop  offset="0" style="stop-color:#BCCCB3"/>
			<stop  offset="1" style="stop-color:#FEF9C8;stop-opacity:0"/>
		</radialGradient>
		<path fill="url(#SVGID_21_)" d="M53.438,32.852c0.057,1.488-0.435,2.21-0.878,3.489l-0.794,0.396
			c-0.652,1.266,0.063,0.804-0.403,1.811c-1.018,0.904-3.083,2.828-3.743,3.006c-0.484-0.014,0.324-0.572,0.432-0.793
			c-1.362,0.934-1.092,1.404-3.175,1.971l-0.06-0.135c-5.131,2.416-12.261-2.369-12.166-8.899c-0.053,0.417-0.155,0.31-0.269,0.478
			c-0.266-3.357,1.551-6.73,4.612-8.11c2.996-1.481,6.509-0.875,8.652,1.129c-1.179-1.546-3.524-3.182-6.304-3.029
			c-2.723,0.044-5.271,1.775-6.121,3.654c-1.395,0.875-1.559,3.385-2.166,3.845c-0.818,6.009,1.54,8.608,5.526,11.665
			c0.626,0.422,0.176,0.486,0.259,0.807c-1.323-0.617-2.533-1.555-3.535-2.699c0.531,0.773,1.103,1.525,1.842,2.119
			c-1.251-0.426-2.92-3.029-3.404-3.133c2.152,3.854,8.733,6.76,12.183,5.316c-1.6,0.061-3.624,0.035-5.414-0.627
			c-0.757-0.391-1.776-1.189-1.595-1.34c4.705,1.756,9.562,1.33,13.632-1.932c1.035-0.807,2.168-2.18,2.495-2.197
			c-0.494,0.742,0.083,0.355-0.295,1.008c1.03-1.664-0.448-0.678,1.066-2.873l0.559,0.769c-0.209-1.385,1.718-3.058,1.519-5.244
			c0.442-0.667,0.494,0.72,0.025,2.256c0.649-1.705,0.174-1.978,0.337-3.387c0.182,0.473,0.419,0.979,0.538,1.477
			c-0.422-1.648,0.436-2.776,0.648-3.733c-0.21-0.094-0.653,0.727-0.756-1.216c0.013-0.844,0.235-0.444,0.319-0.649
			c-0.165-0.099-0.6-0.746-0.862-1.988c0.188-0.292,0.511,0.758,0.772,0.799c-0.169-0.985-0.459-1.74-0.471-2.5
			c-0.764-1.595-0.27,0.213-0.887-0.683c-0.814-2.537,0.672-0.591,0.772-1.742c1.232,1.785,1.935,4.551,2.257,5.696
			c-0.248-1.397-0.643-2.751-1.129-4.06c0.374,0.159-0.606-2.872,0.486-0.865c-1.164-4.279-4.979-8.275-8.484-10.153
			c0.428,0.392,0.97,0.886,0.776,0.963c-1.746-1.039-1.44-1.121-1.689-1.558c-1.42-0.579-1.515,0.047-2.454,0.004
			c-2.68-1.425-3.195-1.273-5.661-2.163l0.111,0.525c-1.774-0.591-2.068,0.223-3.989,0.002c-0.113-0.092,0.618-0.332,1.218-0.419
			c-1.713,0.228-1.634-0.337-3.312,0.063c0.411-0.291,0.852-0.483,1.291-0.729c-1.397,0.085-3.339,0.813-2.741,0.15
			c-2.282,1.019-6.336,2.447-8.61,4.583l-0.071-0.479c-1.043,1.25-4.546,3.735-4.825,5.358l-0.28,0.064
			c-0.54,0.92-0.892,1.959-1.321,2.904c-0.71,1.209-1.04,0.465-0.938,0.655c-1.396,2.83-2.091,5.207-2.69,7.155
			c0.427,0.639,0.011,3.84,0.172,6.402c-0.7,12.654,8.882,24.941,19.355,27.779c1.535,0.551,3.816,0.531,5.759,0.584
			c-2.291-0.65-2.586-0.346-4.818-1.125c-1.611-0.758-1.962-1.623-3.103-2.613l0.45,0.799c-2.234-0.793-1.301-0.984-3.119-1.559
			l0.482-0.629c-0.728-0.055-1.922-1.219-2.246-1.869l-0.796,0.033c-0.95-1.172-1.459-2.021-1.42-2.678l-0.258,0.455
			c-0.291-0.496-3.504-4.406-1.837-3.496c-0.31-0.283-0.723-0.463-1.168-1.273l0.338-0.387c-0.801-1.035-1.478-2.359-1.424-2.799
			c0.428,0.578,0.725,0.682,1.02,0.783c-2.029-5.027-2.142-0.273-3.679-5.119l0.327-0.025c-0.25-0.377-0.401-0.781-0.602-1.182
			l0.143-1.408c-1.457-1.682-0.406-7.173-0.198-10.183c0.145-1.223,1.219-2.526,2.034-4.568l-0.496-0.087
			c0.949-1.655,5.421-6.653,7.494-6.396c1.004-1.261-0.201-0.004-0.396-0.32c2.204-2.281,2.895-1.613,4.384-2.023
			c1.605-0.951-1.376,0.373-0.616-0.361c2.773-0.707,1.967-1.61,5.582-1.969c0.383,0.213-0.885,0.334-1.2,0.614
			c2.307-1.13,7.312-0.872,10.56,0.628c3.769,1.762,8.005,6.97,8.172,11.869l0.19,0.053c-0.094,1.948,0.3,4.2-0.386,6.27
			L53.438,32.852"/>
		<radialGradient id="SVGID_22_" cx="36.4663" cy="20.2485" r="156.0378" gradientUnits="userSpaceOnUse">
			<stop  offset="0" style="stop-color:#BCCCB3"/>
			<stop  offset="1" style="stop-color:#FEF9C8;stop-opacity:0"/>
		</radialGradient>
		<path fill="url(#SVGID_22_)" d="M30.583,39.465l-0.13,0.645c0.604,0.824,1.086,1.713,1.856,2.354
			C31.754,41.377,31.342,40.934,30.583,39.465"/>
		<radialGradient id="SVGID_23_" cx="36.4751" cy="20.2563" r="155.9754" gradientUnits="userSpaceOnUse">
			<stop  offset="0" style="stop-color:#BCCCB3"/>
			<stop  offset="1" style="stop-color:#FEF9C8;stop-opacity:0"/>
		</radialGradient>
		<path fill="url(#SVGID_23_)" d="M32.013,39.408c-0.321-0.354-0.51-0.781-0.724-1.207c0.205,0.748,0.62,1.389,1.009,2.039
			L32.013,39.408"/>
		<radialGradient id="SVGID_24_" cx="36.4507" cy="20.2427" r="156.1416" gradientUnits="userSpaceOnUse">
			<stop  offset="0" style="stop-color:#BCCCB3"/>
			<stop  offset="1" style="stop-color:#FEF9C8;stop-opacity:0"/>
		</radialGradient>
		<path fill="url(#SVGID_24_)" d="M57.322,33.906l-0.135,0.339c-0.248,1.76-0.785,3.502-1.607,5.12
			C56.488,37.661,57.071,35.793,57.322,33.906"/>
		<radialGradient id="SVGID_25_" cx="36.4668" cy="20.2642" r="156.3518" gradientUnits="userSpaceOnUse">
			<stop  offset="0" style="stop-color:#BCCCB3"/>
			<stop  offset="1" style="stop-color:#FEF9C8;stop-opacity:0"/>
		</radialGradient>
		<path fill="url(#SVGID_25_)" d="M37.322,9.123c0.622-0.226,1.528-0.124,2.19-0.274c-0.862,0.072-1.72,0.115-2.565,0.222
			L37.322,9.123"/>
		<radialGradient id="SVGID_26_" cx="36.4932" cy="20.2432" r="156.2741" gradientUnits="userSpaceOnUse">
			<stop  offset="0" style="stop-color:#BCCCB3"/>
			<stop  offset="1" style="stop-color:#FEF9C8;stop-opacity:0"/>
		</radialGradient>
		<path fill="url(#SVGID_26_)" d="M15.471,20.744c0.143,1.326-0.998,1.841,0.251,0.966C16.396,20.197,15.462,21.293,15.471,20.744"
			/>
		<radialGradient id="SVGID_27_" cx="36.4604" cy="20.2383" r="156.0433" gradientUnits="userSpaceOnUse">
			<stop  offset="0" style="stop-color:#BCCCB3"/>
			<stop  offset="1" style="stop-color:#FEF9C8;stop-opacity:0"/>
		</radialGradient>
		<path fill="url(#SVGID_27_)" d="M14,26.888c0.289-0.886,0.342-1.417,0.452-1.929C13.655,25.979,14.084,26.194,14,26.888"/>
	</g>
</g>
<g>
	<rect x="335.73" y="13.265" fill="none" width="94.411" height="34.462"/>
	<text transform="matrix(1 0 0 1 335.7295 40.0859)" fill="#FFFFFF" font-family="'Poppl-Laudatio-Condensed'" font-size="36">debian</text>
	<rect x="335.73" y="48.034" fill="none" width="55.812" height="15.334"/>
	<text transform="matrix(1 0 0 1 335.73 56.9727)" fill="#FFFFFF" font-family="'Poppl-Laudatio-Condensed'" font-size="12">GNU/Linux</text>
	<g>
		<g>
			<path fill="#FFFFFF" d="M451.588,44.284c-6.785,0.201-12.678-5.747-12.678-12.191c0-7.138,5.166-13.407,12.885-13.407
				c7.715,0,12.475,6.269,12.475,15.902c0,8.304-2.783,14.108-6.5,17.708c-2.9,2.842-6.908,4.584-10.969,5.049
				c-1.857,0.291-3.48,0.348-4.699,0.291c0,0,17.33-5.209,17.875-19.466c0.119-3.189,2.322-15.884-8.59-15.594
				c-4.35,0.115-7.43,3.83-7.43,9.17c0,4.699,1.443,8.03,6.207,9.196c3.328,0.815,5.416-0.474,7.883-6.502
				C458.047,34.44,459.139,44.062,451.588,44.284z"/>
		</g>
	</g>
</g>
</svg>
