<?xml version="1.0" encoding="UTF-8" standalone="no"?>
<!-- Generator: Adobe Illustrator 16.0.0, SVG Export Plug-In . SVG Version: 6.00 Build 0)  -->

<svg
   xmlns:dc="http://purl.org/dc/elements/1.1/"
   xmlns:cc="http://creativecommons.org/ns#"
   xmlns:rdf="http://www.w3.org/1999/02/22-rdf-syntax-ns#"
   xmlns:svg="http://www.w3.org/2000/svg"
   xmlns="http://www.w3.org/2000/svg"
   xmlns:sodipodi="http://sodipodi.sourceforge.net/DTD/sodipodi-0.dtd"
   xmlns:inkscape="http://www.inkscape.org/namespaces/inkscape"
   version="1.1"
   id="root"
   x="0px"
   y="0px"
   width="640px"
   height="480px"
   viewBox="0 0 640 480"
   enable-background="new 0 0 640 480"
   xml:space="preserve"
   inkscape:version="0.91 r13725"
   sodipodi:docname="syslinux.svg"><metadata
     id="metadata171"><rdf:RDF><cc:Work
         rdf:about=""><dc:format>image/svg+xml</dc:format><dc:type
           rdf:resource="http://purl.org/dc/dcmitype/StillImage" /></cc:Work></rdf:RDF></metadata><defs
     id="defs169" /><sodipodi:namedview
     pagecolor="#ffffff"
     bordercolor="#666666"
     borderopacity="1"
     objecttolerance="10"
     gridtolerance="10"
     guidetolerance="10"
     inkscape:pageopacity="0"
     inkscape:pageshadow="2"
     inkscape:window-width="1920"
     inkscape:window-height="1007"
     id="namedview167"
     showgrid="false"
     inkscape:zoom="0.49166667"
     inkscape:cx="320"
     inkscape:cy="240"
     inkscape:window-x="0"
     inkscape:window-y="0"
     inkscape:window-maximized="1"
     inkscape:current-layer="root" /><g
     id="background"><linearGradient
       id="SVGID_1_"
       gradientUnits="userSpaceOnUse"
       x1="1361.2219"
       y1="-776.1472"
       x2="1361.2217"
       y2="-1264.2366"
       gradientTransform="matrix(1 0 0 -1 -1041.334 -778.272)"><stop
         offset="0"
         style="stop-color:#133356"
         id="stop5" /><stop
         offset="0.5025"
         style="stop-color:#7C9999"
         id="stop7" /><stop
         offset="1"
         style="stop-color:#333333"
         id="stop9" /></linearGradient><rect
       x="-3.472"
       y="-3.3"
       fill="url(#SVGID_1_)"
       width="646.72"
       height="488.999"
       id="rect11" /><g
       id="Layer_4"><radialGradient
         id="SVGID_2_"
         cx="1332.3958"
         cy="-808.573"
         r="316.282"
         gradientTransform="matrix(0.9974 0 0 -1.3488 -1038.2571 -862.5144)"
         gradientUnits="userSpaceOnUse"><stop
           offset="0"
           style="stop-color:#E4C8A5;stop-opacity:0.5"
           id="stop15" /><stop
           offset="0.1429"
           style="stop-color:#AEAB93;stop-opacity:0.4372"
           id="stop17" /><stop
           offset="0.3797"
           style="stop-color:#587E77;stop-opacity:0.3331"
           id="stop19" /><stop
           offset="0.4877"
           style="stop-color:#366C6C;stop-opacity:0.2857"
           id="stop21" /></radialGradient><rect
         x="-2.494"
         y="-3.3"
         fill="url(#SVGID_2_)"
         width="646.659"
         height="488.999"
         id="rect23" /></g></g><g
     id="waves_1_"
     opacity="0.8"
     enable-background="new    "><radialGradient
       id="SVGID_3_"
       cx="1248.5256"
       cy="-1137.8157"
       r="236.5"
       gradientTransform="matrix(1 0 0 -1 -1041.334 -778.272)"
       gradientUnits="userSpaceOnUse"><stop
         offset="0"
         style="stop-color:#FFFFFF"
         id="stop27" /><stop
         offset="1"
         style="stop-color:#FFFFFF;stop-opacity:0"
         id="stop29" /></radialGradient><path
       opacity="0.5"
       fill="url(#SVGID_3_)"
       enable-background="new    "
       d="M455.078,191.031c0,0,41.074,47.033,22.502,119.629   C446.19,433.381,351.134,452.99,197.156,418.08c-271.32-61.521-280.699,75.865-278.687,88.622l14.729,21.354   c-2.015-12.758,7.364-150.146,278.688-88.621c153.979,34.908,249.032,15.298,280.428-107.423   C510.886,259.425,455.078,191.031,455.078,191.031"
       id="path31" /><radialGradient
       id="SVGID_4_"
       cx="1353.9553"
       cy="-1243.8264"
       r="191.1319"
       gradientTransform="matrix(1 0 0 -1 -1041.334 -778.272)"
       gradientUnits="userSpaceOnUse"><stop
         offset="0"
         style="stop-color:#FFFFFF"
         id="stop34" /><stop
         offset="1"
         style="stop-color:#FFFFFF;stop-opacity:0"
         id="stop36" /></radialGradient><path
       opacity="0.5"
       fill="url(#SVGID_4_)"
       enable-background="new    "
       d="M573.875,396.206   c-72.864,45.283-132.584,50.168-243.639,28.722C58.918,363.406,49.54,500.79,51.552,513.55l14.73,21.354   c-2.018-12.756,7.362-150.138,278.683-88.62C460.937,474.812,534.091,436.041,573.875,396.206z"
       id="path38" /><radialGradient
       id="SVGID_5_"
       cx="1549.5842"
       cy="1331.1482"
       r="68.9666"
       gradientTransform="matrix(1 0 0 1 -1143.6738 -931.3105)"
       gradientUnits="userSpaceOnUse"><stop
         offset="0"
         style="stop-color:#FFFFFF"
         id="stop41" /><stop
         offset="1"
         style="stop-color:#FFFFFF;stop-opacity:0"
         id="stop43" /></radialGradient><path
       opacity="0.3"
       fill="url(#SVGID_5_)"
       enable-background="new    "
       d="M435.243,326.888c0,0,19.968,9.572,25.604,36.258   c9.529,45.104-16.604,65.392-69.354,76.221c-49.465,5.338-52.266,29.496-49.647,33.421c-2.613-3.924,13.104-21.671,57.516-28.503   c52.75-10.83,78.885-31.12,69.354-76.225C463.073,341.382,435.243,326.888,435.243,326.888"
       id="path45" /></g><g
     id="glows_1_"><radialGradient
       id="SVGID_6_"
       cx="1512.7981"
       cy="-992.1287"
       r="93.7258"
       gradientTransform="matrix(1 0 0 -1 -1041.334 -778.272)"
       gradientUnits="userSpaceOnUse"><stop
         offset="0"
         style="stop-color:#FFFCDD"
         id="stop49" /><stop
         offset="1"
         style="stop-color:#FEF9C8;stop-opacity:0"
         id="stop51" /></radialGradient><circle
       opacity="0.2"
       fill="url(#SVGID_6_)"
       enable-background="new    "
       cx="471.464"
       cy="213.857"
       r="93.726"
       id="circle53" /><radialGradient
       id="SVGID_7_"
       cx="1460.7454"
       cy="-959.8748"
       r="74.1868"
       gradientTransform="matrix(1 0 0 -1 -1041.334 -778.272)"
       gradientUnits="userSpaceOnUse"><stop
         offset="0"
         style="stop-color:#99CCCC"
         id="stop56" /><stop
         offset="1"
         style="stop-color:#FEF9C8;stop-opacity:0"
         id="stop58" /></radialGradient><circle
       opacity="0.2"
       fill="url(#SVGID_7_)"
       enable-background="new    "
       cx="419.41"
       cy="181.603"
       r="74.187"
       id="circle60" /><radialGradient
       id="SVGID_8_"
       cx="1140.5256"
       cy="-947.1179"
       r="98.3572"
       gradientTransform="matrix(1 0 0 -1 -1041.334 -778.272)"
       gradientUnits="userSpaceOnUse"><stop
         offset="0"
         style="stop-color:#FFFCDD"
         id="stop63" /><stop
         offset="1"
         style="stop-color:#FEF9C8;stop-opacity:0"
         id="stop65" /></radialGradient><circle
       opacity="0.1"
       fill="url(#SVGID_8_)"
       enable-background="new    "
       cx="99.191"
       cy="168.846"
       r="98.357"
       id="circle67" /><radialGradient
       id="SVGID_9_"
       cx="1203.6331"
       cy="-1010.5779"
       r="98.3577"
       gradientTransform="matrix(1 0 0 -1 -1041.334 -778.272)"
       gradientUnits="userSpaceOnUse"><stop
         offset="0"
         style="stop-color:#FFFCDD"
         id="stop70" /><stop
         offset="1"
         style="stop-color:#FEF9C8;stop-opacity:0"
         id="stop72" /></radialGradient><circle
       opacity="0.1"
       fill="url(#SVGID_9_)"
       enable-background="new    "
       cx="162.299"
       cy="232.306"
       r="98.358"
       id="circle74" /><radialGradient
       id="SVGID_10_"
       cx="1276.7561"
       cy="-1069.9387"
       r="125.8247"
       gradientTransform="matrix(1 0 0 -1 -1041.334 -778.272)"
       gradientUnits="userSpaceOnUse"><stop
         offset="0"
         style="stop-color:#FFFCDD"
         id="stop77" /><stop
         offset="1"
         style="stop-color:#FEF9C8;stop-opacity:0"
         id="stop79" /></radialGradient><circle
       opacity="0.1"
       fill="url(#SVGID_10_)"
       enable-background="new    "
       cx="235.422"
       cy="291.667"
       r="125.825"
       id="circle81" /><radialGradient
       id="SVGID_11_"
       cx="1441.2434"
       cy="-1015.635"
       r="125.8252"
       gradientTransform="matrix(1 0 0 -1 -1041.334 -778.272)"
       gradientUnits="userSpaceOnUse"><stop
         offset="0"
         style="stop-color:#FFFCDD"
         id="stop84" /><stop
         offset="1"
         style="stop-color:#FEF9C8;stop-opacity:0"
         id="stop86" /></radialGradient><circle
       opacity="0.1"
       fill="url(#SVGID_11_)"
       enable-background="new    "
       cx="399.908"
       cy="237.363"
       r="125.825"
       id="circle88" /><radialGradient
       id="SVGID_12_"
       cx="1411.9836"
       cy="-971.324"
       r="125.8249"
       gradientTransform="matrix(1 0 0 -1 -1041.334 -778.272)"
       gradientUnits="userSpaceOnUse"><stop
         offset="0"
         style="stop-color:#99CCCC"
         id="stop91" /><stop
         offset="1"
         style="stop-color:#FEF9C8;stop-opacity:0"
         id="stop93" /></radialGradient><circle
       opacity="0.2"
       fill="url(#SVGID_12_)"
       enable-background="new    "
       cx="370.649"
       cy="193.052"
       r="125.825"
       id="circle95" /><radialGradient
       id="SVGID_13_"
       cx="1537.8079"
       cy="-971.324"
       r="125.8249"
       gradientTransform="matrix(1 0 0 -1 -1041.334 -778.272)"
       gradientUnits="userSpaceOnUse"><stop
         offset="0"
         style="stop-color:#FFFCDD"
         id="stop98" /><stop
         offset="1"
         style="stop-color:#FEF9C8;stop-opacity:0"
         id="stop100" /></radialGradient><circle
       opacity="0.2"
       fill="url(#SVGID_13_)"
       enable-background="new    "
       cx="496.474"
       cy="193.052"
       r="125.825"
       id="circle102" /><radialGradient
       id="SVGID_14_"
       cx="1500.9407"
       cy="-1059.9451"
       r="125.8249"
       gradientTransform="matrix(1 0 0 -1 -1041.334 -778.272)"
       gradientUnits="userSpaceOnUse"><stop
         offset="0"
         style="stop-color:#99CCCC"
         id="stop105" /><stop
         offset="1"
         style="stop-color:#FEF9C8;stop-opacity:0"
         id="stop107" /></radialGradient><circle
       opacity="0.2"
       fill="url(#SVGID_14_)"
       enable-background="new    "
       cx="459.606"
       cy="281.673"
       r="125.825"
       id="circle109" /></g><g
     id="logoGroup_2_"
     opacity="0.8"
     enable-background="new    "><g
       id="g112"><g
         id="logo_9_"
         enable-background="new    "><path
           fill="#FFFFFF"
           d="M589.038,407.283c-1.729,0.023,0.324,0.89,2.589,1.24c0.616-0.494,1.182-0.984,1.688-1.461     C591.907,407.412,590.482,407.421,589.038,407.283"
           id="path115" /><path
           fill="#FFFFFF"
           d="M598.307,404.974c1.029-1.43,1.783-2.979,2.045-4.58c-0.229,1.14-0.852,2.132-1.438,3.176     c-3.229,2.033-0.309-1.208-0.004-2.438C595.443,405.503,598.436,403.755,598.307,404.974"
           id="path117" /><path
           fill="#FFFFFF"
           d="M601.732,396.066c0.211-3.109-0.609-2.125-0.889-0.943C601.172,395.296,601.424,397.316,601.732,396.066"
           id="path119" /><path
           fill="#FFFFFF"
           d="M582.488,353.543c0.924,0.171,1.994,0.296,1.84,0.521C585.34,353.835,585.566,353.635,582.488,353.543"
           id="path121" /><path
           fill="#FFFFFF"
           d="M584.325,354.055l-0.647,0.145l0.604-0.061L584.325,354.055"
           id="path123" /><path
           fill="#FFFFFF"
           d="M613.075,397.245c0.105,2.796-0.813,4.151-1.646,6.555l-1.492,0.74c-1.225,2.378,0.119,1.51-0.756,3.403     c-1.908,1.695-5.787,5.299-7.023,5.631c-0.903-0.021,0.605-1.071,0.812-1.485c-2.556,1.756-2.047,2.639-5.955,3.702l-0.107-0.256     c-9.634,4.533-23.014-4.448-22.832-16.698c-0.104,0.777-0.295,0.584-0.509,0.896c-0.497-6.301,2.911-12.633,8.655-15.221     c5.625-2.778,12.217-1.646,16.24,2.112c-2.212-2.896-6.615-5.971-11.832-5.688c-5.109,0.085-9.896,3.33-11.488,6.854     c-2.618,1.646-2.922,6.354-4.064,7.216c-1.532,11.282,2.896,16.155,10.373,21.896c1.179,0.791,0.33,0.906,0.486,1.519     c-2.486-1.162-4.756-2.916-6.633-5.064c0.992,1.447,2.063,2.863,3.451,3.975c-2.351-0.799-5.478-5.68-6.392-5.879     c4.041,7.232,16.388,12.688,22.859,9.982c-3,0.104-6.799,0.063-10.156-1.188c-1.419-0.729-3.334-2.223-2.992-2.508     c8.83,3.293,17.943,2.492,25.584-3.629c1.939-1.521,4.064-4.086,4.683-4.123c-0.925,1.396,0.156,0.668-0.556,1.896     c1.935-3.125-0.842-1.272,2.003-5.393l1.049,1.444c-0.396-2.604,3.228-5.745,2.854-9.848c0.829-1.257,0.926,1.354,0.045,4.231     c1.219-3.201,0.327-3.712,0.635-6.354c0.341,0.889,0.783,1.827,1.013,2.77c-0.793-3.097,0.813-5.206,1.217-7.003     c-0.396-0.178-1.229,1.361-1.42-2.285c0.024-1.586,0.445-0.83,0.602-1.221c-0.311-0.186-1.128-1.398-1.621-3.729     c0.355-0.547,0.961,1.426,1.453,1.503c-0.315-1.851-0.858-3.267-0.884-4.688c-1.435-2.993-0.507,0.402-1.666-1.283     c-1.522-4.758,1.263-1.104,1.452-3.266c2.311,3.348,3.628,8.535,4.229,10.688c-0.459-2.623-1.202-5.161-2.114-7.618     c0.703,0.301-1.138-5.39,0.912-1.622c-2.188-8.03-9.343-15.532-15.927-19.05c0.804,0.733,1.818,1.656,1.457,1.805     c-3.271-1.945-2.703-2.104-3.173-2.928c-2.666-1.082-2.843,0.091-4.604,0.01c-5.024-2.671-5.994-2.393-10.623-4.058l0.205,0.982     c-3.33-1.107-3.882,0.42-7.483,0.006c-0.214-0.176,1.161-0.623,2.284-0.783c-3.215,0.425-3.063-0.635-6.217,0.117     c0.771-0.547,1.599-0.908,2.426-1.371c-2.627,0.162-6.271,1.527-5.146,0.283c-4.283,1.906-11.896,4.591-16.156,8.599l-0.134-0.9     c-1.959,2.354-8.532,7.02-9.059,10.061l-0.523,0.121c-1.018,1.725-1.68,3.68-2.479,5.449c-1.336,2.27-1.948,0.869-1.762,1.229     c-2.621,5.312-3.923,9.771-5.045,13.431c0.805,1.194,0.014,7.205,0.315,12.017c-1.311,23.751,16.668,46.813,36.322,52.134     c2.879,1.033,7.164,0.998,10.807,1.096c-4.295-1.225-4.854-0.646-9.043-2.104c-3.021-1.424-3.682-3.043-5.813-4.906l0.842,1.498     c-4.192-1.481-2.438-1.842-5.854-2.92l0.902-1.184c-1.361-0.104-3.604-2.288-4.211-3.512l-1.491,0.063     c-1.782-2.203-2.739-3.801-2.668-5.027l-0.479,0.854c-0.549-0.935-6.575-8.271-3.444-6.563c-0.582-0.526-1.357-0.863-2.194-2.385     l0.636-0.734c-1.503-1.934-2.771-4.422-2.673-5.242c0.803,1.087,1.36,1.281,1.918,1.474c-3.812-9.438-4.021-0.521-6.904-9.607     l0.613-0.055c-0.472-0.7-0.75-1.463-1.133-2.215l0.271-2.644c-2.736-3.162-0.766-13.46-0.375-19.106     c0.271-2.298,2.282-4.742,3.818-8.576l-0.937-0.159c1.781-3.104,10.174-12.485,14.063-12.009     c1.884-2.357-0.381-0.006-0.745-0.603c4.141-4.274,5.438-3.026,8.229-3.795c3.021-1.789-2.579,0.701-1.153-0.68     c5.201-1.326,3.688-3.021,10.477-3.693c0.721,0.404-1.658,0.624-2.254,1.154c4.334-2.125,13.727-1.639,19.817,1.178     c7.068,3.308,15.021,13.076,15.334,22.273l0.357,0.098c-0.178,3.654,0.563,7.879-0.729,11.769L613.075,397.245"
           id="path125" /><path
           fill="#FFFFFF"
           d="M570.184,409.654l-0.244,1.211c1.133,1.547,2.039,3.215,3.486,4.422     C572.381,413.253,571.605,412.412,570.184,409.654"
           id="path127" /><path
           fill="#FFFFFF"
           d="M572.865,409.555c-0.604-0.672-0.957-1.476-1.354-2.271c0.379,1.404,1.16,2.607,1.889,3.83     L572.865,409.555"
           id="path129" /><path
           fill="#FFFFFF"
           d="M620.365,399.228l-0.25,0.636c-0.467,3.303-1.477,6.575-3.02,9.606     C618.801,406.275,619.895,402.774,620.365,399.228"
           id="path131" /><path
           fill="#FFFFFF"
           d="M582.829,352.718c1.166-0.428,2.867-0.229,4.109-0.515c-1.617,0.136-3.225,0.211-4.813,0.415     L582.829,352.718"
           id="path133" /><path
           fill="#FFFFFF"
           d="M541.823,374.523c0.271,2.484-1.871,3.455,0.476,1.813C543.559,373.503,541.811,375.553,541.823,374.523"
           id="path135" /><path
           fill="#FFFFFF"
           d="M539.063,386.053c0.551-1.656,0.646-2.653,0.852-3.617C538.411,384.346,539.221,384.754,539.063,386.053"
           id="path137" /></g></g></g><g
     id="rounds"><circle
       opacity="0.2"
       fill="#FFFFFF"
       enable-background="new    "
       cx="467.906"
       cy="421.08"
       r="1.702"
       id="circle140" /><circle
       opacity="0.3"
       fill="#FFFFFF"
       enable-background="new    "
       cx="476.946"
       cy="409.201"
       r="1.701"
       id="circle142" /><circle
       opacity="0.4"
       fill="#FFFFFF"
       enable-background="new    "
       cx="482.354"
       cy="394.504"
       r="1.702"
       id="circle144" /><circle
       opacity="0.5"
       fill="#FFFFFF"
       enable-background="new    "
       cx="482.352"
       cy="377.149"
       r="1.702"
       id="circle146" /></g></svg>