<?xml version="1.0" encoding="utf-8"?>
<!-- Generator: Adobe Illustrator 16.0.0, SVG Export Plug-In . SVG Version: 6.00 Build 0)  -->
<!DOCTYPE svg PUBLIC "-//W3C//DTD SVG 1.1//EN" "http://www.w3.org/Graphics/SVG/1.1/DTD/svg11.dtd">
<svg version="1.1" xmlns="http://www.w3.org/2000/svg" xmlns:xlink="http://www.w3.org/1999/xlink" x="0px" y="0px" width="800px"
	 height="120px" viewBox="0 0 800 120" enable-background="new 0 0 800 120" xml:space="preserve">
<g id="root">
</g>
<g id="Layer_2">
	<g>
		<defs>
			<rect id="SVGID_1_" width="800.968" height="120.01"/>
		</defs>
		<clipPath id="SVGID_2_">
			<use xlink:href="#SVGID_1_"  overflow="visible"/>
		</clipPath>
		<g id="background_1_" clip-path="url(#SVGID_2_)">
			
				<linearGradient id="SVGID_3_" gradientUnits="userSpaceOnUse" x1="-3024.6323" y1="2461.833" x2="-2108.5278" y2="2461.833" gradientTransform="matrix(1 0 0 -1 2919.3398 2521.8379)">
				<stop  offset="0" style="stop-color:#133456"/>
				<stop  offset="0.5025" style="stop-color:#7C9999"/>
				<stop  offset="1" style="stop-color:#203F5E"/>
			</linearGradient>
			<rect x="-107.5" fill="url(#SVGID_3_)" width="917.819" height="120.01"/>
			
				<radialGradient id="SVGID_4_" cx="137.8662" cy="-13.0923" r="286.0148" gradientTransform="matrix(1.3506 0 0 -1 74.5117 46.9118)" gradientUnits="userSpaceOnUse">
				<stop  offset="0" style="stop-color:#E4C8A5;stop-opacity:0.5"/>
				<stop  offset="0.1429" style="stop-color:#AEAB95;stop-opacity:0.4372"/>
				<stop  offset="0.3797" style="stop-color:#5A8079;stop-opacity:0.3331"/>
				<stop  offset="0.4877" style="stop-color:#396D6E;stop-opacity:0.2857"/>
			</radialGradient>
			<rect x="-279.543" fill="url(#SVGID_4_)" width="1080.511" height="120.01"/>
		</g>
		<g id="glows" clip-path="url(#SVGID_2_)">
			
				<radialGradient id="SVGID_5_" cx="967.8457" cy="-753.2671" r="93.7258" gradientTransform="matrix(1 0 0 -1 -112.9805 -665.8799)" gradientUnits="userSpaceOnUse">
				<stop  offset="0" style="stop-color:#FEFBDF"/>
				<stop  offset="1" style="stop-color:#FDF9C9;stop-opacity:0"/>
			</radialGradient>
			<circle display="none" opacity="0.2" fill="url(#SVGID_5_)" enable-background="new    " cx="854.865" cy="87.387" r="93.726"/>
			
				<radialGradient id="SVGID_6_" cx="893.6602" cy="-757.1797" r="74.1882" gradientTransform="matrix(1 0 0 -1 -112.9805 -665.8799)" gradientUnits="userSpaceOnUse">
				<stop  offset="0" style="stop-color:#99CCCC"/>
				<stop  offset="1" style="stop-color:#FDF9C9;stop-opacity:0"/>
			</radialGradient>
			<circle display="none" opacity="0.2" fill="url(#SVGID_6_)" enable-background="new    " cx="780.68" cy="91.3" r="74.188"/>
			
				<radialGradient id="SVGID_7_" cx="641.9043" cy="-730.3618" r="98.3572" gradientTransform="matrix(1 0 0 -1 -112.9805 -665.8799)" gradientUnits="userSpaceOnUse">
				<stop  offset="0" style="stop-color:#FEFBDF"/>
				<stop  offset="1" style="stop-color:#FDF9C9;stop-opacity:0"/>
			</radialGradient>
			<circle opacity="0.1" fill="url(#SVGID_7_)" enable-background="new    " cx="528.924" cy="64.482" r="98.357"/>
			
				<radialGradient id="SVGID_8_" cx="820.3828" cy="-753.5068" r="98.3557" gradientTransform="matrix(1 0 0 -1 -112.9805 -665.8799)" gradientUnits="userSpaceOnUse">
				<stop  offset="0" style="stop-color:#FEFBDF"/>
				<stop  offset="1" style="stop-color:#FDF9C9;stop-opacity:0"/>
			</radialGradient>
			<circle opacity="0.1" fill="url(#SVGID_8_)" enable-background="new    " cx="707.402" cy="87.627" r="98.356"/>
		</g>
		<g clip-path="url(#SVGID_2_)">
			<g id="debian">
				
					<text transform="matrix(1 0 0 1 439.3223 76.625)" fill="#FFFFFF" font-family="'Poppl-Laudatio-Condensed'" font-size="71.6113">debian</text>
			</g>
			<rect x="439.322" y="84.014" fill="none" width="268.08" height="20.48"/>
			
				<text transform="matrix(1 0 0 1 439.3223 100.373)" fill="#FFFFFF" font-family="'Poppl-Laudatio-Condensed'" font-size="21.9589">The universal operating system</text>
		</g>
		<g id="octopus_1_" clip-path="url(#SVGID_2_)">
			
				<radialGradient id="SVGID_9_" cx="5369.2188" cy="-2175.9429" r="98.8566" gradientTransform="matrix(1.0651 0.4784 -0.5094 1.1342 -6658.8584 -55.582)" gradientUnits="userSpaceOnUse">
				<stop  offset="0" style="stop-color:#BCCCB3"/>
				<stop  offset="1" style="stop-color:#FDF9C9;stop-opacity:0"/>
			</radialGradient>
			<path opacity="0.1" fill="url(#SVGID_9_)" enable-background="new    " d="M314.74,14.741c0,0,8.278,30.548-15.477,61.288
				c-40.156,51.963-86.707,42.242-147.896-5.155C43.544-12.652,10.076,50.681,8.253,57.139l2.014,13.087
				c1.821-6.459,35.29-69.792,143.114,13.732c61.189,47.396,107.74,57.118,147.896,5.157
				C325.034,58.374,314.74,14.741,314.74,14.741"/>
			
				<radialGradient id="SVGID_10_" cx="5344.9199" cy="-2213.4995" r="192.6237" gradientTransform="matrix(1.0651 0.4784 -0.5094 1.1342 -6658.8584 -55.582)" gradientUnits="userSpaceOnUse">
				<stop  offset="0" style="stop-color:#BCCCB3"/>
				<stop  offset="1" style="stop-color:#FDF9C9;stop-opacity:0"/>
			</radialGradient>
			<path opacity="0.5" fill="url(#SVGID_10_)" enable-background="new    " d="M345.013,8.273c0,0,8.281,30.549-15.474,61.292
				c-40.157,51.963-86.708,42.238-147.898-5.156C73.82-19.117,40.925,51.629,40.541,63.76l0,0
				c1.822-6.459,35.291-69.789,143.114,13.736c61.189,47.396,107.741,57.115,147.897,5.156
				C355.306,51.91,345.013,8.273,345.013,8.273"/>
			
				<radialGradient id="SVGID_11_" cx="5359.7344" cy="-2179.5693" r="98.8555" gradientTransform="matrix(1.0651 0.4784 -0.5094 1.1342 -6658.8584 -55.582)" gradientUnits="userSpaceOnUse">
				<stop  offset="0" style="stop-color:#BCCCB3"/>
				<stop  offset="1" style="stop-color:#FDF9C9;stop-opacity:0"/>
			</radialGradient>
			<path opacity="0.2" fill="url(#SVGID_11_)" enable-background="new    " d="M306.487,6.093c0,0,8.278,30.548-15.475,61.29
				c-40.157,51.963-86.708,42.241-147.897-5.154C35.293-21.297,1.822,42.035,0,48.494l2.014,13.081
				c1.821-6.458,35.291-69.788,143.113,13.737c61.189,47.396,107.742,57.115,147.897,5.154
				C316.779,49.728,306.487,6.093,306.487,6.093"/>
			
				<linearGradient id="SVGID_12_" gradientUnits="userSpaceOnUse" x1="5248.1875" y1="-2204.6499" x2="5454.4297" y2="-2204.6499" gradientTransform="matrix(1.0651 0.4784 -0.5094 1.1342 -6658.8584 -55.582)">
				<stop  offset="0" style="stop-color:#ABCCB3;stop-opacity:0.7"/>
				<stop  offset="0.33" style="stop-color:#B4CFB5;stop-opacity:0.05"/>
				<stop  offset="0.803" style="stop-color:#C1D4B8;stop-opacity:0.5"/>
				<stop  offset="1" style="stop-color:#FDF9C9;stop-opacity:0"/>
			</linearGradient>
			<path opacity="0.4" fill="url(#SVGID_12_)" enable-background="new    " d="M309.261-25.874
				c-45.218-50.083-91-27.467-147.961,30.834c-16.603,16.99-17.461,17.6-35.293,36.13C108.175,59.621,91.48,60.077,66.16,40.983
				c-40.656-31.493-48.638-5.53-49.322-3.092l0.758,4.934c0.686-2.435,8.666-28.401,49.323,3.095
				c26.902,19.201,40.395,24.835,63.222,0.186c17.282-18.661,26.923-28.114,30.758-31.848
				C204.29-27.997,262.205-77.644,309.261-25.874z"/>
		</g>
		<g id="logo" clip-path="url(#SVGID_2_)">
			<g id="logoGroup_1_">
				<circle opacity="0.9" fill="#386D6D" enable-background="new    " cx="267.152" cy="51.699" r="35"/>
				<g id="logo_1_" enable-background="new    ">
					<path fill="#FFFFFF" d="M270.752,53.727c-0.759,0.009,0.145,0.389,1.138,0.542c0.274-0.215,0.522-0.43,0.744-0.641
						C272.016,53.779,271.387,53.784,270.752,53.727"/>
					<path fill="#FFFFFF" d="M274.834,52.709c0.454-0.626,0.785-1.31,0.901-2.018c-0.103,0.505-0.375,0.938-0.633,1.399
						c-1.422,0.896-0.134-0.531-0.002-1.075C273.573,52.941,274.89,52.17,274.834,52.709"/>
					<path fill="#FFFFFF" d="M276.342,48.786c0.093-1.369-0.268-0.935-0.39-0.414C276.093,48.447,276.207,49.338,276.342,48.786"/>
					<path fill="#FFFFFF" d="M267.868,30.064c0.406,0.075,0.877,0.128,0.81,0.227C269.123,30.191,269.224,30.104,267.868,30.064"/>
					<path fill="#FFFFFF" d="M268.678,30.29l-0.284,0.06l0.267-0.025L268.678,30.29"/>
					<path fill="#FFFFFF" d="M281.337,49.307c0.045,1.23-0.359,1.827-0.725,2.884l-0.657,0.328
						c-0.539,1.047,0.053,0.666-0.332,1.496c-0.842,0.748-2.548,2.336-3.093,2.48c-0.4-0.009,0.271-0.472,0.357-0.652
						c-1.124,0.772-0.9,1.158-2.622,1.628l-0.051-0.111c-4.24,1.995-10.129-1.957-10.054-7.353
						c-0.044,0.342-0.128,0.257-0.222,0.394c-0.219-2.775,1.283-5.562,3.813-6.703c2.478-1.225,5.38-0.725,7.149,0.932
						c-0.972-1.275-2.911-2.628-5.208-2.502c-2.249,0.038-4.357,1.469-5.057,3.02c-1.154,0.726-1.288,2.798-1.789,3.176
						c-0.678,4.968,1.271,7.114,4.566,9.64c0.517,0.351,0.146,0.402,0.215,0.668c-1.096-0.512-2.095-1.287-2.92-2.233
						c0.437,0.639,0.911,1.259,1.52,1.749c-1.033-0.348-2.412-2.501-2.814-2.588c1.78,3.187,7.216,5.588,10.067,4.395
						c-1.319,0.049-2.992,0.027-4.475-0.521c-0.623-0.319-1.468-0.982-1.318-1.106c3.888,1.451,7.9,1.097,11.265-1.597
						c0.856-0.667,1.791-1.801,2.061-1.815c-0.406,0.611,0.07,0.293-0.243,0.833c0.853-1.376-0.37-0.561,0.881-2.374l0.461,0.636
						c-0.172-1.143,1.419-2.528,1.256-4.333c0.366-0.552,0.407,0.595,0.019,1.863c0.537-1.408,0.143-1.632,0.28-2.797
						c0.147,0.391,0.345,0.807,0.447,1.219c-0.35-1.363,0.357-2.293,0.534-3.083c-0.173-0.077-0.54,0.601-0.624-1.006
						c0.012-0.699,0.195-0.366,0.264-0.539c-0.136-0.079-0.497-0.615-0.714-1.643c0.157-0.24,0.423,0.625,0.639,0.66
						c-0.138-0.816-0.377-1.438-0.389-2.065c-0.631-1.317-0.224,0.177-0.734-0.564c-0.671-2.096,0.557-0.486,0.642-1.438
						c1.015,1.474,1.596,3.759,1.864,4.706c-0.204-1.154-0.531-2.27-0.935-3.354c0.308,0.133-0.5-2.374,0.401-0.714
						c-0.96-3.536-4.113-6.84-7.011-8.389c0.355,0.324,0.802,0.731,0.644,0.795c-1.445-0.857-1.19-0.926-1.398-1.288
						c-1.174-0.478-1.25,0.04-2.026,0.002c-2.214-1.175-2.641-1.051-4.678-1.786l0.092,0.436c-1.467-0.489-1.71,0.183-3.293,0.001
						c-0.096-0.076,0.508-0.273,1.005-0.346c-1.419,0.188-1.353-0.279-2.739,0.052c0.341-0.239,0.703-0.4,1.069-0.603
						c-1.156,0.071-2.762,0.672-2.268,0.122c-1.886,0.843-5.234,2.026-7.115,3.788l-0.059-0.395
						c-0.862,1.035-3.755,3.086-3.988,4.429l-0.23,0.052c-0.447,0.76-0.736,1.62-1.094,2.398c-0.586,0.999-0.859,0.385-0.775,0.541
						c-1.153,2.338-1.726,4.302-2.221,5.914c0.353,0.527,0.009,3.172,0.143,5.289c-0.579,10.456,7.337,20.611,15.992,22.954
						c1.269,0.456,3.154,0.439,4.759,0.482c-1.892-0.54-2.137-0.285-3.981-0.932c-1.33-0.625-1.621-1.34-2.564-2.158l0.373,0.656
						c-1.848-0.652-1.074-0.809-2.579-1.285l0.4-0.517c-0.599-0.046-1.586-1.009-1.856-1.545l-0.656,0.026
						c-0.786-0.971-1.207-1.672-1.176-2.213l-0.212,0.377c-0.24-0.412-2.897-3.643-1.517-2.891
						c-0.257-0.234-0.599-0.382-0.967-1.053l0.28-0.318c-0.663-0.854-1.222-1.949-1.178-2.314c0.354,0.479,0.598,0.566,0.842,0.648
						c-1.676-4.154-1.771-0.227-3.037-4.229l0.269-0.021c-0.205-0.311-0.331-0.645-0.497-0.977l0.118-1.163
						c-1.204-1.393-0.336-5.928-0.163-8.415c0.122-1.011,1.006-2.088,1.68-3.777l-0.411-0.072c0.784-1.366,4.48-5.497,6.194-5.286
						c0.83-1.04-0.167-0.004-0.329-0.266c1.823-1.885,2.396-1.33,3.625-1.671c1.327-0.784-1.137,0.308-0.509-0.297
						c2.293-0.586,1.624-1.331,4.615-1.629c0.315,0.18-0.73,0.276-0.993,0.508c1.91-0.935,6.043-0.721,8.728,0.519
						c3.115,1.457,6.613,5.76,6.751,9.808l0.157,0.041c-0.079,1.609,0.248,3.471-0.32,5.181L281.337,49.307"/>
					<path fill="#FFFFFF" d="M262.45,54.769l-0.107,0.533c0.5,0.68,0.897,1.417,1.535,1.944
						C263.418,56.352,263.079,55.982,262.45,54.769"/>
					<path fill="#FFFFFF" d="M263.631,54.723c-0.265-0.293-0.422-0.644-0.599-0.994c0.169,0.617,0.513,1.145,0.832,1.688
						L263.631,54.723"/>
					<path fill="#FFFFFF" d="M284.545,50.178l-0.111,0.281c-0.204,1.456-0.648,2.896-1.326,4.229
						C283.857,53.28,284.339,51.74,284.545,50.178"/>
					<path fill="#FFFFFF" d="M268.019,29.699c0.517-0.188,1.264-0.103,1.811-0.227c-0.712,0.061-1.42,0.097-2.119,0.183
						L268.019,29.699"/>
					<path fill="#FFFFFF" d="M249.962,39.301c0.12,1.097-0.825,1.522,0.208,0.798C250.727,38.85,249.957,39.754,249.962,39.301"/>
					<path fill="#FFFFFF" d="M248.747,44.378c0.238-0.731,0.283-1.169,0.374-1.594C248.461,43.626,248.817,43.805,248.747,44.378"/>
				</g>
			</g>
		</g>
		<g id="circles" clip-path="url(#SVGID_2_)">
			<path fill="none" stroke="#FFFFFF" stroke-width="2" stroke-miterlimit="10" d="M444.323,464.193"/>
			<circle opacity="0.5" fill="#FFFFFF" enable-background="new    " cx="354.109" cy="77.001" r="3"/>
			<circle opacity="0.9" fill="#FFFFFF" enable-background="new    " cx="361.063" cy="40.304" r="3"/>
			<circle opacity="0.3" fill="#FFFFFF" enable-background="new    " cx="331.565" cy="103.48" r="3"/>
		</g>
	</g>
</g>
</svg>
