<?xml version="1.0" encoding="UTF-8" standalone="no"?>
<!-- Generator: Adobe Illustrator 16.0.0, SVG Export Plug-In . SVG Version: 6.00 Build 0)  -->

<svg
   xmlns:dc="http://purl.org/dc/elements/1.1/"
   xmlns:cc="http://creativecommons.org/ns#"
   xmlns:rdf="http://www.w3.org/1999/02/22-rdf-syntax-ns#"
   xmlns:svg="http://www.w3.org/2000/svg"
   xmlns="http://www.w3.org/2000/svg"
   xmlns:xlink="http://www.w3.org/1999/xlink"
   xmlns:sodipodi="http://sodipodi.sourceforge.net/DTD/sodipodi-0.dtd"
   xmlns:inkscape="http://www.inkscape.org/namespaces/inkscape"
   version="1.1"
   x="0px"
   y="0px"
   width="725.11664"
   height="362.66843"
   viewBox="0 0 725.11664 362.66843"
   enable-background="new 0 0 380 380"
   xml:space="preserve"
   id="svg124"
   sodipodi:docname="wiki-banner.svg"
   inkscape:export-filename="/tmp/softWaves_wiki_banner.png"
   inkscape:export-xdpi="90"
   inkscape:export-ydpi="90"
   inkscape:version="0.92.1 r15371"><metadata
     id="metadata130"><rdf:RDF><cc:Work
         rdf:about=""><dc:format>image/svg+xml</dc:format><dc:type
           rdf:resource="http://purl.org/dc/dcmitype/StillImage" /><dc:title></dc:title></cc:Work></rdf:RDF></metadata><defs
     id="defs128"><defs
       id="defs5"><path
         id="SVGID_1_"
         d="m 380,370 c 0,5.522 -4.478,10 -10,10 H 10 C 4.477,380 0,375.522 0,370 V 10 C 0,4.477 4.477,0 10,0 h 360 c 5.522,0 10,4.477 10,10 z"
         inkscape:connector-curvature="0" /></defs><clipPath
       id="SVGID_2_"><use
         xlink:href="#SVGID_1_"
         overflow="visible"
         id="use7"
         style="overflow:visible"
         x="0"
         y="0"
         width="100%"
         height="100%" /></clipPath><radialGradient
       gradientUnits="userSpaceOnUse"
       gradientTransform="matrix(-1.3002624,0,0,1.4963328,5898.7035,2584.2553)"
       r="310.26019"
       cy="-1616.501"
       cx="4194.5713"
       id="SVGID_5_"><stop
         id="stop33"
         style="stop-color:#BCCCB3"
         offset="0" /><stop
         id="stop35"
         style="stop-color:#FDF9C9;stop-opacity:0"
         offset="1" /></radialGradient><radialGradient
       gradientUnits="userSpaceOnUse"
       gradientTransform="matrix(-1.3002624,0,0,1.4963328,5898.7035,2584.2553)"
       r="154.80991"
       cy="-1563.373"
       cx="4225.666"
       id="SVGID_6_"><stop
         id="stop40"
         style="stop-color:#BCCCB3"
         offset="0" /><stop
         id="stop42"
         style="stop-color:#FDF9C9;stop-opacity:0"
         offset="1" /></radialGradient><linearGradient
       gradientTransform="matrix(-1.152,0,0,1.152,5256.7921,1887.319)"
       y2="-1473.8018"
       x2="4450.2793"
       y1="-1473.8018"
       x1="4015.3711"
       gradientUnits="userSpaceOnUse"
       id="SVGID_7_"><stop
         id="stop47"
         style="stop-color:#ABCCB3;stop-opacity:0.7"
         offset="0" /><stop
         id="stop49"
         style="stop-color:#B4CFB5;stop-opacity:0.05"
         offset="0.33" /><stop
         id="stop51"
         style="stop-color:#C1D4B8;stop-opacity:0.5"
         offset="0.803" /><stop
         id="stop53"
         style="stop-color:#FDF9C9;stop-opacity:0"
         offset="1" /></linearGradient></defs><sodipodi:namedview
     pagecolor="#ffffff"
     bordercolor="#666666"
     borderopacity="1"
     objecttolerance="10"
     gridtolerance="10"
     guidetolerance="10"
     inkscape:pageopacity="0"
     inkscape:pageshadow="2"
     inkscape:window-width="1920"
     inkscape:window-height="1010"
     id="namedview126"
     showgrid="false"
     inkscape:zoom="1"
     inkscape:cx="31.5527"
     inkscape:cy="193.70302"
     inkscape:window-x="0"
     inkscape:window-y="34"
     inkscape:window-maximized="1"
     inkscape:current-layer="svg124"
     fit-margin-top="0"
     fit-margin-left="0"
     fit-margin-right="0"
     fit-margin-bottom="0" /><g
     id="Layer_1"
     transform="matrix(1.152,0,0,1.152,133.86604,-14.532947)"><g
       id="Layer_1_1_" /></g><g
     id="background"
     clip-path="url(#SVGID_2_)"
     transform="scale(1.9082016,0.95439056)"
     inkscape:export-filename="/tmp/softWaves_wiki_banner.png"
     inkscape:export-xdpi="90"
     inkscape:export-ydpi="90"><g
       id="background_1_"><linearGradient
         id="SVGID_3_"
         gradientUnits="userSpaceOnUse"
         x1="-2612.4248"
         y1="2460.7148"
         x2="-2612.425"
         y2="1822.6733"
         gradientTransform="matrix(1,0,0,-1,2704.0195,2320.918)"><stop
           offset="0"
           style="stop-color:#133456"
           id="stop10" /><stop
           offset="0.5025"
           style="stop-color:#7C9999"
           id="stop12" /><stop
           offset="1"
           style="stop-color:#333333"
           id="stop14" /></linearGradient><rect
         x="-313.71701"
         y="-141.332"
         width="810.62299"
         height="639.23297"
         id="rect17"
         style="fill:url(#SVGID_3_)" /></g><g
       id="Layer_4"><radialGradient
         id="SVGID_4_"
         cx="-2468.126"
         cy="1573.6113"
         r="903.99939"
         gradientTransform="matrix(0.4374,0,0,-0.6163,1133.4041,1131.3044)"
         gradientUnits="userSpaceOnUse"><stop
           offset="0"
           style="stop-color:#E4C8A5;stop-opacity:0.5"
           id="stop20" /><stop
           offset="0.1429"
           style="stop-color:#AEAB94;stop-opacity:0.4372"
           id="stop22" /><stop
           offset="0.3797"
           style="stop-color:#597F78;stop-opacity:0.3331"
           id="stop24" /><stop
           offset="0.4877"
           style="stop-color:#386D6D;stop-opacity:0.2857"
           id="stop26" /></radialGradient><rect
         x="-313.71701"
         y="-140.735"
         width="810.62299"
         height="638.63702"
         id="rect29"
         style="fill:url(#SVGID_4_)" /></g></g><path
     inkscape:connector-curvature="0"
     style="opacity:0.5;fill:url(#SVGID_5_);stroke-width:1.15200007"
     id="path38"
     d="m 130.4711,53.900461 c 0,0 -47.496963,66.992259 -31.690371,138.099459 C 125.50137,312.20075 206.40403,331.4092 337.459,297.21553 c 230.92877,-60.25997 238.90983,74.30746 237.19911,86.80666 l 16.2144,-1.88813 C 598.91577,360.99832 580.92153,216.04216 349.99506,276.29752 218.94355,310.49579 138.03743,291.27812 111.31795,171.0842 95.512505,99.971245 130.4711,53.900461 130.4711,53.900461"
     enable-background="new    " /><path
     inkscape:connector-curvature="0"
     style="opacity:0.2;fill:url(#SVGID_6_);stroke-width:1.15200007"
     id="path45"
     d="m 193.24473,79.865389 c 0,0 -47.49581,66.995711 -31.68922,138.104061 26.71949,120.19738 107.6233,139.41043 238.67482,105.21447 230.92762,-60.25652 238.91558,74.31091 237.19565,86.8078 l 12.53836,-20.91801 c 1.71303,-12.4969 -6.26572,-147.06202 -237.19679,-86.80781 -131.05037,34.19827 -211.95418,14.98752 -238.67712,-105.21331 -15.80544,-71.1049 19.1543,-117.187201 19.1543,-117.187201"
     enable-background="new    " /><path
     inkscape:connector-curvature="0"
     style="opacity:0.4;fill:url(#SVGID_7_);stroke-width:1.15200007"
     id="path56"
     d="m 130.0702,130.48312 c 0,0 13.53946,-59.151747 73.55981,-83.966979 111.71981,-52.602624 176.32627,53.641729 215.11526,159.667199 3.42951,9.36691 11.99578,33.04397 26.13773,78.41434 18.68199,59.92704 44.13658,60.65971 100.58688,48.43699 87.07968,-22.71975 81.22637,28.02125 80.57434,32.73293 l 4.72781,-7.88775 c 0.64857,-4.70937 6.50304,-55.45382 -80.57434,-32.72947 -53.85715,13.25491 -80.05824,-0.40205 -95.16672,-45.97747 C 439.92364,233.59633 438.99628,231.89137 424.74028,189.90673 375.84364,45.857197 319.75276,-11.314259 211.64908,22.839085 151.62643,47.656621 130.0702,130.48312 130.0702,130.48312"
     enable-background="new    " /><g
     id="logoGroup_2_"
     clip-path="url(#SVGID_2_)"
     transform="matrix(1.152,0,0,1.152,133.86604,-14.532947)"><circle
       cx="73.567001"
       cy="166.96899"
       r="50.771"
       id="circle59"
       style="fill:#386d6d" /><g
       id="logo_2_"
       enable-background="new    "><path
         d="m 78.028,169.48 c -0.942,0.01 0.18,0.482 1.409,0.672 0.341,-0.265 0.646,-0.533 0.922,-0.795 -0.765,0.191 -1.545,0.195 -2.331,0.123"
         id="path61"
         inkscape:connector-curvature="0"
         style="fill:#ffffff" /><path
         d="m 83.085,168.219 c 0.562,-0.775 0.973,-1.624 1.114,-2.5 -0.126,0.626 -0.465,1.163 -0.783,1.733 -1.761,1.109 -0.166,-0.656 -10e-4,-1.332 -1.892,2.387 -0.26,1.432 -0.33,2.099"
         id="path63"
         inkscape:connector-curvature="0"
         style="fill:#ffffff" /><path
         d="m 84.952,163.359 c 0.115,-1.695 -0.331,-1.158 -0.479,-0.514 0.172,0.093 0.312,1.197 0.479,0.514"
         id="path65"
         inkscape:connector-curvature="0"
         style="fill:#ffffff" /><path
         d="m 74.453,140.162 c 0.503,0.092 1.089,0.16 1.005,0.279 0.549,-0.123 0.674,-0.232 -1.005,-0.279"
         id="path67"
         inkscape:connector-curvature="0"
         style="fill:#ffffff" /><path
         d="m 75.458,140.439 -0.353,0.076 0.328,-0.032 0.025,-0.044"
         id="path69"
         inkscape:connector-curvature="0"
         style="fill:#ffffff" /><path
         d="m 91.143,164.003 c 0.057,1.524 -0.445,2.266 -0.898,3.574 l -0.815,0.406 c -0.666,1.297 0.066,0.825 -0.409,1.852 -1.044,0.928 -3.158,2.895 -3.834,3.076 -0.496,-0.015 0.337,-0.588 0.442,-0.808 -1.392,0.955 -1.114,1.435 -3.248,2.015 l -0.064,-0.139 c -5.253,2.473 -12.552,-2.423 -12.456,-9.108 -0.056,0.422 -0.158,0.319 -0.277,0.489 -0.27,-3.438 1.59,-6.894 4.725,-8.307 3.071,-1.519 6.668,-0.898 8.861,1.155 -1.208,-1.581 -3.608,-3.255 -6.453,-3.102 -2.788,0.05 -5.401,1.821 -6.27,3.743 -1.431,0.898 -1.596,3.468 -2.217,3.936 -0.84,6.155 1.577,8.814 5.662,11.945 0.638,0.434 0.179,0.497 0.266,0.827 -1.359,-0.634 -2.598,-1.595 -3.62,-2.769 0.542,0.793 1.13,1.562 1.885,2.168 -1.278,-0.431 -2.988,-3.101 -3.487,-3.206 2.205,3.948 8.94,6.923 12.473,5.444 -1.632,0.062 -3.706,0.033 -5.544,-0.646 -0.77,-0.396 -1.82,-1.215 -1.633,-1.369 4.818,1.799 9.789,1.359 13.959,-1.979 1.063,-0.828 2.221,-2.23 2.554,-2.25 -0.504,0.76 0.086,0.366 -0.303,1.035 1.057,-1.705 -0.458,-0.695 1.091,-2.943 l 0.573,0.787 c -0.215,-1.416 1.759,-3.13 1.557,-5.369 0.454,-0.684 0.504,0.738 0.022,2.311 0.667,-1.746 0.178,-2.021 0.348,-3.467 0.183,0.483 0.428,1 0.555,1.51 -0.436,-1.688 0.441,-2.84 0.661,-3.817 -0.218,-0.097 -0.67,0.741 -0.773,-1.246 0.015,-0.866 0.241,-0.456 0.327,-0.669 -0.17,-0.098 -0.615,-0.762 -0.886,-2.035 0.197,-0.298 0.525,0.773 0.792,0.816 -0.171,-1.008 -0.468,-1.781 -0.481,-2.557 -0.782,-1.632 -0.279,0.22 -0.91,-0.7 -0.831,-2.597 0.688,-0.603 0.797,-1.782 1.256,1.828 1.975,4.658 2.306,5.834 -0.251,-1.43 -0.655,-2.814 -1.155,-4.158 0.381,0.166 -0.619,-2.94 0.496,-0.885 -1.189,-4.38 -5.097,-8.473 -8.688,-10.393 0.441,0.401 0.996,0.906 0.8,0.987 -1.791,-1.063 -1.476,-1.147 -1.731,-1.597 -1.457,-0.594 -1.553,0.049 -2.512,0.002 -2.742,-1.457 -3.273,-1.303 -5.798,-2.213 l 0.115,0.541 c -1.819,-0.609 -2.119,0.226 -4.082,0 -0.117,-0.096 0.629,-0.34 1.247,-0.43 -1.759,0.231 -1.676,-0.344 -3.394,0.067 0.421,-0.296 0.871,-0.497 1.321,-0.747 -1.43,0.086 -3.42,0.835 -2.806,0.15 -2.339,1.045 -6.488,2.509 -8.817,4.695 l -0.073,-0.489 c -1.07,1.282 -4.653,3.823 -4.941,5.487 l -0.284,0.064 c -0.554,0.943 -0.914,2.007 -1.357,2.972 -0.726,1.237 -1.064,0.476 -0.959,0.669 -1.431,2.898 -2.14,5.332 -2.753,7.328 0.438,0.654 0.01,3.932 0.175,6.556 -0.716,12.954 9.095,25.539 19.817,28.441 1.571,0.564 3.907,0.543 5.895,0.598 -2.345,-0.67 -2.646,-0.354 -4.932,-1.154 -1.647,-0.772 -2.01,-1.657 -3.178,-2.676 l 0.462,0.816 c -2.288,-0.811 -1.33,-1.002 -3.194,-1.592 l 0.496,-0.643 c -0.741,-0.058 -1.964,-1.25 -2.302,-1.917 l -0.811,0.035 c -0.976,-1.205 -1.496,-2.07 -1.457,-2.746 l -0.265,0.469 c -0.295,-0.51 -3.588,-4.513 -1.882,-3.582 -0.315,-0.289 -0.74,-0.472 -1.196,-1.301 l 0.349,-0.396 c -0.822,-1.058 -1.515,-2.415 -1.459,-2.868 0.438,0.592 0.74,0.701 1.041,0.803 -2.075,-5.149 -2.194,-0.283 -3.762,-5.242 l 0.335,-0.024 c -0.256,-0.387 -0.412,-0.801 -0.616,-1.212 l 0.145,-1.443 c -1.49,-1.722 -0.416,-7.344 -0.201,-10.423 0.149,-1.253 1.246,-2.588 2.081,-4.681 l -0.508,-0.089 c 0.97,-1.692 5.55,-6.81 7.672,-6.55 1.03,-1.287 -0.203,-0.004 -0.406,-0.328 2.26,-2.336 2.968,-1.647 4.492,-2.069 1.643,-0.974 -1.409,0.378 -0.63,-0.369 2.841,-0.727 2.013,-1.649 5.717,-2.019 0.391,0.222 -0.906,0.34 -1.23,0.63 2.367,-1.158 7.488,-0.894 10.814,0.64 3.856,1.807 8.192,7.137 8.365,12.154 l 0.196,0.05 c -0.1,1.994 0.305,4.301 -0.397,6.421 l 0.467,-0.994"
         id="path71"
         inkscape:connector-curvature="0"
         style="fill:#ffffff" /><path
         d="m 67.742,170.771 -0.134,0.662 c 0.618,0.841 1.111,1.754 1.901,2.408 -0.569,-1.107 -0.99,-1.566 -1.767,-3.07"
         id="path73"
         inkscape:connector-curvature="0"
         style="fill:#ffffff" /><path
         d="m 69.204,170.715 c -0.327,-0.364 -0.522,-0.798 -0.742,-1.229 0.211,0.762 0.636,1.416 1.031,2.088 l -0.289,-0.859"
         id="path75"
         inkscape:connector-curvature="0"
         style="fill:#ffffff" /><path
         d="m 95.118,165.083 -0.137,0.35 c -0.254,1.804 -0.805,3.587 -1.645,5.24 0.929,-1.747 1.528,-3.654 1.782,-5.59"
         id="path77"
         inkscape:connector-curvature="0"
         style="fill:#ffffff" /><path
         d="m 74.641,139.707 c 0.64,-0.23 1.564,-0.125 2.242,-0.278 -0.884,0.075 -1.76,0.119 -2.625,0.224 l 0.383,0.054"
         id="path79"
         inkscape:connector-curvature="0"
         style="fill:#ffffff" /><path
         d="m 52.267,151.607 c 0.148,1.359 -1.024,1.886 0.259,0.988 0.687,-1.549 -0.268,-0.428 -0.259,-0.988"
         id="path81"
         inkscape:connector-curvature="0"
         style="fill:#ffffff" /><path
         d="m 50.761,157.898 c 0.294,-0.906 0.35,-1.449 0.462,-1.975 -0.815,1.041 -0.378,1.264 -0.462,1.975"
         id="path83"
         inkscape:connector-curvature="0"
         style="fill:#ffffff" /></g></g><g
     transform="matrix(1.152,0,0,1.152,149.40146,-16.836947)"
     id="g118"><path
       style="fill:#ffffff"
       inkscape:connector-curvature="0"
       id="path104"
       d="m 168.81,144.631 c -0.047,0.05 -0.047,7.771 -0.143,9.787 -0.095,1.629 -0.24,5.132 -3.694,5.132 -3.551,0 -4.415,-4.079 -4.701,-5.853 -0.336,-1.965 -0.336,-3.6 -0.336,-4.316 0,-2.303 0.143,-8.732 5.564,-8.732 1.632,0 2.543,0.48 3.263,0.864 z m -13.913,5.662 c 0,13.527 7.196,13.527 8.252,13.527 2.974,0 4.894,-1.632 5.708,-4.461 l 0.097,4.269 c 0.911,-0.048 1.825,-0.144 3.31,-0.144 0.529,0 0.958,0 1.344,0.047 0.385,0 0.767,0.047 1.199,0.096 -0.767,-1.534 -1.343,-4.986 -1.343,-12.475 0,-7.292 0,-19.619 0.625,-23.362 -1.727,0.817 -3.216,1.345 -6.478,1.632 1.295,1.392 1.295,2.111 1.295,8.441 -0.91,-0.287 -2.063,-0.624 -4.03,-0.624 -8.587,0.004 -9.979,7.487 -9.979,13.054" /><path
       style="fill:#ffffff"
       inkscape:connector-curvature="0"
       id="path106"
       d="m 180.916,147.842 c 0.047,-3.98 0.864,-7.53 4.269,-7.53 3.744,0 4.029,4.125 3.933,7.53 z m 12.951,0.483 c 0,-5.612 -1.103,-11.13 -8.202,-11.13 -9.786,0 -9.786,10.843 -9.786,13.145 0,9.737 4.364,13.577 11.705,13.577 3.26,0 4.845,-0.479 5.708,-0.719 -0.045,-1.729 0.191,-2.832 0.48,-4.318 -1.009,0.625 -2.302,1.439 -5.184,1.439 -7.483,0 -7.58,-6.814 -7.58,-9.164 h 12.763 l 0.096,-2.83" /><path
       style="fill:#ffffff"
       inkscape:connector-curvature="0"
       id="path108"
       d="m 209.476,150.387 c 0,4.461 -0.815,10.459 -6.381,10.459 -0.769,0 -1.728,-0.146 -2.351,-0.289 -0.098,-1.729 -0.098,-4.702 -0.098,-8.156 0,-4.126 0.432,-6.281 0.77,-7.34 1.006,-3.405 3.262,-3.451 3.691,-3.451 3.649,10e-4 4.369,5.037 4.369,8.777 z m -13.769,5.229 c 0,3.551 0,5.566 -0.576,7.102 1.967,0.768 4.412,1.199 7.342,1.199 1.869,0 7.291,0 10.218,-5.996 1.392,-2.782 1.87,-6.525 1.87,-9.356 0,-1.728 -0.191,-5.516 -1.583,-7.916 -1.343,-2.253 -3.502,-3.405 -5.804,-3.405 -4.606,0 -5.948,3.837 -6.667,5.805 0,-2.445 0.047,-10.985 0.429,-15.352 -3.117,1.44 -5.037,1.676 -7.098,1.87 1.871,0.768 1.871,3.936 1.871,14.249 v 11.801" /><path
       style="fill:#ffffff"
       inkscape:connector-curvature="0"
       id="path110"
       d="m 223.783,163.627 c -0.961,-0.143 -1.634,-0.239 -3.023,-0.239 -1.532,0 -2.592,0.097 -3.692,0.239 0.479,-0.91 0.675,-1.344 0.815,-4.461 0.191,-4.27 0.238,-15.688 -0.098,-18.087 -0.24,-1.825 -0.67,-2.111 -1.342,-2.591 3.934,-0.383 5.035,-0.67 6.858,-1.534 -0.382,2.109 -0.433,3.169 -0.433,6.38 -0.095,16.554 -0.141,18.327 0.915,20.293" /><path
       style="fill:#ffffff"
       inkscape:connector-curvature="0"
       id="path112"
       d="m 239.146,150.05 c -0.096,3.022 -0.146,5.134 -0.962,6.812 -1.008,2.159 -2.688,2.783 -3.935,2.783 -2.881,0 -3.502,-2.396 -3.502,-4.748 0,-4.507 4.031,-4.847 5.852,-4.847 z m -13.195,5.902 c 0,3.024 0.914,6.045 3.601,7.342 1.198,0.527 2.397,0.527 2.782,0.527 4.414,0 5.899,-3.263 6.813,-5.277 -0.05,2.111 0,3.404 0.144,5.085 0.865,-0.048 1.728,-0.144 3.17,-0.144 0.813,0 1.58,0.096 2.396,0.144 -0.528,-0.815 -0.815,-1.296 -0.96,-3.167 -0.096,-1.821 -0.096,-3.646 -0.096,-6.188 l 0.049,-9.788 c 0,-3.649 -0.961,-7.246 -8.157,-7.246 -4.75,0 -7.53,1.44 -8.922,2.16 0.576,1.055 1.058,1.964 1.487,4.03 1.873,-1.633 4.318,-2.497 6.811,-2.497 3.985,0 3.985,2.641 3.985,6.381 -0.911,-0.046 -1.681,-0.141 -2.976,-0.141 -6.097,0.002 -10.127,2.35 -10.127,8.779" /><path
       style="fill:#ffffff"
       inkscape:connector-curvature="0"
       id="path114"
       d="m 266.777,158.879 c 0.049,1.632 0.049,3.359 0.721,4.752 -1.059,-0.098 -1.681,-0.24 -3.646,-0.24 -1.151,0 -1.774,0.098 -2.688,0.24 0.19,-0.625 0.289,-0.863 0.386,-1.68 0.144,-1.103 0.239,-4.799 0.239,-6.096 v -5.181 c 0,-2.255 0,-5.519 -0.146,-6.667 -0.097,-0.815 -0.332,-3.024 -3.119,-3.024 -2.733,0 -3.646,2.014 -3.979,3.646 -0.383,1.678 -0.383,3.502 -0.383,10.602 0.047,6.142 0.047,6.714 0.524,8.396 -0.813,-0.096 -1.821,-0.19 -3.26,-0.19 -1.153,0 -1.923,0.047 -2.88,0.19 0.339,-0.769 0.529,-1.152 0.623,-3.838 0.1,-2.64 0.289,-15.592 -0.146,-18.662 -0.239,-1.872 -0.72,-2.303 -1.245,-2.784 3.887,-0.191 5.133,-0.815 6.334,-1.437 v 5.083 c 0.574,-1.487 1.772,-4.798 6.571,-4.798 5.997,0 6.044,4.365 6.092,7.245 l 0.002,14.443" /><path
       style="fill:#ffffff"
       inkscape:connector-curvature="0"
       id="path116"
       d="m 224.188,130.166 -3.975,3.971 -3.971,-3.971 3.971,-3.972 3.975,3.972" /></g><g
     id="The_Universal_Operating_System"
     enable-background="new    "
     style="opacity:0.8"
     transform="matrix(1.2672,0,0,1.2672,-312.75848,100.22622)"><path
       d="m 511.658,85.427 c 0,1.428 0.003,2.537 0.01,3.328 0.008,0.791 0.025,1.516 0.053,2.174 0.027,0.644 0.066,1.088 0.115,1.333 0.049,0.245 0.137,0.493 0.264,0.746 -0.238,-0.042 -0.477,-0.074 -0.715,-0.095 -0.238,-0.021 -0.512,-0.032 -0.818,-0.032 -0.295,0 -0.547,0.011 -0.756,0.032 -0.211,0.021 -0.455,0.045 -0.736,0.073 l -0.104,0.021 c 0.126,-0.309 0.214,-0.592 0.263,-0.851 0.049,-0.26 0.08,-0.676 0.094,-1.25 0.043,-0.994 0.063,-2.029 0.063,-3.107 0,-0.253 0,-0.638 0,-1.155 C 509.377,86 509.37,85.608 509.37,85.468 V 82.76 c -0.014,-0.757 -0.025,-1.285 -0.031,-1.586 -0.008,-0.301 -0.025,-0.71 -0.053,-1.229 v -0.042 c -0.295,-0.014 -0.634,-0.028 -1.019,-0.042 -0.386,-0.014 -0.731,-0.021 -1.04,-0.021 -0.504,0 -0.867,0.066 -1.092,0.199 -0.225,0.133 -0.42,0.312 -0.588,0.535 l -0.021,0.021 c 0.014,-0.196 0.021,-0.413 0.021,-0.651 0,-0.238 0.007,-0.455 0.021,-0.651 0,-0.35 -0.015,-0.728 -0.043,-1.134 0,-0.027 0,-0.069 0,-0.126 0.112,0 0.309,0.015 0.588,0.042 0.364,0.028 0.638,0.05 0.82,0.063 0.867,0.028 1.848,0.042 2.939,0.042 0.658,0 1.455,-0.007 2.395,-0.021 0.672,-0.014 1.298,-0.031 1.879,-0.053 0.58,-0.021 1.019,-0.045 1.313,-0.073 -0.014,0.154 -0.028,0.329 -0.042,0.525 -0.015,0.196 -0.021,0.434 -0.021,0.714 0,0.252 0.002,0.444 0.01,0.577 0.007,0.134 0.024,0.333 0.053,0.599 v 0.042 c -0.154,-0.195 -0.344,-0.347 -0.566,-0.451 -0.225,-0.105 -0.609,-0.157 -1.156,-0.157 -0.644,0 -1.203,0.007 -1.68,0.021 -0.14,0.014 -0.252,0.021 -0.336,0.021 l -0.063,2.751 z"
       id="path618"
       inkscape:connector-curvature="0"
       style="fill:#ffffff" /><path
       d="m 523.985,90.089 c 0,0.854 0.028,1.467 0.084,1.838 0.057,0.371 0.168,0.725 0.337,1.061 -0.238,-0.042 -0.462,-0.07 -0.673,-0.084 -0.209,-0.014 -0.455,-0.021 -0.734,-0.021 -0.518,0 -1.036,0.035 -1.555,0.105 0.099,-0.168 0.165,-0.315 0.2,-0.441 0.034,-0.126 0.066,-0.321 0.095,-0.588 0.042,-0.476 0.066,-1.081 0.073,-1.816 0.007,-0.734 0.011,-2.005 0.011,-3.812 0,-1.218 -0.074,-2.058 -0.221,-2.52 -0.147,-0.462 -0.535,-0.693 -1.166,-0.693 -0.531,0 -0.938,0.15 -1.217,0.451 -0.281,0.302 -0.477,0.683 -0.589,1.145 -0.099,0.393 -0.161,0.921 -0.188,1.586 -0.029,0.665 -0.043,1.865 -0.043,3.602 v 0.126 c 0.014,0.588 0.025,1.022 0.032,1.302 0.007,0.28 0.021,0.515 0.042,0.704 0.021,0.188 0.045,0.35 0.073,0.482 0.028,0.134 0.077,0.291 0.147,0.473 -0.225,-0.042 -0.428,-0.07 -0.609,-0.084 -0.181,-0.014 -0.398,-0.021 -0.65,-0.021 -0.351,0 -0.75,0.028 -1.197,0.085 -0.154,0.014 -0.252,0.021 -0.295,0.021 0.084,-0.14 0.145,-0.27 0.18,-0.389 0.034,-0.118 0.059,-0.297 0.072,-0.535 0.015,-0.126 0.025,-0.234 0.032,-0.325 0.007,-0.092 0.014,-0.234 0.021,-0.431 0.008,-0.196 0.025,-0.84 0.053,-1.933 v -0.126 l 0.021,-7.35 c 0,-0.238 0,-0.469 0,-0.693 0,-0.224 -0.014,-0.493 -0.043,-0.809 -0.027,-0.314 -0.063,-0.615 -0.104,-0.902 -0.041,-0.287 -0.104,-0.521 -0.188,-0.704 -0.084,-0.21 -0.231,-0.398 -0.441,-0.566 l -0.042,-0.042 c 0.771,-0.084 1.368,-0.189 1.796,-0.315 0.427,-0.126 0.843,-0.308 1.249,-0.546 -0.042,0.462 -0.07,0.857 -0.084,1.187 -0.015,0.329 -0.028,0.913 -0.042,1.754 v 0.272 l -0.021,3.15 c 0.112,-0.28 0.225,-0.528 0.336,-0.746 0.113,-0.217 0.277,-0.44 0.494,-0.672 0.217,-0.23 0.496,-0.427 0.84,-0.588 0.344,-0.161 0.76,-0.241 1.25,-0.241 0.783,0 1.406,0.188 1.869,0.566 0.35,0.28 0.573,0.623 0.672,1.029 0.098,0.406 0.146,1.029 0.146,1.869 z"
       id="path620"
       inkscape:connector-curvature="0"
       style="fill:#ffffff" /><path
       d="m 533.709,87.527 h -5.588 c 0,0.406 0.028,0.813 0.084,1.218 0.057,0.406 0.186,0.826 0.389,1.26 0.203,0.435 0.539,0.799 1.008,1.093 0.469,0.294 1.082,0.44 1.838,0.44 0.547,0 0.984,-0.056 1.313,-0.168 0.33,-0.111 0.648,-0.266 0.957,-0.462 l -0.021,0.063 c -0.057,0.35 -0.102,0.65 -0.137,0.902 -0.035,0.252 -0.053,0.561 -0.053,0.924 -0.014,0 -0.027,0.008 -0.041,0.021 -0.309,0.084 -0.641,0.154 -0.998,0.21 -0.357,0.056 -0.844,0.084 -1.461,0.084 -1.666,0 -2.936,-0.473 -3.811,-1.417 -0.875,-0.945 -1.313,-2.454 -1.313,-4.526 0,-0.489 0.031,-1.015 0.094,-1.574 0.063,-0.561 0.228,-1.166 0.494,-1.816 0.266,-0.651 0.699,-1.208 1.302,-1.67 0.602,-0.462 1.399,-0.693 2.394,-0.693 0.742,0 1.355,0.134 1.838,0.399 0.484,0.266 0.852,0.623 1.104,1.071 0.252,0.448 0.422,0.952 0.514,1.512 0.092,0.56 0.137,1.19 0.137,1.89 z m -2.037,-1.449 c 0,-0.518 -0.021,-0.966 -0.064,-1.344 -0.041,-0.378 -0.119,-0.707 -0.23,-0.987 -0.266,-0.644 -0.742,-0.966 -1.428,-0.966 -0.687,0 -1.184,0.329 -1.492,0.987 -0.125,0.294 -0.22,0.637 -0.283,1.028 -0.063,0.393 -0.094,0.819 -0.094,1.281 h 3.591 z"
       id="path622"
       inkscape:connector-curvature="0"
       style="fill:#ffffff" /><path
       d="m 548.471,88.871 c 0,0.98 0.004,1.635 0.01,1.964 0.008,0.329 0.033,0.634 0.074,0.913 0.027,0.336 0.08,0.588 0.158,0.756 0.076,0.168 0.186,0.322 0.324,0.463 -0.406,-0.057 -0.84,-0.085 -1.301,-0.085 -0.336,0 -0.785,0.028 -1.344,0.085 l -0.064,-1.995 c -0.125,0.252 -0.254,0.482 -0.389,0.692 -0.133,0.21 -0.311,0.428 -0.535,0.651 -0.223,0.224 -0.5,0.409 -0.828,0.557 -0.33,0.146 -0.711,0.221 -1.145,0.221 -0.238,0 -0.473,-0.015 -0.705,-0.042 -0.23,-0.028 -0.471,-0.099 -0.725,-0.211 -0.475,-0.21 -0.807,-0.5 -0.996,-0.871 -0.189,-0.371 -0.283,-0.906 -0.283,-1.606 l 0.02,-4.641 v -0.357 c -0.014,-0.826 -0.023,-1.39 -0.031,-1.69 -0.006,-0.301 -0.023,-0.57 -0.053,-0.809 -0.055,-0.364 -0.137,-0.612 -0.24,-0.745 -0.105,-0.133 -0.25,-0.242 -0.432,-0.326 h -0.02 c 0.824,0 1.461,-0.042 1.91,-0.126 0.447,-0.084 0.848,-0.195 1.197,-0.336 -0.07,0.322 -0.115,0.599 -0.137,0.83 -0.021,0.23 -0.031,0.584 -0.031,1.061 l -0.021,4.725 c 0,0.854 0,1.394 0,1.617 0,0.223 0.014,0.427 0.043,0.608 0.014,0.141 0.033,0.273 0.063,0.399 0.027,0.126 0.084,0.259 0.168,0.399 0.084,0.14 0.217,0.259 0.398,0.356 0.182,0.099 0.412,0.147 0.693,0.147 0.42,0 0.76,-0.088 1.018,-0.263 0.26,-0.175 0.455,-0.396 0.588,-0.661 0.135,-0.267 0.225,-0.532 0.273,-0.799 0.049,-0.266 0.08,-0.546 0.096,-0.84 0.055,-0.546 0.086,-1.151 0.094,-1.816 0.008,-0.665 0.01,-1.684 0.01,-3.056 0,-0.812 -0.041,-1.347 -0.125,-1.606 -0.084,-0.259 -0.246,-0.473 -0.482,-0.641 0.727,-0.014 1.291,-0.052 1.689,-0.115 0.398,-0.063 0.816,-0.186 1.25,-0.367 -0.043,0.252 -0.074,0.482 -0.096,0.692 -0.02,0.21 -0.033,0.435 -0.041,0.673 -0.008,0.237 -0.014,0.626 -0.021,1.165 -0.006,0.539 -0.018,1.173 -0.031,1.9 v 0.336 z"
       id="path624"
       inkscape:connector-curvature="0"
       style="fill:#ffffff" /><path
       d="m 558.53,90.908 v 0.147 c 0.014,0.462 0.043,0.836 0.084,1.123 0.043,0.287 0.119,0.557 0.23,0.809 -0.125,-0.014 -0.23,-0.028 -0.314,-0.042 -0.195,-0.014 -0.393,-0.028 -0.588,-0.042 -0.195,-0.014 -0.428,-0.021 -0.693,-0.021 -0.225,0 -0.42,0.008 -0.588,0.021 -0.168,0.013 -0.363,0.042 -0.588,0.084 l 0.021,-0.084 c 0.041,-0.112 0.072,-0.213 0.094,-0.305 0.021,-0.091 0.039,-0.206 0.053,-0.347 0.014,-0.098 0.027,-0.279 0.043,-0.546 0.014,-0.266 0.027,-0.518 0.041,-0.756 0.014,-0.56 0.021,-1.015 0.021,-1.365 v -2.268 c 0,-0.728 -0.004,-1.344 -0.01,-1.848 -0.008,-0.505 -0.025,-0.861 -0.053,-1.071 -0.016,-0.154 -0.039,-0.298 -0.074,-0.431 -0.035,-0.133 -0.098,-0.27 -0.189,-0.409 -0.09,-0.14 -0.227,-0.256 -0.408,-0.347 -0.184,-0.091 -0.414,-0.137 -0.693,-0.137 -0.533,0 -0.932,0.154 -1.197,0.462 -0.266,0.309 -0.449,0.687 -0.547,1.134 -0.041,0.183 -0.072,0.386 -0.094,0.609 -0.021,0.225 -0.039,0.497 -0.053,0.819 -0.014,0.448 -0.021,1.519 -0.021,3.213 v 0.084 c 0.014,0.84 0.021,1.414 0.021,1.722 0,0.309 0.008,0.57 0.021,0.788 0.014,0.217 0.035,0.398 0.063,0.546 0.027,0.146 0.07,0.325 0.127,0.535 -0.477,-0.056 -0.953,-0.084 -1.43,-0.084 -0.238,0 -0.455,0.007 -0.65,0.021 -0.195,0.015 -0.398,0.035 -0.609,0.063 v -0.021 c 0.084,-0.196 0.148,-0.389 0.189,-0.578 0.043,-0.188 0.07,-0.549 0.084,-1.081 0,-0.084 0.008,-0.448 0.021,-1.093 0.027,-1.273 0.041,-2.323 0.041,-3.149 0,-0.938 -0.01,-1.754 -0.031,-2.446 -0.021,-0.693 -0.053,-1.187 -0.094,-1.48 -0.043,-0.364 -0.105,-0.623 -0.189,-0.777 -0.084,-0.154 -0.203,-0.301 -0.357,-0.441 0.756,-0.042 1.32,-0.111 1.691,-0.21 0.371,-0.098 0.73,-0.237 1.082,-0.42 v 2.227 l 0.02,-0.042 c 0.098,-0.252 0.199,-0.479 0.305,-0.683 0.106,-0.204 0.264,-0.413 0.473,-0.63 0.211,-0.217 0.486,-0.396 0.83,-0.536 0.342,-0.14 0.76,-0.21 1.25,-0.21 0.615,0 1.109,0.099 1.48,0.294 0.369,0.196 0.637,0.448 0.797,0.757 0.162,0.308 0.266,0.63 0.314,0.966 0.048,0.336 0.074,0.714 0.074,1.134 v 0.021 z"
       id="path626"
       inkscape:connector-curvature="0"
       style="fill:#ffffff" /><path
       d="m 563.192,86.897 c 0,0.826 0,1.379 0,1.659 0,0.84 0.006,1.501 0.021,1.984 0.014,0.482 0.033,0.875 0.063,1.176 0.027,0.301 0.066,0.543 0.115,0.725 0.049,0.182 0.123,0.364 0.221,0.546 -0.238,-0.042 -0.449,-0.07 -0.631,-0.084 -0.182,-0.014 -0.412,-0.021 -0.693,-0.021 -0.545,0 -1.084,0.035 -1.615,0.105 0.111,-0.224 0.191,-0.448 0.24,-0.672 0.049,-0.224 0.088,-0.651 0.115,-1.281 0.029,-0.462 0.047,-1.061 0.053,-1.795 0.008,-0.735 0.012,-1.488 0.012,-2.258 0,-0.882 -0.008,-1.68 -0.021,-2.395 -0.014,-0.714 -0.043,-1.203 -0.084,-1.47 -0.043,-0.363 -0.105,-0.612 -0.189,-0.745 -0.084,-0.133 -0.209,-0.263 -0.377,-0.389 h -0.021 c 0.854,-0.084 1.467,-0.168 1.838,-0.252 0.369,-0.084 0.758,-0.224 1.164,-0.42 -0.084,0.434 -0.137,0.822 -0.156,1.165 -0.021,0.344 -0.031,0.886 -0.031,1.628 -0.003,0.785 -0.011,1.716 -0.024,2.794 z m -0.221,-6.803 c -0.176,0.252 -0.473,0.378 -0.893,0.378 -0.365,0 -0.65,-0.123 -0.861,-0.368 -0.209,-0.244 -0.314,-0.57 -0.314,-0.977 0,-0.378 0.088,-0.71 0.262,-0.997 0.176,-0.287 0.486,-0.431 0.936,-0.431 0.42,0 0.713,0.126 0.881,0.378 0.168,0.252 0.252,0.574 0.252,0.966 -0.001,0.448 -0.089,0.799 -0.263,1.051 z"
       id="path628"
       inkscape:connector-curvature="0"
       style="fill:#ffffff" /><path
       d="m 571.758,87.674 c -0.098,0.393 -0.203,0.795 -0.314,1.208 -0.111,0.413 -0.199,0.749 -0.262,1.008 -0.063,0.26 -0.141,0.592 -0.232,0.998 -0.09,0.406 -0.248,1.099 -0.471,2.079 h -0.021 c -0.238,-0.028 -0.459,-0.053 -0.662,-0.074 -0.203,-0.021 -0.445,-0.031 -0.725,-0.031 -0.28,0 -0.512,0.007 -0.693,0.021 -0.182,0.015 -0.412,0.035 -0.691,0.063 -0.029,0 -0.078,0.007 -0.148,0.021 0,-0.028 -0.006,-0.057 -0.02,-0.085 -0.07,-0.405 -0.127,-0.71 -0.168,-0.913 -0.043,-0.203 -0.119,-0.542 -0.232,-1.019 l -1.365,-5.522 c -0.014,-0.07 -0.027,-0.119 -0.041,-0.147 -0.238,-0.896 -0.451,-1.648 -0.641,-2.258 -0.189,-0.608 -0.396,-1.095 -0.619,-1.459 h 0.063 c 0.266,0.056 0.455,0.084 0.566,0.084 0.141,0.014 0.371,0.021 0.693,0.021 0.35,0 0.658,-0.01 0.924,-0.031 0.266,-0.021 0.553,-0.045 0.861,-0.073 -0.057,0.182 -0.084,0.371 -0.084,0.566 0,0.406 0.098,1.135 0.295,2.185 0.195,1.05 0.523,2.66 0.986,4.83 l 0.482,2.037 0.482,-2.059 c 0.016,-0.084 0.043,-0.21 0.086,-0.378 0.209,-0.84 0.395,-1.582 0.555,-2.226 0.162,-0.644 0.305,-1.253 0.432,-1.827 0.125,-0.574 0.23,-1.092 0.314,-1.554 0.084,-0.462 0.127,-0.799 0.127,-1.009 0,-0.237 -0.057,-0.427 -0.168,-0.566 0.055,0 0.16,0.014 0.314,0.042 0.098,0.014 0.189,0.028 0.273,0.042 0.055,0 0.146,0 0.271,0 0.154,0.014 0.281,0.021 0.379,0.021 0.295,0 0.547,-0.01 0.756,-0.031 0.211,-0.021 0.428,-0.045 0.65,-0.073 -0.139,0.252 -0.262,0.49 -0.367,0.714 -0.105,0.224 -0.195,0.448 -0.273,0.672 -0.076,0.225 -0.16,0.504 -0.252,0.84 -0.09,0.336 -0.199,0.729 -0.324,1.176 z"
       id="path630"
       inkscape:connector-curvature="0"
       style="fill:#ffffff" /><path
       d="m 581.819,87.527 h -5.586 c 0,0.406 0.027,0.813 0.084,1.218 0.057,0.406 0.186,0.826 0.389,1.26 0.203,0.435 0.539,0.799 1.008,1.093 0.469,0.294 1.082,0.44 1.838,0.44 0.545,0 0.982,-0.056 1.313,-0.168 0.328,-0.111 0.646,-0.266 0.955,-0.462 l -0.021,0.063 c -0.055,0.35 -0.102,0.65 -0.137,0.902 -0.035,0.252 -0.051,0.561 -0.051,0.924 -0.016,0 -0.029,0.008 -0.043,0.021 -0.309,0.084 -0.641,0.154 -0.998,0.21 -0.355,0.056 -0.844,0.084 -1.459,0.084 -1.666,0 -2.938,-0.473 -3.811,-1.417 -0.875,-0.945 -1.313,-2.454 -1.313,-4.526 0,-0.489 0.031,-1.015 0.094,-1.574 0.063,-0.561 0.227,-1.166 0.494,-1.816 0.266,-0.651 0.699,-1.208 1.301,-1.67 0.602,-0.462 1.4,-0.693 2.395,-0.693 0.742,0 1.354,0.134 1.838,0.399 0.482,0.266 0.85,0.623 1.102,1.071 0.252,0.448 0.424,0.952 0.516,1.512 0.09,0.56 0.137,1.19 0.137,1.89 z m -2.038,-1.449 c 0,-0.518 -0.021,-0.966 -0.063,-1.344 -0.043,-0.378 -0.119,-0.707 -0.23,-0.987 -0.268,-0.644 -0.742,-0.966 -1.43,-0.966 -0.686,0 -1.182,0.329 -1.49,0.987 -0.125,0.294 -0.221,0.637 -0.283,1.028 -0.063,0.393 -0.094,0.819 -0.094,1.281 h 3.59 z"
       id="path632"
       inkscape:connector-curvature="0"
       style="fill:#ffffff" /><path
       d="m 583.813,86.582 c 0,-0.993 -0.006,-1.764 -0.02,-2.31 -0.016,-0.546 -0.047,-0.979 -0.096,-1.302 -0.049,-0.323 -0.125,-0.563 -0.23,-0.725 -0.105,-0.162 -0.256,-0.284 -0.451,-0.368 0.518,0 1.012,-0.034 1.48,-0.104 0.468,-0.07 0.982,-0.217 1.543,-0.441 l -0.146,3.066 c 0.125,-0.294 0.262,-0.581 0.408,-0.861 0.148,-0.279 0.365,-0.584 0.652,-0.913 0.287,-0.329 0.65,-0.62 1.092,-0.872 0.442,-0.252 0.955,-0.398 1.543,-0.44 -0.195,0.714 -0.309,1.47 -0.336,2.268 -0.252,-0.042 -0.455,-0.063 -0.609,-0.063 -0.125,0 -0.297,0.018 -0.514,0.052 -0.217,0.035 -0.469,0.137 -0.756,0.305 -0.287,0.168 -0.553,0.435 -0.799,0.798 -0.244,0.364 -0.408,0.848 -0.492,1.449 -0.029,0.238 -0.057,0.561 -0.084,0.966 -0.029,0.406 -0.051,0.833 -0.064,1.281 -0.014,0.714 -0.02,1.407 -0.02,2.079 0,0.588 0.016,1.089 0.051,1.502 0.035,0.413 0.117,0.759 0.242,1.039 -0.209,-0.042 -0.406,-0.07 -0.588,-0.084 -0.182,-0.014 -0.398,-0.021 -0.65,-0.021 -0.393,0 -0.84,0.028 -1.344,0.085 l -0.127,0.021 c 0.07,-0.168 0.119,-0.318 0.146,-0.451 0.029,-0.133 0.049,-0.34 0.064,-0.62 l 0.104,-2.855 v -2.481 z"
       id="path634"
       inkscape:connector-curvature="0"
       style="fill:#ffffff" /><path
       d="m 595.489,81.448 c 0.447,0.063 0.896,0.171 1.344,0.325 -0.141,0.28 -0.244,0.55 -0.314,0.809 -0.07,0.259 -0.127,0.634 -0.168,1.123 -0.168,-0.21 -0.361,-0.374 -0.578,-0.493 -0.217,-0.119 -0.434,-0.206 -0.65,-0.263 -0.217,-0.056 -0.398,-0.091 -0.547,-0.104 -0.146,-0.015 -0.283,-0.021 -0.408,-0.021 -0.604,0 -1.055,0.15 -1.355,0.451 -0.301,0.302 -0.451,0.655 -0.451,1.061 0,0.406 0.127,0.739 0.379,0.998 0.252,0.259 0.699,0.577 1.344,0.955 0.531,0.294 0.938,0.529 1.217,0.704 0.281,0.175 0.533,0.367 0.756,0.577 0.504,0.519 0.756,1.184 0.756,1.995 0,1.218 -0.398,2.132 -1.195,2.74 -0.799,0.609 -1.891,0.914 -3.277,0.914 -0.645,0 -1.168,-0.039 -1.574,-0.116 -0.406,-0.077 -0.777,-0.171 -1.113,-0.283 0.168,-0.322 0.295,-0.623 0.379,-0.903 0.084,-0.279 0.152,-0.65 0.209,-1.112 0.195,0.238 0.469,0.448 0.818,0.63 0.349,0.182 0.826,0.272 1.43,0.272 0.656,0 1.176,-0.16 1.553,-0.482 0.379,-0.322 0.566,-0.722 0.566,-1.197 0,-0.224 -0.027,-0.413 -0.084,-0.567 -0.055,-0.153 -0.16,-0.301 -0.314,-0.44 -0.154,-0.139 -0.359,-0.291 -0.619,-0.452 -0.26,-0.16 -0.633,-0.381 -1.123,-0.661 -0.336,-0.21 -0.627,-0.399 -0.871,-0.567 -0.246,-0.168 -0.48,-0.378 -0.705,-0.63 -0.223,-0.252 -0.406,-0.542 -0.545,-0.871 -0.141,-0.329 -0.211,-0.703 -0.211,-1.124 0,-0.951 0.336,-1.749 1.008,-2.394 0.672,-0.644 1.688,-0.966 3.045,-0.966 0.415,-0.003 0.85,0.029 1.298,0.092 z"
       id="path636"
       inkscape:connector-curvature="0"
       style="fill:#ffffff" /><path
       d="m 599.541,86.698 c 0.771,-0.609 1.863,-0.914 3.277,-0.914 0.252,0 0.566,0.015 0.945,0.042 0.168,0.015 0.285,0.021 0.355,0.021 0,-0.532 -0.01,-0.945 -0.031,-1.239 -0.021,-0.294 -0.084,-0.56 -0.189,-0.798 -0.104,-0.238 -0.279,-0.424 -0.523,-0.557 -0.246,-0.133 -0.578,-0.199 -0.998,-0.199 -0.561,0 -1.096,0.094 -1.607,0.283 -0.51,0.188 -0.969,0.459 -1.375,0.809 -0.084,-0.406 -0.176,-0.728 -0.273,-0.966 -0.097,-0.238 -0.223,-0.504 -0.377,-0.799 0.504,-0.266 1.057,-0.489 1.658,-0.672 0.602,-0.182 1.352,-0.272 2.248,-0.272 0.756,0 1.371,0.084 1.848,0.252 0.475,0.168 0.84,0.398 1.092,0.692 0.252,0.295 0.42,0.624 0.504,0.987 0.084,0.364 0.127,0.777 0.127,1.239 l -0.021,4.284 c 0,0.686 0.002,1.207 0.01,1.564 0.008,0.356 0.018,0.738 0.031,1.145 0.029,0.364 0.07,0.634 0.127,0.809 0.055,0.175 0.154,0.367 0.293,0.577 -0.084,0 -0.203,-0.007 -0.355,-0.021 -0.295,-0.028 -0.525,-0.043 -0.693,-0.043 -0.309,0 -0.672,0.015 -1.092,0.043 -0.07,0 -0.168,0.007 -0.295,0.021 -0.027,-0.266 -0.045,-0.557 -0.053,-0.871 -0.006,-0.315 -0.01,-0.767 -0.01,-1.354 -0.154,0.322 -0.295,0.598 -0.42,0.829 -0.127,0.231 -0.301,0.462 -0.525,0.693 -0.225,0.23 -0.508,0.42 -0.85,0.566 -0.344,0.147 -0.74,0.221 -1.188,0.221 -0.168,0 -0.357,-0.014 -0.566,-0.042 -0.211,-0.028 -0.428,-0.091 -0.652,-0.189 -0.545,-0.266 -0.943,-0.686 -1.195,-1.26 -0.252,-0.573 -0.379,-1.225 -0.379,-1.953 -0.002,-1.343 0.383,-2.32 1.152,-2.928 z m 3.508,0.346 c -0.266,0 -0.535,0.021 -0.809,0.063 -0.274,0.042 -0.547,0.133 -0.818,0.272 -0.273,0.141 -0.498,0.357 -0.672,0.651 -0.176,0.294 -0.264,0.672 -0.264,1.134 0,0.616 0.113,1.117 0.336,1.502 0.225,0.385 0.623,0.577 1.197,0.577 0.322,0 0.641,-0.095 0.955,-0.283 0.316,-0.189 0.57,-0.501 0.768,-0.935 0.154,-0.322 0.256,-0.689 0.305,-1.103 0.049,-0.414 0.086,-1.012 0.115,-1.796 v -0.084 h -1.113 z"
       id="path638"
       inkscape:connector-curvature="0"
       style="fill:#ffffff" /><path
       d="m 610.84,86.687 c 0,1.96 0.021,3.374 0.063,4.242 0.029,0.602 0.07,1.028 0.127,1.28 0.055,0.252 0.133,0.512 0.23,0.777 -0.225,-0.042 -0.441,-0.07 -0.65,-0.084 -0.211,-0.014 -0.455,-0.021 -0.736,-0.021 -0.336,0 -0.623,0.011 -0.859,0.032 -0.238,0.021 -0.484,0.045 -0.736,0.073 l 0.021,-0.063 c 0.084,-0.168 0.145,-0.314 0.178,-0.44 0.035,-0.126 0.066,-0.301 0.096,-0.525 0.041,-0.405 0.076,-1.519 0.105,-3.339 0.014,-0.224 0.02,-0.434 0.02,-0.63 v -3.654 c 0,-1.455 -0.006,-2.488 -0.02,-3.097 -0.016,-0.609 -0.051,-1.145 -0.105,-1.607 -0.07,-0.489 -0.162,-0.825 -0.273,-1.008 -0.111,-0.182 -0.273,-0.343 -0.482,-0.482 0.672,-0.056 1.221,-0.144 1.648,-0.263 0.426,-0.119 0.941,-0.318 1.543,-0.599 -0.041,0.294 -0.07,0.563 -0.084,0.809 -0.014,0.246 -0.027,0.535 -0.041,0.871 -0.016,0.49 -0.029,1.758 -0.043,3.802 v 0.084 3.842 z"
       id="path640"
       inkscape:connector-curvature="0"
       style="fill:#ffffff" /><path
       d="m 626.612,89.312 c -0.113,0.672 -0.32,1.299 -0.621,1.879 -0.301,0.581 -0.738,1.051 -1.313,1.407 -0.574,0.357 -1.301,0.536 -2.184,0.536 -0.91,0 -1.658,-0.179 -2.246,-0.536 -0.588,-0.356 -1.025,-0.818 -1.313,-1.386 -0.288,-0.568 -0.48,-1.166 -0.578,-1.796 -0.098,-0.63 -0.146,-1.315 -0.146,-2.058 0,-0.743 0.053,-1.441 0.156,-2.1 0.105,-0.658 0.309,-1.281 0.609,-1.869 0.3,-0.588 0.746,-1.061 1.334,-1.418 0.588,-0.356 1.336,-0.535 2.246,-0.535 0.883,0 1.611,0.161 2.186,0.482 0.574,0.322 1.004,0.749 1.291,1.281 0.287,0.532 0.482,1.124 0.588,1.774 0.105,0.651 0.158,1.369 0.158,2.152 10e-4,0.787 -0.056,1.515 -0.167,2.187 z m -2.573,-5.576 c -0.316,-0.664 -0.809,-0.997 -1.482,-0.997 -0.404,0 -0.744,0.115 -1.018,0.347 -0.273,0.23 -0.486,0.563 -0.641,0.997 -0.266,0.729 -0.398,1.877 -0.398,3.444 0,0.546 0.021,1.054 0.063,1.522 0.043,0.469 0.129,0.91 0.262,1.323 0.133,0.413 0.34,0.745 0.621,0.997 0.279,0.252 0.637,0.378 1.07,0.378 0.686,0 1.186,-0.35 1.502,-1.05 0.314,-0.7 0.479,-1.896 0.492,-3.591 0,-1.581 -0.156,-2.704 -0.471,-3.37 z"
       id="path642"
       inkscape:connector-curvature="0"
       style="fill:#ffffff" /><path
       d="m 630.852,94.772 c 0,0.854 0.025,1.438 0.074,1.753 0.049,0.315 0.15,0.634 0.305,0.956 l -0.211,-0.042 c -0.195,-0.028 -0.35,-0.05 -0.461,-0.063 -0.154,-0.014 -0.449,-0.021 -0.883,-0.021 -0.293,0 -0.539,0.011 -0.734,0.031 -0.197,0.021 -0.414,0.053 -0.65,0.095 l 0.02,-0.063 c 0.057,-0.098 0.102,-0.22 0.137,-0.367 0.035,-0.146 0.074,-0.406 0.115,-0.777 0.043,-0.371 0.078,-0.906 0.105,-1.606 0.027,-0.7 0.043,-1.589 0.043,-2.667 V 89.082 86.33 c 0,-0.854 -0.016,-1.529 -0.043,-2.026 -0.027,-0.497 -0.07,-0.899 -0.125,-1.207 -0.057,-0.309 -0.127,-0.546 -0.211,-0.715 -0.084,-0.168 -0.203,-0.321 -0.357,-0.462 0.813,-0.014 1.422,-0.076 1.828,-0.188 0.406,-0.112 0.783,-0.259 1.133,-0.441 v 2.625 c 0.127,-0.321 0.256,-0.608 0.389,-0.86 0.133,-0.252 0.313,-0.508 0.535,-0.767 0.225,-0.259 0.512,-0.473 0.861,-0.641 0.349,-0.168 0.764,-0.252 1.24,-0.252 0.77,0 1.385,0.199 1.848,0.599 0.461,0.398 0.795,0.882 0.998,1.448 0.201,0.567 0.328,1.089 0.377,1.564 0.049,0.477 0.074,0.932 0.074,1.365 0,0.771 -0.064,1.526 -0.189,2.269 -0.127,0.742 -0.371,1.452 -0.734,2.131 -0.365,0.68 -0.9,1.236 -1.607,1.67 -0.707,0.434 -1.605,0.651 -2.699,0.651 -0.182,0 -0.355,-0.004 -0.523,-0.011 -0.168,-0.008 -0.387,-0.031 -0.652,-0.073 v 1.763 z m 0,-3.192 c 0.127,0.057 0.266,0.099 0.42,0.126 0.154,0.028 0.35,0.042 0.588,0.042 0.688,0 1.242,-0.126 1.67,-0.378 0.428,-0.252 0.75,-0.588 0.967,-1.008 0.217,-0.42 0.359,-0.871 0.43,-1.354 0.071,-0.483 0.105,-1.025 0.105,-1.628 0,-0.405 -0.018,-0.818 -0.053,-1.238 -0.035,-0.42 -0.115,-0.854 -0.242,-1.303 -0.125,-0.447 -0.328,-0.822 -0.607,-1.123 -0.281,-0.301 -0.639,-0.451 -1.072,-0.451 -0.433,0 -0.814,0.168 -1.145,0.504 -0.328,0.336 -0.57,0.798 -0.725,1.386 -0.084,0.267 -0.146,0.588 -0.188,0.966 -0.043,0.378 -0.074,0.771 -0.096,1.176 -0.021,0.406 -0.035,0.76 -0.041,1.061 -0.008,0.302 -0.012,0.634 -0.012,0.998 v 2.224 z"
       id="path644"
       inkscape:connector-curvature="0"
       style="fill:#ffffff" /><path
       d="m 646.539,87.527 h -5.586 c 0,0.406 0.027,0.813 0.084,1.218 0.057,0.406 0.186,0.826 0.389,1.26 0.203,0.435 0.539,0.799 1.008,1.093 0.469,0.294 1.082,0.44 1.838,0.44 0.545,0 0.982,-0.056 1.313,-0.168 0.328,-0.111 0.646,-0.266 0.955,-0.462 l -0.021,0.063 c -0.055,0.35 -0.102,0.65 -0.137,0.902 -0.035,0.252 -0.051,0.561 -0.051,0.924 -0.016,0 -0.029,0.008 -0.043,0.021 -0.309,0.084 -0.641,0.154 -0.998,0.21 -0.355,0.056 -0.844,0.084 -1.459,0.084 -1.666,0 -2.938,-0.473 -3.811,-1.417 -0.875,-0.945 -1.313,-2.454 -1.313,-4.526 0,-0.489 0.031,-1.015 0.094,-1.574 0.063,-0.561 0.227,-1.166 0.494,-1.816 0.266,-0.651 0.699,-1.208 1.301,-1.67 0.602,-0.462 1.4,-0.693 2.395,-0.693 0.742,0 1.354,0.134 1.838,0.399 0.482,0.266 0.85,0.623 1.102,1.071 0.252,0.448 0.424,0.952 0.516,1.512 0.09,0.56 0.137,1.19 0.137,1.89 z m -2.037,-1.449 c 0,-0.518 -0.021,-0.966 -0.063,-1.344 -0.043,-0.378 -0.119,-0.707 -0.23,-0.987 -0.268,-0.644 -0.742,-0.966 -1.43,-0.966 -0.686,0 -1.182,0.329 -1.49,0.987 -0.125,0.294 -0.221,0.637 -0.283,1.028 -0.063,0.393 -0.094,0.819 -0.094,1.281 h 3.59 z"
       id="path646"
       inkscape:connector-curvature="0"
       style="fill:#ffffff" /><path
       d="m 648.533,86.582 c 0,-0.993 -0.006,-1.764 -0.02,-2.31 -0.016,-0.546 -0.047,-0.979 -0.096,-1.302 -0.049,-0.323 -0.125,-0.563 -0.23,-0.725 -0.105,-0.162 -0.256,-0.284 -0.451,-0.368 0.518,0 1.012,-0.034 1.48,-0.104 0.468,-0.07 0.982,-0.217 1.543,-0.441 l -0.146,3.066 c 0.125,-0.294 0.262,-0.581 0.408,-0.861 0.148,-0.279 0.365,-0.584 0.652,-0.913 0.287,-0.329 0.65,-0.62 1.092,-0.872 0.442,-0.252 0.955,-0.398 1.543,-0.44 -0.195,0.714 -0.309,1.47 -0.336,2.268 -0.252,-0.042 -0.455,-0.063 -0.609,-0.063 -0.125,0 -0.297,0.018 -0.514,0.052 -0.217,0.035 -0.469,0.137 -0.756,0.305 -0.287,0.168 -0.553,0.435 -0.799,0.798 -0.244,0.364 -0.408,0.848 -0.492,1.449 -0.029,0.238 -0.057,0.561 -0.084,0.966 -0.029,0.406 -0.051,0.833 -0.064,1.281 -0.014,0.714 -0.02,1.407 -0.02,2.079 0,0.588 0.016,1.089 0.051,1.502 0.035,0.413 0.117,0.759 0.242,1.039 -0.209,-0.042 -0.406,-0.07 -0.588,-0.084 -0.182,-0.014 -0.398,-0.021 -0.65,-0.021 -0.393,0 -0.84,0.028 -1.344,0.085 l -0.127,0.021 c 0.07,-0.168 0.119,-0.318 0.146,-0.451 0.029,-0.133 0.049,-0.34 0.064,-0.62 l 0.104,-2.855 v -2.481 z"
       id="path648"
       inkscape:connector-curvature="0"
       style="fill:#ffffff" /><path
       d="m 655.528,86.698 c 0.77,-0.609 1.861,-0.914 3.275,-0.914 0.252,0 0.568,0.015 0.945,0.042 0.168,0.015 0.287,0.021 0.357,0.021 0,-0.532 -0.012,-0.945 -0.031,-1.239 -0.021,-0.294 -0.084,-0.56 -0.189,-0.798 -0.105,-0.238 -0.281,-0.424 -0.525,-0.557 -0.244,-0.133 -0.578,-0.199 -0.998,-0.199 -0.559,0 -1.096,0.094 -1.605,0.283 -0.512,0.188 -0.971,0.459 -1.375,0.809 -0.084,-0.406 -0.176,-0.728 -0.273,-0.966 -0.097,-0.238 -0.225,-0.504 -0.379,-0.799 0.504,-0.266 1.057,-0.489 1.66,-0.672 0.602,-0.182 1.35,-0.272 2.246,-0.272 0.756,0 1.373,0.084 1.848,0.252 0.477,0.168 0.84,0.398 1.092,0.692 0.254,0.295 0.422,0.624 0.506,0.987 0.084,0.364 0.125,0.777 0.125,1.239 l -0.021,4.284 c 0,0.686 0.004,1.207 0.012,1.564 0.006,0.356 0.018,0.738 0.031,1.145 0.027,0.364 0.07,0.634 0.125,0.809 0.057,0.175 0.154,0.367 0.295,0.577 -0.084,0 -0.203,-0.007 -0.357,-0.021 -0.293,-0.028 -0.525,-0.043 -0.693,-0.043 -0.309,0 -0.672,0.015 -1.092,0.043 -0.07,0 -0.168,0.007 -0.293,0.021 -0.029,-0.266 -0.047,-0.557 -0.053,-0.871 -0.008,-0.315 -0.012,-0.767 -0.012,-1.354 -0.154,0.322 -0.293,0.598 -0.42,0.829 -0.125,0.231 -0.301,0.462 -0.523,0.693 -0.225,0.23 -0.508,0.42 -0.852,0.566 -0.344,0.147 -0.738,0.221 -1.186,0.221 -0.168,0 -0.357,-0.014 -0.568,-0.042 -0.209,-0.028 -0.426,-0.091 -0.65,-0.189 -0.547,-0.266 -0.945,-0.686 -1.197,-1.26 -0.252,-0.573 -0.377,-1.225 -0.377,-1.953 -0.003,-1.343 0.382,-2.32 1.152,-2.928 z m 3.507,0.346 c -0.268,0 -0.537,0.021 -0.809,0.063 -0.273,0.042 -0.547,0.133 -0.82,0.272 -0.273,0.141 -0.496,0.357 -0.672,0.651 -0.176,0.294 -0.262,0.672 -0.262,1.134 0,0.616 0.111,1.117 0.336,1.502 0.223,0.385 0.623,0.577 1.197,0.577 0.32,0 0.641,-0.095 0.955,-0.283 0.314,-0.189 0.57,-0.501 0.766,-0.935 0.154,-0.322 0.256,-0.689 0.305,-1.103 0.049,-0.414 0.088,-1.012 0.115,-1.796 v -0.084 h -1.111 z"
       id="path650"
       inkscape:connector-curvature="0"
       style="fill:#ffffff" /><path
       d="m 666.994,89.102 c 0,0.896 0.094,1.505 0.283,1.827 0.189,0.322 0.5,0.482 0.934,0.482 0.168,0 0.301,-0.014 0.398,-0.042 0.1,-0.027 0.219,-0.076 0.357,-0.146 l -0.02,0.063 c -0.084,0.448 -0.127,0.826 -0.127,1.134 l 0.043,0.589 c -0.477,0.056 -0.891,0.084 -1.24,0.084 -0.645,0 -1.154,-0.081 -1.533,-0.242 -0.377,-0.16 -0.65,-0.392 -0.818,-0.692 -0.168,-0.302 -0.277,-0.658 -0.326,-1.071 -0.049,-0.413 -0.072,-0.97 -0.072,-1.67 l 0.063,-5.774 c -0.336,0 -0.613,0.003 -0.83,0.01 -0.217,0.008 -0.375,0.032 -0.473,0.074 0.014,-0.126 0.021,-0.273 0.021,-0.441 0,-0.168 0.008,-0.314 0.021,-0.44 -0.014,-0.099 -0.021,-0.218 -0.021,-0.357 0,-0.139 -0.008,-0.259 -0.021,-0.357 0.35,0.057 0.672,0.084 0.967,0.084 0.041,0 0.105,-0.007 0.189,-0.021 0.098,0 0.168,0 0.209,0 0,-0.644 -0.008,-1.169 -0.021,-1.575 -0.014,-0.336 -0.037,-0.641 -0.072,-0.913 -0.035,-0.273 -0.082,-0.486 -0.137,-0.641 0.588,-0.056 1.043,-0.126 1.365,-0.21 0.322,-0.084 0.686,-0.224 1.092,-0.42 -0.029,0.196 -0.049,0.367 -0.063,0.515 -0.016,0.146 -0.029,0.346 -0.043,0.598 -0.014,0.252 -0.027,0.599 -0.041,1.04 -0.016,0.44 -0.021,0.977 -0.021,1.606 0.615,0 1.119,-0.028 1.512,-0.084 0,0.098 -0.008,0.23 -0.021,0.399 -0.027,0.294 -0.041,0.511 -0.041,0.65 0.014,0.084 0.02,0.147 0.02,0.189 0.016,0.154 0.029,0.28 0.043,0.378 -0.225,-0.028 -0.447,-0.056 -0.672,-0.084 -0.225,-0.028 -0.42,-0.042 -0.588,-0.042 -0.014,0 -0.063,0.007 -0.146,0.021 -0.043,0 -0.078,0 -0.105,0 z"
       id="path652"
       inkscape:connector-curvature="0"
       style="fill:#ffffff" /><path
       d="m 672.537,86.897 c 0,0.826 0,1.379 0,1.659 0,0.84 0.006,1.501 0.021,1.984 0.014,0.482 0.033,0.875 0.063,1.176 0.027,0.301 0.066,0.543 0.115,0.725 0.049,0.182 0.123,0.364 0.221,0.546 -0.238,-0.042 -0.449,-0.07 -0.631,-0.084 -0.182,-0.014 -0.412,-0.021 -0.693,-0.021 -0.545,0 -1.084,0.035 -1.615,0.105 0.111,-0.224 0.191,-0.448 0.24,-0.672 0.049,-0.224 0.088,-0.651 0.115,-1.281 0.029,-0.462 0.047,-1.061 0.053,-1.795 0.008,-0.735 0.012,-1.488 0.012,-2.258 0,-0.882 -0.008,-1.68 -0.021,-2.395 -0.014,-0.714 -0.043,-1.203 -0.084,-1.47 -0.043,-0.363 -0.105,-0.612 -0.189,-0.745 -0.084,-0.133 -0.209,-0.263 -0.377,-0.389 h -0.021 c 0.854,-0.084 1.467,-0.168 1.838,-0.252 0.369,-0.084 0.758,-0.224 1.164,-0.42 -0.084,0.434 -0.137,0.822 -0.156,1.165 -0.021,0.344 -0.031,0.886 -0.031,1.628 -0.002,0.785 -0.01,1.716 -0.024,2.794 z m -0.22,-6.803 c -0.176,0.252 -0.473,0.378 -0.893,0.378 -0.365,0 -0.65,-0.123 -0.861,-0.368 -0.209,-0.244 -0.314,-0.57 -0.314,-0.977 0,-0.378 0.088,-0.71 0.262,-0.997 0.176,-0.287 0.486,-0.431 0.936,-0.431 0.42,0 0.713,0.126 0.881,0.378 0.168,0.252 0.252,0.574 0.252,0.966 -0.002,0.448 -0.09,0.799 -0.263,1.051 z"
       id="path654"
       inkscape:connector-curvature="0"
       style="fill:#ffffff" /><path
       d="m 682.742,90.908 v 0.147 c 0.014,0.462 0.043,0.836 0.084,1.123 0.043,0.287 0.119,0.557 0.23,0.809 -0.125,-0.014 -0.23,-0.028 -0.314,-0.042 -0.195,-0.014 -0.393,-0.028 -0.588,-0.042 -0.195,-0.014 -0.428,-0.021 -0.693,-0.021 -0.225,0 -0.42,0.008 -0.588,0.021 -0.168,0.013 -0.363,0.042 -0.588,0.084 l 0.021,-0.084 c 0.041,-0.112 0.072,-0.213 0.094,-0.305 0.021,-0.091 0.039,-0.206 0.053,-0.347 0.014,-0.098 0.027,-0.279 0.043,-0.546 0.014,-0.266 0.027,-0.518 0.041,-0.756 0.014,-0.56 0.021,-1.015 0.021,-1.365 v -2.268 c 0,-0.728 -0.004,-1.344 -0.01,-1.848 -0.008,-0.505 -0.025,-0.861 -0.053,-1.071 -0.016,-0.154 -0.039,-0.298 -0.074,-0.431 -0.035,-0.133 -0.098,-0.27 -0.189,-0.409 -0.09,-0.14 -0.227,-0.256 -0.408,-0.347 -0.184,-0.091 -0.414,-0.137 -0.693,-0.137 -0.533,0 -0.932,0.154 -1.197,0.462 -0.266,0.309 -0.449,0.687 -0.547,1.134 -0.041,0.183 -0.072,0.386 -0.094,0.609 -0.021,0.225 -0.039,0.497 -0.053,0.819 -0.014,0.448 -0.021,1.519 -0.021,3.213 v 0.084 c 0.014,0.84 0.021,1.414 0.021,1.722 0,0.309 0.008,0.57 0.021,0.788 0.014,0.217 0.035,0.398 0.063,0.546 0.027,0.146 0.07,0.325 0.127,0.535 -0.477,-0.056 -0.953,-0.084 -1.43,-0.084 -0.238,0 -0.455,0.007 -0.65,0.021 -0.195,0.015 -0.398,0.035 -0.609,0.063 v -0.021 c 0.084,-0.196 0.148,-0.389 0.189,-0.578 0.043,-0.188 0.07,-0.549 0.084,-1.081 0,-0.084 0.008,-0.448 0.021,-1.093 0.027,-1.273 0.041,-2.323 0.041,-3.149 0,-0.938 -0.01,-1.754 -0.031,-2.446 -0.021,-0.693 -0.053,-1.187 -0.094,-1.48 -0.043,-0.364 -0.105,-0.623 -0.189,-0.777 -0.084,-0.154 -0.203,-0.301 -0.357,-0.441 0.756,-0.042 1.32,-0.111 1.691,-0.21 0.371,-0.098 0.73,-0.237 1.082,-0.42 v 2.227 l 0.02,-0.042 c 0.098,-0.252 0.199,-0.479 0.305,-0.683 0.106,-0.204 0.264,-0.413 0.473,-0.63 0.211,-0.217 0.486,-0.396 0.83,-0.536 0.342,-0.14 0.76,-0.21 1.25,-0.21 0.615,0 1.109,0.099 1.48,0.294 0.369,0.196 0.637,0.448 0.797,0.757 0.162,0.308 0.266,0.63 0.314,0.966 0.048,0.336 0.074,0.714 0.074,1.134 v 0.021 z"
       id="path656"
       inkscape:connector-curvature="0"
       style="fill:#ffffff" /><path
       d="m 691.205,81.815 0.273,0.126 c 0.531,0 0.994,-0.028 1.385,-0.084 0.393,-0.056 0.75,-0.126 1.072,-0.21 -0.029,0.238 -0.047,0.444 -0.053,0.619 -0.008,0.176 -0.012,0.438 -0.012,0.788 -0.209,-0.057 -0.426,-0.099 -0.65,-0.126 -0.225,-0.028 -0.574,-0.042 -1.049,-0.042 0.168,0.252 0.307,0.539 0.42,0.86 0.111,0.322 0.168,0.771 0.168,1.345 0,1.105 -0.316,2.005 -0.945,2.698 -0.631,0.692 -1.563,1.039 -2.793,1.039 -0.406,0 -0.777,-0.034 -1.113,-0.104 l -0.336,-0.063 c -0.098,0 -0.287,0.092 -0.566,0.273 -0.281,0.182 -0.42,0.413 -0.42,0.692 0,0.28 0.107,0.483 0.324,0.609 0.217,0.126 0.445,0.21 0.684,0.252 0.139,0.028 0.283,0.053 0.43,0.073 0.146,0.021 0.43,0.046 0.85,0.074 0.252,0.014 0.455,0.027 0.609,0.042 h 0.084 c 0.729,0.056 1.32,0.119 1.775,0.188 0.455,0.07 0.879,0.199 1.27,0.389 0.393,0.188 0.701,0.473 0.924,0.851 0.225,0.378 0.336,0.882 0.336,1.512 0,0.7 -0.135,1.302 -0.408,1.806 -0.273,0.505 -0.654,0.914 -1.145,1.229 -0.49,0.315 -1.047,0.543 -1.67,0.683 -0.623,0.14 -1.305,0.21 -2.047,0.21 -0.658,0 -1.268,-0.063 -1.828,-0.188 -0.699,-0.154 -1.277,-0.431 -1.732,-0.83 -0.455,-0.398 -0.682,-0.906 -0.682,-1.522 0,-0.336 0.072,-0.637 0.221,-0.902 0.146,-0.267 0.336,-0.497 0.566,-0.693 0.23,-0.196 0.463,-0.36 0.693,-0.493 0.23,-0.133 0.492,-0.27 0.787,-0.41 h 0.021 c -0.252,-0.069 -0.477,-0.136 -0.672,-0.199 -0.197,-0.063 -0.393,-0.164 -0.588,-0.305 -0.197,-0.14 -0.361,-0.318 -0.494,-0.535 -0.133,-0.217 -0.199,-0.486 -0.199,-0.809 0,-0.323 0.072,-0.619 0.221,-0.893 0.146,-0.272 0.328,-0.504 0.545,-0.692 0.217,-0.189 0.42,-0.344 0.609,-0.463 0.189,-0.118 0.381,-0.22 0.578,-0.304 -0.014,-0.014 -0.029,-0.021 -0.043,-0.021 -0.182,-0.098 -0.357,-0.21 -0.525,-0.336 -0.168,-0.126 -0.338,-0.301 -0.514,-0.525 -0.176,-0.224 -0.322,-0.521 -0.441,-0.892 -0.119,-0.371 -0.178,-0.802 -0.178,-1.292 0,-0.728 0.123,-1.344 0.367,-1.848 0.244,-0.504 0.57,-0.899 0.977,-1.187 0.407,-0.288 0.84,-0.49 1.303,-0.609 0.461,-0.119 0.938,-0.179 1.428,-0.179 0.797,-0.001 1.525,0.133 2.183,0.398 z m -3.896,10.941 c -0.133,0.099 -0.27,0.234 -0.408,0.41 -0.141,0.175 -0.264,0.378 -0.367,0.608 -0.105,0.231 -0.158,0.473 -0.158,0.725 0,0.63 0.266,1.1 0.799,1.407 0.531,0.308 1.203,0.462 2.016,0.462 0.938,0 1.686,-0.182 2.246,-0.546 0.56,-0.364 0.84,-0.84 0.84,-1.428 0,-0.672 -0.34,-1.11 -1.018,-1.313 -0.68,-0.203 -1.908,-0.36 -3.686,-0.473 -0.043,10e-4 -0.131,0.05 -0.264,0.148 z m -0.147,-6.815 c 0.035,0.245 0.109,0.497 0.221,0.757 0.111,0.259 0.291,0.476 0.535,0.65 0.246,0.176 0.57,0.263 0.977,0.263 0.393,0 0.707,-0.084 0.945,-0.252 0.238,-0.168 0.412,-0.381 0.525,-0.641 0.111,-0.259 0.182,-0.521 0.209,-0.787 0.029,-0.266 0.043,-0.546 0.043,-0.84 0,-0.784 -0.123,-1.397 -0.367,-1.838 -0.246,-0.441 -0.684,-0.661 -1.313,-0.661 -0.672,0 -1.145,0.237 -1.418,0.714 -0.273,0.476 -0.41,1.112 -0.41,1.911 10e-4,0.238 0.018,0.48 0.053,0.724 z"
       id="path658"
       inkscape:connector-curvature="0"
       style="fill:#ffffff" /><path
       d="m 705.276,81.448 c 0.447,0.063 0.896,0.171 1.344,0.325 -0.141,0.28 -0.244,0.55 -0.314,0.809 -0.07,0.259 -0.127,0.634 -0.168,1.123 -0.168,-0.21 -0.361,-0.374 -0.578,-0.493 -0.217,-0.119 -0.434,-0.206 -0.65,-0.263 -0.217,-0.056 -0.398,-0.091 -0.547,-0.104 -0.146,-0.015 -0.283,-0.021 -0.408,-0.021 -0.604,0 -1.055,0.15 -1.355,0.451 -0.301,0.302 -0.451,0.655 -0.451,1.061 0,0.406 0.127,0.739 0.379,0.998 0.252,0.259 0.699,0.577 1.344,0.955 0.531,0.294 0.938,0.529 1.217,0.704 0.281,0.175 0.533,0.367 0.756,0.577 0.504,0.519 0.756,1.184 0.756,1.995 0,1.218 -0.398,2.132 -1.195,2.74 -0.799,0.609 -1.891,0.914 -3.277,0.914 -0.645,0 -1.168,-0.039 -1.574,-0.116 -0.406,-0.077 -0.777,-0.171 -1.113,-0.283 0.168,-0.322 0.295,-0.623 0.379,-0.903 0.084,-0.279 0.152,-0.65 0.209,-1.112 0.195,0.238 0.469,0.448 0.818,0.63 0.349,0.182 0.826,0.272 1.43,0.272 0.656,0 1.176,-0.16 1.553,-0.482 0.379,-0.322 0.566,-0.722 0.566,-1.197 0,-0.224 -0.027,-0.413 -0.084,-0.567 -0.055,-0.153 -0.16,-0.301 -0.314,-0.44 -0.154,-0.139 -0.359,-0.291 -0.619,-0.452 -0.26,-0.16 -0.633,-0.381 -1.123,-0.661 -0.336,-0.21 -0.627,-0.399 -0.871,-0.567 -0.246,-0.168 -0.48,-0.378 -0.705,-0.63 -0.223,-0.252 -0.406,-0.542 -0.545,-0.871 -0.141,-0.329 -0.211,-0.703 -0.211,-1.124 0,-0.951 0.336,-1.749 1.008,-2.394 0.672,-0.644 1.688,-0.966 3.045,-0.966 0.415,-0.003 0.85,0.029 1.298,0.092 z"
       id="path660"
       inkscape:connector-curvature="0"
       style="fill:#ffffff" /><path
       d="m 712.395,88.766 c 0.182,-0.729 0.332,-1.348 0.451,-1.858 0.119,-0.512 0.244,-1.071 0.379,-1.681 0.133,-0.608 0.24,-1.172 0.324,-1.69 0.084,-0.518 0.127,-0.902 0.127,-1.155 0,-0.279 -0.049,-0.553 -0.146,-0.818 0.084,0.014 0.174,0.028 0.271,0.042 0.097,0.014 0.189,0.028 0.273,0.042 0.057,0 0.16,0 0.314,0 0.168,0.014 0.309,0.021 0.42,0.021 0.49,0 0.994,-0.034 1.514,-0.104 -0.184,0.42 -0.344,0.818 -0.484,1.197 -0.139,0.378 -0.283,0.801 -0.43,1.271 -0.146,0.469 -0.322,1.074 -0.525,1.816 -0.203,0.742 -0.459,1.715 -0.766,2.919 -0.016,0.084 -0.029,0.14 -0.043,0.168 -0.461,1.834 -0.746,2.95 -0.85,3.35 -0.105,0.398 -0.18,0.668 -0.221,0.809 -0.043,0.14 -0.098,0.321 -0.168,0.546 v 0.021 c -0.154,0.476 -0.309,0.886 -0.463,1.229 -0.154,0.343 -0.389,0.693 -0.703,1.05 -0.314,0.357 -0.742,0.651 -1.281,0.882 -0.539,0.231 -1.201,0.347 -1.984,0.347 -0.209,0 -0.389,-0.01 -0.535,-0.031 -0.146,-0.021 -0.318,-0.053 -0.514,-0.095 0.139,-0.35 0.244,-0.665 0.314,-0.944 0.07,-0.28 0.119,-0.609 0.146,-0.987 0.168,0.111 0.318,0.188 0.451,0.23 0.133,0.042 0.326,0.063 0.578,0.063 0.434,0 0.801,-0.081 1.102,-0.241 0.301,-0.161 0.539,-0.368 0.715,-0.62 0.176,-0.252 0.305,-0.504 0.389,-0.756 0.084,-0.252 0.154,-0.532 0.209,-0.84 -0.041,0 -0.154,-0.007 -0.336,-0.021 -0.182,0 -0.293,0 -0.336,0 -0.027,0 -0.133,0 -0.314,0 -0.182,0.015 -0.293,0.021 -0.336,0.021 -0.057,-0.378 -0.172,-0.987 -0.346,-1.827 -0.176,-0.84 -0.389,-1.813 -0.641,-2.919 -0.252,-1.105 -0.486,-2.093 -0.705,-2.961 -0.217,-0.868 -0.408,-1.582 -0.576,-2.142 -0.141,-0.42 -0.256,-0.735 -0.348,-0.945 -0.09,-0.21 -0.205,-0.406 -0.346,-0.588 0.295,0.028 0.477,0.042 0.547,0.042 l 0.168,0.021 c 0.168,0.015 0.469,0.021 0.902,0.021 0.377,0 0.662,-0.007 0.85,-0.021 0.189,-0.014 0.432,-0.034 0.725,-0.063 v 0.021 c -0.055,0.099 -0.094,0.193 -0.115,0.284 -0.021,0.091 -0.031,0.22 -0.031,0.388 0,0.126 0.039,0.448 0.115,0.967 0.076,0.518 0.193,1.189 0.348,2.016 0.152,0.826 0.336,1.747 0.545,2.762 0.211,1.015 0.447,2.104 0.715,3.266 z"
       id="path662"
       inkscape:connector-curvature="0"
       style="fill:#ffffff" /><path
       d="m 722.328,81.448 c 0.447,0.063 0.895,0.171 1.344,0.325 -0.141,0.28 -0.246,0.55 -0.316,0.809 -0.07,0.259 -0.125,0.634 -0.168,1.123 -0.168,-0.21 -0.359,-0.374 -0.576,-0.493 -0.217,-0.119 -0.436,-0.206 -0.652,-0.263 -0.217,-0.056 -0.398,-0.091 -0.545,-0.104 -0.146,-0.015 -0.283,-0.021 -0.41,-0.021 -0.602,0 -1.053,0.15 -1.354,0.451 -0.303,0.302 -0.451,0.655 -0.451,1.061 0,0.406 0.125,0.739 0.377,0.998 0.252,0.259 0.699,0.577 1.344,0.955 0.533,0.294 0.938,0.529 1.219,0.704 0.279,0.175 0.531,0.367 0.756,0.577 0.504,0.519 0.756,1.184 0.756,1.995 0,1.218 -0.398,2.132 -1.197,2.74 -0.797,0.609 -1.891,0.914 -3.275,0.914 -0.645,0 -1.17,-0.039 -1.576,-0.116 -0.406,-0.077 -0.775,-0.171 -1.111,-0.283 0.168,-0.322 0.293,-0.623 0.377,-0.903 0.084,-0.279 0.154,-0.65 0.211,-1.112 0.195,0.238 0.469,0.448 0.818,0.63 0.349,0.182 0.826,0.272 1.428,0.272 0.658,0 1.176,-0.16 1.555,-0.482 0.377,-0.322 0.566,-0.722 0.566,-1.197 0,-0.224 -0.027,-0.413 -0.084,-0.567 -0.057,-0.153 -0.162,-0.301 -0.314,-0.44 -0.154,-0.14 -0.361,-0.291 -0.619,-0.452 -0.26,-0.16 -0.635,-0.381 -1.125,-0.661 -0.336,-0.21 -0.627,-0.399 -0.871,-0.567 -0.244,-0.168 -0.48,-0.378 -0.703,-0.63 -0.225,-0.252 -0.406,-0.542 -0.547,-0.871 -0.139,-0.329 -0.209,-0.703 -0.209,-1.124 0,-0.951 0.336,-1.749 1.008,-2.394 0.672,-0.644 1.688,-0.966 3.045,-0.966 0.417,-0.003 0.85,0.029 1.299,0.092 z"
       id="path664"
       inkscape:connector-curvature="0"
       style="fill:#ffffff" /><path
       d="m 727.787,89.102 c 0,0.896 0.094,1.505 0.283,1.827 0.189,0.322 0.5,0.482 0.936,0.482 0.168,0 0.301,-0.014 0.398,-0.042 0.098,-0.027 0.217,-0.076 0.357,-0.146 l -0.021,0.063 c -0.084,0.448 -0.125,0.826 -0.125,1.134 l 0.041,0.589 c -0.477,0.056 -0.889,0.084 -1.238,0.084 -0.645,0 -1.156,-0.081 -1.533,-0.242 -0.379,-0.16 -0.652,-0.392 -0.82,-0.692 -0.168,-0.302 -0.275,-0.658 -0.324,-1.071 -0.049,-0.413 -0.074,-0.97 -0.074,-1.67 l 0.063,-5.774 c -0.336,0 -0.611,0.003 -0.828,0.01 -0.219,0.008 -0.375,0.032 -0.473,0.074 0.014,-0.126 0.021,-0.273 0.021,-0.441 0,-0.168 0.006,-0.314 0.02,-0.44 -0.014,-0.099 -0.02,-0.218 -0.02,-0.357 0,-0.139 -0.008,-0.259 -0.021,-0.357 0.35,0.057 0.672,0.084 0.965,0.084 0.043,0 0.105,-0.007 0.189,-0.021 0.098,0 0.168,0 0.211,0 0,-0.644 -0.008,-1.169 -0.021,-1.575 -0.014,-0.336 -0.039,-0.641 -0.074,-0.913 -0.035,-0.273 -0.08,-0.486 -0.137,-0.641 0.588,-0.056 1.043,-0.126 1.365,-0.21 0.322,-0.084 0.686,-0.224 1.092,-0.42 -0.027,0.196 -0.049,0.367 -0.063,0.515 -0.014,0.146 -0.027,0.346 -0.041,0.598 -0.016,0.252 -0.029,0.599 -0.043,1.04 -0.014,0.44 -0.021,0.977 -0.021,1.606 0.617,0 1.121,-0.028 1.512,-0.084 0,0.098 -0.006,0.23 -0.02,0.399 -0.029,0.294 -0.043,0.511 -0.043,0.65 0.014,0.084 0.021,0.147 0.021,0.189 0.014,0.154 0.027,0.28 0.041,0.378 -0.223,-0.028 -0.447,-0.056 -0.672,-0.084 -0.223,-0.028 -0.42,-0.042 -0.588,-0.042 -0.014,0 -0.063,0.007 -0.146,0.021 -0.041,0 -0.076,0 -0.105,0 z"
       id="path666"
       inkscape:connector-curvature="0"
       style="fill:#ffffff" /><path
       d="m 738.393,87.527 h -5.586 c 0,0.406 0.027,0.813 0.084,1.218 0.055,0.406 0.184,0.826 0.387,1.26 0.203,0.435 0.539,0.799 1.01,1.093 0.469,0.294 1.08,0.44 1.836,0.44 0.547,0 0.984,-0.056 1.313,-0.168 0.33,-0.111 0.648,-0.266 0.957,-0.462 l -0.021,0.063 c -0.057,0.35 -0.102,0.65 -0.137,0.902 -0.035,0.252 -0.053,0.561 -0.053,0.924 -0.014,0 -0.027,0.008 -0.041,0.021 -0.309,0.084 -0.641,0.154 -0.998,0.21 -0.357,0.056 -0.844,0.084 -1.459,0.084 -1.668,0 -2.938,-0.473 -3.813,-1.417 -0.875,-0.945 -1.313,-2.454 -1.313,-4.526 0,-0.489 0.031,-1.015 0.094,-1.574 0.064,-0.561 0.229,-1.166 0.494,-1.816 0.266,-0.651 0.699,-1.208 1.303,-1.67 0.602,-0.462 1.398,-0.693 2.393,-0.693 0.742,0 1.355,0.134 1.838,0.399 0.484,0.266 0.852,0.623 1.104,1.071 0.252,0.448 0.422,0.952 0.514,1.512 0.092,0.56 0.137,1.19 0.137,1.89 z m -2.037,-1.449 c 0,-0.518 -0.021,-0.966 -0.064,-1.344 -0.041,-0.378 -0.119,-0.707 -0.23,-0.987 -0.266,-0.644 -0.742,-0.966 -1.428,-0.966 -0.686,0 -1.184,0.329 -1.49,0.987 -0.127,0.294 -0.221,0.637 -0.285,1.028 -0.063,0.393 -0.094,0.819 -0.094,1.281 h 3.591 z"
       id="path668"
       inkscape:connector-curvature="0"
       style="fill:#ffffff" /><path
       d="m 740.24,86.645 v -0.252 c -0.016,-1.218 -0.029,-1.991 -0.043,-2.32 -0.014,-0.329 -0.041,-0.641 -0.084,-0.935 -0.07,-0.406 -0.16,-0.689 -0.273,-0.851 -0.111,-0.161 -0.266,-0.298 -0.461,-0.41 h -0.021 c 0.672,-0.027 1.221,-0.091 1.648,-0.188 0.427,-0.097 0.844,-0.224 1.25,-0.378 l 0.105,-0.042 v 2.31 c 0.111,-0.252 0.227,-0.486 0.346,-0.703 0.119,-0.217 0.291,-0.441 0.514,-0.672 0.225,-0.231 0.508,-0.42 0.852,-0.567 0.342,-0.146 0.746,-0.221 1.207,-0.221 0.463,0 0.848,0.074 1.154,0.221 0.309,0.147 0.547,0.336 0.715,0.567 0.168,0.23 0.287,0.458 0.357,0.683 0.07,0.224 0.125,0.448 0.168,0.672 0.125,-0.252 0.256,-0.486 0.389,-0.704 0.133,-0.217 0.314,-0.438 0.545,-0.661 0.232,-0.224 0.525,-0.409 0.883,-0.557 0.357,-0.146 0.773,-0.221 1.25,-0.221 0.518,0 0.938,0.07 1.26,0.21 0.322,0.141 0.563,0.34 0.725,0.599 0.16,0.26 0.27,0.561 0.324,0.903 0.057,0.343 0.084,0.745 0.084,1.207 v 2.94 c 0,1.96 0.018,3.321 0.053,4.084 0.035,0.764 0.115,1.306 0.242,1.628 h -0.043 c -0.195,-0.042 -0.398,-0.073 -0.607,-0.095 -0.211,-0.021 -0.463,-0.031 -0.758,-0.031 -0.252,0 -0.469,0.011 -0.65,0.031 -0.182,0.021 -0.42,0.053 -0.713,0.095 0.098,-0.196 0.168,-0.385 0.209,-0.567 0.043,-0.182 0.084,-0.524 0.127,-1.028 v -1.785 -1.323 -2.897 c 0,-0.742 -0.092,-1.288 -0.273,-1.639 -0.182,-0.35 -0.588,-0.524 -1.219,-0.524 -0.393,0 -0.738,0.129 -1.039,0.388 -0.301,0.26 -0.48,0.529 -0.535,0.809 -0.07,0.294 -0.115,0.683 -0.137,1.166 -0.021,0.482 -0.031,1.123 -0.031,1.921 v 2.709 c 0,0.813 0.021,1.425 0.063,1.838 0.043,0.413 0.119,0.725 0.23,0.935 l -0.125,-0.021 c -0.225,-0.028 -0.428,-0.05 -0.609,-0.063 -0.181,-0.013 -0.393,-0.021 -0.631,-0.021 -0.266,0 -0.471,0.008 -0.619,0.021 -0.146,0.014 -0.367,0.035 -0.66,0.063 -0.057,0.014 -0.105,0.021 -0.148,0.021 0.07,-0.14 0.119,-0.259 0.148,-0.357 0.027,-0.098 0.049,-0.237 0.063,-0.42 0,-0.042 0.014,-0.175 0.041,-0.398 0.07,-0.854 0.105,-1.617 0.105,-2.289 v -2.311 c 0,-0.854 -0.018,-1.515 -0.053,-1.984 -0.035,-0.469 -0.102,-0.851 -0.199,-1.145 -0.097,-0.294 -0.244,-0.504 -0.441,-0.63 -0.195,-0.126 -0.461,-0.188 -0.797,-0.188 -0.379,0 -0.688,0.087 -0.924,0.262 -0.238,0.176 -0.418,0.413 -0.537,0.715 -0.119,0.301 -0.195,0.644 -0.23,1.028 -0.035,0.386 -0.053,0.851 -0.053,1.396 v 2.247 c 0,2.366 0.07,3.725 0.211,4.074 -0.225,-0.042 -0.424,-0.073 -0.6,-0.095 -0.174,-0.021 -0.381,-0.031 -0.619,-0.031 -0.447,0 -0.938,0.042 -1.469,0.126 0.098,-0.196 0.168,-0.389 0.209,-0.577 0.043,-0.189 0.084,-0.557 0.127,-1.103 v -2.541 -2.124 z"
       id="path670"
       inkscape:connector-curvature="0"
       style="fill:#ffffff" /></g></svg>